<?xml version="1.0" encoding="UTF-8"?>
<svg id="Laag_2" data-name="Laag 2" xmlns="http://www.w3.org/2000/svg" viewBox="0 0 257.14 123.42">
  <defs>
    <style>
      .cls-1 {
        fill: #27335b;
      }

      .cls-1, .cls-2 {
        stroke-width: 0px;
      }

      .cls-2 {
        fill: #fff;
      }
    </style>
  </defs>
  <g id="Buttons">
    <g>
      <path class="cls-1" d="m115.22,3.58c-6.27-7.4-11.96,1.52-11.71,6.41l11.71-6.41Z"/>
      <path class="cls-2" d="m115.22,3.58c-1.2-.97-2.44-1.86-3.81-2.17-4.5-.72-7.25,4.77-7.9,8.58-.28-1.53-.01-3.16.57-4.64,2.12-5.48,7.73-7.23,11.14-1.78Z"/>
      <path class="cls-1" d="m125.59,17.18l-.45-.06c.68-2.4,1.33-4.81,2-7.2.44-1.58.79-6.4-5.42-7.45l-.05.63c-.38-.91-1.02-1.83-2.03-2.7,0,0-13.47,7.28-16.05,7.79-2.58.52-8.81,17.15-8.29,20.77.52,3.63,3.63,14.03,14.5,28.05,10.87,14.03-1.03,65.44-1.03,65.44l42.98.52s-11.53-45.39-5.18-61.29c6.21-15.59,11.87-40.23-4.14-49.87-1.55-.94-3.29.47-4.88,2.96m-16.31-6.4h-.16c.06-.11.12-.21.18-.32l-.02.32Z"/>
      <path class="cls-1" d="m113.45,14.72c-2.07,6.45-2.07,10.61-2.07,10.61,0,0,14.5,3.12,17.6,15.59"/>
      <path class="cls-2" d="m113.49,14.74c-.44,2.59-.97,5.38-1.36,7.96-.15.88-.33,1.76-.41,2.63l-.28-.35c7.36,2.52,14.62,5.48,17.12,13.62.16.73.35,1.57.47,2.31l-.12.02c-1.54-3.81-3.87-7.05-6.96-9.71-3.13-2.59-6.78-5.11-10.93-5.57-.25-3.78.75-7.54,2.35-10.94l.12.04Z"/>
      <path class="cls-1" d="m121.72,2.47c6.21,1.03,5.86,5.85,5.42,7.45-1.47,5.28-2.88,10.59-4.65,15.81-.51,1.5-1.82,2.73-2.85,2.73"/>
      <path class="cls-2" d="m121.73,2.41c4.89-.02,7.5,4.28,5.34,8.65-1.21,3.72-1.56,7.67-2.83,11.39-.69,1.81-1.09,4.05-2.68,5.35-.53.44-1.23.79-1.92.71v-.12c.62-.13,1.08-.58,1.47-1.03,1.16-1.52,1.24-3.5,1.89-5.29.79-2.47,1.58-4.94,2.52-7.37,1.16-3.3,2.56-7.75-.5-10.43-.91-.79-2.09-1.3-3.31-1.73l.02-.12h-.01Z"/>
      <path class="cls-1" d="m125.36,18.03c.79-2.3.97-13.57,8.23-11.49,11.25,3.22.1,10.78-1.61,22.93-1.44,3.4-7.05,5.27-8.31,1.58-1.26-3.69.69-10.03,1.71-13.02h-.01Z"/>
      <path class="cls-2" d="m125.31,18.01c1.12-6.51,1.76-15.77,10.91-10.9,5.17,2.69,1.02,8.57-.5,12.31-1.46,3.31-2.72,6.69-3.17,10.21-1.29,3.02-5.4,5.4-8.37,3.26-3.34-3.6-.06-10.84,1.14-14.88h-.01Zm.11.04c-1.07,3.09-4.16,15.38,1.87,14.3,1.67-.16,3.7-2.06,4.09-2.96.56-3.67,2.07-7.07,3.79-10.23,1.21-2.37,2.73-4.7,3.13-7.36.11-.86-.04-1.74-.51-2.42-.97-1.36-2.77-1.91-4.42-2.35-1.63-.45-3.28-.11-4.39,1.14-2.33,2.64-2.75,6.52-3.55,9.88Z"/>
      <path class="cls-2" d="m110.38,14.89c1.58.82,3.66-.57,5.07-1.3,4.51-2.56,9.28-8.68,3.99-12.96l.35.04c-2.55,1.39-5.1,2.75-7.68,4.09-2.75,1.36-5.46,2.91-8.47,3.88-.38.17-.69.54-.96.9-2.79,4.15-4.43,9.04-5.9,13.79-.84,2.73-1.42,5.49-.39,8.24,2.85,9.77,8.66,18.22,14.6,26.37,4.79,9.14,3.8,20.18,3.25,30.15-.93,11.58-2.84,23.07-5.25,34.44l-.23-.29,42.98.3-.44.56c-3.98-16.73-7.59-33.87-7.21-51.19.16-3.47.57-6.98,1.82-10.34,2.52-6.36,4.55-12.95,5.61-19.7.99-6.67,1.19-13.73-1.3-20.08-1.26-3.12-3.24-5.95-5.88-8.03-1.18-.79-2.5-2.43-4-1.44-4.2,2.79-9.17,17.18-7.21,21.92,4.44,5.09,9.58-8.94,11.06-11.91.42-.75.59-1.73,1.32-2.26-.73,1.16-1.58,3.36-2.16,4.71-1.5,3.13-5.01,13.14-9.67,10.72-.84-.44-1.41-1.33-1.53-2.25-.5-6.1,1.71-12.14,4.36-17.56,1.15-1.9,2.81-5.06,5.57-4.51,4.16,2.09,7.33,5.93,9.12,10.2,2.67,6.55,2.56,13.81,1.53,20.67-1.07,6.88-3.11,13.54-5.64,19.98-1.16,3.12-1.56,6.53-1.73,9.93-.47,17.16,3.06,34.23,6.79,50.9l.13.57h-.57l-42.98-.74h-.29c3.66-17.01,6.61-34.56,5.18-51.98-.53-5.77-2.09-11.37-6.02-15.73-5.51-7.64-10.7-15.95-12.73-25.29-.42-2.21.39-4.53.93-6.63,1.73-5.1,3.34-10.84,6.95-14.93,5.68-2.2,11.26-5.14,16.71-7.99l.19-.11.16.15c3.46,2.87,2.98,7.12.1,10.16-2.21,2.36-5.06,4.39-8.29,4.96-.46.04-.98.04-1.37-.3l.08-.09h.02Z"/>
      <path class="cls-1" d="m111.02,56.85c-13.9.6-28.47.74-42.37.73-14.17.02-28.33-.85-42.49-.95-7.25-5.48-17.76-13.08-25.27-18.42l-.9-.65.89-.71c6.95-5.65,17.92-14.19,25.04-19.77,11.93-.13,24.96-.02,36.93.17,6.08.09,12.17.18,18.25.35,6.08.15,12.17.34,18.25.6v.24c-6.08.26-12.17.45-18.25.6-11.77.3-24.68.49-36.49.56-6.08.02-12.17.04-18.25-.02l.76-.26c-7.07,5.4-18.13,13.64-25.21,18.89v-1.35c6.92,5.52,18.2,14.21,24.39,19.03,21.18-.16,42.37-.9,63.55-.09l10.59.33c3.53.17,7.06.28,10.59.5v.24-.02Z"/>
      <path class="cls-1" d="m143.22,95.01c29.3-1.45,58.62-1.41,87.95-.78,6.98-5.39,16.83-12.67,24.51-18.83v1.05c-8.47-6.21-16.91-12.45-25.27-18.8l.7.24c-21.4.27-42.81.13-64.22-.38-27.82-.67-28.49-.89,0-1.57,21.53-.51,43.07-.63,64.62-.38,8.38,6.53,16.69,13.17,24.96,19.85l.68.55-.69.5c-8.44,5.96-17.01,12.56-25.28,18.63-21.98.63-43.97,1.22-65.95.72-7.33-.1-14.66-.26-22-.55v-.24h0Z"/>
    </g>
  </g>
</svg>