<svg width="44" height="30" viewBox="0 0 44 30" fill="none" xmlns="http://www.w3.org/2000/svg">
<g clip-path="url(#clip0_627_15073)">
<path d="M0 0.666992H44V30.0003H0V0.666992Z" fill="#012169"/>
<path d="M5.15625 0.666992L21.9312 11.7281L38.6375 0.666992H44V4.45588L27.5 15.3948L44 26.2725V30.0003H38.5L22 19.0614L5.56875 30.0003H0V26.3337L16.4312 15.4559L0 4.5781V0.666992H5.15625Z" fill="#FDFDFD"/>
<path d="M29.15 17.8392L44 27.5559V30.0003L25.3687 17.8392H29.15ZM16.5 19.0614L16.9125 21.2003L3.7125 30.0003H0L16.5 19.0614ZM44 0.666992V0.850326L26.8813 12.3392L27.0188 9.65033L40.5625 0.666992H44ZM0 0.666992L16.4312 11.4225H12.3063L0 3.23366V0.666992Z" fill="#C8102E"/>
<path d="M16.5688 0.666992V30.0003H27.5688V0.666992H16.5688ZM0 10.4448V20.2225H44V10.4448H0Z" fill="#FDFDFD"/>
<path d="M0 12.4614V18.3281H44V12.4614H0ZM18.7688 0.666992V30.0003H25.3687V0.666992H18.7688Z" fill="#C8102E"/>
</g>
<defs>
<clipPath id="clip0_627_15073">
<rect width="44" height="29.3333" fill="white" transform="translate(0 0.666992)"/>
</clipPath>
</defs>
</svg>
