<svg width="44" height="44" viewBox="0 0 44 44" fill="none" xmlns="http://www.w3.org/2000/svg">
<circle cx="22" cy="22" r="22" fill="#062B65"/>
<path d="M32.6668 34V31.3333C32.6668 29.9188 32.1049 28.5623 31.1047 27.5621C30.1045 26.5619 28.748 26 27.3335 26H16.6668C15.2523 26 13.8958 26.5619 12.8956 27.5621C11.8954 28.5623 11.3335 29.9188 11.3335 31.3333V34" stroke="#FDFDFD" stroke-width="2" stroke-linecap="round" stroke-linejoin="round"/>
<path d="M21.9998 20.6667C24.9454 20.6667 27.3332 18.2789 27.3332 15.3333C27.3332 12.3878 24.9454 10 21.9998 10C19.0543 10 16.6665 12.3878 16.6665 15.3333C16.6665 18.2789 19.0543 20.6667 21.9998 20.6667Z" stroke="#FDFDFD" stroke-width="2" stroke-linecap="round" stroke-linejoin="round"/>
</svg>
