<svg width="44" height="44" viewBox="0 0 44 44" fill="none" xmlns="http://www.w3.org/2000/svg">
<circle cx="22" cy="22" r="22" fill="#062B65"/>
<path d="M25.58 26.8L22 24.5L18.42 26.8L19.5 22.68L16.21 20L20.46 19.74L22 15.8L23.54 19.74L27.79 20L24.5 22.68M30 22C30 20.89 30.9 20 32 20V16C32 14.89 31.1 14 30 14H14C13.4696 14 12.9609 14.2107 12.5858 14.5858C12.2107 14.9609 12 15.4696 12 16V20C13.11 20 14 20.9 14 22C14 22.5304 13.7893 23.0391 13.4142 23.4142C13.0391 23.7893 12.5304 24 12 24V28C12 28.5304 12.2107 29.0391 12.5858 29.4142C12.9609 29.7893 13.4696 30 14 30H30C30.5304 30 31.0391 29.7893 31.4142 29.4142C31.7893 29.0391 32 28.5304 32 28V24C31.4696 24 30.9609 23.7893 30.5858 23.4142C30.2107 23.0391 30 22.5304 30 22Z" fill="#FDFDFD"/>
</svg>
