<svg width="50" height="50" viewBox="0 0 50 50" fill="none" xmlns="http://www.w3.org/2000/svg">
<circle cx="25" cy="25" r="25" fill="#062B65"/>
<path d="M28.58 29.8L25 27.5L21.42 29.8L22.5 25.68L19.21 23L23.46 22.74L25 18.8L26.54 22.74L30.79 23L27.5 25.68M33 25C33 23.89 33.9 23 35 23V19C35 17.89 34.1 17 33 17H17C16.4696 17 15.9609 17.2107 15.5858 17.5858C15.2107 17.9609 15 18.4696 15 19V23C16.11 23 17 23.9 17 25C17 25.5304 16.7893 26.0391 16.4142 26.4142C16.0391 26.7893 15.5304 27 15 27V31C15 31.5304 15.2107 32.0391 15.5858 32.4142C15.9609 32.7893 16.4696 33 17 33H33C33.5304 33 34.0391 32.7893 34.4142 32.4142C34.7893 32.0391 35 31.5304 35 31V27C34.4696 27 33.9609 26.7893 33.5858 26.4142C33.2107 26.0391 33 25.5304 33 25Z" fill="#FDFDFD"/>
</svg>
