<svg width="50" height="50" viewBox="0 0 50 50" fill="none" xmlns="http://www.w3.org/2000/svg">
<circle cx="25" cy="25" r="25" fill="#062B65"/>
<path d="M29.4225 32.1L24.5 28.9375L19.5775 32.1L21.0625 26.435L16.5387 22.75L22.3825 22.3925L24.5 16.975L26.6175 22.3925L32.4612 22.75L27.9375 26.435M35.5 25.5C35.5 23.9738 36.7375 22.75 38.25 22.75V17.25C38.25 15.7238 37.0125 14.5 35.5 14.5H13.5C12.7707 14.5 12.0712 14.7897 11.5555 15.3055C11.0397 15.8212 10.75 16.5207 10.75 17.25V22.75C12.2762 22.75 13.5 23.9875 13.5 25.5C13.5 26.2293 13.2103 26.9288 12.6945 27.4445C12.1788 27.9603 11.4793 28.25 10.75 28.25V33.75C10.75 34.4793 11.0397 35.1788 11.5555 35.6945C12.0712 36.2103 12.7707 36.5 13.5 36.5H35.5C36.2293 36.5 36.9288 36.2103 37.4445 35.6945C37.9603 35.1788 38.25 34.4793 38.25 33.75V28.25C37.5207 28.25 36.8212 27.9603 36.3055 27.4445C35.7897 26.9288 35.5 26.2293 35.5 25.5Z" fill="#FDFDFD"/>
</svg>
