<svg width="50" height="50" viewBox="0 0 50 50" fill="none" xmlns="http://www.w3.org/2000/svg">
<circle cx="25" cy="25" r="25" fill="#062B65"/>
<path d="M30.0718 31.8003L25.0002 28.542L19.9285 31.8003L21.4585 25.9637L16.7977 22.167L22.8185 21.7987L25.0002 16.217L27.1818 21.7987L33.2027 22.167L28.5418 25.9637M36.3335 25.0003C36.3335 23.4278 37.6085 22.167 39.1668 22.167V16.5003C39.1668 14.9278 37.8918 13.667 36.3335 13.667H13.6668C12.9154 13.667 12.1947 13.9655 11.6634 14.4969C11.132 15.0282 10.8335 15.7489 10.8335 16.5003V22.167C12.406 22.167 13.6668 23.442 13.6668 25.0003C13.6668 25.7518 13.3683 26.4724 12.837 27.0038C12.3056 27.5351 11.5849 27.8337 10.8335 27.8337V33.5003C10.8335 34.2518 11.132 34.9724 11.6634 35.5038C12.1947 36.0351 12.9154 36.3337 13.6668 36.3337H36.3335C37.0849 36.3337 37.8056 36.0351 38.337 35.5038C38.8683 34.9724 39.1668 34.2518 39.1668 33.5003V27.8337C38.4154 27.8337 37.6947 27.5351 37.1634 27.0038C36.632 26.4724 36.3335 25.7518 36.3335 25.0003Z" fill="#FDFDFD"/>
</svg>
