<svg width="32" height="31" viewBox="0 0 32 31" fill="none" xmlns="http://www.w3.org/2000/svg">
<g clip-path="url(#clip0_208_3978)">
<path d="M12.245 23.5972C12.5604 22.7812 13.1808 22.3898 13.9129 22.1111C15.6821 21.4385 17.4429 20.7431 19.2104 20.0643C21.0717 19.3497 22.91 19.4353 24.7142 20.2731C25.7744 20.7658 26.8252 21.2777 27.8752 21.7914C28.0933 21.898 28.2663 21.8875 28.5058 21.8115C28.7939 21.7198 29.162 21.6997 29.4399 21.8045C30.0901 22.05 30.7123 22.3776 31.3353 22.6938C31.9565 23.0092 32.1671 23.6242 31.8628 24.2725C30.9151 26.2914 29.9589 28.305 28.9942 30.3152C28.6814 30.9669 28.1078 31.1617 27.4559 30.8638C26.8465 30.5852 26.244 30.2934 25.6397 30.0042C25.2358 29.8103 24.9741 29.4984 24.9724 29.0266C24.9716 28.7838 24.8599 28.7017 24.6614 28.6422C23.8355 28.395 23.0131 28.3775 22.1881 28.6405C20.3055 29.2398 18.4238 29.8408 16.5395 30.4331C14.9322 30.9381 13.3657 30.8036 11.8649 30.0365C8.2966 28.2124 4.73593 26.3744 1.17355 24.5398C0.206259 24.0418 -0.227533 23.0232 0.118478 22.0727C0.484942 21.0637 1.46161 20.5937 2.55248 20.8977C5.76799 21.794 8.9835 22.6886 12.2459 23.5972H12.245ZM21.8311 20.792C21.0939 20.9484 20.4862 21.0314 19.9084 21.2105C19.1908 21.4332 18.4962 21.7346 17.7923 22.0063C16.571 22.4772 15.3472 22.9437 14.1319 23.4294C13.82 23.5544 13.4433 23.7046 13.4944 24.1397C13.5447 24.5642 13.9427 24.6079 14.2563 24.6219C14.8052 24.6472 15.3591 24.6219 15.908 24.5817C16.9554 24.5066 18.0002 24.4009 19.0476 24.3196C19.4414 24.2891 19.7354 24.5372 19.7729 24.8971C19.8121 25.264 19.5828 25.5436 19.1857 25.61C19.1013 25.6239 19.017 25.6362 18.9326 25.6431C17.5605 25.7585 16.1901 25.9131 14.8154 25.9734C13.9572 26.0109 13.1126 25.8616 12.5016 25.1076C12.4129 24.9984 12.2399 24.9425 12.095 24.9023C8.82499 23.9912 5.55408 23.0861 2.28232 22.1802C1.77353 22.0395 1.45309 22.1548 1.31929 22.5226C1.1923 22.8712 1.35338 23.17 1.80762 23.4032C5.3325 25.216 8.85737 27.0261 12.3822 28.8388C13.6495 29.4905 14.9535 29.5831 16.3051 29.1446C18.1025 28.561 19.9075 28.0036 21.7058 27.4209C22.7941 27.0689 23.8833 27.0409 24.9724 27.3799C25.3329 27.4917 25.5204 27.3843 25.6738 27.0453C26.1979 25.8843 26.7366 24.7302 27.282 23.5797C27.4524 23.2198 27.4039 22.9909 27.0289 22.817C26.059 22.368 25.119 21.8447 24.1296 21.4498C23.3608 21.1432 22.5342 20.9868 21.8302 20.7903L21.8311 20.792ZM29.0478 23.038C28.1138 25.008 27.2061 26.9239 26.2832 28.8703C26.8465 29.1358 27.3664 29.3813 27.9041 29.6347C28.8348 27.6708 29.7433 25.755 30.6645 23.8112C30.1097 23.5456 29.601 23.3019 29.0478 23.0372V23.038Z" fill="#062B65"/>
<path d="M5.57287 9.40533C5.53111 4.32355 9.63978 0.041117 14.5956 5.73325e-05C19.6485 -0.0410023 23.8305 4.11738 23.8722 9.22624C23.9157 14.4784 19.8803 18.746 14.8385 18.7792C9.73438 18.8132 5.61463 14.6461 5.57202 9.40446L5.57287 9.40533ZM8.57959 14.3735C12.4922 10.8415 16.4049 7.30954 20.3175 3.77754C18.0139 1.10692 13.1664 0.122363 9.60569 3.26211C6.04246 6.40361 6.19416 11.5212 8.57959 14.3727V14.3735ZM21.1476 4.76822C17.2324 8.30284 13.3402 11.8165 9.44461 15.3336C12.061 17.9117 16.6759 18.428 19.9613 15.4245C23.2203 12.4464 23.2748 7.73761 21.1476 4.76822Z" fill="#062B65"/>
<path d="M21.8318 20.792C22.5366 20.9886 23.3624 21.1449 24.1311 21.4516C25.1206 21.8456 26.0606 22.3689 27.0305 22.8188C27.4055 22.9926 27.454 23.2215 27.2836 23.5814C26.7373 24.732 26.1987 25.886 25.6754 27.047C25.5229 27.386 25.3345 27.4934 24.974 27.3816C23.8848 27.0427 22.7957 27.0706 21.7074 27.4227C19.9091 28.0045 18.1041 28.5627 16.3067 29.1463C14.9542 29.5857 13.6511 29.4931 12.3838 28.8405C8.85897 27.0287 5.33409 25.2177 1.80922 23.405C1.35583 23.1717 1.1939 22.8729 1.32089 22.5244C1.45469 22.1566 1.77513 22.0404 2.28392 22.1819C5.55568 23.0878 8.82658 23.9929 12.0966 24.9041C12.2415 24.9443 12.4145 25.0002 12.5032 25.1094C13.1142 25.8624 13.9579 26.0118 14.817 25.9751C16.1917 25.9148 17.5621 25.7602 18.9342 25.6449C19.0194 25.6379 19.1038 25.6257 19.1873 25.6117C19.5844 25.5444 19.8128 25.2657 19.7745 24.8988C19.7361 24.5389 19.443 24.2908 19.0492 24.3214C18.0027 24.4026 16.957 24.5083 15.9096 24.5835C15.3599 24.6228 14.8068 24.649 14.2579 24.6236C13.9451 24.6097 13.5463 24.566 13.496 24.1414C13.4449 23.7063 13.8216 23.5552 14.1335 23.4312C15.3488 22.9446 16.5726 22.4789 17.7939 22.0081C18.497 21.7364 19.1916 21.435 19.91 21.2122C20.4887 21.0322 21.0955 20.9492 21.8326 20.7937L21.8318 20.792Z" fill="#F6F8FC"/>
<path d="M29.0486 23.0378C29.6017 23.3025 30.1114 23.5463 30.6653 23.8119C29.744 25.7556 28.8364 27.6706 27.9049 29.6353C27.3663 29.382 26.8464 29.1365 26.2839 28.8709C27.2069 26.9245 28.1146 25.0087 29.0486 23.0387V23.0378ZM29.5071 23.783C29.4423 23.7804 29.3776 23.7778 29.3128 23.7743C29.1875 23.9525 28.989 24.1176 28.9549 24.3124C28.9063 24.5911 29.1253 24.8156 29.3895 24.7658C29.5574 24.7344 29.7943 24.5011 29.8071 24.3413C29.8216 24.1648 29.6162 23.97 29.5071 23.783Z" fill="#F6F8FC"/>
<path d="M8.57943 14.3736C6.194 11.5221 6.0423 6.40454 9.60553 3.26304C13.1662 0.123288 18.0137 1.10697 20.3174 3.77847C16.4047 7.31047 12.4921 10.8425 8.57943 14.3745V14.3736ZM13.9843 3.82826C13.7125 3.85797 13.4185 3.88854 13.1244 3.92174C11.7694 4.072 10.8703 4.77263 10.612 5.96686C10.5038 6.47006 10.4697 7.01082 10.5132 7.5245C10.6274 8.85064 11.4157 9.65786 12.6531 9.76531C12.8381 9.78103 13.0759 9.70503 13.2182 9.58447C13.8633 9.03759 14.4786 8.45402 15.1161 7.89666C15.3283 7.71145 15.4229 7.51227 15.411 7.22136C15.3888 6.67885 15.405 6.13459 15.405 5.57898C16.0442 5.60693 16.4746 5.86028 16.7584 6.40454C17.2476 5.96162 17.7112 5.54228 18.1902 5.10897C17.4905 4.11131 16.4303 4.03007 15.4715 3.85622C15.2644 3.45174 15.711 2.76858 14.9133 2.75285C14.6653 2.74848 14.2835 2.72053 14.1949 2.85943C14.0346 3.11016 14.0491 3.47795 13.9852 3.82739L13.9843 3.82826Z" fill="#F6F8FC"/>
<path d="M21.1476 4.76807C23.2748 7.73746 23.2202 12.4453 19.9613 15.4243C16.675 18.4278 12.061 17.9106 9.44458 15.3335C13.3402 11.8163 17.2324 8.30356 21.1476 4.76807ZM14.1225 13.0813C13.6905 12.9948 13.4169 12.9311 13.1399 12.8883C13.0257 12.8708 12.8663 12.8507 12.7922 12.9127C12.3567 13.2796 11.9399 13.6701 11.4866 14.0807C12.2808 14.6477 13.1766 14.6442 14.0518 14.7962C14.0518 15.0845 14.0561 15.344 14.051 15.6043C14.0441 15.9572 14.2487 16.063 14.5453 16.0446C14.7822 16.0298 15.1725 16.063 15.2245 15.9476C15.3805 15.5999 15.4052 15.1902 15.4861 14.777C15.7759 14.7429 16.098 14.7097 16.4193 14.6669C17.8307 14.4782 18.6701 13.7776 18.9565 12.5257C19.1209 11.8067 19.1175 11.0808 18.9147 10.3679C18.717 9.67338 18.2985 9.16232 17.6423 8.87927C17.5375 8.83384 17.3602 8.79802 17.2929 8.85393C16.8284 9.24182 16.3844 9.65591 15.9054 10.0866C17.1079 10.4788 17.4429 11.0065 17.2008 12.0347C17.0355 12.7363 16.271 13.1451 15.3839 12.9634V10.6073C14.5649 11.2424 13.7092 11.7639 14.1234 13.0813H14.1225Z" fill="#F6F8FC"/>
<path d="M29.5073 23.7831C29.6172 23.9701 29.8226 24.1658 29.8073 24.3414C29.7936 24.5013 29.5576 24.7345 29.3897 24.766C29.1255 24.8149 28.9065 24.5912 28.955 24.3126C28.9891 24.1177 29.1877 23.9526 29.313 23.7744C29.3777 23.777 29.4425 23.7797 29.5073 23.7831Z" fill="#062B65"/>
<path d="M13.9846 3.82817C14.0485 3.47873 14.034 3.11094 14.1942 2.86021C14.2828 2.72131 14.6638 2.74839 14.9126 2.75363C15.7103 2.76936 15.2638 3.45165 15.4709 3.857C16.4296 4.03085 17.4898 4.11209 18.1895 5.10976C17.7114 5.54219 17.2469 5.9624 16.7577 6.40532C16.474 5.86019 16.0436 5.60771 15.4044 5.57976C15.4044 6.1345 15.389 6.67876 15.4104 7.22214C15.4223 7.51305 15.3277 7.71224 15.1155 7.89744C14.478 8.45393 13.8635 9.03837 13.2175 9.58525C13.0744 9.70581 12.8374 9.78269 12.6525 9.76609C11.415 9.65863 10.6259 8.85142 10.5125 7.52528C10.4682 7.0116 10.5023 6.47084 10.6114 5.96764C10.8696 4.77342 11.7687 4.07278 13.1238 3.92252C13.4178 3.8902 13.7118 3.85875 13.9837 3.82905L13.9846 3.82817ZM14.0263 5.5387C12.8332 5.49676 12.2647 5.98424 12.2528 7.03257C12.2426 7.93413 12.7087 8.25999 14.0263 8.25649V5.53957V5.5387Z" fill="#062B65"/>
<path d="M14.1224 13.0814C13.7074 11.764 14.563 11.2424 15.3829 10.6073V12.9634C16.2709 13.1443 17.0354 12.7354 17.1999 12.0348C17.4419 11.0066 17.107 10.4789 15.9045 10.0867C16.3834 9.65597 16.8275 9.24188 17.2919 8.85399C17.3593 8.79808 17.5365 8.8339 17.6413 8.87933C18.2984 9.16238 18.716 9.67344 18.9137 10.368C19.1166 11.0808 19.12 11.8068 18.9555 12.5258C18.6683 13.7777 17.8297 14.4783 16.4184 14.667C16.0971 14.7098 15.7758 14.743 15.4852 14.7771C15.4042 15.1894 15.3803 15.6 15.2235 15.9477C15.1715 16.063 14.7812 16.0298 14.5443 16.0447C14.2486 16.0639 14.0432 15.9573 14.05 15.6044C14.0551 15.3449 14.0508 15.0846 14.0508 14.7963C13.1764 14.6443 12.2807 14.6478 11.4856 14.0808C11.939 13.6702 12.3557 13.2797 12.7912 12.9128C12.8654 12.8508 13.0239 12.8708 13.1389 12.8883C13.4159 12.9311 13.6895 12.9949 14.1216 13.0814H14.1224Z" fill="#062B65"/>
<path d="M14.0261 5.53876V8.25568C12.7086 8.26005 12.2424 7.93332 12.2526 7.03176C12.2645 5.98343 12.833 5.49596 14.0261 5.53789V5.53876Z" fill="#F6F8FC"/>
</g>
<defs>
<clipPath id="clip0_208_3978">
<rect width="32" height="31" fill="white"/>
</clipPath>
</defs>
</svg>
