<svg width="50" height="50" viewBox="0 0 50 50" fill="none" xmlns="http://www.w3.org/2000/svg">
<circle cx="25" cy="25" r="25" fill="#062B65"/>
<path d="M38.3334 31.5605V35.5605C38.3349 35.9318 38.2589 36.2993 38.1101 36.6396C37.9613 36.9798 37.7431 37.2852 37.4695 37.5363C37.1959 37.7873 36.8728 37.9784 36.5211 38.0974C36.1693 38.2164 35.7966 38.2605 35.4267 38.2271C31.3239 37.7813 27.3827 36.3793 23.9201 34.1338C20.6985 32.0867 17.9672 29.3554 15.9201 26.1338C13.6667 22.6554 12.2644 18.6951 11.8267 14.5738C11.7934 14.2051 11.8372 13.8335 11.9554 13.4826C12.0736 13.1318 12.2635 12.8094 12.5131 12.5359C12.7627 12.2625 13.0665 12.0441 13.4051 11.8945C13.7438 11.7449 14.1099 11.6675 14.4801 11.6671H18.4801C19.1271 11.6608 19.7545 11.8899 20.2451 12.3118C20.7357 12.7338 21.0562 13.3197 21.1467 13.9605C21.3156 15.2405 21.6287 16.4974 22.0801 17.7071C22.2595 18.1844 22.2983 18.703 22.1919 19.2016C22.0856 19.7002 21.8386 20.1579 21.4801 20.5205L19.7867 22.2138C21.6848 25.5518 24.4487 28.3157 27.7867 30.2138L29.4801 28.5205C29.8426 28.162 30.3003 27.9149 30.7989 27.8086C31.2975 27.7022 31.8162 27.7411 32.2934 27.9205C33.5031 28.3719 34.76 28.685 36.0401 28.8538C36.6878 28.9452 37.2793 29.2714 37.7021 29.7704C38.125 30.2695 38.3496 30.9066 38.3334 31.5605Z" fill="#F9F9F9" stroke="#FDFDFD" stroke-width="2" stroke-linecap="round" stroke-linejoin="round"/>
</svg>
