<svg width="36" height="23" viewBox="0 0 36 23" fill="none" xmlns="http://www.w3.org/2000/svg">
<path d="M0 7.07712C0.110472 6.90451 0.220943 6.7388 0.32451 6.56619C0.994244 5.43386 2.18181 4.92292 3.36938 5.24053C4.66052 5.59266 5.45453 6.62833 5.43382 7.93327C5.41311 9.19679 4.626 10.191 3.36248 10.5363C2.18181 10.8608 0.98734 10.336 0.317606 9.2106C0.220943 9.03799 0.110472 8.87228 0 8.69967C0 8.16112 0 7.62257 0 7.07712Z" fill="#062B65"/>
<path d="M32.5479 10.5362C32.6238 11.3924 32.7412 12.0897 32.7412 12.794C32.7619 15.9424 32.7481 19.084 32.7481 22.3015H29.5306V14.6375H23.1371C23.0542 13.7537 22.9852 12.939 22.8885 12.1312C22.8885 12.1104 22.564 12.1312 22.2947 12.1312C22.2947 13.1806 22.2602 14.1956 22.3224 15.2037C22.3362 15.466 22.6262 15.7629 22.8609 15.9562C24.2832 17.1507 25.7332 18.3107 27.1693 19.4913C27.9978 20.1749 28.1636 21.1346 27.5836 21.8458C27.0036 22.5638 26.0301 22.5983 25.1946 21.9148C23.5721 20.5891 21.9771 19.2152 20.327 17.924C19.4432 17.2336 18.953 16.4534 19.1049 15.3141C19.1325 15.1139 19.0842 14.9068 19.0704 14.6651H9.48004C9.48004 15.6248 9.48004 16.5707 9.48004 17.5097C9.48004 17.9309 9.50076 18.3521 9.44552 18.7664C9.32124 19.6916 8.65841 20.2439 7.79535 20.1956C6.95991 20.1473 6.33851 19.4982 6.31779 18.5799C6.29018 17.2957 6.31779 16.0115 6.31779 14.672H4.1705V22.2807H0.939209V11.565h5.31089C6.31089 9.99077 6.31089 8.49941 6.31089 7.00804C6.31089 5.53739 6.88396 4.96432 8.38914 4.95051C9.82527 4.9367 11.2545 4.95051 12.9254 4.95051C11.9795 3.50747 10.6331 4.55695 9.59742 3.98388C10.2119 2.78941 10.8126 1.56732 11.4823 0.379746C11.6066 0.165707 12.0347 0.0138089 12.3247 0.0138089C17.2338 0 22.1498 0.0138089 27.0726 0C27.701 0 27.9633 0.338319 28.1843 0.84925C29.0197 2.83083 29.8966 4.79861 30.7182 6.7871C30.9184 7.27041 31.1463 7.47755 31.6917 7.44993C32.5893 7.4016 33.4869 7.42231 34.3914 7.44302C35.3649 7.46374 36.0001 8.09204 36.0001 8.98963C36.0001 9.86649 35.4202 10.4741 34.4742 10.5293C33.8183 10.5638 33.1624 10.5362 32.5548 10.5362H32.5479ZM13.2016 1.51898C14.3201 4.63981 15.3696 7.58802 16.4605 10.5155C16.5295 10.7019 16.9852 10.8331 17.2683 10.8331C19.816 10.8607 22.3569 10.8469 24.9046 10.8469C26.8172 10.8469 28.7228 10.8469 30.6561 10.8469C30.6423 10.695 30.6561 10.5984 30.6215 10.5224C29.4064 7.66397 28.205 4.80551 26.9484 1.96087C26.8517 1.73302 26.4029 1.5397 26.1198 1.53279C24.1175 1.49827 22.1083 1.51208 20.0991 1.51208C17.8552 1.51208 15.6181 1.51208 13.2016 1.51208V1.51898ZM9.47314 10.6467C9.50766 11.0264 9.52838 11.275 9.54909 11.5512H15.0589C15.1141 11.489 15.1624 11.4269 15.2177 11.3717C14.9553 11.13 14.6998 10.695 14.4306 10.6812C12.8287 10.6122 11.22 10.6467 9.47314 10.6467Z" fill="#062B65"/>
<path d="M13.2017 1.51884C15.6113 1.51884 17.8553 1.51884 20.0992 1.51884C22.1084 1.51884 24.1107 1.50503 26.1199 1.53955C26.4099 1.53955 26.8518 1.73978 26.9485 1.96763C28.2051 4.80537 29.4065 7.67073 30.6216 10.5292C30.6562 10.6051 30.6424 10.7018 30.6562 10.8537C28.7229 10.8537 26.8173 10.8537 24.9047 10.8537C22.357 10.8537 19.8161 10.8606 17.2684 10.8399C16.9922 10.8399 16.5296 10.7087 16.4606 10.5223C15.3628 7.59478 14.3202 4.64657 13.2017 1.52575V1.51884ZM26.907 5.88937C26.5273 4.92965 26.2373 4.12183 25.8921 3.33472C25.8161 3.16211 25.5607 2.96878 25.3812 2.96188C23.8345 2.93426 22.2879 2.94807 20.5894 2.94807C20.9761 3.89398 21.3075 4.74323 21.6804 5.57867C21.7494 5.72367 21.998 5.87556 22.1637 5.87556C23.6827 5.89628 25.2016 5.88937 26.907 5.88937ZM28.3708 9.56946C28.2741 8.69259 27.8391 8.49926 27.0797 8.51307C24.4145 8.5614 21.7494 8.53379 19.0774 8.53379C18.5802 8.53379 18.09 8.53379 17.4962 8.53379C17.6481 8.96877 17.7586 9.26566 17.8691 9.57636H28.3708V9.56946ZM16.8679 6.6972C16.9025 7.53264 17.2408 7.7812 17.9657 7.77429C20.8932 7.73287 23.8276 7.76049 26.762 7.75358C27.0106 7.75358 27.2661 7.71215 27.5146 7.69144C27.563 7.60859 27.6113 7.52573 27.6665 7.44288C27.3696 7.19432 27.0727 6.73862 26.7759 6.73172C23.4893 6.68339 20.2028 6.6972 16.8817 6.6972H16.8679ZM20.2097 4.01136C19.9059 3.56257 19.7195 3.02402 19.4985 3.01021C18.1315 2.93426 16.7575 2.96878 15.3904 2.96878C15.349 3.05854 15.3144 3.1483 15.273 3.23806C15.5423 3.50043 15.7977 3.96303 16.0808 3.97683C17.3789 4.05969 18.6838 4.01136 20.2028 4.01136H20.2097ZM21.0106 5.86866C20.6102 5.39916 20.3892 4.88132 20.1338 4.86751C18.815 4.78466 17.4893 4.82608 16.1637 4.82608C16.1153 4.92275 16.067 5.01941 16.0187 5.11607C16.3087 5.36463 16.5918 5.81342 16.8956 5.83414C18.166 5.91699 19.4433 5.86866 21.0106 5.86866Z" fill="white"/>
<path d="M9.4729 10.6468C11.2128 10.6468 12.8216 10.6123 14.4303 10.6813C14.6996 10.6951 14.9551 11.1301 15.2174 11.3718C15.1622 11.4339 15.1139 11.4961 15.0586 11.5513H9.54885C9.52814 11.2751 9.50742 11.0266 9.4729 10.6468Z" fill="white"/>
<path d="M26.9067 5.88934C25.2013 5.88934 23.6823 5.89624 22.1633 5.87553C21.9976 5.87553 21.7422 5.72363 21.68 5.57864C21.3072 4.7501 20.9758 3.90085 20.5891 2.94803C22.2876 2.94803 23.8342 2.93422 25.3808 2.96184C25.5603 2.96184 25.8158 3.16207 25.8917 3.33468C26.237 4.11489 26.5339 4.92271 26.9067 5.88934Z" fill="#062B65"/>
<path d="M28.3706 9.56956H17.8689C17.7585 9.26576 17.6549 8.96196 17.4961 8.52698C18.0899 8.52698 18.587 8.52698 19.0772 8.52698C21.7423 8.52698 24.4075 8.5546 27.0795 8.50627C27.839 8.49246 28.274 8.69269 28.3706 9.56265V9.56956Z" fill="#062B65"/>
<path d="M16.8676 6.69741C20.1886 6.69741 23.4821 6.67669 26.7617 6.73193C27.0655 6.73193 27.3555 7.19453 27.6524 7.44309C27.604 7.52594 27.5557 7.6088 27.5005 7.69165C27.2519 7.71237 26.9964 7.75379 26.7479 7.75379C23.8135 7.75379 20.886 7.73308 17.9516 7.77451C17.2266 7.78141 16.8952 7.53285 16.8538 6.69741H16.8676Z" fill="#062B65"/>
<path d="M20.2093 4.01143C18.6834 4.01143 17.3854 4.05976 16.0874 3.97691C15.8043 3.95619 15.5488 3.49359 15.2795 3.23813C15.321 3.14837 15.3555 3.05861 15.3969 2.96885C16.764 2.96885 18.138 2.92743 19.5051 3.01028C19.7191 3.02409 19.9124 3.56264 20.2162 4.01143H20.2093Z" fill="#062B65"/>
<path d="M21.0105 5.86885C19.4432 5.86885 18.1658 5.91718 16.8954 5.83433C16.5916 5.81361 16.3085 5.36482 16.0186 5.11626C16.0669 5.0196 16.1152 4.92294 16.1635 4.82627C17.4892 4.82627 18.8149 4.78485 20.1336 4.8677C20.3891 4.88151 20.6169 5.39935 21.0105 5.86885Z" fill="#062B65"/>
</svg>
