<svg width="36" height="31" viewBox="0 0 36 31" fill="none" xmlns="http://www.w3.org/2000/svg">
<g clip-path="url(#clip0_201_4474)">
<path d="M20.946 21.777C21.8882 22.0495 22.8254 22.3207 23.7618 22.5911C24.3519 22.7618 24.9444 22.9253 25.5312 23.1039C26.0957 23.2753 26.604 23.5357 27.0668 23.8663C27.4966 24.1726 27.8503 24.5334 28.1462 24.94C28.4123 25.3066 28.6065 25.6996 28.7396 26.117C28.8751 26.5431 28.9247 26.977 28.9181 27.4196C28.909 28.0758 28.9181 28.7328 28.9148 29.3891C28.9131 29.7771 28.7478 30.1121 28.4627 30.4083C28.1569 30.726 27.7635 30.9068 27.2999 30.9807C27.2147 30.9943 27.1263 31 27.0395 31C21.0105 31.0008 14.9822 31.0022 8.95315 30.9986C8.50769 30.9986 8.11099 30.8587 7.76635 30.6077C7.45064 30.3775 7.2432 30.0899 7.13989 29.7456C7.10931 29.6452 7.087 29.5397 7.087 29.4364C7.08286 28.674 7.08038 27.9123 7.08617 27.1499C7.08948 26.6607 7.21179 26.1909 7.40601 25.7326C7.5961 25.2858 7.85891 24.8741 8.20603 24.5097C8.42256 24.2823 8.67546 24.0786 8.92671 23.8785C9.2449 23.6253 9.60606 23.418 10.0036 23.2753C10.4639 23.1104 10.9367 22.9719 11.4086 22.8335C12.6003 22.4849 13.7946 22.1421 14.9872 21.7971C15.0087 21.7906 15.0285 21.7813 15.0549 21.7713C14.945 21.7096 14.8343 21.6558 14.7335 21.5905C14.4525 21.4083 14.1657 21.2312 13.8995 21.0332C13.3557 20.628 12.9433 20.1309 12.6251 19.5758C12.3665 19.1239 12.1987 18.6462 12.1012 18.1485C12.0251 17.7611 12.0069 17.371 12.0293 16.9815C12.0532 16.5684 12.14 16.1617 12.2747 15.7629C12.3979 15.3985 12.5607 15.0485 12.7656 14.7136C12.9549 14.4052 13.1747 14.1132 13.4384 13.8486C13.5962 13.6901 13.7582 13.5323 13.9326 13.3874C14.3665 13.0259 14.8607 12.7397 15.4045 12.5159C15.8756 12.3223 16.3699 12.1939 16.8806 12.1093C17.3542 12.0311 17.8327 12.0053 18.3129 12.0261C18.8063 12.0476 19.2964 12.1071 19.7666 12.2463C20.1022 12.3452 20.4361 12.4528 20.7551 12.5848C21.1757 12.7598 21.5551 12.9943 21.908 13.2619C22.3956 13.6313 22.7981 14.0609 23.1246 14.5436C23.4072 14.9617 23.6287 15.405 23.7551 15.8784C23.8337 16.1732 23.9147 16.4708 23.9469 16.7706C23.9799 17.074 23.9725 17.3832 23.9494 17.688C23.9279 17.967 23.8824 18.2467 23.8113 18.5193C23.6494 19.134 23.3642 19.7077 22.9345 20.2177C22.7097 20.4845 22.4568 20.7384 22.1865 20.9708C21.8245 21.2828 21.4113 21.5425 20.9625 21.7562C20.9576 21.7583 20.9551 21.7655 20.9452 21.7784L20.946 21.777ZM18.0013 29.8704C19.3352 29.8704 20.6691 29.8704 22.003 29.8704C23.6576 29.8704 25.313 29.8704 26.9676 29.8704C27.3246 29.8704 27.6164 29.6021 27.6131 29.3116C27.604 28.5937 27.6123 27.8757 27.6081 27.1578C27.6081 27.0251 27.5924 26.8902 27.566 26.759C27.485 26.358 27.3321 25.9793 27.0941 25.6264C26.8428 25.2549 26.5188 24.9408 26.1312 24.6739C25.7312 24.3992 25.2767 24.2235 24.794 24.0858C23.1386 23.6153 21.4882 23.1319 19.8327 22.6606C19.3517 22.5236 18.8492 22.4634 18.3451 22.444C17.9385 22.429 17.5319 22.4376 17.1269 22.4871C16.7393 22.5344 16.3583 22.6011 15.9872 22.708C14.3781 23.1713 12.7706 23.6397 11.1598 24.0987C10.6177 24.2529 10.1185 24.471 9.69201 24.8002C9.2639 25.1315 8.92671 25.5239 8.70026 25.9858C8.50934 26.3752 8.39694 26.7798 8.39364 27.2029C8.38785 27.9001 8.4019 28.598 8.38785 29.2959C8.38207 29.6028 8.6829 29.8725 9.05564 29.8718C12.0375 29.8689 15.0194 29.8704 18.0021 29.8704H18.0013ZM13.2896 17.2225C13.3227 17.4678 13.3466 17.7145 13.3896 17.9584C13.4904 18.5286 13.7566 19.0436 14.1235 19.5191C14.3896 19.8641 14.7194 20.1603 15.0954 20.42C15.5112 20.7062 15.9682 20.9263 16.469 21.0762C16.998 21.2355 17.541 21.318 18.1021 21.2907C18.3228 21.2799 18.5443 21.2677 18.7616 21.2362C19.3228 21.1544 19.8575 21.0031 20.3584 20.7614C20.8493 20.524 21.27 20.2141 21.6253 19.8412C21.9022 19.5507 22.1121 19.2229 22.284 18.8757C22.5452 18.3471 22.651 17.792 22.665 17.2225C22.67 17.0317 22.6378 16.8395 22.6138 16.6487C22.5576 16.2062 22.4055 15.7873 22.1849 15.3871C21.9245 14.9137 21.5716 14.5006 21.1138 14.1541C20.8468 13.9526 20.5584 13.7783 20.2451 13.6391C19.6865 13.3903 19.0939 13.2432 18.4674 13.183C18.0864 13.1464 17.7087 13.1457 17.3327 13.1909C16.8368 13.2504 16.3624 13.3824 15.9153 13.5796C15.355 13.8256 14.8673 14.1527 14.4566 14.5665C14.1508 14.875 13.9029 15.2135 13.7111 15.5857C13.4425 16.1065 13.3111 16.6494 13.2921 17.2211L13.2896 17.2225Z" fill="#062B65"/>
<path d="M15.3459 7.73752C13.812 6.83379 13.0855 5.58794 13.1797 3.99996C13.2392 2.99295 13.664 2.09998 14.4409 1.34473C16.2938 -0.456991 19.4113 -0.295611 21.0377 0.926573C22.2667 1.84967 22.851 3.02595 22.8014 4.43103C22.751 5.8526 21.9931 6.93708 20.6336 7.73752C20.8319 7.79633 21.0138 7.85085 21.1956 7.9032C22.1064 8.16715 23.0196 8.42608 23.9279 8.69719C24.4039 8.83921 24.8296 9.06299 25.2155 9.34558C25.637 9.654 25.9742 10.0205 26.2288 10.4422C26.4337 10.7815 26.566 11.1423 26.637 11.521C26.7089 11.9004 26.6941 12.2827 26.6949 12.6643C26.6957 13.0042 26.685 13.3442 26.6982 13.6842C26.7106 14.0012 26.5883 14.2738 26.3742 14.5183C26.18 14.7407 25.9502 14.9336 25.6436 15.0369C25.194 15.1883 24.8469 15.0778 24.6634 14.6948C24.5353 14.4287 24.7097 14.1002 25.0535 14.0034C25.2982 13.9345 25.4023 13.7997 25.3982 13.5773C25.3899 13.1111 25.3965 12.6456 25.3957 12.1794C25.3949 11.7519 25.2932 11.3438 25.0651 10.963C24.8527 10.6086 24.5543 10.3203 24.1833 10.0815C23.813 9.84335 23.3832 9.73361 22.9593 9.61024C21.8526 9.28749 20.746 8.96473 19.6377 8.64914C19.279 8.54657 18.9121 8.46696 18.5319 8.44544C18.3145 8.43325 18.0963 8.4103 17.8798 8.4146C17.4203 8.42392 16.9649 8.47915 16.5277 8.60395C15.1996 8.98194 13.8739 9.36566 12.5475 9.74939C12.0656 9.88853 11.6565 10.1288 11.3193 10.4566C10.9516 10.8138 10.7309 11.2362 10.6317 11.7053C10.6036 11.8387 10.5912 11.9764 10.5904 12.1127C10.5854 12.6112 10.5929 13.109 10.5863 13.6074C10.5838 13.7903 10.6838 13.9453 10.9135 13.9998C11.1739 14.0607 11.3284 14.2228 11.3681 14.4531C11.4069 14.679 11.2912 14.8562 11.0945 14.9953C10.8689 15.1553 10.6135 15.1431 10.3681 15.0477C9.84409 14.8454 9.49285 14.5018 9.32259 14.0242C9.30111 13.9639 9.28954 13.8994 9.28954 13.8362C9.28706 13.2352 9.27796 12.6341 9.29119 12.0338C9.30193 11.5454 9.41846 11.0727 9.65483 10.6244C9.84905 10.2565 10.1011 9.92511 10.421 9.62889C10.7243 9.34845 11.0681 9.11822 11.454 8.93102C11.9144 8.70723 12.421 8.59319 12.9152 8.44759C13.6905 8.21951 14.4682 7.99573 15.2442 7.7698C15.2723 7.76191 15.3004 7.7533 15.35 7.73896L15.3459 7.73752ZM17.9914 7.24693C18.4493 7.25769 18.8898 7.18453 19.3162 7.04251C19.7013 6.91484 20.0551 6.73983 20.3633 6.50099C20.7369 6.21194 21.0286 5.86982 21.2229 5.46744C21.4039 5.09233 21.5063 4.70214 21.522 4.29547C21.5353 3.95908 21.4749 3.6313 21.3675 3.30854C21.2237 2.87748 20.989 2.49016 20.6443 2.15521C20.2981 1.81954 19.879 1.57138 19.3989 1.40211C18.9856 1.2565 18.5567 1.17761 18.1104 1.16685C17.7054 1.15681 17.3112 1.20271 16.9219 1.30097C16.4261 1.42506 15.9847 1.63378 15.6004 1.92713C15.2145 2.22263 14.9293 2.58341 14.7359 2.99941C14.5822 3.33006 14.488 3.6729 14.4624 4.0265C14.4483 4.22518 14.4723 4.42816 14.4987 4.62683C14.55 5.01988 14.6905 5.38926 14.9112 5.73641C15.2393 6.25067 15.7062 6.64229 16.3095 6.90552C16.8368 7.13575 17.3963 7.26271 17.9922 7.24621L17.9914 7.24693Z" fill="#062B65"/>
<path d="M26.4287 7.6595C25.2824 6.89994 24.7493 5.89365 24.8369 4.66429C24.9055 3.69099 25.3576 2.84608 26.2064 2.19841C27.9527 0.866485 30.4866 1.20646 31.7396 2.39637C33.4412 4.01303 33.1983 6.44449 31.2693 7.66452C31.3015 7.67672 31.3255 7.68748 31.3519 7.69465C32.1197 7.91699 32.8892 8.13575 33.6553 8.36168C34.1181 8.49868 34.5256 8.716 34.8859 9.00505C35.1876 9.24676 35.4305 9.52505 35.6198 9.83706C35.7868 10.1132 35.9049 10.4087 35.9537 10.7185C35.9859 10.9251 35.9917 11.136 35.995 11.3447C36.0008 11.7521 36.0033 12.1595 35.995 12.5669C35.9859 13.0159 35.7396 13.3551 35.3115 13.5933C35.0735 13.726 34.8057 13.7797 34.5198 13.7797C32.5437 13.7776 30.5684 13.779 28.5924 13.7783C28.2783 13.7783 28.0072 13.5696 27.9634 13.2956C27.9196 13.0231 28.1089 12.7534 28.4015 12.6788C28.4742 12.6601 28.5527 12.6508 28.6287 12.6508C30.5775 12.6494 32.5263 12.6494 34.4752 12.6494C34.6512 12.6494 34.6958 12.6114 34.6958 12.4593C34.6958 12.0548 34.69 11.6502 34.6975 11.2457C34.7049 10.796 34.5363 10.4015 34.2206 10.0522C33.9148 9.71369 33.514 9.50282 33.0371 9.38161C32.633 9.27904 32.2379 9.14922 31.8412 9.02657C31.161 8.81642 30.4825 8.60268 29.7717 8.48003C29.5139 8.43556 29.2527 8.40544 28.9916 8.37675C28.4031 8.31291 27.8502 8.43771 27.3064 8.61559C27.1196 8.67656 26.9262 8.72461 26.7328 8.76478C26.3584 8.84152 26.0535 8.60483 26.0022 8.31076C25.965 8.0963 26.0113 7.89763 26.2312 7.75992C26.2874 7.72477 26.3518 7.69823 26.4303 7.65879L26.4287 7.6595ZM26.1345 4.85221C26.1526 4.99638 26.165 5.14126 26.1898 5.28471C26.2419 5.58667 26.3642 5.86855 26.5485 6.12819C26.8237 6.51765 27.1998 6.80957 27.6833 6.99892C28.051 7.1438 28.437 7.2184 28.837 7.22485C29.0387 7.22772 29.2436 7.19616 29.442 7.1603C30.1122 7.04052 30.6618 6.75004 31.0552 6.25801C31.4536 5.76096 31.609 5.20796 31.5404 4.60548C31.5024 4.26837 31.3966 3.95135 31.2065 3.65513C30.9503 3.25706 30.5916 2.94936 30.1213 2.74925C29.6478 2.5477 29.1469 2.45231 28.613 2.49965C28.3444 2.52332 28.0849 2.56994 27.8328 2.65242C27.3527 2.8095 26.9535 3.06484 26.6584 3.42848C26.3138 3.85309 26.1378 4.3279 26.1336 4.85221H26.1345Z" fill="#062B65"/>
<path d="M9.58441 7.67448C9.78028 7.74621 9.92574 7.85021 9.96871 8.02808C10.0555 8.38886 9.85549 8.73457 9.40259 8.77689C9.27779 8.78836 9.13977 8.74461 9.0158 8.70516C8.591 8.56889 8.15958 8.45986 7.70916 8.41253C7.52072 8.39244 7.33146 8.36806 7.14138 8.36304C6.62566 8.35013 6.13474 8.45771 5.64961 8.60116C4.7 8.8816 3.7446 9.14985 2.79417 9.4303C2.28011 9.58235 1.88175 9.86638 1.60571 10.2745C1.39992 10.5793 1.29661 10.9064 1.30323 11.2621C1.31149 11.6545 1.30488 12.0475 1.30488 12.4406C1.30488 12.6184 1.34124 12.6507 1.54207 12.6507C3.47766 12.6507 5.41241 12.6507 7.34799 12.6507C7.60916 12.6507 7.81412 12.7411 7.93974 12.9383C8.06289 13.1313 8.05545 13.335 7.92239 13.5215C7.80916 13.68 7.63395 13.7789 7.41328 13.7789C5.3901 13.7818 3.36691 13.784 1.34455 13.7768C1.02388 13.7754 0.735444 13.657 0.49081 13.4705C0.222209 13.2661 0.0717923 13.0065 0.00732796 12.7059C0.0015427 12.6801 0.00319564 12.6536 0.00319564 12.6271C0.00319564 12.0848 -0.00754841 11.5426 0.0065015 11.0003C0.0147662 10.6675 0.123033 10.3484 0.271797 10.0421C0.430478 9.71504 0.653624 9.42456 0.932969 9.16348C1.35777 8.76613 1.87018 8.49573 2.4611 8.32717C3.19253 8.11917 3.92147 7.90615 4.65124 7.69457C4.6752 7.68739 4.69835 7.67735 4.73223 7.66516C3.79006 7.04689 3.23963 6.24215 3.13963 5.22653C3.03963 4.21091 3.37187 3.30216 4.13304 2.52682C5.64795 0.983313 8.24471 1.05145 9.7373 2.16318C10.7167 2.89262 11.2068 3.82503 11.1853 4.9425C11.1638 6.06857 10.5456 6.94648 9.58358 7.67448H9.58441ZM9.86458 4.85715C9.8464 4.70724 9.83979 4.55519 9.80838 4.40744C9.68441 3.82288 9.36953 3.33444 8.81993 2.96864C8.34306 2.65091 7.79511 2.51319 7.20419 2.48737C6.94137 2.4759 6.68434 2.51822 6.43062 2.57273C6.00581 2.66382 5.62812 2.83309 5.30745 3.09201C5.02811 3.31651 4.80909 3.5783 4.66446 3.886C4.53471 4.15999 4.45041 4.44473 4.44545 4.73952C4.44214 4.95039 4.4595 5.16485 4.50495 5.37213C4.59834 5.79745 4.81901 6.17401 5.15869 6.4939C5.42233 6.74278 5.73887 6.92568 6.10168 7.04618C6.53145 7.18891 6.97608 7.26207 7.43725 7.21329C7.83148 7.17169 8.20504 7.06841 8.55298 6.89842C8.86042 6.74852 9.1158 6.54554 9.32077 6.30239C9.67945 5.87492 9.85962 5.39221 9.86623 4.85858L9.86458 4.85715Z" fill="#062B65"/>
<path d="M17.9757 19.4696C17.5468 19.4853 17.1831 19.6331 16.8955 19.9408C16.6641 20.1882 16.2566 20.2298 15.9897 20.0197C15.7046 19.7945 15.6575 19.5147 15.8765 19.2135C16.0484 18.9768 16.2988 18.8083 16.5773 18.6734C16.8971 18.5185 17.2302 18.393 17.5947 18.337C17.9377 18.2847 18.2782 18.2926 18.6121 18.3779C19.1327 18.5113 19.6162 18.7078 19.9914 19.0629C20.3071 19.3613 20.3667 19.6969 20.0253 20.0111C19.8989 20.1273 19.7129 20.1667 19.5245 20.1395C19.3369 20.1129 19.1889 20.0333 19.0641 19.9006C18.7914 19.6087 18.4236 19.4782 17.9765 19.4703L17.9757 19.4696Z" fill="#062B65"/>
</g>
<defs>
<clipPath id="clip0_201_4474">
<rect width="36" height="31" fill="white"/>
</clipPath>
</defs>
</svg>
