<svg width="38" height="31" viewBox="0 0 38 31" fill="none" xmlns="http://www.w3.org/2000/svg">
<g clip-path="url(#clip0_208_4034)">
<path d="M35.8084 14.394C35.8206 14.6398 35.8525 14.8718 36.0534 15.055C36.2848 15.2672 36.1417 15.4413 35.9667 15.6C36.0976 15.9862 36.3685 16.3389 36.2574 16.7862C36.0169 17.383 35.402 17.7571 35.2848 18.4287C35.1509 18.9615 35.4933 19.6042 34.915 20.0301C33.7324 20.6972 32.8878 21.6284 32.6366 23.0085C32.5316 23.5824 31.9761 23.8664 31.8163 24.4343C31.4617 25.6891 31.6839 26.7592 32.5423 27.7286C33.1221 28.382 33.2119 29.2552 32.7493 29.9207C32.4357 30.3711 31.8528 30.426 31.3947 30.5344C30.9138 30.6489 30.3857 30.7252 29.9428 30.8993C29.2579 31.168 29.0555 30.8916 28.9155 30.3314C28.8166 29.9345 28.4087 29.8017 28.2078 29.5513C27.4514 28.6048 26.2856 28.3285 25.3906 27.6248C24.8504 27.1989 24.3512 26.4829 23.4486 26.7745C23.1914 26.8569 23.0864 26.6081 23.0636 26.4096C22.9662 25.5777 23.0834 24.7457 22.4579 23.9793C22.2143 23.6817 22.4594 22.894 22.779 22.4161C22.9464 22.1658 23.0225 21.9231 23.0179 21.6376C23.0042 20.9812 22.4061 20.6209 21.948 21.0773C21.4229 21.5994 20.5372 21.946 20.7061 22.9703C20.7548 23.2695 20.5128 23.4405 20.2328 23.5779C19.7625 23.8099 19.2389 23.9564 18.863 24.361C18.7336 24.4999 18.5114 24.5839 18.3851 24.4434C17.8144 23.816 17.0717 24.0618 16.3898 24.0084C16.1357 23.9885 15.8617 24.0022 15.7902 23.6725C15.7324 23.4069 15.7932 23.1855 16.0246 23.0008C16.6242 22.523 16.7201 21.8131 16.1402 21.3628C15.7095 21.03 15.8419 20.8178 16.0474 20.4957C16.1966 20.2622 16.3472 20.0194 16.4385 19.7599C16.5633 19.3996 16.4599 19.0653 16.055 18.9951C15.5604 18.9081 15.2301 18.6135 14.9577 18.244C14.7279 17.9311 14.4007 17.7952 14.0978 17.9311C13.5453 18.1799 13.0537 18.096 12.5119 17.9219C12.2167 17.8273 11.8636 17.8548 11.5683 18.0715C11.1269 18.3967 11.06 18.1601 11.0874 17.7448C11.1954 16.1572 9.88656 14.9924 8.36005 15.3344C7.99021 15.4168 7.66452 15.4092 7.34186 15.2199C7.23685 15.1588 7.02378 15.0978 7.08465 14.9909C7.53972 14.1849 6.4013 13.5743 6.83505 12.7591C6.93702 12.5667 6.70569 12.3377 6.50023 12.2156C6.22171 12.0508 6.16388 11.7897 6.16235 11.4981C6.68743 11.0112 7.14097 10.973 7.91868 11.3485C8.7314 11.4554 9.55325 11.4447 10.369 11.5119C10.6141 11.4584 10.7891 11.2203 11.063 11.2401C11.9351 11.3378 12.6991 11.7958 13.5453 11.9851C14.0704 12.2858 14.5726 12.153 15.0414 11.8691C15.3367 11.6905 15.6319 11.5684 15.9652 11.6767C17.2361 12.092 18.4338 11.4508 19.6742 11.4264C19.9375 11.4218 20.1825 11.2234 20.4108 11.0631C21.2266 10.8417 21.9967 10.8829 22.8125 11.2066C23.5856 11.5134 24.4775 11.4401 25.2674 11.808C25.5976 11.9622 25.9142 11.5851 26.2688 11.5638C27.0176 11.5516 27.7558 11.3928 28.5061 11.3928C29.0403 11.3226 29.5897 11.3699 30.0919 11.0753C30.3142 10.944 30.5714 11.0768 30.789 11.2081C30.8955 11.3073 31.0021 11.4065 31.1086 11.5058C31.4967 11.4294 31.6611 11.7973 31.9442 11.9286C32.352 12.1164 32.7371 12.5301 33.2317 12.1088C33.7933 11.6142 34.2743 11.7042 34.7628 12.3942C34.6045 13.3331 35.0779 13.9361 35.8175 14.3986L35.8084 14.394Z" fill="#062B65"/>
<path d="M28.6646 11.8003C27.8503 11.7209 27.0543 11.9438 26.2447 11.9514C25.2691 12.5193 25.2524 12.5224 24.5066 11.7087C24.3498 11.5377 24.1626 11.44 23.9754 11.5072C23.3301 11.7377 22.837 11.3851 22.2891 11.1576C21.5951 10.8706 21.0259 10.9073 20.6119 11.4874C19.8997 11.8385 19.1539 12.0308 18.3534 11.9545C18.2544 11.9453 18.1342 11.924 18.0551 11.9652C17.291 12.3728 16.5331 12.5621 15.7387 12.0278C15.6702 11.982 15.4799 12.0446 15.3916 12.1148C14.7661 12.6155 14.0295 12.5682 13.3005 12.5605C12.9322 11.837 11.7999 11.3133 11.016 11.5057C10.8699 11.6538 10.7254 11.8003 10.5792 11.9484C10.2307 12.0736 9.8822 12.1178 9.60216 11.8171C9.18819 11.3714 8.78639 11.4309 8.32829 11.7576C8.1487 11.8858 7.95693 12.1514 7.66167 11.9499C7.35424 11.1531 6.67393 11.5973 6.15799 11.4935C5.85969 10.6249 5.17938 11.0569 4.63148 11.0416C4.13989 10.8691 3.70917 10.9622 3.27846 11.263C3.00451 11.4538 2.74426 11.7454 2.34399 11.6751C1.92241 11.5316 1.73369 11.1607 1.52061 10.8172C1.4156 10.6478 1.37146 10.3898 1.15839 10.3486C0.188908 10.1638 0.433942 9.37155 0.443073 8.79145C0.450683 8.29684 0.464381 7.87857 0.194996 7.42212C-0.202233 6.74891 0.0123618 6.24972 0.835736 5.78869C2.85841 4.65598 4.88716 3.53396 6.92657 2.43025C7.67233 2.02723 7.71646 2.05929 7.68298 2.89127C7.66015 3.4561 8.09695 3.59807 8.43178 3.84385C8.78639 4.10489 9.1334 4.03162 9.48953 3.81179C10.459 3.21185 11.3326 3.38741 11.9855 4.29571C12.3249 4.76742 13.4299 4.743 14.0143 4.43768C15.0173 3.9156 15.7767 3.14468 16.5422 2.35392C16.8314 2.05471 17.1921 2.03945 17.5985 2.11883C18.5208 2.29744 18.7141 2.0883 18.533 1.20747C18.4721 0.908261 18.3914 0.580049 18.7141 0.380069C19.1569 0.105287 19.1737 0.567836 19.3548 0.769343C19.6759 1.12809 20.7474 1.05176 21.0746 0.66401C21.2055 0.509827 21.3257 0.344958 21.4642 0.198407C21.5875 0.0701756 21.7412 -0.0779014 21.9254 0.0457505C22.1278 0.181615 22.0045 0.358697 21.9147 0.51288C21.5677 1.10824 21.8112 1.29906 22.4139 1.25632C22.5631 1.24563 22.735 1.22121 22.8598 1.28074C23.4549 1.56621 23.7548 1.25937 23.9922 0.76629C24.085 0.572416 24.1581 0.270156 24.4579 0.380069C24.7805 0.499141 24.6801 0.757131 24.5918 1.01817C24.4335 1.49141 24.919 2.42719 25.5126 2.76304C25.7866 2.91875 26.027 3.05461 26.1381 3.37519C26.2507 3.69883 26.5551 3.73241 26.8367 3.70493C27.3633 3.65303 27.9279 3.66524 28.4028 3.46984C28.9492 3.24543 29.1881 3.34466 29.3662 3.87591C29.628 4.65598 30.3524 4.74452 31.0084 4.91397C31.2016 4.96435 31.4193 4.9155 31.6111 4.96893C32.0083 5.08037 32.3355 5.1857 32.0296 5.76427C31.7632 6.26804 31.6247 6.84508 31.4923 7.41907C31.3386 8.07855 31.261 8.78687 30.6066 9.2769C30.0724 9.67686 30.5655 10.3363 30.462 10.8691C30.0252 11.4919 29.2749 11.5042 28.6676 11.7957L28.6646 11.8003Z" fill="#BFBFBF"/>
<path d="M34.9136 20.03C35.0566 19.4102 34.9836 18.8088 34.7644 18.2195C34.8344 17.8089 35.3047 17.8394 35.4949 17.5432C35.6517 17.3005 35.9515 17.154 35.9835 16.8212C36.09 16.412 35.7095 16.0106 35.9652 15.5984C36.3853 15.6518 36.8206 15.6533 37.2208 15.7739C37.6759 15.9113 37.9529 16.3464 37.7596 16.7616C37.4963 17.3265 38.0883 17.6883 37.9879 18.0378C37.892 18.3691 37.0854 18.1188 36.9651 18.795C36.9301 18.9935 36.4218 19.0698 36.2574 19.2942C36.0794 19.5369 35.8328 19.7644 35.8222 20.1384C35.813 20.4422 35.5908 20.4559 35.2621 20.488C34.7111 20.5445 35.0551 20.146 34.9136 20.03Z" fill="#505499"/>
<path d="M35.8084 14.3941C35.3884 14.7025 35.1799 14.2979 34.9181 14.1148C34.5985 13.8919 34.5559 13.3255 33.9943 13.379C33.8969 13.3881 33.7964 13.1103 33.868 13.0828C34.2378 12.9362 34.2667 12.3638 34.7537 12.3897C35.1571 12.3455 35.4751 12.4981 35.606 12.8828C35.7643 13.3499 36.2848 13.3637 36.539 13.6919C36.4142 14.0629 35.8693 13.9743 35.8084 14.3941Z" fill="#505499"/>
<path d="M33.221 12.1041C33.4356 12.6125 33.1312 12.6811 32.7431 12.6598C31.9578 12.617 31.4297 12.1972 31.0979 11.5011C31.8695 11.2767 32.9181 11.5759 33.221 12.1041Z" fill="#062B65"/>
<path d="M2.34381 11.6782C2.60254 11.2996 2.9952 11.0691 3.35895 10.8279C3.81401 10.5256 4.29038 10.4798 4.62977 11.0447C4.52628 11.0905 4.42279 11.1363 4.3193 11.1836C4.01186 10.8981 3.78357 11.1637 3.53397 11.2965C3.20675 11.4706 3.08195 11.9179 2.65428 11.956C2.55079 11.8644 2.44578 11.7713 2.34229 11.6797L2.34381 11.6782Z" fill="#DCDCDC"/>
<path d="M2.6543 11.9529C2.83997 11.5407 3.19307 11.2919 3.55529 11.066C3.81859 10.9011 4.11841 10.7897 4.31931 11.182C3.8262 11.2202 3.51115 11.5469 3.22655 11.8934C3.03478 12.1269 2.88107 12.2628 2.6543 11.9544V11.9529Z" fill="#C2C2C2"/>
<path d="M28.6643 11.8004C29.1711 11.315 29.9108 11.2814 30.4587 10.8738C30.5652 10.9837 30.6733 11.0936 30.7798 11.2035C30.1421 11.1654 29.7008 11.7088 29.095 11.7775C28.9504 11.7943 28.815 11.8783 28.6643 11.8004Z" fill="#DEDEDE"/>
<path d="M20.6118 11.4891C21.003 10.8219 21.4824 10.6662 22.2586 11.0005C22.8126 11.2402 23.3346 11.5577 23.9814 11.37C24.1519 11.3211 24.3771 11.3852 24.4593 11.5364C24.9052 12.3668 25.5521 12.234 26.243 11.9516C25.5201 12.576 25.1944 12.5744 24.4943 11.9547C24.3832 11.857 24.2325 11.686 24.1366 11.7073C23.3011 11.8966 22.6314 11.4173 21.8994 11.1929C21.4185 11.0448 21.0136 11.2631 20.6133 11.4875L20.6118 11.4891Z" fill="#DFDFDF"/>
<path d="M11.0159 11.5088C11.0463 11.4691 11.0691 11.4111 11.1102 11.3943C11.8332 11.0936 13.1299 11.7866 13.3018 12.5636C12.7022 11.8599 11.8712 11.6599 11.0174 11.5088H11.0159Z" fill="#DEDEDE"/>
<path d="M7.66138 11.9514C7.90489 11.8262 8.16058 11.7224 8.38735 11.5728C8.79371 11.3057 9.18028 11.2629 9.5425 11.6217C9.83776 11.9148 10.1954 11.9606 10.579 11.9514C10.305 12.1346 9.98387 12.1942 9.73123 12.0033C9.21985 11.6156 8.745 11.5789 8.2245 11.9591C8.05404 12.0842 7.84858 12.0903 7.6629 11.9514H7.66138Z" fill="#E0E0E0"/>
<path d="M35.9835 16.8228C36.2422 17.3846 35.6456 17.4701 35.4356 17.7555C35.2834 17.9632 34.9927 18.0685 34.7644 18.2196C34.6503 18.0303 34.7066 17.8746 34.8953 17.7968C35.3747 17.5983 35.6502 17.1785 35.9835 16.8213V16.8228Z" fill="#CDCDCD"/>
<path d="M18.5784 10.2829C18.4551 10.8111 18.2283 11.2675 17.6074 11.2645C16.9834 11.2614 16.0702 10.637 16.1265 10.3119C16.2178 9.76842 17.166 8.91202 17.618 8.96392C17.9894 9.00667 18.624 9.87986 18.5784 10.2844V10.2829Z" fill="#DFDFDF"/>
<path d="M18.3805 10.2144C18.3135 10.6265 18.105 11.0143 17.6743 10.9471C17.2421 10.8815 16.6759 10.8189 16.4948 10.3197C16.37 9.97468 17.1355 9.26635 17.5282 9.27399C17.8478 9.28009 18.3866 9.87393 18.3805 10.2128V10.2144Z" fill="#BFBFBF"/>
</g>
<defs>
<clipPath id="clip0_208_4034">
<rect width="38" height="31" fill="white"/>
</clipPath>
</defs>
</svg>
