<svg width="39" height="31" viewBox="0 0 39 31" fill="none" xmlns="http://www.w3.org/2000/svg">
<g clip-path="url(#clip0_208_3967)">
<path d="M6.85487 28.135C6.54765 28.135 6.26528 28.1385 5.98292 28.135C5.58867 28.1297 5.19088 28.1473 4.80196 28.1033C3.63166 27.9694 2.81653 26.7113 3.15395 25.589C3.43276 24.6622 4.18928 24.1036 5.16424 24.1054C5.66681 24.1054 6.16761 24.1054 6.67018 24.1054C6.72346 24.1054 6.77496 24.1054 6.84067 24.1054C6.84599 24.0525 6.8531 24.0103 6.8531 23.9697C6.8531 23.2438 6.8531 22.5196 6.85487 21.7937C6.85487 21.6915 6.82291 21.6545 6.72346 21.6298C4.73803 21.1171 3.106 20.0617 1.84868 18.4513C0.839982 17.1597 0.248616 15.6973 0.0603729 14.0745C-0.120766 12.5275 0.101218 11.0334 0.720999 9.60972C1.4935 7.83542 2.72951 6.45228 4.41304 5.4691C5.40753 4.88942 6.47661 4.52117 7.6185 4.35906C9.91115 4.0331 12.012 4.54055 13.9264 5.81445C15.0221 6.54566 15.8976 7.49007 16.5636 8.62302C16.6985 8.85207 16.679 9.11637 16.521 9.29961C16.2741 9.58681 15.8106 9.54629 15.6135 9.21151C15.0363 8.23362 14.2851 7.41255 13.3439 6.76767C11.8806 5.76687 10.2592 5.29291 8.47802 5.38277C7.30594 5.44267 6.20135 5.75278 5.17489 6.31308C3.89982 7.0073 2.89289 7.98343 2.16123 9.23442C1.65511 10.1013 1.32835 11.0316 1.19693 12.0254C0.912793 14.1644 1.4349 16.0937 2.76148 17.7976C3.96375 19.341 5.55493 20.2767 7.4782 20.6608C7.78543 20.7224 7.97367 20.9374 7.97367 21.251C7.97367 22.3681 7.97367 23.4852 7.97367 24.6005C7.97367 24.9811 7.73571 25.2102 7.34857 25.2102C6.60803 25.2102 5.86749 25.2084 5.12695 25.2102C4.71494 25.2102 4.36509 25.4674 4.24256 25.8462C4.12358 26.2162 4.25677 26.6127 4.58175 26.8488C4.75756 26.9756 4.95824 27.025 5.17312 27.025C5.89412 27.025 6.61513 27.025 7.33613 27.025C7.73926 27.025 7.9719 27.2523 7.9719 27.6522C7.9719 28.0874 7.96835 28.5226 7.9719 28.9579C7.97723 29.3649 8.22762 29.7032 8.60411 29.8265C8.97527 29.9481 9.36596 29.8283 9.60748 29.5164C9.73534 29.3508 9.79927 29.1605 9.7975 28.9508C9.79572 28.5156 9.7975 28.0804 9.7975 27.6452C9.7975 27.2628 10.0301 27.0285 10.4137 27.0267C11.1489 27.025 11.8859 27.0267 12.6211 27.0267C13.0473 27.0267 13.3954 26.7836 13.5233 26.4136C13.7275 25.8198 13.2871 25.2172 12.6407 25.2137C11.9055 25.2102 11.1685 25.2137 10.4333 25.2137C10.0301 25.2137 9.79572 24.9829 9.79572 24.5864C9.79572 23.4799 9.79572 22.3716 9.79572 21.2651C9.79572 20.948 9.97686 20.7277 10.2823 20.6678C11.8486 20.3612 13.209 19.6635 14.3473 18.5499C14.5338 18.3667 14.7113 18.1729 14.8818 17.9755C15.1003 17.7253 15.4661 17.676 15.7041 17.8733C15.9385 18.0689 15.9633 18.4266 15.7485 18.6803C14.9866 19.5842 14.0862 20.3172 13.0349 20.8722C12.408 21.2034 11.7492 21.4501 11.0637 21.6246C10.9465 21.6545 10.911 21.7021 10.911 21.8219C10.9163 22.532 10.9163 23.2438 10.911 23.9539C10.911 24.0737 10.9465 24.1107 11.0672 24.1089C11.5929 24.1036 12.1203 24.1054 12.646 24.1072C13.8003 24.1072 14.7149 25.0322 14.6936 26.1739C14.6741 27.2276 13.7613 28.128 12.6993 28.1385C12.1576 28.1438 11.6178 28.1438 11.0761 28.1385C10.9518 28.1385 10.9021 28.165 10.9092 28.2989C10.9199 28.535 10.9216 28.7728 10.9092 29.0089C10.8684 29.8476 10.4723 30.4696 9.7016 30.815C8.96461 31.1444 8.25249 31.044 7.61317 30.5471C7.09106 30.1419 6.85487 29.5922 6.84244 28.9438C6.83711 28.683 6.84244 28.424 6.84244 28.1421L6.85487 28.135Z" fill="#062B65"/>
<path d="M36.7925 6.43299C37.1495 4.66221 37.5029 2.91258 37.8616 1.12947C36.0715 1.48363 34.3045 1.83426 32.5073 2.19018C32.5571 2.2448 32.589 2.28532 32.6245 2.32056C32.93 2.62538 33.2372 2.9302 33.5445 3.23326C33.8268 3.51341 33.8286 3.84818 33.5498 4.12481C32.7151 4.95117 31.8822 5.7793 31.0493 6.60742C30.7776 6.877 30.5059 6.89991 30.1863 6.68847C29.0426 5.93611 27.7888 5.49034 26.4196 5.3899C25.1925 5.30004 24.0044 5.4921 22.8608 5.95373C21.7668 6.39422 20.8185 7.04263 20.0389 7.91656C19.6926 8.30596 19.412 8.75349 19.1155 9.18341C18.9752 9.38604 18.8029 9.49704 18.5578 9.48471C18.3359 9.47238 18.1849 9.35432 18.1014 9.15346C18.0269 8.97903 18.0375 8.80635 18.1334 8.63897C18.5348 7.94299 19.0284 7.31573 19.6056 6.75543C20.2591 6.12112 20.9961 5.60663 21.8148 5.20314C23.2142 4.51421 24.6935 4.2041 26.2527 4.27106C27.5118 4.32568 28.7034 4.63578 29.8275 5.20137C30.0229 5.30004 30.2147 5.40576 30.4047 5.51324C30.4722 5.552 30.5184 5.56258 30.5823 5.49915C31.1754 4.90536 31.7739 4.31511 32.3688 3.72309C32.3777 3.71428 32.383 3.69842 32.4026 3.66846C32.209 3.47817 32.0119 3.28612 31.8165 3.09406C31.7331 3.01301 31.6496 2.93196 31.5697 2.84739C31.2962 2.55138 31.211 2.2078 31.3335 1.82545C31.456 1.4431 31.7313 1.21405 32.1273 1.13476C33.0152 0.956801 33.9032 0.782367 34.7911 0.60617C35.7696 0.412354 36.7481 0.216776 37.7266 0.024722C38.5169 -0.130331 39.1331 0.479309 38.9751 1.26338C38.6039 3.11697 38.2328 4.96879 37.8581 6.82238C37.6982 7.61174 36.7765 7.92889 36.1656 7.39854C35.9028 7.16949 35.6648 6.91224 35.4162 6.66557C35.3789 6.62857 35.3487 6.58275 35.3079 6.53166C35.2511 6.58099 35.2155 6.61095 35.1818 6.64266C34.6171 7.20297 34.0524 7.76503 33.4841 8.32181C33.4024 8.40286 33.4006 8.45572 33.4574 8.55263C34.3915 10.1261 34.8018 11.8246 34.6881 13.6465C34.5869 15.2622 34.0683 16.7387 33.1502 18.0725C32.3422 19.2478 31.2944 20.164 30.03 20.837C28.968 21.4026 27.8386 21.7321 26.6398 21.8431C25.5956 21.94 24.5656 21.8572 23.5552 21.5929C22.4559 21.3075 21.4436 20.8318 20.5308 20.1534C19.9519 19.7235 19.4262 19.2354 18.9645 18.6822C18.7496 18.4232 18.7727 18.062 19.0142 17.8646C19.2522 17.6708 19.618 17.7254 19.8347 17.9809C20.7244 19.0328 21.8112 19.8151 23.1094 20.2891C24.5479 20.8141 26.0236 20.9199 27.5225 20.5833C29.2326 20.201 30.6622 19.3447 31.7881 18.0109C32.7826 16.8321 33.3651 15.4683 33.5409 13.9372C33.7025 12.5153 33.4787 11.1515 32.8838 9.85296C32.7027 9.45828 32.4683 9.08827 32.2392 8.71825C32.0598 8.42929 32.0722 8.15795 32.312 7.91832C33.152 7.08315 33.992 6.24974 34.8337 5.41457C35.1214 5.12913 35.4588 5.12737 35.7465 5.41105C36.0644 5.72468 36.3805 6.04007 36.6984 6.3537C36.7215 6.3766 36.7481 6.39422 36.7961 6.43122L36.7925 6.43299Z" fill="#062B65"/>
<path d="M8.95918 7.18188C10.3142 7.19069 11.5342 7.63471 12.6104 8.47869C12.8679 8.67955 12.9194 9.04252 12.7311 9.28038C12.5411 9.52177 12.17 9.55349 11.9071 9.34381C9.53634 7.4638 6.32023 8.25845 4.85336 10.4539C4.16964 11.4758 3.92102 12.6105 4.1359 13.8174C4.47687 15.7345 5.60988 17.0066 7.45679 17.6391C8.23995 17.907 9.05153 17.9334 9.86665 17.766C10.1668 17.7043 10.4243 17.8083 10.545 18.0373C10.7191 18.3651 10.5255 18.7615 10.1437 18.8426C9.41203 18.9976 8.67682 19.0152 7.93628 18.8937C6.47118 18.6505 5.25648 17.9651 4.31704 16.8339C3.23021 15.5265 2.78269 14.0113 3.00112 12.3286C3.26395 10.3023 4.35256 8.82404 6.15507 7.86024C7.01992 7.39861 7.95403 7.18541 8.9574 7.18188H8.95918Z" fill="#062B65"/>
<path d="M31.7668 13.1566C31.7384 14.7652 31.1257 16.2083 29.8897 17.3712C29.0621 18.15 28.0712 18.6398 26.9471 18.853C26.1675 19.001 25.3879 18.9957 24.6118 18.8389C24.3738 18.7913 24.2282 18.631 24.1749 18.4019C24.1217 18.1764 24.2105 17.9914 24.3916 17.8557C24.5408 17.7447 24.7112 17.7306 24.8924 17.7641C26.0787 17.9791 27.2081 17.8046 28.2488 17.2038C29.4493 16.5096 30.2129 15.4753 30.5255 14.1292C31.0671 11.8122 29.7885 9.43353 27.5367 8.60893C25.8283 7.98344 24.2442 8.26359 22.7986 9.35072C22.5376 9.54806 22.1735 9.52692 21.9835 9.29258C21.7917 9.05647 21.8326 8.69351 22.0901 8.48912C22.9087 7.83896 23.834 7.40375 24.8746 7.26279C27.201 6.94564 29.1172 7.69095 30.5699 9.53044C31.3868 10.5665 31.7579 11.7681 31.7704 13.1583L31.7668 13.1566Z" fill="#062B65"/>
<path d="M17.3681 11.1868C18.8776 11.1868 20.3888 11.1868 21.8983 11.1868C22.1576 11.1868 22.3547 11.289 22.4666 11.5198C22.5643 11.7206 22.5306 11.9162 22.3903 12.0889C22.2766 12.2281 22.1257 12.2986 21.9445 12.2986C21.7101 12.2986 21.4775 12.2986 21.243 12.2986C18.4318 12.2986 15.6206 12.2986 12.8094 12.2986C12.5288 12.2986 12.3175 12.1682 12.2269 11.9426C12.1026 11.629 12.298 11.2713 12.6318 11.2044C12.7029 11.1903 12.7774 11.1885 12.8503 11.1885C14.3562 11.1885 15.8604 11.1885 17.3663 11.1885L17.3681 11.1868Z" fill="#062B65"/>
<path d="M17.3378 16.0479C15.8229 16.0479 14.3081 16.0479 12.7933 16.0479C12.4577 16.0479 12.2055 15.8259 12.1913 15.5229C12.1771 15.2233 12.4186 14.9608 12.724 14.9432C12.7631 14.9414 12.8022 14.9432 12.8412 14.9432C15.862 14.9432 18.881 14.9432 21.9018 14.9432C22.3067 14.9432 22.5872 15.2568 22.5056 15.6145C22.447 15.8717 22.2214 16.0479 21.9408 16.0479C21.3619 16.0497 20.7812 16.0479 20.2022 16.0479C19.2468 16.0479 18.2932 16.0479 17.3378 16.0479Z" fill="#062B65"/>
</g>
<defs>
<clipPath id="clip0_208_3967">
<rect width="39" height="31" fill="white"/>
</clipPath>
</defs>
</svg>
