<svg width="33" height="31" viewBox="0 0 33 31" fill="none" xmlns="http://www.w3.org/2000/svg">
<path d="M32.9963 23.7696C32.0336 25.9017 31.0782 28.019 30.1192 30.1473C30.0749 30.1289 30.038 30.1141 30.0011 30.0957C28.5183 29.4133 27.0354 28.7272 25.5526 28.0448C24.8665 27.7313 24.1472 27.6538 23.4169 27.8346C21.8602 28.2219 20.311 28.6313 18.7581 29.0149C18.0167 29.1994 17.2752 29.3764 16.5227 29.5055C15.335 29.7084 14.2026 29.5129 13.1255 28.9596C11.2959 28.0227 9.50322 27.0267 7.7548 25.946C5.77768 24.7213 3.86326 23.4155 2.10008 21.8995C1.52465 21.4052 0.967661 20.8851 0.436494 20.3429C-0.0688526 19.8228 -0.138937 19.0223 0.244684 18.4469C0.631993 17.8678 1.20742 17.6649 1.88614 17.7424C2.17754 17.7756 2.44681 17.8862 2.69396 18.0485C4.96617 19.5683 7.2347 21.088 9.50691 22.6077C9.58806 22.6594 9.62126 22.711 9.61388 22.8143C9.57331 23.7512 10.0086 24.4188 10.8016 24.8762C11.3291 25.1787 11.9045 25.2267 12.4984 25.175C13.8669 25.0644 15.2391 24.9758 16.6076 24.8578C18.024 24.7324 19.4405 24.5885 20.8422 24.3119C20.8827 24.3045 20.9233 24.2971 20.9639 24.2861C21.1262 24.2381 21.2258 24.0795 21.1852 23.9246C21.1446 23.766 20.9934 23.6737 20.8237 23.7032C20.4327 23.7733 20.0454 23.8582 19.6507 23.9061C18.6843 24.0279 17.7179 24.1496 16.7514 24.2418C15.453 24.3635 14.1509 24.4557 12.8488 24.5516C12.4689 24.5775 12.0853 24.5996 11.709 24.5627C11.0008 24.4889 10.3811 23.9209 10.241 23.2791C10.1082 22.6557 10.4217 22.0618 11.0119 21.822C11.425 21.6524 11.864 21.586 12.2992 21.5048C13.7083 21.2392 15.1211 20.9736 16.5264 20.6859C17.5814 20.472 18.629 20.2322 19.6766 19.9777C20.2667 19.8338 20.8385 19.6236 21.4213 19.4613C23.391 18.9117 25.1874 19.3174 26.8362 20.483C27.3047 20.815 27.74 21.1913 28.2232 21.4937C28.7027 21.7962 29.2117 22.0581 29.7245 22.2942C30.772 22.7811 31.8344 23.2422 32.8893 23.7143C32.9225 23.7291 32.9557 23.7438 33 23.766L32.9963 23.7696Z" fill="#062B65"/>
<path d="M8.21598 8.56144C8.21598 7.8901 8.21598 7.21877 8.21598 6.54743C8.21598 6.38144 8.13852 6.27816 7.96146 6.22652C7.01347 5.93511 6.06549 5.6474 5.1175 5.35599C4.89987 5.2896 4.67855 5.2232 4.46092 5.15312C4.02197 5.01663 3.7859 4.59982 3.90024 4.16824C4.00721 3.7588 4.44617 3.49322 4.87774 3.60757C5.35726 3.73298 5.82941 3.89159 6.30156 4.03545C7.102 4.2789 7.89506 4.53342 8.69919 4.76212C8.88731 4.81745 9.10126 4.79163 9.30044 4.79163C9.85374 4.79163 10.407 4.77687 10.9603 4.77687C11.2259 4.77687 11.4657 4.72892 11.7091 4.61826C12.7383 4.14242 13.7711 3.67765 14.8039 3.21288C15.0916 3.08378 15.3757 3.08378 15.6486 3.25345C15.8995 3.40838 16.0175 3.64814 16.0064 3.93955C15.9954 4.26415 15.8368 4.5076 15.538 4.64408C14.9884 4.8986 14.4351 5.14574 13.8818 5.39657C13.2215 5.69535 12.5612 5.99413 11.901 6.29291C11.7645 6.35562 11.6907 6.45521 11.6944 6.60276C11.7018 7.32574 11.7091 8.04503 11.7202 8.768C11.7276 9.31761 11.7202 9.86723 11.746 10.4168C11.7645 10.7857 11.8346 11.1509 11.8825 11.5161C12.0633 12.8403 12.2403 14.1645 12.4211 15.4851C12.4616 15.7912 12.5022 16.0974 12.5465 16.4035C12.6129 16.8757 12.3141 17.2777 11.853 17.3405C11.414 17.3995 11.012 17.0786 10.9603 16.6138C10.7796 15.0977 10.6062 13.5817 10.4255 12.0657C10.4218 12.0288 10.4181 11.9882 10.4107 11.9513C10.3812 11.7669 10.2337 11.6415 10.0529 11.6452C9.87588 11.6452 9.73202 11.7816 9.71357 11.9698C9.65824 12.5526 9.6066 13.1317 9.55496 13.7145C9.46643 14.6846 9.38159 15.6547 9.29307 16.6212C9.25618 17.0085 9.01273 17.2851 8.65124 17.3589C8.30819 17.429 7.96146 17.2704 7.78809 16.9568C7.71063 16.8167 7.68112 16.6654 7.69588 16.5031C7.88769 14.5481 8.0795 12.5931 8.26393 10.6345C8.29344 10.3283 8.26024 10.0185 8.25655 9.70861C8.25655 9.32499 8.25655 8.93768 8.25655 8.55406H8.21229L8.21598 8.56144Z" fill="#062B65"/>
<path d="M16.0803 5.01659C16.523 4.61821 16.6779 4.15344 16.5746 3.57063C16.6963 3.59276 16.8033 3.60014 16.9066 3.63334C18.0685 3.98376 19.2304 4.33419 20.385 4.70305C20.669 4.79158 20.9457 4.79896 21.2297 4.79527C21.7719 4.79158 22.3142 4.77682 22.8564 4.78051C23.1441 4.78051 23.406 4.72518 23.6716 4.60346C24.6933 4.12762 25.7188 3.67023 26.7442 3.20545C27.2607 2.97307 27.8213 3.24234 27.9209 3.77351C27.9873 4.13869 27.7992 4.4928 27.4377 4.65879C26.4676 5.09774 25.4975 5.53669 24.5274 5.97564C24.295 6.08261 24.0626 6.18958 23.8302 6.29287C23.679 6.35926 23.6163 6.46992 23.6199 6.63591C23.631 7.62447 23.6384 8.61303 23.6495 9.60159C23.6495 9.6643 23.6716 9.7307 23.6937 9.78972C24.0884 10.793 24.4831 11.8 24.8815 12.8034C24.9552 12.9878 24.922 13.0357 24.7192 13.0357C22.9228 13.0357 21.1227 13.0357 19.3263 13.0357C19.1308 13.0357 19.1013 12.9952 19.1604 12.8107C19.4923 11.7853 19.828 10.7672 20.1452 9.73807C20.2006 9.56102 20.1784 9.35445 20.1747 9.15896C20.1637 8.43229 20.1489 7.70931 20.1379 6.98264C20.1379 6.84616 20.1379 6.70968 20.1379 6.56952C20.1415 6.39246 20.0641 6.2818 19.8944 6.23016C19.164 6.00515 18.4337 5.78383 17.707 5.56251C17.2644 5.42603 16.8254 5.29324 16.3828 5.15676C16.2869 5.12725 16.1984 5.07561 16.0803 5.02397V5.01659Z" fill="#062B65"/>
<path d="M8.14601 2.52682C8.14232 1.56039 8.93169 0.759954 9.90181 0.752576C10.8756 0.748888 11.6687 1.53826 11.6724 2.51945C11.6724 3.48956 10.8904 4.28631 9.92026 4.29369C8.94645 4.29738 8.1497 3.50801 8.14601 2.52682Z" fill="#062B65"/>
<path d="M22.0779 0.781982C22.716 0.833624 23.3247 1.35741 23.5202 2.01031C23.8005 2.95092 23.2693 3.94685 22.3398 4.21982C21.3844 4.50015 20.4106 3.95792 20.134 2.99887C20.1118 2.91772 20.1118 2.8587 20.1709 2.7923C20.2151 2.74066 20.241 2.66689 20.2631 2.5968C20.3627 2.24269 20.4549 1.88858 20.5471 1.53447C20.5619 1.47545 20.584 1.44594 20.6467 1.43119C20.9824 1.34635 21.318 1.24675 21.6537 1.1656C21.8677 1.11396 22.0263 1.01068 22.0816 0.781982H22.0779Z" fill="#062B65"/>
<path d="M10.5583 21.4053C10.2558 21.6008 10.0345 21.8516 9.84267 22.143C7.69956 20.7081 5.56382 19.2769 3.41333 17.8384C3.5535 17.724 3.70473 17.6539 3.86335 17.6097C4.27279 17.4953 4.64903 17.5802 5.00314 17.8015C5.60808 18.1814 6.21671 18.554 6.81428 18.945C8.03153 19.738 9.2451 20.5385 10.4587 21.3352C10.4882 21.3537 10.514 21.3758 10.5583 21.4053Z" fill="#062B65"/>
<path d="M21.2404 13.6407C21.222 13.8436 21.2072 14.0391 21.1888 14.2382C21.115 15.0461 21.0449 15.8576 20.9675 16.6654C20.938 16.9679 20.8236 17.2224 20.5175 17.3404C20.1412 17.4843 19.7797 17.2998 19.658 16.9125C19.5879 16.6949 19.6248 16.4736 19.6433 16.2559C19.7244 15.4223 19.8092 14.585 19.8867 13.7513C19.8941 13.6665 19.9162 13.6333 20.0084 13.6333C20.3847 13.637 20.7646 13.6333 21.1409 13.6333C21.1704 13.6333 21.1999 13.637 21.2404 13.6407Z" fill="#062B65"/>
<path d="M22.5427 13.6407H23.8965C23.9186 13.9357 23.9407 14.2235 23.9629 14.5149C24.0071 15.1272 24.0625 15.7395 24.0956 16.3518C24.1067 16.5621 24.0957 16.7797 24.0514 16.9863C24.0071 17.2113 23.8411 17.333 23.6087 17.3478C23.3579 17.3662 23.1292 17.3256 23.0038 17.0748C22.9522 16.9678 22.9116 16.8461 22.8968 16.7281C22.7751 15.7247 22.6608 14.7214 22.5427 13.7144C22.5427 13.6923 22.5427 13.6702 22.5427 13.637V13.6407Z" fill="#062B65"/>
<path d="M21.5062 0.686091C21.2148 0.763553 20.9123 0.848392 20.5803 0.93692C20.6652 0.612318 20.7463 0.306159 20.8275 0C21.0525 0.232386 21.2775 0.457394 21.5025 0.686091H21.5062Z" fill="#062B65"/>
<path d="M20.0492 1.46804C19.9606 1.80002 19.8795 2.10249 19.7983 2.40496C19.5696 2.17258 19.3483 1.94757 19.1196 1.71518C19.4147 1.63403 19.7172 1.55288 20.0492 1.46436V1.46804Z" fill="#062B65"/>
<path d="M20.2926 0.855713C20.4696 0.855713 20.6061 0.984816 20.6098 1.16187C20.6135 1.33524 20.4807 1.47541 20.3073 1.48279C20.1339 1.48647 19.9901 1.34999 19.9864 1.17663C19.9827 1.00326 20.1229 0.859402 20.2926 0.855713Z" fill="#062B65"/>
</svg>
