<svg width="29" height="32" viewBox="0 0 29 32" fill="none" xmlns="http://www.w3.org/2000/svg">
<path d="M13.1925 22.8271C10.0726 22.3143 7.86478 20.6427 6.78827 17.7342C5.71958 14.8413 6.24414 12.1167 8.19752 9.70926C7.71603 9.24342 7.23844 8.7815 6.77652 8.33523C5.91531 9.18861 5.01104 10.0811 4.12242 10.958C3.6331 10.4804 3.18292 10.0381 2.66619 9.53701C3.5783 8.66406 4.4904 7.79502 5.49645 6.83203C4.21246 5.69679 2.99893 4.62419 1.89893 3.64946V8.48399C1.36263 7.9516 0.932027 7.48968 0.462276 7.07082C0.113877 6.75765 -0.007476 6.41708 0.000353195 5.94733C0.0277554 4.13487 0.012097 2.32241 0.012097 0.509951V0.0441143C0.160852 0.0323705 0.286119 0.0127975 0.407471 0.0127975C2.37651 0.0049683 4.34947 -0.00677549 6.31851 0.0049683C6.51424 0.0049683 6.74912 0.102833 6.89396 0.23593C7.44983 0.740913 7.97439 1.28113 8.46763 1.8918H3.29253C4.43951 3.08967 5.58257 4.28362 6.73738 5.48932C7.6299 4.58505 8.49112 3.70818 9.32884 2.85871C9.82991 3.35586 10.2683 3.79038 10.7303 4.25231C9.87688 5.08612 8.9961 5.95124 8.09183 6.83594C8.66727 7.36441 9.19183 7.84591 9.7477 8.35089C12.8207 6.54235 15.9406 6.54626 18.9431 8.71495C21.1862 6.46797 23.3979 4.25622 25.6331 2.01707H20.5872C20.6733 1.88006 20.7007 1.80177 20.7556 1.74696C21.241 1.25372 21.7264 0.7644 22.2235 0.282905C22.3175 0.192869 22.4662 0.106748 22.5876 0.106748C24.6741 0.0989187 26.7605 0.106748 28.847 0.106748C28.8705 0.106748 28.894 0.122406 28.9605 0.141979C28.9684 0.251588 28.984 0.37294 28.984 0.498208C28.9919 2.46725 29.0075 4.43629 28.9958 6.40534C28.9958 6.59715 28.8901 6.83203 28.757 6.97687C28.2559 7.52491 27.7274 8.04164 27.2068 8.57011L27.105 8.53879V3.37152C24.8385 5.57544 22.5798 7.77153 20.2819 10.0029C22.0865 12.469 22.658 15.131 21.468 17.9377C20.2975 20.7054 18.1289 22.3338 15.1224 22.8271V25.2424H18.8687V27.1684H15.099V31.1965H13.22V27.2036H9.3719V25.2306H13.1847V22.8271H13.1925ZM14.2064 20.7876C17.3577 20.815 19.9961 18.1765 20.0353 14.9587C20.0744 11.7801 17.3929 9.08292 14.1751 9.06335C10.9612 9.03986 8.31887 11.6548 8.29539 14.8765C8.2719 18.2235 10.8046 20.7563 14.2103 20.7876H14.2064Z" fill="#062B65"/>
</svg>
