<svg width="50" height="50" viewBox="0 0 50 50" fill="none" xmlns="http://www.w3.org/2000/svg">
<circle cx="25" cy="25" r="25" fill="#062B65"/>
<path d="M24.5 11C27.55 11 30.4751 12.2141 32.6317 14.3752C34.7884 16.5363 36 19.4673 36 22.5236C36 27.393 32.5854 32.6998 25.8446 38.5006C25.4698 38.8232 24.9919 39.0004 24.4978 39C24.0037 38.9996 23.5261 38.8215 23.1518 38.4982L22.706 38.1106C16.2636 32.461 13 27.2843 13 22.5236C13 19.4673 14.2116 16.5363 16.3683 14.3752C18.5249 12.2141 21.45 11 24.5 11ZM24.5 18.0914C23.3269 18.0914 22.2019 18.5584 21.3724 19.3896C20.5429 20.2208 20.0769 21.3481 20.0769 22.5236C20.0769 23.6991 20.5429 24.8264 21.3724 25.6576C22.2019 26.4888 23.3269 26.9557 24.5 26.9557C25.6731 26.9557 26.7981 26.4888 27.6276 25.6576C28.4571 24.8264 28.9231 23.6991 28.9231 22.5236C28.9231 21.3481 28.4571 20.2208 27.6276 19.3896C26.7981 18.5584 25.6731 18.0914 24.5 18.0914Z" fill="white"/>
</svg>
