<svg width="50" height="50" viewBox="0 0 50 50" fill="none" xmlns="http://www.w3.org/2000/svg">
<circle cx="25" cy="25" r="25" fill="#062B65"/>
<path d="M32.7505 20C32.7505 17.812 31.8813 15.7135 30.3341 14.1664C28.7869 12.6192 26.6885 11.75 24.5005 11.75C22.3125 11.75 20.214 12.6192 18.6669 14.1664C17.1197 15.7135 16.2505 17.812 16.2505 20C16.2505 29.625 12.1255 32.375 12.1255 32.375H36.8755C36.8755 32.375 32.7505 29.625 32.7505 20Z" fill="#FDFDFD" stroke="#FDFDFD" stroke-width="2" stroke-linecap="round" stroke-linejoin="round"/>
<path d="M26.8786 37.876C26.6369 38.2927 26.2899 38.6386 25.8724 38.8791C25.4549 39.1195 24.9816 39.2461 24.4998 39.2461C24.0181 39.2461 23.5448 39.1195 23.1273 38.8791C22.7098 38.6386 22.3628 38.2927 22.1211 37.876" stroke="#FDFDFD" stroke-width="2" stroke-linecap="round" stroke-linejoin="round"/>
</svg>
