<svg width="50" height="50" viewBox="0 0 50 50" fill="none" xmlns="http://www.w3.org/2000/svg">
<circle cx="25" cy="25" r="25" fill="#062B65"/>
<g clip-path="url(#clip0_920_10579)">
<path d="M24.714 16.7602C24.714 18.5412 24.714 20.3222 24.714 22.1017C24.714 22.6005 24.5792 23.06 24.2966 23.4698C23.888 24.0591 23.3271 24.4136 22.6185 24.4967C21.2707 24.6557 20.1925 23.7178 19.9839 22.5407C19.9563 22.3861 19.9476 22.2271 19.9462 22.0696C19.9418 21.5328 19.9447 20.9946 19.9447 20.4578C19.9447 18.213 19.9447 15.9697 19.9447 13.7249C19.9447 12.9504 19.936 12.1758 19.9491 11.4013C19.9636 10.5057 20.3534 9.80415 21.1157 9.34468C22.5214 8.49869 24.3053 9.29655 24.6589 10.8864C24.6995 11.0717 24.7169 11.2598 24.7169 11.4509C24.7169 13.2217 24.7169 14.991 24.7169 16.7617L24.714 16.7602Z" fill="white"/>
<path d="M14 16.7806C14 15.4416 14 14.104 14 12.765C14 12.2997 14.1159 11.8665 14.371 11.4785C14.8434 10.7594 15.5115 10.3817 16.3709 10.3656C17.4853 10.3452 18.5432 11.162 18.7374 12.396C18.7591 12.536 18.7649 12.679 18.7664 12.8219C18.7693 13.1268 18.7664 13.4331 18.7664 13.7394C18.7664 16.0731 18.7664 18.4084 18.7664 20.7421C18.7664 21.1053 18.7099 21.4569 18.5548 21.7865C18.1925 22.5552 17.594 23.0292 16.7607 23.1678C15.4767 23.3808 14.3043 22.5246 14.0464 21.2833C14.0116 21.1126 14 20.9391 14 20.7655C14 19.4381 14 18.1094 14 16.782V16.7806Z" fill="white"/>
<path d="M30.6715 24.9165C30.6715 25.0171 30.6715 25.0842 30.6744 25.1513C30.6773 25.2199 30.6787 25.2884 30.6932 25.3555C30.7381 25.5743 30.8729 25.7187 31.0801 25.796C31.1193 25.8106 31.1584 25.8208 31.2221 25.8398C31.1613 25.866 31.1207 25.8835 31.0801 25.8996C30.2396 26.2161 29.4672 26.6522 28.7759 27.2298C28.4817 27.4763 28.2049 27.7418 27.9586 28.0379C27.9021 28.1064 27.8441 28.175 27.7963 28.2508C27.5905 28.579 27.7398 29.0093 28.1049 29.1289C28.3136 29.1975 28.5078 29.1596 28.6788 29.0152C28.7107 28.9874 28.7397 28.9568 28.7658 28.9233C29.1498 28.4332 29.6164 28.0379 30.1324 27.6995C30.9193 27.1846 31.7772 26.8491 32.7003 26.6828C32.9163 26.6435 33.1351 26.6157 33.3525 26.5895C33.6336 26.5545 33.8394 26.3692 33.8872 26.0921C33.922 25.8908 33.8597 25.7172 33.7191 25.5728C33.6858 25.5393 33.6481 25.5101 33.6119 25.4809C31.4714 23.7131 29.3295 21.9453 27.1891 20.1775C26.7514 19.8172 26.4746 19.3592 26.3572 18.802C26.0964 17.568 26.8514 16.318 28.0774 16C28.8643 15.7943 29.5846 15.9548 30.215 16.474C32.3424 18.2258 34.4654 19.982 36.5914 21.7352C36.7001 21.8242 36.7783 21.9249 36.8363 22.0547C37.2609 23.0057 37.5696 23.9917 37.7754 25.0127C37.8725 25.4985 37.9435 25.9885 37.9812 26.483C38.0203 26.9819 38.0304 27.4822 38 27.9825C37.9638 28.563 37.8855 29.1348 37.7507 29.6992C37.4203 31.082 36.787 32.3087 35.8726 33.391C35.4886 33.8461 35.0654 34.2618 34.6103 34.6439C34.5335 34.7081 34.4669 34.781 34.4089 34.8627C33.9611 35.4957 33.4524 36.0763 32.8887 36.6057C32.8771 36.616 32.867 36.6276 32.8539 36.6378C32.6568 36.7924 32.5858 36.9967 32.5858 37.2475C32.5887 41.0778 32.5887 44.9081 32.5887 48.7399C32.5887 48.8128 32.5887 48.8872 32.5887 48.9499C32.5511 49.0112 32.4931 49.0127 32.4453 49.0272C31.8062 49.2271 31.1584 49.4007 30.5048 49.5465C29.8918 49.6836 29.2744 49.7989 28.6527 49.8835C28.2426 49.9403 27.8325 49.9826 27.4209 50.0249C26.3833 50.13 25.3413 50.1445 24.2994 50.111C23.8704 50.0964 23.4429 50.0643 23.0154 50.0279C22.6299 49.9943 22.2459 49.9476 21.8604 49.8995C21.1851 49.8149 20.517 49.6895 19.8518 49.5392C18.9374 49.3336 18.0374 49.0768 17.152 48.7647C17.152 48.7647 17.0563 48.7282 16.9998 48.7064C16.9998 48.7064 16.994 48.5882 16.994 48.5313C16.994 48.0894 16.994 47.6459 16.994 47.204C16.994 44.4954 16.9868 41.7867 16.9969 39.0795C17.0013 37.9725 16.8274 36.8989 16.4854 35.8502C16.2578 35.1544 15.9839 34.4762 15.7013 33.8023C15.4173 33.1226 15.1304 32.4443 14.8565 31.7617C14.6116 31.1506 14.4101 30.5248 14.2609 29.883C14.1 29.2004 14.013 28.5192 14.0145 27.8249C14.0188 26.4859 14.0145 25.1484 14.0145 23.8094C14.0145 23.7525 14.0145 23.6956 14.0145 23.6373C14.0739 23.6256 14.0985 23.6664 14.129 23.6912C14.4101 23.9232 14.7188 24.1099 15.0565 24.247C16.3144 24.7604 17.794 24.5183 18.8287 23.5454C18.8707 23.506 18.9127 23.4666 18.9577 23.4243C19.0113 23.4652 19.0171 23.5264 19.0374 23.576C19.2968 24.2163 19.704 24.7429 20.2605 25.1469C20.7721 25.5189 21.343 25.7333 21.9705 25.8033C23.198 25.939 24.466 25.4022 25.2283 24.3418C25.2529 24.3082 25.2776 24.2747 25.3051 24.2368C25.366 24.263 25.3863 24.3199 25.4182 24.3637C25.8283 24.9179 26.3514 25.3263 26.992 25.5787C28.1818 26.0469 29.5194 25.8412 30.5178 25.0361C30.5584 25.004 30.599 24.9719 30.6686 24.915L30.6715 24.9165Z" fill="white"/>
<path d="M36.6115 20.0779C36.5724 20.0618 36.5565 20.0589 36.5463 20.0487C34.9798 18.7564 33.4132 17.464 31.8437 16.1688C31.8437 16.1178 31.8437 16.0696 31.8437 16.0229C31.8437 14.9582 31.8437 13.8948 31.8408 12.8301C31.8408 12.5048 31.8799 12.1868 32.006 11.8878C32.3509 11.0637 32.9581 10.5502 33.8364 10.3986C35.1551 10.1696 36.3724 11.0812 36.5811 12.3925C36.6029 12.5267 36.6101 12.6652 36.6101 12.8023C36.6115 15.1784 36.6101 17.5545 36.6101 19.9306V20.0764L36.6115 20.0779Z" fill="white"/>
<path d="M30.6525 15.1885C30.4395 15.0805 30.2467 14.9784 30.0482 14.8851C29.854 14.7932 29.6468 14.7334 29.4366 14.6867C29.2222 14.64 29.0048 14.6079 28.7845 14.605C28.57 14.6006 28.3556 14.6079 28.1425 14.6415C27.9251 14.6765 27.7121 14.7275 27.5034 14.799C27.3005 14.8705 27.1049 14.958 26.918 15.0645C26.7267 15.1739 26.5426 15.2949 26.3789 15.4437C26.2209 15.5867 26.0702 15.7413 25.9093 15.8959C25.9021 15.8784 25.8919 15.8623 25.8905 15.8448C25.8876 15.8025 25.889 15.7602 25.889 15.7179C25.889 14.3964 25.8919 13.0749 25.8919 11.752C25.8919 11.3625 25.9528 10.9862 26.1282 10.6347C26.4962 9.89809 27.0832 9.44009 27.8904 9.3059C29.2569 9.07836 30.4293 10.0425 30.6235 11.2736C30.6424 11.3932 30.654 11.5142 30.6554 11.6353C30.6583 12.7774 30.6569 13.9209 30.6554 15.063C30.6554 15.0995 30.6525 15.136 30.6496 15.187L30.6525 15.1885Z" fill="white"/>
<path d="M29.9134 23.8547C29.854 23.9072 29.812 23.948 29.767 23.983C29.3395 24.3258 28.8526 24.5023 28.3048 24.5125C27.2063 24.5329 26.2165 23.7672 25.9557 22.6718C25.9093 22.4763 25.8904 22.2765 25.8904 22.0766C25.8875 21.5763 25.8904 21.076 25.8904 20.5757C25.8904 20.5451 25.889 20.5145 25.9093 20.4736C25.9354 20.4955 25.9557 20.5101 25.9702 20.5276C26.131 20.7158 26.3136 20.8806 26.5049 21.0381C27.586 21.9279 28.6656 22.8205 29.7453 23.7117C29.7975 23.7555 29.8482 23.7993 29.9148 23.8547H29.9134Z" fill="white"/>
</g>
<defs>
<clipPath id="clip0_920_10579">
<rect width="24" height="41" fill="white" transform="translate(14 9)"/>
</clipPath>
</defs>
</svg>
