<svg width="20" height="31" viewBox="0 0 20 31" fill="none" xmlns="http://www.w3.org/2000/svg">
<g clip-path="url(#clip0_208_4860)">
<path d="M3.39978 17.4705H3.2822C2.70229 17.4705 2.12188 17.4705 1.54197 17.4705C0.655661 17.4705 0.00151564 16.8144 0.00201385 15.9281C0.00251206 13.9339 0.00201385 11.9397 0.00201385 9.94554C0.00201385 9.21521 0.484278 8.61242 1.19073 8.46048C1.28938 8.43955 1.39201 8.42959 1.49315 8.42959C2.38095 8.4271 3.26925 8.42809 4.15706 8.42859C4.1989 8.42859 4.24374 8.42162 4.2821 8.43407C4.41712 8.47891 4.49484 8.41165 4.58601 8.32049C5.72939 7.17418 7.10046 6.78561 8.64689 7.24343C10.1953 7.70225 11.1339 8.78329 11.4872 10.3585C11.5474 10.627 11.5674 10.91 11.5679 11.186C11.5739 13.766 11.5714 16.3461 11.5719 18.9267C11.5719 19.1827 11.5181 19.4258 11.3935 19.6495C11.3611 19.7078 11.3656 19.7491 11.395 19.8049C12.5299 21.9635 13.6633 24.1226 14.7973 26.2817C15.0723 26.8058 15.3478 27.3294 15.6228 27.8535C15.971 28.517 15.982 29.1856 15.6502 29.8586C15.6437 29.8721 15.6377 29.8855 15.6322 29.8995C15.6312 29.902 15.6322 29.905 15.6332 29.9229C15.6651 29.9229 15.699 29.9229 15.7329 29.9229C16.9679 29.9229 18.2025 29.9229 19.4375 29.9229C19.7863 29.9229 20.0319 30.1884 19.997 30.5227C19.9696 30.7842 19.7484 30.9905 19.4854 30.999C19.4525 31 19.4196 30.999 19.3867 30.999C15.2965 30.999 11.2062 30.999 7.1159 30.999C4.93027 30.999 2.74464 30.999 0.559009 30.999C0.156458 30.999 -0.108588 30.6174 0.0443614 30.2552C0.131548 30.0494 0.293963 29.9398 0.516661 29.9239C0.596872 29.9184 0.67808 29.9224 0.758789 29.9224C2.08053 29.9224 3.40177 29.9224 4.72352 29.9224C4.75839 29.9224 4.79376 29.9224 4.8381 29.9224C4.82914 29.8965 4.82565 29.8796 4.81768 29.8646C4.6453 29.5373 4.57356 29.1876 4.57405 28.8189C4.57505 26.0476 4.57405 23.2757 4.57605 20.5044C4.57605 20.4257 4.55761 20.3928 4.4769 20.3704C3.83721 20.1915 3.40177 19.6112 3.40078 18.9451C3.40028 18.4908 3.40078 18.0364 3.40078 17.5816C3.40078 17.5492 3.40078 17.5163 3.40078 17.4695L3.39978 17.4705ZM5.37617 9.05081C5.38812 9.07223 5.39759 9.09067 5.40905 9.1081C5.57545 9.36317 5.65466 9.64464 5.65466 9.94803C5.65516 11.9512 5.65566 13.9544 5.65466 15.957C5.65466 16.6455 5.21624 17.2254 4.55462 17.4147C4.48687 17.4341 4.47541 17.4655 4.47591 17.5268C4.4779 17.9841 4.4769 18.4414 4.4769 18.8993C4.4769 19.1917 4.63882 19.3526 4.93326 19.3526C6.63762 19.3526 8.34149 19.3526 10.0459 19.3526C10.3333 19.3526 10.4947 19.1897 10.4952 18.9008C10.4952 18.1595 10.4952 17.4177 10.4952 16.6764V16.5693C10.4574 16.5867 10.4335 16.5977 10.41 16.6086C9.03549 17.2573 7.49055 16.2913 7.46016 14.8192C7.43426 13.5733 7.45419 12.3258 7.45468 11.0794C7.45468 10.9553 7.49703 10.8447 7.57475 10.7486C7.71973 10.5698 7.95737 10.504 8.17359 10.5812C8.38932 10.6584 8.52981 10.8557 8.52981 11.0908C8.53081 11.871 8.52981 12.6516 8.52981 13.4318C8.52981 13.8742 8.52632 14.3165 8.53081 14.7594C8.53629 15.286 8.9498 15.7144 9.46345 15.7348C10.0394 15.7578 10.4908 15.3189 10.4917 14.731C10.4937 13.5593 10.4942 12.3871 10.4927 11.2154C10.4927 11.0694 10.4848 10.9225 10.4678 10.777C10.2446 8.84307 8.18655 7.62703 6.38254 8.36283C5.99843 8.51976 5.66513 8.7529 5.37517 9.05181L5.37617 9.05081ZM1.07914 12.9525C1.07914 13.9359 1.07914 14.9193 1.07914 15.9027C1.07914 16.2295 1.24305 16.3939 1.56987 16.3934C2.41283 16.3934 3.2558 16.3929 4.09876 16.3924C4.40217 16.3924 4.57206 16.2236 4.57206 15.9217C4.57206 13.9399 4.57206 11.9577 4.57206 9.97593C4.57206 9.67503 4.40118 9.50515 4.09926 9.50465C3.2563 9.50465 2.41333 9.50465 1.57037 9.50465C1.24006 9.50465 1.07963 9.66457 1.07914 9.99286C1.07914 10.9793 1.07914 11.9656 1.07914 12.952V12.9525ZM9.01756 20.4306C9.01756 20.4745 9.01756 20.5069 9.01756 20.5388C9.01756 21.3458 9.01855 22.1533 9.01606 22.9604C9.01606 23.0481 9.03798 23.1208 9.08332 23.195C9.75191 24.289 10.419 25.3845 11.0861 26.4795C11.682 27.4569 12.2743 28.4363 12.8747 29.4113C13.1078 29.7899 13.4591 29.9677 13.901 29.9114C14.6378 29.8178 15.0284 29.0431 14.6812 28.3805C13.5642 26.2498 12.4447 24.1201 11.3267 21.9904C11.0572 21.4773 10.7877 20.9637 10.5177 20.4506C10.4992 20.4157 10.4913 20.3798 10.4285 20.3883C10.2691 20.4102 10.1081 20.4257 9.94721 20.4287C9.64281 20.4346 9.3379 20.4306 9.01756 20.4306ZM5.65317 20.4351V20.5587C5.65317 22.2744 5.65317 23.9901 5.65317 25.7058C5.65317 26.761 5.65217 27.8161 5.65367 28.8712C5.65367 29.2459 5.81509 29.5378 6.12198 29.751C6.39948 29.9438 6.71534 29.9493 7.02872 29.9114C7.57774 29.8452 7.94043 29.4078 7.94093 28.8359C7.94143 26.068 7.94093 23.3001 7.94093 20.5328C7.94093 20.5014 7.93794 20.4695 7.93645 20.4356H5.65317V20.4351ZM11.9186 29.9184C10.9541 28.3362 9.99653 26.7645 9.03898 25.1927C9.032 25.1947 9.02453 25.1962 9.01756 25.1982C9.01756 25.2296 9.01756 25.261 9.01756 25.2924C9.01756 26.482 9.01706 27.6716 9.01756 28.8613C9.01756 29.2085 8.94283 29.5368 8.78489 29.8462C8.77393 29.8681 8.76596 29.8915 8.755 29.9189H11.9181L11.9186 29.9184Z" fill="#062B65"/>
<path d="M11.1251 3.13005C11.1226 4.8647 9.71763 6.26557 7.98238 6.26308C6.25609 6.26009 4.85813 4.85274 4.85962 3.11909C4.86111 1.38892 6.27403 -0.0034807 8.02473 6.53596e-06C9.72461 0.00349377 11.1276 1.41981 11.1251 3.13005ZM10.0479 3.13403C10.0539 2.01612 9.13124 1.08304 8.01277 1.07657C6.86939 1.06959 5.94023 1.98823 5.93674 3.12805C5.93375 4.25742 6.85643 5.18253 7.98886 5.18602C9.11829 5.18901 10.042 4.26888 10.0479 3.13403Z" fill="#062B65"/>
<path d="M5.37607 9.05089C5.66603 8.75198 5.99933 8.51884 6.38344 8.36191C8.18745 7.62561 10.2455 8.84166 10.4687 10.7761C10.4857 10.921 10.4931 11.068 10.4936 11.2145C10.4951 12.3862 10.4941 13.5584 10.4927 14.7301C10.4917 15.3179 10.0403 15.7568 9.46435 15.7339C8.9507 15.7135 8.53719 15.2851 8.53171 14.7585C8.52723 14.3161 8.53071 13.8737 8.53071 13.4309C8.53071 12.6507 8.53121 11.8701 8.53071 11.0899C8.53071 10.8548 8.39022 10.6575 8.1745 10.5803C7.95827 10.5031 7.72063 10.5688 7.57565 10.7477C7.49793 10.8438 7.45558 10.9544 7.45558 11.0785C7.45558 12.3254 7.43516 13.5723 7.46106 14.8183C7.49145 16.2904 9.03639 17.2563 10.4109 16.6077C10.4344 16.5968 10.4578 16.5858 10.4961 16.5684V16.6755C10.4961 17.4168 10.4961 18.1585 10.4961 18.8998C10.4961 19.1888 10.3342 19.3517 10.0468 19.3517C8.34239 19.3517 6.63852 19.3517 4.93416 19.3517C4.63972 19.3517 4.4778 19.1908 4.4778 18.8983C4.4778 18.441 4.4788 17.9837 4.47681 17.5259C4.47681 17.4646 4.48777 17.4332 4.55552 17.4138C5.21764 17.225 5.65556 16.6446 5.65556 15.9561C5.65656 13.9529 5.65606 11.9498 5.65556 9.94711C5.65556 9.64372 5.57635 9.36275 5.40995 9.10718C5.39849 9.08975 5.38952 9.07132 5.37707 9.04989L5.37607 9.05089Z" fill="#F6F8FC"/>
<path d="M1.0791 12.9526C1.0791 11.9662 1.0791 10.9798 1.0791 9.99346C1.0791 9.66516 1.24002 9.50525 1.57033 9.50525C2.4133 9.50525 3.25626 9.50525 4.09923 9.50525C4.40114 9.50525 4.57203 9.67562 4.57203 9.97652C4.57203 11.9583 4.57203 13.9405 4.57203 15.9223C4.57203 16.2241 4.40214 16.393 4.09873 16.393C3.25577 16.393 2.4128 16.394 1.56983 16.394C1.24301 16.394 1.0791 16.2301 1.0791 15.9033C1.0791 14.9199 1.0791 13.9365 1.0791 12.9531V12.9526Z" fill="#F6F8FC"/>
<path d="M9.01762 20.4307C9.33796 20.4307 9.64287 20.4352 9.94727 20.4287C10.1082 20.4257 10.2691 20.4103 10.4285 20.3883C10.4913 20.3799 10.4993 20.4157 10.5177 20.4506C10.7877 20.9637 11.0573 21.4769 11.3268 21.9905C12.4453 24.1207 13.5642 26.2499 14.6812 28.3806C15.0285 29.0432 14.6379 29.8173 13.901 29.9115C13.4591 29.9678 13.1079 29.7899 12.8747 29.4113C12.2744 28.4364 11.682 27.457 11.0862 26.4795C10.4191 25.3845 9.75247 24.2891 9.08338 23.1951C9.03804 23.1208 9.01562 23.0481 9.01612 22.9604C9.01861 22.1534 9.01762 21.3458 9.01762 20.5388C9.01762 20.5064 9.01762 20.4745 9.01762 20.4307Z" fill="#F6F8FC"/>
<path d="M5.65326 20.4357H7.93654C7.93804 20.4701 7.94103 20.5014 7.94103 20.5328C7.94103 23.3007 7.94152 26.0686 7.94103 28.8359C7.94103 29.4073 7.57783 29.8447 7.02881 29.9115C6.71544 29.9493 6.39958 29.9439 6.12207 29.7511C5.81568 29.5379 5.65426 29.2459 5.65376 28.8713C5.65227 27.8162 5.65376 26.761 5.65326 25.7059C5.65326 23.9902 5.65326 22.2744 5.65326 20.5587V20.4352V20.4357Z" fill="#F6F8FC"/>
<path d="M11.919 29.9185H8.75586C8.76682 29.8911 8.77479 29.8676 8.78575 29.8457C8.94368 29.5364 9.01841 29.2081 9.01841 28.8608C9.01742 27.6712 9.01841 26.4815 9.01841 25.2919C9.01841 25.2605 9.01841 25.2291 9.01841 25.1977C9.02539 25.1957 9.03286 25.1943 9.03984 25.1923C9.99739 26.764 10.9554 28.3353 11.9195 29.918L11.919 29.9185Z" fill="#F6F8FC"/>
<path d="M10.0477 3.13404C10.0418 4.26839 9.11808 5.18902 7.98865 5.18603C6.85622 5.18304 5.93305 4.25743 5.93653 3.12807C5.94002 1.98824 6.86918 1.0696 8.01256 1.07658C9.13053 1.08305 10.0537 2.01614 10.0477 3.13404Z" fill="#F6F8FC"/>
</g>
<defs>
<clipPath id="clip0_208_4860">
<rect width="20" height="31" fill="white"/>
</clipPath>
</defs>
</svg>
