<svg width="45" height="44" viewBox="0 0 45 44" fill="none" xmlns="http://www.w3.org/2000/svg">
<g clip-path="url(#clip0_320_18252)">
<path d="M28.134 9.15672C27.6232 8.07709 26.7951 7.43889 25.6007 7.26736C24.4063 7.15637 23.4441 7.57511 22.6934 8.49078C22.6547 8.45798 22.6341 8.41258 22.6083 8.37474C22.1852 7.76934 21.6203 7.35565 20.9031 7.14376C19.3605 6.68971 17.7198 7.45403 17.1084 8.91708C17.0852 8.97005 17.0645 9.02555 17.0413 9.08104C16.9846 9.08104 16.9639 9.03564 16.933 9.00537C16.5718 8.67492 16.1539 8.4378 15.6793 8.30159C13.9225 7.79457 12.1219 8.85402 11.7323 10.5718C11.6807 10.7963 11.6549 11.0234 11.6549 11.2529C11.6549 15.5159 11.6549 19.779 11.6549 24.042C11.6549 24.713 11.7504 25.3764 11.9129 26.0272C12.0909 26.7386 12.3411 27.4272 12.6275 28.1032C12.87 28.6784 13.1254 29.251 13.373 29.8261C13.6026 30.3634 13.8167 30.9083 13.9818 31.4708C14.1031 31.8819 14.1934 32.2982 14.2346 32.7245C14.2553 32.9389 14.2656 33.1558 14.2656 33.3702C14.2656 35.9835 14.2656 38.5994 14.2656 41.2127V41.3413C14.2063 41.3665 14.165 41.3338 14.1263 41.3161C13.7909 41.1698 13.453 41.026 13.1254 40.8696C10.5457 39.6412 8.30394 37.9738 6.40529 35.8675C4.36992 33.6099 2.89692 31.0394 1.9863 28.1612C1.73607 27.3667 1.53485 26.562 1.38781 25.7422C1.31042 25.3234 1.24593 24.8997 1.19433 24.4784C1.11436 23.8301 1.07309 23.1818 1.05245 22.531C1.03439 22.0089 1.04729 21.4892 1.07051 20.9696C1.09115 20.4853 1.13758 20.001 1.19433 19.5192C1.4523 17.3675 2.03789 15.3041 2.95626 13.334C4.31059 10.4306 6.24019 7.95348 8.73991 5.90269C11.1235 3.95027 13.8167 2.57299 16.8117 1.76326C17.4876 1.57912 18.1738 1.43281 18.8677 1.3193C19.3347 1.24363 19.8016 1.18056 20.2737 1.13264C21.2333 1.03174 22.1981 1.00651 23.1629 1.02921C23.5808 1.0393 23.9987 1.06201 24.4141 1.10489C24.7804 1.14273 25.1441 1.17804 25.5078 1.22345C26.0315 1.29155 26.55 1.38489 27.066 1.49335C28.3249 1.76074 29.5502 2.13407 30.7369 2.62091C33.105 3.58703 35.2281 4.92396 37.1061 6.63421C38.9996 8.35456 40.5268 10.3448 41.6876 12.605C42.3996 13.9898 42.9439 15.4352 43.3257 16.9386C43.4624 17.4835 43.5811 18.0334 43.6714 18.5858C43.7307 18.944 43.7772 19.3047 43.8184 19.6655C43.8597 20.0363 43.8932 20.4071 43.919 20.7779C43.9448 21.2042 43.9629 21.6305 43.9552 22.0568C43.9474 22.4352 43.9423 22.811 43.9216 23.1869C43.8984 23.5627 43.8649 23.9386 43.8236 24.3144C43.7849 24.6524 43.7359 24.9905 43.6843 25.3285C43.5966 25.9112 43.4702 26.4838 43.3257 27.0564C42.9594 28.5094 42.4357 29.9043 41.7624 31.2463C40.9318 32.8985 39.8947 34.4196 38.6513 35.8044C36.9281 37.7266 34.916 39.293 32.6149 40.5013C31.8307 40.915 31.0206 41.2732 30.1874 41.5885C30.141 41.6062 30.0971 41.6365 30.0378 41.6264C30.0352 41.6112 30.03 41.5936 30.03 41.5759C30.03 38.4278 30.03 35.2772 30.03 32.114C30.0558 32.0913 30.0919 32.0686 30.1203 32.0409C30.5769 31.6095 30.9948 31.1428 31.3663 30.6409C31.4179 30.5702 31.4824 30.5147 31.5495 30.4592C32.2357 29.8816 32.8367 29.2308 33.3346 28.4892C33.9408 27.5861 34.3562 26.6049 34.5832 25.5479C34.6941 25.0333 34.756 24.5112 34.7792 23.9865C34.7947 23.6182 34.787 23.2499 34.7637 22.8817C34.7225 22.2763 34.6322 21.6759 34.4955 21.0856C34.2968 20.2305 34.0208 19.4006 33.6467 18.601C33.6416 18.5884 33.6364 18.5757 33.6287 18.5631C33.5771 18.4799 33.5668 18.3891 33.5668 18.2932C33.5668 15.9523 33.5668 13.6115 33.5668 11.2731C33.5668 10.9199 33.5152 10.5769 33.3991 10.2414C33.0483 9.24248 32.1866 8.48573 31.1341 8.25114C30.0894 8.01907 28.9982 8.32429 28.2397 9.05582C28.2088 9.08609 28.1752 9.11636 28.1314 9.15672H28.134Z" fill="#062B65"/>
<path d="M28.9853 41.992C25.2163 43.2255 20.0905 43.4626 15.3207 41.7726C15.3181 41.7448 15.3103 41.7145 15.3078 41.6843C15.3078 41.6439 15.3078 41.6036 15.3078 41.5632C15.3078 38.849 15.3078 36.1373 15.3078 33.4231C15.3078 33.1002 15.2923 32.7773 15.251 32.4544C15.1891 31.9827 15.0833 31.5186 14.9415 31.062C14.7506 30.4415 14.5081 29.8411 14.2527 29.2458C14.005 28.6707 13.7522 28.0981 13.5123 27.5204C13.2801 26.963 13.0789 26.3954 12.9319 25.8102C12.8261 25.3864 12.7436 24.9601 12.7203 24.5237C12.71 24.332 12.6997 24.1378 12.6997 23.946C12.6997 22.8185 12.6997 21.6909 12.6997 20.5634V20.4171C12.7461 20.3893 12.7616 20.4272 12.7848 20.4448C13.0247 20.6365 13.2853 20.7929 13.5716 20.9115C13.987 21.083 14.4229 21.1612 14.8744 21.1486C15.687 21.1234 16.3809 20.8308 16.9691 20.2859C16.9897 20.2682 17.0104 20.2506 17.031 20.2304C17.0774 20.2632 17.0826 20.3162 17.1006 20.3565C17.4489 21.1688 18.0397 21.7389 18.8755 22.0668C19.314 22.2383 19.7706 22.3039 20.2401 22.2635C21.1843 22.1828 21.9453 21.7716 22.5206 21.0326C22.5489 20.9972 22.5747 20.9619 22.6057 20.9216C22.6573 20.9367 22.6728 20.9821 22.6986 21.0174C22.9385 21.3353 23.2274 21.6001 23.5731 21.8095C23.9703 22.0491 24.3986 22.1979 24.8629 22.2484C25.7271 22.3417 26.4984 22.1197 27.1846 21.6001C27.2182 21.5749 27.2491 21.5497 27.2827 21.527C27.2852 21.527 27.2904 21.527 27.2956 21.527C27.3239 21.5396 27.3136 21.5648 27.3136 21.585C27.3136 21.648 27.3136 21.7111 27.3136 21.7742C27.3239 21.9936 27.4555 22.1702 27.6645 22.2459C27.698 22.2585 27.7315 22.2686 27.7805 22.2862C27.7109 22.314 27.6567 22.3342 27.6 22.3543C26.8209 22.647 26.1141 23.0556 25.4872 23.5979C25.2757 23.7796 25.0796 23.9738 24.9016 24.1857C24.8603 24.2336 24.8191 24.2841 24.7855 24.337C24.6436 24.5565 24.6927 24.8415 24.899 25.0055C25.1028 25.1669 25.3995 25.1518 25.5904 24.9702C25.611 24.9525 25.6291 24.9323 25.6471 24.9096C25.9722 24.506 26.3669 24.1781 26.8003 23.8956C27.4658 23.4642 28.1933 23.1742 28.9775 23.0253C29.2071 22.9824 29.4393 22.9522 29.6714 22.9219C29.8933 22.8916 30.0481 22.7806 30.1177 22.5738C30.19 22.367 30.1332 22.1828 29.9707 22.034C29.9036 21.9734 29.8288 21.9179 29.7592 21.8625C27.9224 20.3893 26.0857 18.9162 24.2515 17.443C23.8465 17.1202 23.5989 16.7039 23.5137 16.202C23.3203 15.0593 24.1148 14.0477 25.188 13.8611C25.8303 13.7501 26.4081 13.8964 26.9163 14.3025C27.7702 14.9861 28.6215 15.6697 29.4728 16.3533C30.5021 17.1807 31.5314 18.0055 32.5633 18.8304C32.6226 18.8783 32.6613 18.9338 32.6923 19.0019C32.9941 19.6401 33.2237 20.301 33.4043 20.9796C33.5255 21.4362 33.6158 21.8978 33.6751 22.367C33.7448 22.9295 33.7731 23.4945 33.7422 24.0621C33.6958 24.897 33.5358 25.7093 33.2288 26.4912C32.8574 27.4448 32.3027 28.2822 31.5907 29.0238C31.3302 29.2963 31.0516 29.551 30.7575 29.7907C30.6982 29.8386 30.644 29.8941 30.5976 29.9572C30.1925 30.5146 29.7308 31.0267 29.2148 31.4908C29.1916 31.511 29.1658 31.5337 29.1452 31.5564C29.0472 31.6548 28.993 31.7683 28.993 31.9071C28.993 31.96 28.993 32.0155 28.993 32.0685C28.993 35.3175 28.993 38.5639 28.993 41.8129V41.9945L28.9853 41.992Z" fill="#062B65"/>
<path d="M22.0896 14.6404C22.0896 16.164 22.0896 17.6851 22.0896 19.2086C22.0896 19.7636 21.8884 20.2454 21.4885 20.6414C21.019 21.103 20.4438 21.3048 19.7859 21.2393C18.8289 21.1434 18.0937 20.4371 17.9415 19.5366C17.9182 19.4054 17.9131 19.2692 17.9131 19.133C17.9131 16.555 17.9131 13.977 17.9131 11.3965C17.9131 10.9601 17.9131 10.5262 17.9131 10.0898C17.9131 9.86782 17.9466 9.65089 18.0163 9.44152C18.2846 8.64945 18.9837 8.16261 19.6827 8.05919C20.7482 7.90027 21.7646 8.56117 22.0277 9.57774C22.0715 9.74927 22.0922 9.9208 22.0922 10.0974C22.0922 10.7658 22.0922 11.4368 22.0922 12.1053C22.0922 12.9503 22.0922 13.7954 22.0922 14.6379L22.0896 14.6404Z" fill="#062B65"/>
<path d="M16.8688 14.6608C16.8688 15.7959 16.8688 16.9335 16.8688 18.0687C16.8688 18.3739 16.8146 18.669 16.6779 18.944C16.3554 19.5973 15.8266 19.9984 15.0939 20.1069C13.9331 20.2784 12.9683 19.5141 12.7464 18.5429C12.7103 18.389 12.6948 18.2326 12.6948 18.0762C12.6948 15.7984 12.6974 13.5231 12.6948 11.2453C12.6948 10.2943 13.3681 9.42911 14.3768 9.23487C15.5866 9.0028 16.6417 9.81 16.8352 10.8619C16.8636 11.0082 16.8688 11.157 16.8688 11.3033C16.8688 12.4208 16.8688 13.5408 16.8688 14.6583V14.6608Z" fill="#062B65"/>
<path d="M28.3535 14.1363C28.3535 14.0909 28.3535 14.0531 28.3535 14.0127C28.3535 13.1046 28.3535 12.199 28.3535 11.2909C28.3535 11.0084 28.3922 10.7334 28.5057 10.4762C28.8179 9.77237 29.357 9.34355 30.1361 9.21995C31.1963 9.05346 32.2385 9.72949 32.4836 10.8016C32.5197 10.9605 32.53 11.1219 32.53 11.2834C32.53 12.2116 32.53 13.1424 32.53 14.0707C32.53 15.1428 32.53 16.2174 32.53 17.2894C32.53 17.3424 32.5352 17.3954 32.5223 17.4458C32.4758 17.4584 32.4578 17.4256 32.4346 17.408C31.9444 17.017 31.4543 16.6235 30.9642 16.23C30.1438 15.5716 29.3235 14.9158 28.5031 14.2574C28.4567 14.2195 28.4128 14.1817 28.3535 14.1363Z" fill="#062B65"/>
<path d="M23.1425 13.9217C23.1373 13.8561 23.1348 13.8208 23.1348 13.788C23.1348 12.6327 23.1348 11.4799 23.1348 10.3246C23.1348 9.73688 23.3489 9.2349 23.7823 8.8313C24.2208 8.42265 24.7471 8.24103 25.3533 8.2713C26.2123 8.31419 27.0585 8.92715 27.2674 9.89832C27.2932 10.0219 27.3087 10.1455 27.3087 10.2716C27.3087 11.2453 27.3087 12.2215 27.3087 13.1952C27.3087 13.2255 27.3061 13.2583 27.3035 13.2886C27.2571 13.3037 27.2313 13.2684 27.2029 13.2507C26.9192 13.0817 26.6148 12.9581 26.2897 12.8824C25.1908 12.6277 24.0273 12.9682 23.2534 13.7981C23.2225 13.8309 23.1915 13.8637 23.1399 13.9192L23.1425 13.9217Z" fill="#062B65"/>
<path d="M23.1425 17.8242C23.1657 17.8368 23.1709 17.8394 23.1735 17.8419C23.4288 18.132 23.7462 18.359 24.0454 18.6011C24.8786 19.2721 25.7144 19.9381 26.5477 20.6065C26.5786 20.6318 26.6096 20.6595 26.6457 20.6898C26.6277 20.71 26.6148 20.7276 26.5993 20.7402C26.1117 21.1489 25.5493 21.3128 24.9122 21.2271C24.1305 21.1237 23.3902 20.5359 23.1838 19.6606C23.1477 19.5118 23.1348 19.3604 23.1348 19.2065C23.1348 18.7752 23.1348 18.3439 23.1348 17.915C23.1348 17.8898 23.1399 17.8646 23.1425 17.8242Z" fill="#062B65"/>
<path d="M28.1909 22.1402C28.2219 22.0998 28.2528 22.0595 28.2864 22.0166C28.307 22.0267 28.3225 22.0317 28.338 22.0418C28.356 22.0544 28.3715 22.0696 28.3921 22.0898C28.3302 22.1352 28.2631 22.1301 28.1935 22.1402H28.1909Z" fill="#062B65"/>
</g>
<defs>
<clipPath id="clip0_320_18252">
<rect width="45" height="44" fill="white"/>
</clipPath>
</defs>
</svg>
