<svg width="41" height="31" viewBox="0 0 41 31" fill="none" xmlns="http://www.w3.org/2000/svg">
<path d="M40.5007 9.70035C40.3495 9.81663 40.189 9.92516 40.044 10.0466C37.6033 12.088 35.1625 14.1242 32.7341 16.1759C32.4071 16.4524 32.0707 16.5609 31.6141 16.5609C21.3975 16.5531 11.1841 16.5557 0.967529 16.5557V2.78039C1.09713 2.63052 1.28535 2.62018 1.48283 2.62018C2.25424 2.62018 3.02565 2.62018 3.79706 2.62018C7.34554 2.62018 10.894 2.62018 14.4456 2.62018C15.4947 2.62018 15.5965 2.53491 15.5996 1.66151C15.5996 1.24032 15.5996 0.821713 15.5996 0.400521C15.5996 0.240312 15.6366 0.10336 15.7909 0H19.1111C19.2931 0.105944 19.3055 0.263568 19.3055 0.426361C19.3055 0.899233 19.3055 1.37469 19.3055 1.84756C19.3085 2.52974 19.4104 2.6176 20.2126 2.6176C23.326 2.6176 26.4364 2.6176 29.5498 2.6176C30.3212 2.6176 31.0926 2.62793 31.864 2.61243C32.2127 2.60468 32.4688 2.70287 32.7156 2.90959C35.1595 4.96129 37.6064 7.0104 40.0533 9.05693C40.2569 9.22748 40.3804 9.42645 40.4976 9.63575V9.70035H40.5007Z" fill="#FDFDFD"/>
<path d="M15.8217 30.9999C15.8217 26.8456 15.8217 22.6913 15.8217 18.537C15.8217 18.4257 15.8248 18.3144 15.8248 18.2032C15.8248 18.0207 15.9492 17.925 16.2012 17.925C17.0565 17.925 17.9119 17.925 18.7672 17.925C19.0191 17.925 19.1467 18.023 19.1529 18.2032C19.1529 18.3233 19.1591 18.4435 19.1591 18.5637C19.1591 22.5422 19.1591 26.5207 19.1591 30.4992C19.1591 30.6661 19.1653 30.833 19.1653 30.9999H15.8186H15.8217Z" fill="#FDFDFD"/>
</svg>
