<svg width="26" height="31" viewBox="0 0 26 31" fill="none" xmlns="http://www.w3.org/2000/svg">
<path d="M16.8579 16.0136H20.0454C20.8731 15.9883 21.6835 16.2536 22.3359 16.7636C22.9839 17.2811 23.4324 18.0071 23.6079 18.8186L24.9549 26.1536C25.0149 26.4146 25.0149 26.6861 24.9549 26.9486C24.8933 27.2091 24.7698 27.451 24.5949 27.6536C24.428 27.8622 24.2128 28.027 23.9679 28.1336C23.7234 28.2476 23.4579 28.3046 23.1879 28.2986C22.7768 28.3101 22.3745 28.1774 22.0509 27.9236C21.7206 27.6786 21.4917 27.3211 21.4074 26.9186L20.3604 20.7986H17.6949" stroke="#062B65" stroke-width="1.5" stroke-linecap="round" stroke-linejoin="round"/>
<path d="M7.20263 12.9985C-1.98786 15.3235 -0.700862 29.3185 9.31312 29.4985C16.2431 29.5885 19.7921 21.3835 16.2131 16.2835" stroke="#062B65" stroke-width="1.5" stroke-linecap="round" stroke-linejoin="round"/>
<path d="M16.4982 10.3136V16.7486C15.4337 14.9468 13.7287 13.613 11.7237 13.0136V19.8536C11.7248 20.0888 11.6797 20.3219 11.5908 20.5396C11.5019 20.7574 11.3709 20.9555 11.2055 21.1226C11.04 21.2898 10.8432 21.4227 10.6264 21.5138C10.4095 21.6049 10.1769 21.6524 9.94166 21.6536C9.70544 21.6537 9.4715 21.6073 9.25328 21.5169C9.03506 21.4264 8.83684 21.2938 8.67002 21.1265C8.50319 20.9593 8.37104 20.7607 8.28114 20.5423C8.19125 20.3238 8.14538 20.0898 8.14617 19.8536L7.24767 13.2836C7.18096 12.7452 7.26119 12.1988 7.47985 11.7023C7.69851 11.2058 8.04745 10.7778 8.48967 10.4636L10.8852 8.76857C12.7557 7.32857 16.4982 7.53857 16.4982 10.3136Z" stroke="#062B65" stroke-width="1.5" stroke-linecap="round" stroke-linejoin="round"/>
<path d="M14.7926 7.83862C15.4684 7.83883 16.1289 7.63815 16.6903 7.2621C17.2517 6.88604 17.6887 6.35158 17.9456 5.72662C18.2035 5.10173 18.2707 4.41453 18.1389 3.75151C18.007 3.0885 17.682 2.4793 17.2046 2.00063C16.7273 1.52269 16.1188 1.19723 15.4563 1.0655C14.7938 0.933765 14.1071 1.0017 13.4833 1.26068C12.8594 1.51967 12.3265 1.95805 11.9521 2.52025C11.5777 3.08245 11.3786 3.74316 11.3801 4.41862C11.3801 5.32462 11.7401 6.19462 12.3806 6.83662C12.6971 7.15397 13.073 7.40581 13.4869 7.57774C13.9008 7.74967 14.3445 7.83832 14.7926 7.83862Z" stroke="#062B65" stroke-width="1.5" stroke-linecap="round" stroke-linejoin="round"/>
</svg>
