<svg width="43" height="43" viewBox="0 0 43 43" fill="none" xmlns="http://www.w3.org/2000/svg">
<circle cx="21.5" cy="21.5" r="21.5" fill="#062B65"/>
<path d="M21.4988 7C20.5111 7 19.7131 7.80996 19.7131 8.8125V9.9C15.6395 10.7383 12.5703 14.3973 12.5703 18.7812V19.8461C12.5703 22.5082 11.6049 25.0797 9.86388 27.0734L9.45093 27.5436C8.98219 28.076 8.87059 28.8406 9.15518 29.492C9.43977 30.1434 10.0815 30.5625 10.7846 30.5625H32.2129C32.916 30.5625 33.5522 30.1434 33.8424 29.492C34.1325 28.8406 34.0153 28.076 33.5466 27.5436L33.1337 27.0734C31.3926 25.0797 30.4272 22.5139 30.4272 19.8461V18.7812C30.4272 14.3973 27.3581 10.7383 23.2845 9.9V8.8125C23.2845 7.80996 22.4865 7 21.4988 7ZM24.0266 34.9408C24.6963 34.2611 25.0702 33.3379 25.0702 32.375H21.4988H17.9274C17.9274 33.3379 18.3013 34.2611 18.9709 34.9408C19.6405 35.6205 20.5501 36 21.4988 36C22.4474 36 23.357 35.6205 24.0266 34.9408Z" fill="#FCFCFC"/>
</svg>
