<svg width="31" height="31" viewBox="0 0 31 31" fill="none" xmlns="http://www.w3.org/2000/svg">
<path d="M29.4249 27.8056V30.2278C29.7385 30.2278 30.0319 30.2286 30.3246 30.2278C30.6243 30.2263 30.9897 30.1891 30.9998 30.6056C31.0099 31.0282 30.6467 30.9996 30.3447 30.9996C28.6669 30.9988 26.9897 30.9996 25.3119 30.9996C17.2205 30.9996 9.12841 30.9996 1.03708 30.9996C0.528368 30.9996 0.299952 30.8788 0.339441 30.6032C0.399061 30.1922 0.725812 30.2263 1.02779 30.227C1.76181 30.2293 2.49661 30.227 3.26548 30.227V18.3699C2.08005 18.356 1.44513 17.7592 1.37622 16.5446C0.944162 16.7907 0.825696 17.1631 0.780012 17.5625C0.748266 17.8381 0.668514 18.068 0.354927 18.0409C0.0452106 18.0138 -0.0221526 17.77 0.00572184 17.4967C0.0800537 16.7753 0.377381 16.1769 1.03321 15.8254C1.2593 15.7047 1.30111 15.5769 1.29492 15.3439C1.24691 13.4845 1.5063 11.6762 2.4579 10.0482C3.67276 7.96971 5.5628 6.78687 7.86245 6.22796C8.49659 6.07391 9.15629 6.02437 9.82527 5.92373C9.78501 5.87264 9.74088 5.8022 9.6828 5.74569C8.80786 4.88642 8.72346 3.41793 9.50007 2.46654C9.78811 2.11277 10.1644 1.91228 10.612 1.81706C10.8288 1.77139 11.0533 1.6901 11.236 1.56779C12.852 0.484036 16.1683 0.872641 16.6321 4.10069C16.8558 5.65976 16.4888 7.0671 15.5248 8.32039C15.4466 8.4218 15.3924 8.61068 15.4319 8.72293C16.2929 11.1792 17.1686 13.6308 18.0428 16.0832C18.0599 16.1304 18.0931 16.1714 18.1652 16.2945C18.4966 15.899 18.8636 15.5661 19.099 15.1581C19.6781 14.1549 20.2093 13.1238 20.7335 12.0903C21.054 11.4586 21.3274 10.8037 21.6185 10.1574C21.6804 10.0203 21.7261 9.87636 21.7888 9.71069C20.8883 9.42195 20.255 8.87001 19.8717 8.04403C19.4528 7.14141 19.3367 6.19777 19.4675 5.21155C19.4915 5.0335 19.4094 4.81752 19.3173 4.65109C18.598 3.35135 19.3444 1.79848 20.8132 1.60108C21.1229 1.55928 21.4474 1.6274 21.7718 1.64521C21.8539 1.44703 21.9197 1.23725 22.0219 1.04759C22.4965 0.163553 23.6169 -0.232793 24.5585 0.139555C25.5209 0.520419 26.0676 1.5407 25.7935 2.5215C25.7083 2.82728 25.764 2.98907 25.9971 3.20117C26.9657 4.08366 26.958 5.73175 26.0079 6.72107C25.9197 6.81319 25.8213 6.89602 25.7222 6.98891C25.7517 7.03458 25.7633 7.07716 25.7896 7.09187C27.5093 8.04712 28.5809 9.53807 29.2863 11.3294C29.9684 13.0618 30.2603 14.8779 30.416 16.7211C30.4547 17.1832 30.4717 17.6477 30.4795 18.1121C30.4903 18.764 30.2162 19.2671 29.62 19.5474C29.3924 19.6542 29.3699 19.7788 29.4001 19.9979C29.7245 22.321 30.0389 24.6457 30.3579 26.9696C30.4578 27.698 30.4106 27.7568 29.6564 27.7832C29.5929 27.7855 29.5286 27.7955 29.4249 27.8071V27.8056ZM3.71302 15.1225C3.76955 14.3391 3.78891 13.6037 3.88259 12.8784C3.98945 12.0555 4.18766 11.2427 4.77613 10.6133C4.92634 10.4531 5.23373 10.3331 5.4366 10.371C5.55738 10.3935 5.68592 10.7581 5.68824 10.9702C5.70682 12.9186 5.69831 14.8671 5.69831 16.8155C5.69831 16.9649 5.69831 17.1143 5.69831 17.2645H13.2569C13.2569 17.0748 13.2569 16.9208 13.2569 16.7667C13.2569 15.2572 13.2585 13.7469 13.2554 12.2374C13.2554 11.9742 13.2848 11.7249 13.5891 11.6646C13.9104 11.6011 14.001 11.8496 14.0839 12.0911C14.4973 13.2979 14.9124 14.5048 15.3282 15.7108C15.5829 16.4494 15.8423 17.1871 16.1079 17.9511C16.5012 17.763 16.838 17.5687 17.1988 17.4387C17.5643 17.3063 17.6092 17.1313 17.4784 16.7753C16.8295 15.0095 16.2085 13.2329 15.5767 11.461C15.2925 10.6636 15.0061 9.86707 14.7165 9.05967C14.4617 9.15333 14.2519 9.27022 14.0289 9.30274C13.7006 9.34996 13.5179 9.53884 13.3452 9.7943C12.8241 10.563 12.2875 11.3209 11.754 12.081C11.545 12.3783 11.2097 12.4255 11.0603 12.1716C10.9859 12.0439 10.9596 11.8805 10.9403 11.7296C10.8241 10.8215 10.7351 9.90964 10.598 9.00548C10.4989 8.3498 10.5415 7.66626 10.1985 7.05084C10.08 6.83873 9.97084 6.74507 9.73004 6.75668C7.48382 6.86892 5.53416 7.66084 3.96312 9.29267C2.81872 10.4809 2.36344 11.9758 2.15748 13.5642C2.09089 14.079 2.08237 14.6008 2.04753 15.1241H3.71225L3.71302 15.1225ZM13.2569 18.1021H5.72308V30.1968H11.6758C11.7424 29.8191 11.5783 29.6356 11.2531 29.5497C10.1876 29.2702 9.12531 29.1448 8.06221 29.5574C7.8098 29.6557 7.55583 29.672 7.44975 29.3678C7.33516 29.0411 7.55738 28.8901 7.8338 28.8205C8.36806 28.6865 8.90542 28.5658 9.4962 28.4272V28.0092C9.4962 25.3253 9.4962 22.6407 9.4962 19.9569C9.4962 19.8152 9.45981 19.6488 9.5202 19.5381C9.59454 19.401 9.75249 19.2238 9.87638 19.223C10.0049 19.2222 10.166 19.3902 10.2527 19.5226C10.3131 19.6147 10.2751 19.7734 10.2751 19.9019C10.2751 22.5989 10.2751 25.2959 10.2751 27.9929C10.2751 28.3671 10.4597 28.5913 10.8288 28.6656C10.8791 28.6757 10.9341 28.6734 10.9813 28.692C11.3692 28.8499 11.8222 28.9358 12.1226 29.1967C12.3665 29.4088 12.4269 29.8322 12.5848 30.1984H15.4567C15.5093 29.7858 15.3018 29.6178 14.9565 29.5249C14.5004 29.4018 14.0544 29.24 13.5992 29.1123C13.5248 29.0914 13.404 29.1378 13.3398 29.1928C13.1354 29.3701 12.9255 29.4328 12.7273 29.2184C12.5237 28.9977 12.6321 28.791 12.8148 28.6099C12.8791 28.5464 12.9341 28.4605 13.0123 28.4264C13.2469 28.3243 13.2585 28.1423 13.2585 27.9217C13.2538 24.7989 13.2562 21.6762 13.2562 18.5526C13.2562 18.4125 13.2562 18.2724 13.2562 18.1005L13.2569 18.1021ZM16.2573 30.227C16.4029 30.227 16.5299 30.227 16.6568 30.227C17.7408 30.227 18.8249 30.2139 19.9081 30.2348C20.248 30.241 20.4338 30.1736 20.543 29.8113C20.6142 29.5737 20.8194 29.3051 21.037 29.199C21.3808 29.031 21.7803 28.9521 22.1651 28.9017C22.5848 28.8468 22.6855 28.7833 22.6932 28.3645C22.6948 28.2871 22.687 28.2089 22.6971 28.1323C22.7304 27.8691 22.6328 27.7638 22.3548 27.7739C21.8392 27.7924 21.3227 27.7878 20.807 27.7754C20.4114 27.7661 20.2797 27.5966 20.3332 27.2041C20.409 26.6421 20.4857 26.0801 20.5631 25.5189C20.8341 23.5526 21.109 21.5864 21.3707 19.6186C21.3924 19.4537 21.3816 19.2439 21.2964 19.1131C21.0331 18.7098 20.9642 18.284 21.0176 17.8203C21.0401 17.6276 21.0409 17.4317 21.0517 17.2374C21.0153 17.2196 20.9782 17.2026 20.9418 17.1848C20.8829 17.2676 20.8349 17.362 20.7629 17.4325C20.2178 17.9635 19.6657 18.4868 19.1222 19.0194C18.9913 19.1479 18.8427 19.2857 18.7768 19.4498C18.5066 20.1256 17.9065 20.5676 17.2058 20.5676C16.5004 20.5676 15.8949 20.138 15.6673 19.4289C15.4923 18.8832 15.3855 18.3157 15.2097 17.77C14.9093 16.838 14.5802 15.9152 14.2612 14.9894C14.2217 14.874 14.1714 14.7626 14.1265 14.6495C14.0521 14.7796 14.0382 14.9019 14.0382 15.0234C14.0366 19.2036 14.0312 23.3831 14.0405 27.5633C14.0428 28.6494 13.8253 28.4977 15.0146 28.7469C15.8725 28.9265 16.2008 29.3004 16.2573 30.2255V30.227ZM26.8798 18.918C27.5558 18.918 28.1721 18.9195 28.7892 18.918C29.4535 18.9157 29.6943 18.6989 29.6889 18.0494C29.6719 16.0515 29.397 14.0914 28.7737 12.1886C28.4098 11.0762 27.8933 10.0412 27.116 9.15333C26.5159 8.46824 25.8151 7.92172 24.9565 7.57182C24.9131 7.64226 24.879 7.68174 24.8612 7.72819C24.4779 8.70977 23.8384 9.41421 22.7869 9.69599C22.6886 9.72231 22.5918 9.84849 22.5438 9.95067C22.2619 10.5444 22.0165 11.1552 21.7176 11.7404C21.3103 12.5393 21.2732 13.3204 21.6146 14.1611C21.7896 14.5915 21.8825 15.0815 21.891 15.5467C21.9065 16.3704 21.8368 17.1956 21.7896 18.0193C21.7602 18.5348 21.977 18.8793 22.4245 18.9087C22.8457 18.9366 23.2693 18.9149 23.6309 18.9149C23.7493 18.4357 23.8221 17.9929 23.9669 17.5757C24.7575 15.3029 24.4826 13.1594 23.2182 11.1312C23.0664 10.8881 22.9541 10.6466 23.2313 10.4554C23.5101 10.2634 23.7029 10.4507 23.8601 10.6899C24.6405 11.8813 25.1067 13.1872 25.1485 14.6085C25.1733 15.4631 25.0695 16.3209 25.0207 17.2281C25.4404 17.3667 25.9321 17.53 26.4431 17.6988C26.4911 17.5269 26.5275 17.4178 26.5523 17.3055C27.0796 14.9584 26.7698 12.7204 25.6711 10.587C25.5767 10.4035 25.4357 10.2317 25.3955 10.0381C25.3684 9.90732 25.4388 9.6836 25.5403 9.61858C25.6448 9.55123 25.8523 9.59613 25.9909 9.65109C26.0807 9.6867 26.1373 9.82449 26.1922 9.92512C27.692 12.657 27.9963 15.5049 27.0137 18.476C26.9712 18.6045 26.9355 18.7361 26.8806 18.9188L26.8798 18.918ZM25.1059 26.9564H29.5774C29.2406 24.5195 28.9092 22.1228 28.577 19.7246H27.6169C27.6347 19.864 27.6487 19.9646 27.6611 20.0652C27.6943 20.3315 27.6649 20.5808 27.3459 20.6288C27.0246 20.6776 26.9518 20.4438 26.8813 20.1837C26.8233 19.9708 26.6893 19.7788 26.6351 19.6697C26.0722 19.8841 25.6138 20.059 25.1059 20.2533V26.9564ZM15.936 5.13181C15.9182 4.88797 15.905 4.64412 15.8818 4.40028C15.6998 2.49131 14.1536 1.41607 12.3131 1.94866C12.0018 2.03846 11.737 2.28849 11.4505 2.46422C11.6603 2.72974 11.8315 3.04326 12.0901 3.24762C12.3363 3.44192 12.4401 3.661 12.4323 3.93581C12.4153 4.5311 12.1652 5.03505 11.7331 5.43836C11.4985 5.65666 11.2647 5.60247 11.0959 5.31992C11.0169 5.18755 10.9766 5.01337 10.8659 4.9228C10.7366 4.81675 10.4997 4.68205 10.3982 4.73392C10.1536 4.85855 10.2999 5.07608 10.3897 5.26496C10.4966 5.49023 10.6243 5.71704 10.67 5.95702C10.8466 6.88983 11.298 7.64613 12.0723 8.19034C13.0905 8.90562 14.2171 8.72757 14.9782 7.74754C15.5744 6.97962 15.8779 6.10333 15.936 5.13181ZM24.313 26.9688C24.313 26.8085 24.313 26.6707 24.313 26.5337C24.313 25.0118 24.313 23.4899 24.313 21.9688C24.313 21.3239 24.3231 20.6791 24.3037 20.035C24.2999 19.912 24.1829 19.6913 24.1109 19.6882C23.4613 19.6612 22.8094 19.672 22.1512 19.672C21.8113 22.1453 21.4814 24.5489 21.1493 26.9696H24.313V26.9688ZM20.1915 5.87419C20.193 6.71255 20.3974 7.4797 20.7319 8.003C21.5271 9.247 22.9828 9.28493 23.8128 8.06338C24.3339 7.29701 24.4663 6.41994 24.3641 5.515C24.3479 5.36869 24.1706 5.18678 24.0227 5.11943C23.6858 4.96538 23.2863 4.92977 22.9743 4.74243C22.3115 4.34454 21.6944 4.30274 20.972 4.62245C20.3982 4.87636 20.2883 4.88255 20.2116 5.515C20.193 5.66827 20.1938 5.8231 20.1907 5.87419H20.1915ZM4.88065 12.2451C4.84194 12.2405 4.804 12.2366 4.76529 12.232C4.69328 12.7839 4.57171 13.3343 4.56087 13.887C4.54306 14.8005 4.63288 15.7155 4.60191 16.6282C4.58952 17.0044 4.38201 17.3752 4.26277 17.7475C4.20238 17.9349 4.08623 18.1214 4.08546 18.308C4.07539 22.1399 4.07849 25.9717 4.08004 29.8044C4.08004 29.9398 4.09398 30.0745 4.10094 30.1999H4.88065V12.2451ZM19.953 4.17811C20.591 3.93349 21.1864 3.69661 21.7888 3.48063C21.9096 3.43728 22.0745 3.43031 22.1907 3.47676C22.9154 3.77015 23.6278 4.09373 24.3517 4.38789C24.8612 4.59535 25.1376 4.95222 25.1547 5.50184C25.1632 5.77665 25.1562 6.05223 25.1562 6.32782C25.7726 5.92373 25.9971 5.37256 25.9344 4.72231C25.8771 4.12934 25.5767 3.67416 24.989 3.47211C24.7071 3.37535 24.6142 3.19885 24.5422 2.91785C24.4779 2.66704 24.3045 2.3961 24.0985 2.2405C23.6014 1.86505 22.7288 1.91382 22.255 2.32101C22.0087 2.53311 21.8059 2.58575 21.4946 2.45028C20.9936 2.23198 20.5205 2.36823 20.1535 2.75761C19.7865 3.14699 19.7083 3.61145 19.9538 4.17733L19.953 4.17811ZM18.6878 18.349C19.5929 17.5145 20.4377 16.7861 21.044 15.8332C21.1137 15.724 21.15 15.5568 21.1253 15.4314C21.0324 14.96 20.9085 14.4947 20.7784 13.9528C20.6669 14.0759 20.6228 14.1069 20.6018 14.1502C20.0838 15.2131 19.4242 16.1707 18.5407 16.9665C18.4896 17.0121 18.4331 17.1004 18.4431 17.1577C18.5082 17.5261 18.5918 17.8915 18.6886 18.3498L18.6878 18.349ZM28.6003 30.2108V27.7824C28.4384 27.7824 28.2998 27.7793 28.162 27.7832C28.049 27.7862 27.9367 27.7971 27.8244 27.8041C27.8082 27.8598 27.7911 27.8954 27.7888 27.9318C27.7119 28.9521 27.1702 29.5311 26.1636 29.6689C25.8624 29.7107 25.6169 29.8477 25.5558 30.2108H28.6003ZM21.2461 30.1922H24.2859V27.825C23.748 27.7429 23.4739 27.9506 23.4636 28.4481C23.4636 28.4737 23.4636 28.5 23.4621 28.5255C23.4358 29.2098 22.9952 29.6418 22.3045 29.6596C22.1504 29.6635 21.9925 29.6464 21.8415 29.6704C21.5465 29.7169 21.3204 29.857 21.2461 30.1922ZM2.16986 15.9562C2.238 16.4857 2.01346 17.0431 2.55004 17.4294C2.83343 17.633 3.25 17.6206 3.52332 17.3907C4.00184 16.9889 3.79045 16.4586 3.83072 15.9562H2.16986ZM25.0842 29.4158C25.5573 28.9149 26.0722 28.8801 26.608 28.8754C26.7342 28.8747 26.9479 28.7237 26.9673 28.6153C27.0114 28.3606 26.9673 28.0889 26.9441 27.8257C26.9425 27.8064 26.8295 27.7847 26.7675 27.7839C26.2789 27.7808 25.7896 27.7739 25.301 27.7917C25.2267 27.794 25.0974 27.914 25.0943 27.9836C25.0749 28.4148 25.085 28.8476 25.085 29.4158H25.0842ZM17.795 18.01C17.3119 18.2422 16.8845 18.4435 16.4625 18.6571C16.3951 18.6912 16.2968 18.8096 16.3115 18.839C16.4571 19.1262 16.5709 19.4622 16.7993 19.6673C17.0517 19.8942 17.4079 19.816 17.699 19.6317C17.9902 19.4475 18.104 19.1634 18.0444 18.8359C17.9964 18.5751 17.8926 18.325 17.795 18.01ZM24.6831 17.9357C24.4826 18.339 24.4083 18.6982 24.6653 19.0364C24.8682 19.3027 25.1593 19.401 25.4915 19.3221C25.9336 19.2168 26.0823 18.8762 26.1713 18.4411C25.6804 18.2747 25.1996 18.1114 24.6824 17.9357H24.6831ZM10.5368 2.66858C10.0305 2.8296 9.67196 3.47057 9.80127 4.13321C10.4509 3.68112 11.0099 3.90484 11.5814 4.38092C11.5891 4.15333 11.5814 3.9389 11.4761 3.79569C11.1996 3.41947 10.8806 3.07499 10.5376 2.66858H10.5368ZM11.3468 8.70822C11.442 9.44053 11.5287 10.1125 11.6301 10.8951C12.0336 10.3184 12.3673 9.84229 12.6925 9.37628C12.2341 9.14869 11.8245 8.9451 11.3468 8.70822ZM22.9603 1.16758C23.7633 1.18925 24.4896 1.36498 25.0571 1.99046C25.0099 1.43387 24.766 1.04217 24.2549 0.858707C23.7687 0.683757 23.3312 0.777425 22.9603 1.16758Z" fill="#062B65"/>
</svg>
