<svg width="25" height="31" viewBox="0 0 25 31" fill="none" xmlns="http://www.w3.org/2000/svg">
<g clip-path="url(#clip0_201_4484)">
<path d="M3.16243 1.98093H2.66243V1.48093H2.45152C2.25617 1.48093 2.06083 1.48141 1.86549 1.4819C1.31853 1.48326 0.771569 1.48461 0.224608 1.47532C0.0342391 1.47252 0 1.53557 0 1.7135C0.00532581 2.78464 0.0048527 3.85578 0.00437929 4.92758C0.004244 5.23388 0.00410869 5.54023 0.00410869 5.84665L3.16243 1.98093ZM3.16243 1.98093V1.48093V0.5H24.4986V27.7917H24.4969H24.4949H24.4929H24.4909H24.4889H24.4869H24.4849H24.4829H24.481H24.479H24.477H24.475H24.473H24.471H24.469H24.467H24.465H24.463H24.461H24.459H24.4571H24.4551H24.4531H24.4511H24.4491H24.4471H24.4451H24.4431H24.4411H24.4391H24.4371H24.4351H24.4332H24.4312H24.4292H24.4272H24.4252H24.4232H24.4212H24.4192H24.4172H24.4152H24.4132H24.4113H24.4093H24.4073H24.4053H24.4033H24.4013H24.3993H24.3973H24.3953H24.3933H24.3914H24.3894H24.3874H24.3854H24.3834H24.3814H24.3794H24.3774H24.3754H24.3735H24.3715H24.3695H24.3675H24.3655H24.3635H24.3615H24.3595H24.3575H24.3555H24.3536H24.3516H24.3496H24.3476H24.3456H24.3436H24.3416H24.3396H24.3376H24.3357H24.3337H24.3317H24.3297H24.3277H24.3257H24.3237H24.3217H24.3197H24.3178H24.3158H24.3138H24.3118H24.3098H24.3078H24.3058H24.3038H24.3019H24.2999H24.2979H24.2959H24.2939H24.2919H24.2899H24.2879H24.286H24.284H24.282H24.28H24.278H24.276H24.274H24.272H24.2701H24.2681H24.2661H24.2641H24.2621H24.2601H24.2581H24.2561H24.2542H24.2522H24.2502H24.2482H24.2462H24.2442H24.2422H24.2402H24.2383H24.2363H24.2343H24.2323H24.2303H24.2283H24.2263H24.2243H24.2224H24.2204H24.2184H24.2164H24.2144H24.2124H24.2104H24.2085H24.2065H24.2045H24.2025H24.2005H24.1985H24.1965H24.1946H24.1926H24.1906H24.1886H24.1866H24.1846H24.1826H24.1807H24.1787H24.1767H24.1747H24.1727H24.1707H24.1687H24.1668H24.1648H24.1628H24.1608H24.1588H24.1568H24.1548H24.1529H24.1509H24.1489H24.1469H24.1449H24.1429H24.141H24.139H24.137H24.135H24.133H24.131H24.129H24.1271H24.1251H24.1231H24.1211H24.1191H24.1171H24.1152H24.1132H24.1112H24.1092H24.1072H24.1052H24.1032H24.1013H24.0993H24.0973H24.0953H24.0933H24.0913H24.0894H24.0874H24.0854H24.0834H24.0814H24.0794H24.0775H24.0755H24.0735H24.0715H24.0695H24.0675H24.0656H24.0636H24.0616H24.0596H24.0576H24.0556H24.0537H24.0517H24.0497H24.0477H24.0457H24.0437H24.0418H24.0398H24.0378H24.0358H24.0338H24.0318H24.0299H24.0279H24.0259H24.0239H24.0219H24.0199H24.018H24.016H24.014H24.012H24.01H24.008H24.0061H24.0041H24.0021H24.0001H23.9981H23.9961H23.9942H23.9922H23.9902H23.9882H23.9862H23.9843H23.9823H23.9803H23.9783C23.7549 27.7917 23.4961 27.8494 23.2978 28.0516C23.1012 28.2521 23.0469 28.5104 23.0469 28.7317V28.7357V28.7396V28.7436V28.7476V28.7516V28.7556V28.7595V28.7635V28.7675V28.7715V28.7755V28.7795V28.7834V28.7874V28.7914V28.7954V28.7994V28.8033V28.8073V28.8113V28.8153V28.8193V28.8232V28.8272V28.8312V28.8352V28.8392V28.8432V28.8471V28.8511V28.8551V28.8591V28.8631V28.867V28.871V28.875V28.879V28.883V28.887V28.8909V28.8949V28.8989V28.9029V28.9069V28.9108V28.9148V28.9188V28.9228V28.9268V28.9308V28.9347V28.9387V28.9427V28.9467V28.9507V28.9546V28.9586V28.9626V28.9666V28.9706V28.9745V28.9785V28.9825V28.9865V28.9905V28.9945V28.9984V29.0024V29.0064V29.0104V29.0144V29.0183V29.0223V29.0263V29.0303V29.0343V29.0383V29.0422V29.0462V29.0502V29.0542V29.0582V29.0621V29.0661V29.0701V29.0741V29.0781V29.0821V29.086V29.09V29.094V29.098V29.102V29.1059V29.1099V29.1139V29.1179V29.1219V29.1258V29.1298V29.1338V29.1378V29.1418V29.1458V29.1497V29.1537V29.1577V29.1617V29.1657V29.1696V29.1736V29.1776V29.1816V29.1856V29.1896V29.1935V29.1975V29.2015V29.2055V29.2095V29.2134V29.2174V29.2214V29.2254V29.2294V29.2333V29.2373V29.2413V29.2453V29.2493V29.2533V29.2572V29.2612V29.2652V29.2692V29.2732V29.2771V29.2811V29.2851V29.2891V29.2931V29.2971V29.301V29.305V29.309V29.313V29.317V29.3209V29.3249V29.3289V29.3329V29.3369V29.3409V29.3448V29.3488V29.3528V29.3568V29.3608V29.3647V29.3687V29.3727V29.3767V29.3807V29.3846V29.3886V29.3926V29.3966V29.4006V29.4046V29.4085V29.4125V29.4165V29.4205V29.4245V29.4284V29.4324V29.4364V29.4404V29.4444V29.4484V29.4523V29.4563V29.4603V29.4643V29.4683V29.4722V29.4762V29.4802V29.4842V29.4882V29.4921V29.4961V29.5001V29.5041V29.5081V29.5121V29.516V29.52V29.524V29.528V29.532V29.5359V29.5399V29.5439V29.5479V29.5519V29.5559V29.5598V29.5638V29.5678V29.5718V29.5758V29.5797V29.5837V29.5877V29.5917V29.5957V29.5997V29.6036V29.6076V29.6116V29.6156V29.6196V29.6235V29.6275V29.6315V29.6355V29.6395V29.6434V29.6474V29.6514V29.6554V29.6594V29.6634V29.6673V29.6713V29.6753V29.6793V29.6833V29.6872V29.6912V29.6952V29.6992V29.7032V29.7072V29.7111V29.7151V29.7191V29.7231V29.7271V29.731V29.735V29.739V29.743V29.747V29.7509V29.7549V29.7589V29.7629V29.7669V29.7709V29.7748V29.7788V29.7828V29.7868V29.7908V29.7947V29.7987V29.8027V29.8067V29.8107V29.8147V29.8186V29.8226V29.8266V29.8306V29.8346V29.8385V29.8425V29.8465V29.8505V29.8545V29.8585V29.8624V29.8664V29.8704V29.8744V29.8784V29.8823V29.8863V29.8903V29.8943V29.8983V29.9022V29.9062V29.9102V29.9142V29.9182V29.9222V29.9261V29.9301V29.9341V29.9381V29.9421V29.946V29.95V29.954V29.958V29.962V29.966V29.9699V29.9739V29.9779V29.9819V29.9859V29.9898V29.9938V29.9978V30.0018V30.0058V30.0098V30.0137V30.0177V30.0217V30.0257V30.0297V30.0336V30.0376V30.0416V30.0456V30.0496V30.0535V30.0575V30.0615V30.0655V30.0695V30.0735V30.0774V30.0814V30.0854V30.0894V30.0934V30.0973V30.1013V30.1053V30.1093V30.1133V30.1173V30.1212V30.1252V30.1292V30.1332V30.1372V30.1411V30.1451V30.1491V30.1531V30.1571V30.161V30.165V30.169V30.173V30.177V30.181V30.1849V30.1889V30.1929V30.1969V30.2009V30.2048V30.2088V30.2128V30.2168V30.2208V30.2248V30.2287V30.2327V30.2367V30.2407V30.2447V30.2486V30.2526V30.2566V30.2606V30.2646V30.2686V30.2725V30.2765V30.2805V30.2845V30.2885V30.2924V30.2964V30.3004V30.3044V30.3084V30.3123V30.3163V30.3203V30.3243V30.3283V30.3323V30.3362V30.3402V30.3442V30.3482V30.3522V30.3561V30.3601V30.3641V30.3681V30.3721V30.3761V30.38V30.384V30.388V30.392V30.396V30.3999V30.4039V30.4079V30.4119V30.4159V30.4198V30.4238V30.4278V30.4318V30.4358V30.4398V30.4437V30.4477V30.4517V30.4557V30.4597V30.4636V30.4676V30.4716V30.4756V30.4796V30.4836V30.4875V30.4915V30.4955V30.4995V30.5H0.504109M3.16243 1.98093L0.504109 30.5M0.504109 30.5V30.4838V30.4353V30.3868V30.3383V30.2898V30.2413V30.1928V30.1443V30.0958V30.0473V29.9989V29.9504V29.9019V29.8534V29.8049V29.7564V29.7079V29.6594V29.6109V29.5624V29.5139V29.4654V29.4169V29.3684V29.3199V29.2715V29.223V29.1745V29.126V29.0775V29.029V28.9805V28.932V28.8835V28.835V28.7865V28.738V28.6895V28.641V28.5925V28.544V28.4955V28.4471V28.3986V28.3501V28.3016V28.2531V28.2046V28.1561V28.1076V28.0591V28.0106V27.9621V27.9136V27.8651V27.8166V27.7681V27.7196V27.6711V27.6227V27.5742V27.5257V27.4772V27.4287V27.3802V27.3317V27.2832V27.2347V27.1862V27.1377V27.0892V27.0407V26.9922V26.9437V26.8952V26.8467V26.7982V26.7497V26.7012V26.6528V26.6043V26.5558V26.5073V26.4588V26.4103V26.3618V26.3133V26.2648V26.2163V26.1678V26.1193V26.0708V26.0223V25.9738V25.9253V25.8768V25.8283V25.7798V25.7313V25.6828V25.6343V25.5858V25.5374V25.4889V25.4404V25.3919V25.3434V25.2949V25.2464V25.1979V25.1494V25.1009V25.0524V25.0039V24.9554V24.9069V24.8584V24.8099V24.7614V24.7129V24.6644V24.6159V24.5674V24.5189V24.4704V24.4219V24.3734V24.3249V24.2765V24.228V24.1795V24.131V24.0825V24.034V23.9855V23.937V23.8885V23.84V23.7915V23.743V23.6945V23.646V23.5975V23.549V23.5005V23.452V23.4035V23.355V23.3065V23.258V23.2095V23.161V23.1125V23.064V23.0155V22.967V22.9185V22.87V22.8215V22.7731V22.7246V22.6761V22.6276V22.5791V22.5306V22.4821V22.4336V22.3851V22.3366V22.2881V22.2396V22.1911V22.1426V22.0941V22.0456V21.9971V21.9486V21.9001V21.8516V21.8031V21.7546V21.7061V21.6576V21.6091V21.5606V21.5121V21.4636V21.4151V21.3666V21.3181V21.2696V21.2211V21.1726V21.1241V21.0756V21.0271V20.9786V20.9301V20.8816V20.8331V20.7847V20.7362V20.6877V20.6392V20.5907V20.5422V20.4937V20.4452V20.3967V20.3482V20.2997V20.2512V20.2027V20.1542V20.1057V20.0572V20.0087V19.9602V19.9117V19.8632V19.8147V19.7662V19.7177V19.6692V19.6207V19.5722V19.5237V19.4752V19.4267V19.3782V19.3297V19.2812V19.2327V19.1842V19.1357V19.0872V19.0387V18.9902V18.9417V18.8932V18.8447V18.7962V18.7477V18.6992V18.6507V18.6022V18.5537V18.5052V18.4567V18.4082V18.3597V18.3112V18.2627V18.2142V18.1657V18.1172V18.0687V18.0202V17.9717V17.9232V17.8747V17.8262V17.7777V17.7292V17.6807V17.6322V17.5837V17.5352V17.4867V17.4382V17.3897V17.3412V17.2927V17.2442V17.1957V17.1472V17.0987V17.0503V17.0018V16.9533V16.9048V16.8563V16.8078V16.7593V16.7108V16.6623V16.6138V16.5653V16.5168V16.4683V16.4198V16.3713V16.3228V16.2743V16.2258V16.1773V16.1288V16.0803V16.0318V15.9833V15.9348V15.8863V15.8378V15.7893V15.7408V15.6923V15.6438V15.5953V15.5468V15.4983V15.4498V15.4013V15.3528V15.3043V15.2558V15.2073V15.1588V15.1103V15.0618V15.0133V14.9648V14.9163V14.8678V14.8193V14.7708V14.7223V14.6738V14.6253V14.5768V14.5283V14.4798V14.4313V14.3828V14.3343V14.2858V14.2373V14.1888V14.1403V14.0918V14.0433V13.9948V13.9463V13.8978V13.8493V13.8008V13.7523V13.7038V13.6553V13.6068V13.5583V13.5098V13.4613V13.4128V13.3643V13.3158V13.2673V13.2188V13.1703V13.1218V13.0733V13.0248V12.9763V12.9278V12.8793V12.8308V12.7823V12.7338V12.6853V12.6368V12.5883V12.5398V12.4913V12.4428V12.3943V12.3458V12.2973V12.2488V12.2003V12.1518V12.1033V12.0548V12.0063V11.9578V11.9093V11.8608V11.8123V11.7638V11.7153V11.6668V11.6183V11.5698V11.5212V11.4727V11.4242V11.3757V11.3272V11.2787V11.2302V11.1817V11.1332V11.0847V11.0362V10.9877V10.9392V10.8907V10.8422V10.7937V10.7452V10.6967V10.6482V10.5997V10.5512V10.5027V10.4542V10.4057V10.3572V10.3087V10.2602V10.2117V10.1632V10.1147V10.0662V10.0177V9.96923V9.92073V9.87223V9.82373V9.77523V9.72672V9.67822V9.62972V9.58122V9.53272V9.48422V9.43572V9.38722V9.33872V9.29022V9.24172V9.19322V9.14472V9.09621V9.04771V8.99921V8.95071V8.90221V8.85371V8.80521V8.75671V8.70821V8.65971V8.61121V8.56271V8.5142V8.4657V8.4172V8.3687V8.3202V8.2717V8.2232V8.1747V8.1262V8.0777V8.02919V7.98069V7.93219V7.88369V7.83519V7.78669V7.73819V7.68969V7.64119V7.59269V7.54419V7.49568V7.44718V7.39868V7.35018V7.30168V7.25318V7.20468V7.15618V7.10768V7.05918V7.01067V6.96217V6.91367V6.86517V6.81667V6.76817V6.71967V6.67117V6.62267V6.57417V6.52566V6.47716V6.42866V6.38016V6.33166V6.28316V6.23466V6.18616V6.13766V6.08916V6.04066V5.99215V5.94365V5.89515V5.84665V30.5ZM1.20385 29.7839H0.703846V30.2839H1.20385V29.7839ZM1.20385 29.7839V2.70686M1.20385 29.7839H22.3554M1.20385 2.70686V2.20686H0.703846V2.70686H1.20385ZM1.20385 2.70686H22.3554M22.3554 2.70686V29.7839M22.3554 2.70686V2.20686H22.8554V2.70686H22.3554ZM22.3554 29.7839V30.2839H22.8554V29.7839H22.3554Z" stroke="#062B65"/>
<path d="M1.20386 29.7839V2.70691H22.3554V29.7839H1.20386ZM6.54104 9.21206C6.5342 12.1641 8.86245 14.5739 11.7331 14.5852C14.6571 14.5964 17.0072 12.2174 17.0209 9.23168C17.0346 6.29364 14.6749 3.86979 11.7974 3.86419C8.89669 3.85859 6.54926 6.2474 6.54104 9.21066V9.21206ZM4.20183 25.1142V26.1748H19.3533V25.1142H4.20183ZM4.19909 19.0602H4.4374C9.33084 19.0602 14.2243 19.0602 19.1177 19.0602C19.1657 19.0602 19.2177 19.0714 19.2602 19.056C19.2999 19.0405 19.3588 18.9971 19.3588 18.9649C19.3656 18.6426 19.3629 18.3204 19.3629 17.9897H4.19909V19.0602ZM4.19909 16.6657H19.3547V15.6219H4.19909V16.6657ZM19.3656 21.4238V20.3744H4.20046V21.4238H19.3656ZM15.0625 27.4946H4.19909V28.5566H15.0625V27.4946ZM15.0625 22.7492H4.2032V23.7986H15.0638V22.7492H15.0625Z" fill="#F6F8FC"/>
<path d="M6.54103 9.21196C6.54788 6.2473 8.89668 3.85988 11.7974 3.86549C14.6762 3.87109 17.0346 6.29494 17.0209 9.23298C17.0072 12.2186 14.6571 14.5977 11.733 14.5865C8.86244 14.5752 6.53418 12.1654 6.54103 9.21336V9.21196ZM11.8495 4.70893C11.6112 4.72434 11.4495 4.72714 11.2893 4.74676C7.92292 5.14466 6.23973 9.06345 8.21875 11.8852C8.34201 12.0603 8.44883 12.1262 8.66796 12.0631C9.28427 11.8852 9.86907 11.647 10.384 11.2519C10.584 11.0978 10.7182 10.5668 10.5744 10.3804C10.4005 10.1563 10.3498 9.89988 10.2895 9.63788C10.2608 9.51319 10.2758 9.36468 10.1033 9.32545C10.0772 9.31984 10.0512 9.25819 10.0444 9.22037C10.0047 8.96677 9.96768 8.71318 9.93892 8.45818C9.93207 8.39794 9.94713 8.29286 9.98137 8.27745C10.1005 8.22421 10.0608 8.14014 10.0608 8.05188C10.0608 7.72963 10.0444 7.40318 10.0868 7.08514C10.1087 6.91561 10.2553 6.7671 10.3142 6.59897C10.4018 6.34538 10.5621 6.16604 10.7839 6.04415C11.4139 5.69668 12.07 5.67707 12.7246 5.94467C13.0697 6.08478 13.3039 6.34958 13.345 6.75449C13.3615 6.91701 13.3984 7.07673 13.4121 7.23926C13.4354 7.53068 13.4477 7.8221 13.4669 8.11352C13.4696 8.15696 13.4779 8.20319 13.4916 8.24382C13.519 8.32228 13.5861 8.39934 13.5792 8.4736C13.5587 8.72299 13.519 8.97098 13.4751 9.21756C13.4655 9.2694 13.4108 9.31284 13.3765 9.36047C13.3354 9.41651 13.2779 9.46695 13.256 9.5314C13.1725 9.77799 13.1314 10.0456 13.0177 10.2754C12.8712 10.571 12.9342 11.0796 13.1957 11.2757C13.7353 11.6806 14.3421 11.9286 14.9885 12.0898C15.1118 12.1206 15.183 12.1052 15.2583 11.9987C16.3115 10.5164 16.5128 8.91914 15.7335 7.27148C14.946 5.60701 13.5696 4.8 11.8508 4.71453L11.8495 4.70893Z" fill="#062B65"/>
<path d="M4.2019 25.1155H19.3534V26.1761H4.2019V25.1155Z" fill="#062B65"/>
<path d="M4.19897 19.0602V17.9897H19.3641C19.3641 18.3204 19.3669 18.6426 19.36 18.9649C19.36 18.9971 19.3011 19.0405 19.2614 19.056C19.219 19.0714 19.1669 19.0602 19.119 19.0602C14.2255 19.0602 9.3321 19.0602 4.43865 19.0602H4.20034H4.19897Z" fill="#062B65"/>
<path d="M4.19897 16.6671V15.6233H19.3546V16.6671H4.19897Z" fill="#062B65"/>
<path d="M19.3656 21.4251H4.20044V20.3757H19.3656V21.4251Z" fill="#062B65"/>
<path d="M15.0623 27.496V28.558H4.19897V27.496H15.0623Z" fill="#062B65"/>
<path d="M15.0638 22.7505V23.7999H4.20312V22.7505H15.0638Z" fill="#062B65"/>
<path d="M11.8494 4.70897C13.5682 4.79444 14.9433 5.60145 15.7322 7.26592C16.5114 8.91357 16.3101 10.5108 15.2569 11.9931C15.1816 12.0996 15.1104 12.115 14.9871 12.0842C14.3407 11.9231 13.734 11.6751 13.1944 11.2702C12.9341 11.0754 12.8711 10.5668 13.0163 10.2698C13.13 10.04 13.1711 9.77243 13.2546 9.52584C13.2765 9.46279 13.3341 9.41235 13.3751 9.35491C13.4094 9.30727 13.4655 9.26384 13.4737 9.212C13.5176 8.96541 13.5573 8.71742 13.5778 8.46803C13.5833 8.39518 13.5176 8.31672 13.4902 8.23826C13.4751 8.19763 13.4683 8.15139 13.4655 8.10796C13.4464 7.81654 13.4354 7.52512 13.4107 7.2337C13.3971 7.07117 13.3601 6.91145 13.3436 6.74893C13.3026 6.34402 13.067 6.07922 12.7232 5.93911C12.0686 5.67291 11.4126 5.69252 10.7826 6.03859C10.5607 6.16048 10.3991 6.33982 10.3128 6.59341C10.2539 6.76294 10.1074 6.91145 10.0854 7.07958C10.0444 7.39762 10.0608 7.72407 10.0594 8.04631C10.0594 8.13458 10.0991 8.21865 9.97999 8.27189C9.94576 8.2873 9.93069 8.39238 9.93754 8.45262C9.9663 8.70762 10.0033 8.96121 10.043 9.2148C10.0485 9.25403 10.0745 9.31428 10.1019 9.31988C10.2745 9.36051 10.2594 9.50763 10.2881 9.63232C10.3484 9.89292 10.3991 10.1507 10.573 10.3749C10.7168 10.5612 10.5826 11.0922 10.3826 11.2463C9.86769 11.6415 9.28289 11.8796 8.66658 12.0576C8.44745 12.1206 8.33926 12.0548 8.21737 11.8796C6.23972 9.05788 7.92291 5.1391 11.2879 4.7412C11.4482 4.72158 11.6098 4.71878 11.8481 4.70337L11.8494 4.70897Z" fill="#F6F8FC"/>
</g>
<defs>
<clipPath id="clip0_201_4484">
<rect width="25" height="31" fill="white"/>
</clipPath>
</defs>
</svg>
