<svg width="29" height="31" viewBox="0 0 29 31" fill="none" xmlns="http://www.w3.org/2000/svg">
<g clip-path="url(#clip0_208_3928)">
<path d="M14.5949 -0.000115565C14.8455 0.0741318 15.0955 0.149767 15.3468 0.221933C17.631 0.875587 19.916 1.52924 22.2002 2.18289C22.5701 2.28906 22.6974 2.65683 22.474 2.97533C22.1226 3.47702 21.7698 3.97732 21.4198 4.4797C21.3905 4.52134 21.3694 4.57477 21.3612 4.62542C21.2127 5.51917 21.0656 6.41291 20.9199 7.30735C20.9015 7.41907 20.8586 7.51829 20.783 7.60156C20.6876 7.70565 20.5895 7.80765 20.4983 7.9159C20.4704 7.94851 20.4479 7.99847 20.4472 8.0408C20.4431 8.46616 20.4513 8.89152 20.4431 9.31619C20.4254 10.2474 20.217 11.1391 19.871 11.9974C19.3684 13.2444 18.6383 14.3282 17.6229 15.2039C17.5984 15.2248 17.5745 15.2643 17.5745 15.2955C17.5834 15.8951 17.7489 16.4398 18.1207 16.9123C18.1541 16.9546 18.1827 16.9657 18.2338 16.9505C18.3414 16.9172 18.447 16.9387 18.5512 16.9762C19.5148 17.321 20.4772 17.6708 21.445 18.0038C21.6833 18.0857 21.9387 18.1155 22.1873 18.1648C22.6354 18.2536 23.0883 18.3237 23.5317 18.432C23.7592 18.4875 23.9819 18.5902 24.1889 18.7047C25.201 19.2626 25.8514 20.1174 26.1919 21.2353C27.112 24.2531 28.0423 27.2674 28.9686 30.2831C28.9761 30.3081 28.9897 30.331 28.9999 30.3546V30.5967C28.9951 30.6023 28.987 30.6078 28.9856 30.6141C28.9325 30.807 28.7527 30.968 28.5129 30.9603C28.2916 30.9534 28.1336 30.816 28.06 30.5766C27.1215 27.5207 26.1831 24.464 25.2432 21.4081C25.0137 20.6622 24.5696 20.0814 23.9213 19.6636C23.7183 19.5325 23.5079 19.4104 23.2688 19.3625C22.6729 19.2431 22.0763 19.13 21.4797 19.0162C21.4402 19.0086 21.3952 19.0107 21.3564 19.0218C20.6427 19.2272 19.9296 19.4346 19.2165 19.6421C19.1947 19.6484 19.1743 19.6567 19.1457 19.6671C19.2765 19.8427 19.4011 20.0092 19.5257 20.1757C19.7253 20.4429 19.6987 20.7052 19.4481 20.9203C18.1486 22.0382 16.8506 23.1567 15.5484 24.2711C15.4346 24.3683 15.3052 24.4633 15.167 24.5105C14.9988 24.5681 14.9722 24.6597 14.9722 24.8249C14.979 26.7137 14.9756 28.6025 14.977 30.4913C14.977 30.6758 14.9096 30.8209 14.7584 30.9215C14.7086 30.9548 14.6494 30.9735 14.5949 30.9992H14.4049C14.3988 30.9943 14.3926 30.9881 14.3858 30.986C14.1331 30.8944 14.0255 30.7411 14.0255 30.4718C14.0255 28.9328 14.0255 27.3937 14.0255 25.8539C14.0255 25.4612 14.0242 25.0684 14.0269 24.675C14.0269 24.616 14.0146 24.5855 13.9547 24.5647C13.7599 24.498 13.5883 24.3891 13.431 24.2538C12.7377 23.6556 12.043 23.0589 11.349 22.4621C10.7456 21.9431 10.1422 21.4241 9.53875 20.905C9.31196 20.7093 9.28336 20.4387 9.46247 20.1959C9.51355 20.1272 9.56463 20.0585 9.61571 19.9905C9.69471 19.8843 9.77372 19.7781 9.8568 19.6664C9.83569 19.6581 9.82411 19.6518 9.81186 19.6484C9.08313 19.4367 8.35508 19.2251 7.62567 19.0148C7.59434 19.0058 7.55756 19.0079 7.52555 19.0148C7.06652 19.1023 6.60681 19.1904 6.14846 19.2806C5.96185 19.3174 5.76707 19.3347 5.5934 19.4055C4.67806 19.7788 4.0583 20.4484 3.76136 21.406C2.96044 23.9908 2.17042 26.5797 1.37563 29.1666C1.22648 29.6516 1.07937 30.1374 0.928175 30.6217C0.864837 30.825 0.68572 30.9569 0.481403 30.9603C0.27913 30.9645 0.0986502 30.8354 0.0250963 30.6356C0.0182857 30.6162 0.00738887 30.5981 -0.00146484 30.5794C-0.00146484 30.5148 -0.00146484 30.4503 -0.00146484 30.3858C0.0986502 30.0631 0.200127 29.7405 0.299561 29.4178C1.1502 26.6491 1.99334 23.8777 2.85488 21.1118C3.25398 19.8295 4.09372 18.9489 5.32779 18.4708C5.53006 18.3924 5.75345 18.3709 5.96866 18.3279C6.45289 18.2321 6.93985 18.1475 7.42271 18.0427C7.62022 17.9997 7.80955 17.9178 8.00093 17.8491C8.82092 17.5576 9.64023 17.2655 10.4589 16.9706C10.6366 16.9068 10.8007 16.922 10.9574 17.0372C10.9717 17.0254 10.9867 17.015 10.9983 17.0018C11.3912 16.5577 11.5826 16.0304 11.618 15.4399C11.6194 15.4128 11.5949 15.3753 11.5724 15.3573C10.9513 14.8667 10.4282 14.2824 9.98757 13.6211C9.30243 12.5921 8.83727 11.4687 8.64453 10.2377C8.59072 9.89352 8.57234 9.5424 8.56008 9.19337C8.54577 8.80895 8.55871 8.42383 8.55463 8.03941C8.55463 7.99709 8.53215 7.94713 8.50491 7.91451C8.41569 7.80834 8.31966 7.70842 8.22568 7.60642C8.14327 7.51691 8.09968 7.41074 8.07993 7.2907C7.93419 6.39695 7.78708 5.50251 7.63861 4.60877C7.6318 4.56575 7.61273 4.52065 7.58821 4.48526C7.23202 3.97455 6.87242 3.46592 6.51555 2.95451C6.35482 2.72414 6.39296 2.43131 6.60817 2.2731C6.66674 2.23008 6.73825 2.20024 6.80772 2.18012C9.1451 1.50981 11.4832 0.841586 13.8205 0.172666C14.0153 0.117154 14.2094 0.0560904 14.4035 -0.00219727C14.4669 -0.00219727 14.5302 -0.00219727 14.5935 -0.00219727L14.5949 -0.000115565ZM9.51355 8.72568C9.50129 9.2128 9.51151 9.68812 9.59392 10.1593C9.79347 11.2938 10.2355 12.3229 10.8961 13.2548C11.4062 13.9743 12.0178 14.585 12.7901 15.011C13.5686 15.4406 14.3892 15.5974 15.2617 15.3864C15.9475 15.2206 16.5393 14.8709 17.0699 14.408C17.8619 13.7169 18.4442 12.8662 18.8753 11.9044C19.3228 10.9059 19.538 9.86021 19.4917 8.76107C19.4917 8.75136 19.4883 8.74233 19.4856 8.72499C19.4563 8.74095 19.4338 8.75413 19.4106 8.76523C19.0994 8.91095 18.795 9.07749 18.4749 9.19823C17.6113 9.52436 16.7089 9.6451 15.7936 9.66592C15.1023 9.68188 14.4097 9.67216 13.7177 9.67494C13.1654 9.67702 12.6144 9.64996 12.0661 9.57363C11.3245 9.46954 10.6053 9.28288 9.92968 8.94634C9.79279 8.87834 9.6593 8.8034 9.51287 8.72568H9.51355ZM21.3244 2.94341C21.2965 2.93369 21.2822 2.92814 21.2672 2.92329C19.0313 2.28351 16.7954 1.64304 14.5588 1.00465C14.5207 0.99355 14.4744 0.995631 14.4362 1.00673C12.2126 1.64165 9.98893 2.27865 7.76597 2.91496C7.7394 2.92259 7.71352 2.93161 7.68288 2.94133C7.69241 2.95868 7.69718 2.96839 7.70263 2.97741C7.90081 3.25983 8.09764 3.54294 8.29923 3.82258C8.31898 3.84964 8.3687 3.86769 8.4048 3.86769C9.85204 3.86977 11.2993 3.86977 12.7465 3.86977H12.8269C12.8323 3.85242 12.8351 3.84756 12.8351 3.8427C12.8351 3.61164 12.8351 3.37987 12.8364 3.1488C12.8378 2.87333 13.0421 2.66238 13.3132 2.66169C14.1052 2.6603 14.898 2.6603 15.69 2.66169C15.9611 2.66169 16.1634 2.87194 16.1641 3.15019C16.1647 3.35975 16.1641 3.57 16.1641 3.77956C16.1641 3.80801 16.1668 3.83577 16.1681 3.86977C16.211 3.86977 16.2451 3.86977 16.2792 3.86977C17.6365 3.86977 18.9938 3.86977 20.3512 3.86977C20.4567 3.86977 20.5793 3.90099 20.6631 3.85658C20.7496 3.81009 20.7973 3.69005 20.862 3.60192C20.8681 3.59359 20.8742 3.58457 20.8804 3.57555C21.0261 3.36808 21.1712 3.15991 21.323 2.94341H21.3244ZM20.3566 4.84192C20.3246 4.84053 20.3062 4.83845 20.2878 4.83845C18.9148 4.83845 17.5418 4.83845 16.1681 4.83706C16.1068 4.83706 16.0885 4.86274 16.0701 4.91409C15.8324 5.5948 15.2099 6.04584 14.5091 6.04653C13.7994 6.04792 13.1742 5.60244 12.9352 4.92103C12.9127 4.85719 12.8855 4.83637 12.8187 4.83637C11.4586 4.83845 10.0986 4.83776 8.73919 4.83845C8.71127 4.83845 8.68267 4.83845 8.64998 4.83845C8.6527 4.87037 8.65338 4.89188 8.65679 4.9127C8.75418 5.5039 8.85293 6.0951 8.94692 6.6877C8.95781 6.75778 8.98369 6.77235 9.04771 6.77235C9.73966 6.77027 10.4316 6.77096 11.1236 6.77096C14.065 6.77096 17.0072 6.77096 19.9487 6.77305C20.0222 6.77305 20.0474 6.75154 20.0583 6.67937C20.1196 6.28385 20.1864 5.88902 20.2511 5.49349C20.2858 5.27908 20.3205 5.06466 20.3566 4.84262V4.84192ZM10.4779 20.4408C10.5065 20.4665 10.5283 20.4859 10.5501 20.5046C11.7168 21.508 12.8827 22.5114 14.0494 23.5141C14.3354 23.7597 14.6705 23.759 14.9565 23.5134C16.1252 22.5086 17.2932 21.5032 18.4613 20.4984C18.4824 20.4797 18.5028 20.4602 18.5253 20.4387C18.3448 20.1965 18.1691 19.9613 17.9927 19.7254C17.7455 19.3944 17.8687 19.0225 18.2631 18.9087C18.7507 18.7678 19.2377 18.6263 19.7253 18.4847C19.7478 18.4785 19.7702 18.4694 19.8125 18.4556C19.7641 18.4375 19.7403 18.4278 19.7158 18.4188C19.3398 18.2849 18.9618 18.1537 18.5879 18.0135C18.4973 17.9795 18.4463 17.992 18.3782 18.0621C17.3702 19.105 16.3602 20.1459 15.3482 21.1847C14.8884 21.6565 14.1583 21.6662 13.6823 21.211C13.6033 21.1354 13.5291 21.0556 13.4528 20.9772C12.4959 19.9918 11.5397 19.0072 10.5842 18.0212C10.5501 17.9858 10.5215 17.9775 10.4738 17.9948C10.0707 18.1405 9.66679 18.2835 9.26361 18.4278C9.24522 18.434 9.22887 18.4451 9.20027 18.4597C9.23841 18.4722 9.26292 18.4805 9.28744 18.4875C9.77235 18.6283 10.2573 18.7692 10.7422 18.9101C11.1358 19.0245 11.2591 19.3958 11.0119 19.7268C10.8362 19.962 10.6604 20.1972 10.4786 20.4415L10.4779 20.4408ZM16.6667 15.8624C16.0176 16.217 15.3366 16.428 14.6051 16.4467C13.8743 16.4654 13.1844 16.2878 12.5231 15.961C12.3971 16.6459 12.1138 17.2371 11.6466 17.7332C11.665 17.754 11.6793 17.77 11.6936 17.7852C12.5572 18.6748 13.4201 19.5637 14.2837 20.4533C14.4444 20.6191 14.5595 20.6184 14.7209 20.4519C15.4864 19.6643 16.2512 18.8767 17.0167 18.0885C17.1652 17.9358 17.3123 17.7825 17.4635 17.6263C17.0263 17.1191 16.7729 16.5314 16.6667 15.8618V15.8624ZM9.79619 7.7452C9.83774 7.77434 9.85885 7.78961 9.88064 7.80349C10.168 7.99223 10.4732 8.14419 10.7939 8.26493C11.5806 8.56123 12.3999 8.6785 13.2328 8.69654C13.9745 8.7125 14.7168 8.70417 15.4585 8.70417C16.0272 8.70417 16.5931 8.66045 17.1529 8.55568C17.8149 8.43216 18.4469 8.2233 19.0258 7.86524C19.081 7.83124 19.1355 7.79447 19.19 7.75908C19.1879 7.75422 19.1866 7.74936 19.1845 7.74451H9.79551L9.79619 7.7452ZM13.7988 3.63315C13.7988 3.91348 13.7783 4.18688 13.8035 4.45472C13.8383 4.81972 14.1549 5.0827 14.5077 5.07854C14.8694 5.07368 15.1806 4.79751 15.2072 4.42836C15.2262 4.16884 15.2113 3.90724 15.2113 3.64633C15.2113 3.64217 15.2051 3.638 15.2004 3.63315H13.7981H13.7988Z" fill="#062B65"/>
<path d="M14.595 31C14.6495 30.9743 14.7087 30.9555 14.7584 30.9222C14.9096 30.8216 14.977 30.6759 14.977 30.492C14.9757 28.6032 14.9784 26.7144 14.9723 24.8256C14.9723 24.6605 14.9988 24.5689 15.1671 24.5113C15.3053 24.4641 15.4347 24.369 15.5484 24.2719C16.8506 23.1575 18.1487 22.0389 19.4482 20.9211C19.6981 20.7059 19.7254 20.4437 19.5258 20.1765C19.4012 20.01 19.2765 19.8427 19.1458 19.6679C19.1744 19.6575 19.1948 19.6491 19.2166 19.6429C19.9297 19.4354 20.6427 19.2279 21.3565 19.0225C21.3953 19.0114 21.4403 19.0094 21.4798 19.017C22.0764 19.1308 22.6736 19.2439 23.2689 19.3632C23.5079 19.4111 23.7184 19.5339 23.9213 19.6644C24.569 20.0814 25.0137 20.6629 25.2433 21.4089C26.1838 24.4648 27.1216 27.5214 28.0601 30.5774C28.1337 30.8168 28.2917 30.9549 28.513 30.9611C28.7521 30.968 28.9325 30.8077 28.9857 30.6148C28.9877 30.6079 28.9952 30.603 29 30.5975V31.0013H14.595V31ZM19.0246 25.1545C18.4702 25.1545 17.9158 25.1545 17.3614 25.1545C17.0863 25.1545 16.8792 25.3641 16.8785 25.6437C16.8772 26.1385 16.8758 26.6332 16.8785 27.1287C16.884 27.9669 17.5548 28.7122 18.3755 28.7698C18.7617 28.7968 19.1512 28.792 19.5387 28.7816C20.448 28.7566 21.1569 28.0079 21.1569 27.0843C21.1569 26.611 21.1569 26.1378 21.1569 25.6639C21.1569 25.3565 20.9581 25.1545 20.655 25.1545C20.1115 25.1545 19.5674 25.1545 19.0239 25.1545H19.0246ZM24.1318 28.7795C24.1318 28.2195 24.1318 27.6602 24.1318 27.1002C24.1318 26.8546 23.9847 26.6596 23.7647 26.6076C23.4548 26.5347 23.1797 26.7644 23.1797 27.1002C23.179 28.2167 23.1797 29.3332 23.1797 30.4504C23.1797 30.4802 23.1803 30.5094 23.1838 30.5392C23.2124 30.7939 23.4487 30.9861 23.6986 30.9576C23.9561 30.9285 24.1311 30.7293 24.1318 30.4587C24.1331 29.8987 24.1318 29.3395 24.1318 28.7795ZM19.0164 24.6716C19.5735 24.6716 20.1306 24.6737 20.6877 24.6709C20.9547 24.6695 21.1583 24.4544 21.1576 24.1859C21.1576 23.9208 20.9526 23.7043 20.6925 23.7043C19.5755 23.7022 18.4593 23.7029 17.3423 23.7043C17.1939 23.7043 17.0706 23.7695 16.9807 23.8903C16.8636 24.0478 16.8431 24.2219 16.9283 24.3989C17.0148 24.5793 17.1646 24.6709 17.3614 24.6716C17.9131 24.6737 18.4647 24.6716 19.0171 24.6716H19.0164ZM23.7 20.6477C23.67 20.681 23.6544 20.6969 23.6401 20.7143C23.5086 20.8718 23.3731 21.0272 23.2471 21.1896C23.1981 21.2527 23.1579 21.2562 23.0898 21.2264C22.9038 21.1431 22.7145 21.0682 22.5259 20.9898C22.5054 20.9814 22.4836 20.9759 22.4462 20.9634C22.5735 21.1729 22.6873 21.37 22.8112 21.5601C22.8568 21.6302 22.8494 21.6719 22.7969 21.7308C22.6627 21.8828 22.5354 22.041 22.406 22.1971C22.391 22.2152 22.3767 22.2353 22.3508 22.2693C22.596 22.2089 22.8194 22.1569 23.0407 22.0965C23.1082 22.0778 23.1388 22.0965 23.1715 22.1541C23.2682 22.3207 23.3704 22.4844 23.4705 22.6489C23.4909 22.6822 23.5113 22.7148 23.542 22.7647C23.5461 22.7287 23.5488 22.7134 23.5495 22.6988C23.5658 22.4761 23.5835 22.2533 23.5978 22.0306C23.6012 21.9765 23.6183 21.9515 23.6727 21.939C23.8839 21.8904 24.0936 21.8356 24.3034 21.7829C24.3218 21.778 24.3402 21.7704 24.3736 21.7593C24.1406 21.6621 23.9241 21.5692 23.7054 21.4824C23.6537 21.4616 23.6387 21.4352 23.6448 21.3811C23.6557 21.2902 23.6605 21.1986 23.6666 21.1077C23.6768 20.9613 23.6871 20.8149 23.6986 20.6477H23.7ZM20.2532 19.9565C20.2491 19.9607 20.245 19.9649 20.2409 19.9697C20.3649 20.173 20.4868 20.377 20.6128 20.579C20.6427 20.6261 20.6393 20.6553 20.6032 20.6969C20.4677 20.8544 20.3356 21.0161 20.2028 21.1764C20.1857 21.1972 20.1701 21.2194 20.1415 21.2562C20.1871 21.2472 20.2096 21.243 20.2327 21.2375C20.4377 21.1868 20.6434 21.1376 20.8477 21.0841C20.894 21.0716 20.9186 21.0807 20.9431 21.123C21.0255 21.2638 21.112 21.4026 21.1964 21.5421C21.2359 21.6073 21.2761 21.6732 21.3156 21.7385C21.3361 21.6899 21.3401 21.6462 21.3435 21.6018C21.3578 21.4089 21.3742 21.216 21.3844 21.0224C21.3878 20.9675 21.4062 20.944 21.4593 20.9315C21.665 20.8836 21.87 20.8308 22.075 20.7795C22.0982 20.7739 22.1199 20.7649 22.1574 20.7524C22.1172 20.7344 22.0934 20.724 22.0689 20.7136C21.8761 20.6331 21.6834 20.5512 21.49 20.4735C21.4443 20.4548 21.4232 20.4339 21.4307 20.3798C21.4423 20.2945 21.445 20.2084 21.4511 20.1224C21.462 19.969 21.4729 19.815 21.4852 19.6394C21.4525 19.6755 21.4348 19.6942 21.4185 19.7137C21.285 19.8733 21.1501 20.0315 21.02 20.1945C20.9812 20.2431 20.9499 20.2501 20.894 20.2258C20.6809 20.1335 20.4657 20.046 20.2518 19.9565H20.2532Z" fill="#F6F8FC"/>
<path d="M0 30.5803C0.00885372 30.599 0.0197506 30.6171 0.0265611 30.6365C0.100115 30.8363 0.280595 30.9654 0.482868 30.9612C0.687185 30.9571 0.865621 30.8259 0.92964 30.6226C1.08083 30.1383 1.22794 29.6525 1.37709 29.1675C2.1712 26.5806 2.96191 23.9917 3.76283 21.4069C4.05977 20.4493 4.67885 19.779 5.59487 19.4064C5.76854 19.3356 5.964 19.3183 6.14993 19.2815C6.60896 19.1913 7.06799 19.1032 7.52702 19.0157C7.55971 19.0095 7.59649 19.0074 7.62714 19.0157C8.35587 19.226 9.08459 19.4376 9.81332 19.6493C9.82558 19.6527 9.83716 19.6583 9.85827 19.6673C9.77518 19.779 9.69618 19.8852 9.61718 19.9914C9.5661 20.0601 9.51434 20.1281 9.46394 20.1968C9.28482 20.4396 9.31343 20.7103 9.54022 20.9059C10.143 21.4257 10.747 21.944 11.3505 22.463C12.0445 23.0605 12.7391 23.6566 13.4324 24.2547C13.5898 24.39 13.7614 24.4989 13.9562 24.5656C14.0161 24.5864 14.0291 24.6169 14.0284 24.6759C14.0256 25.0686 14.027 25.4614 14.027 25.8548C14.027 27.3939 14.027 28.933 14.027 30.4727C14.027 30.742 14.1346 30.8953 14.3873 30.9869C14.3941 30.9897 14.4002 30.9959 14.4064 31.0001H0C0 30.8599 0 30.7205 0 30.5803ZM12.1241 26.4183C12.1241 26.1657 12.1241 25.9124 12.1241 25.6598C12.1241 25.358 11.9232 25.1547 11.6263 25.1547C10.5305 25.1547 9.43534 25.1547 8.33952 25.1547C8.04803 25.1547 7.84575 25.3608 7.84575 25.6564C7.84575 26.1407 7.84507 26.6244 7.84575 27.1087C7.8478 27.9622 8.51183 28.7088 9.3468 28.7699C9.72002 28.797 10.096 28.7845 10.4705 28.7831C11.3852 28.7796 12.1235 28.0212 12.1241 27.0879C12.1241 26.8645 12.1241 26.6417 12.1241 26.4183ZM5.82643 28.7796C5.82643 28.2224 5.82643 27.6659 5.82643 27.1087C5.82643 26.9297 5.76445 26.7812 5.61734 26.6799C5.46206 26.5737 5.2952 26.5619 5.12903 26.6507C4.94787 26.7479 4.87159 26.9103 4.87159 27.1163C4.87227 28.2224 4.87159 29.3278 4.87227 30.4339C4.87227 30.4741 4.87431 30.5151 4.87976 30.5546C4.91654 30.803 5.1481 30.9848 5.39191 30.9571C5.65003 30.9279 5.82438 30.7302 5.82506 30.4582C5.82643 29.8982 5.82506 29.3389 5.82506 28.7789L5.82643 28.7796ZM9.98699 24.6717C10.5359 24.6717 11.0855 24.6731 11.6345 24.6717C11.9178 24.671 12.1262 24.4608 12.1241 24.1818C12.1221 23.9091 11.9117 23.7037 11.6311 23.7037C11.3246 23.7037 11.0188 23.7037 10.7123 23.7037C9.92025 23.7037 9.12818 23.7037 8.33611 23.7037C8.1066 23.7037 7.91863 23.8453 7.8621 24.0583C7.77833 24.374 8.00376 24.671 8.33135 24.6724C8.883 24.6745 9.43466 24.6724 9.98699 24.6724V24.6717ZM5.2775 22.7399C5.28431 22.7413 5.29044 22.742 5.29725 22.7434C5.4212 22.5401 5.54583 22.3374 5.66706 22.1334C5.69158 22.0918 5.7161 22.0793 5.76241 22.0925C5.8741 22.1237 5.98784 22.1501 6.10021 22.1785C6.21871 22.2077 6.33722 22.2361 6.45572 22.2653C6.34403 22.1078 6.22416 21.9655 6.10566 21.8212C6.05867 21.7636 5.98443 21.706 5.97898 21.6435C5.97353 21.5853 6.04232 21.5193 6.0791 21.4576C6.17513 21.298 6.27252 21.1391 6.37944 20.9621C6.33654 20.9774 6.31202 20.985 6.28886 20.9947C6.0934 21.0759 5.89726 21.1557 5.70316 21.2404C5.6548 21.2612 5.62892 21.2529 5.59691 21.2133C5.46411 21.0496 5.32789 20.8879 5.19305 20.7262C5.17534 20.7047 5.15559 20.6853 5.12426 20.6499C5.13992 20.874 5.15423 21.0773 5.16853 21.2806C5.1767 21.3977 5.12721 21.4784 5.02006 21.5228C4.83549 21.5998 4.65093 21.6769 4.45001 21.7608C4.48339 21.7726 4.49973 21.7789 4.51676 21.783C4.70882 21.8316 4.90087 21.8795 5.09361 21.9267C5.22233 21.9586 5.22097 21.9579 5.22982 22.0918C5.24412 22.3083 5.26115 22.5241 5.2775 22.7399ZM7.49093 21.7331L7.50999 21.7351C7.63054 21.5367 7.75449 21.3403 7.87095 21.1391C7.90433 21.0808 7.93702 21.0704 7.99695 21.0884C8.11341 21.1224 8.23191 21.1495 8.34974 21.1786C8.45394 21.2043 8.55814 21.2293 8.66234 21.2543C8.66575 21.2487 8.66915 21.2439 8.67256 21.2383C8.50774 21.0399 8.34293 20.8421 8.17607 20.6402C8.31296 20.4153 8.44781 20.1926 8.59355 19.9518C8.54928 19.9678 8.52545 19.9761 8.50161 19.9858C8.30887 20.0656 8.11477 20.144 7.92339 20.228C7.86823 20.2523 7.83963 20.2398 7.80421 20.1961C7.67004 20.0302 7.53179 19.8672 7.39558 19.7027C7.38128 19.6854 7.37446 19.6611 7.36493 19.6396C7.35608 19.6472 7.34722 19.6548 7.33837 19.6625C7.3554 19.9005 7.37106 20.1392 7.39149 20.3765C7.39626 20.4292 7.38196 20.4535 7.33428 20.4715C7.18649 20.5298 7.04075 20.5923 6.89432 20.6534C6.82213 20.6839 6.74994 20.7144 6.65595 20.7547C6.86027 20.8053 7.04143 20.8504 7.22191 20.8955C7.43576 20.9496 7.4344 20.9496 7.4487 21.1779C7.46028 21.3625 7.47594 21.5471 7.48956 21.7317L7.49093 21.7331Z" fill="#F6F8FC"/>
<path d="M9.51374 8.72579C9.65948 8.80351 9.79365 8.87845 9.93054 8.94645C10.6061 9.28369 11.3253 9.47035 12.067 9.57374C12.6146 9.65007 13.1656 9.67713 13.7186 9.67505C14.4105 9.67227 15.1025 9.68199 15.7944 9.66603C16.7098 9.64452 17.6122 9.52447 18.4757 9.19834C18.7958 9.07691 19.1003 8.91106 19.4115 8.76534C19.4347 8.75424 19.4571 8.74106 19.4864 8.7251C19.4898 8.74175 19.4926 8.75147 19.4926 8.76118C19.5395 9.86032 19.3237 10.906 18.8762 11.9045C18.4451 12.8663 17.8635 13.717 17.0707 14.4081C16.5402 14.871 15.9483 15.2207 15.2625 15.3865C14.3901 15.5975 13.5687 15.4407 12.791 15.0111C12.0187 14.5851 11.4071 13.9745 10.897 13.2549C10.2363 12.323 9.79433 11.2939 9.59478 10.1594C9.51169 9.68823 9.50148 9.2136 9.51442 8.72579H9.51374Z" fill="#F6F8FC"/>
<path d="M21.3245 2.94364C21.1726 3.16014 21.0269 3.36831 20.8818 3.57578C20.8757 3.5848 20.8695 3.59313 20.8634 3.60215C20.7987 3.69028 20.751 3.81101 20.6646 3.85681C20.5815 3.90122 20.4582 3.87 20.3526 3.87C18.9953 3.87 17.6379 3.87 16.2806 3.87C16.2465 3.87 16.2125 3.87 16.1696 3.87C16.1682 3.83599 16.1655 3.80754 16.1655 3.77979C16.1655 3.57023 16.1655 3.35998 16.1655 3.15042C16.1641 2.87286 15.9625 2.66261 15.6915 2.66191C14.8994 2.66053 14.1067 2.66053 13.3146 2.66191C13.0442 2.66191 12.8392 2.87286 12.8379 3.14903C12.8365 3.3801 12.8372 3.61186 12.8365 3.84293C12.8365 3.84779 12.8338 3.85334 12.8283 3.87H12.748C11.3007 3.87 9.85349 3.87 8.40624 3.86791C8.37015 3.86791 8.32043 3.84987 8.30068 3.82281C8.09909 3.54317 7.90226 3.26006 7.70408 2.97764C7.69795 2.96931 7.69386 2.9596 7.68433 2.94156C7.71497 2.93184 7.74085 2.92282 7.76741 2.91519C9.99106 2.27888 12.214 1.64188 14.4377 1.00696C14.4758 0.99586 14.5221 0.994472 14.5603 1.00488C16.7968 1.64327 19.0327 2.28305 21.2686 2.92352C21.2836 2.92768 21.2979 2.93392 21.3259 2.94364H21.3245Z" fill="#F6F8FC"/>
<path d="M20.3568 4.84194C20.3207 5.06399 20.2866 5.2784 20.2512 5.49282C20.1865 5.88834 20.1198 6.28317 20.0585 6.67869C20.0469 6.75086 20.0224 6.77237 19.9488 6.77237C17.0074 6.77029 14.0652 6.77029 11.1237 6.77029C10.4318 6.77029 9.73983 6.76959 9.04788 6.77168C8.98386 6.77168 8.95798 6.7571 8.94709 6.68702C8.8531 6.09512 8.75435 5.50392 8.65696 4.91202C8.65355 4.89121 8.65287 4.87039 8.65015 4.83777C8.68284 4.83777 8.71076 4.83777 8.73937 4.83777C10.0994 4.83777 11.4595 4.83778 12.8189 4.83569C12.8849 4.83569 12.9129 4.85651 12.9353 4.92035C13.1744 5.60176 13.7996 6.04655 14.5093 6.04586C15.2101 6.04447 15.8326 5.59343 16.0702 4.91341C16.0879 4.86206 16.107 4.83569 16.1683 4.83639C17.5413 4.83847 18.9143 4.83777 20.288 4.83777C20.3064 4.83777 20.3248 4.83916 20.3568 4.84124V4.84194Z" fill="#F6F8FC"/>
<path d="M10.478 20.4409C10.6599 20.1973 10.8356 19.9621 11.0113 19.7262C11.2579 19.3952 11.1353 19.0232 10.7416 18.9094C10.2567 18.7686 9.77179 18.6277 9.28688 18.4868C9.26236 18.4799 9.23785 18.4716 9.19971 18.4591C9.22831 18.4445 9.24534 18.4341 9.26304 18.4272C9.66623 18.2828 10.0708 18.1406 10.4733 17.9942C10.521 17.9768 10.5496 17.9859 10.5836 18.0205C11.5391 19.0066 12.496 19.9912 13.4522 20.9766C13.5285 21.055 13.6027 21.1355 13.6817 21.2104C14.1578 21.6656 14.8879 21.6559 15.3476 21.184C16.3596 20.1453 17.3703 19.1044 18.3776 18.0615C18.4457 17.9914 18.4975 17.9789 18.5874 18.0129C18.9613 18.1531 19.3386 18.2835 19.7152 18.4182C19.7397 18.4272 19.7642 18.4362 19.8119 18.4549C19.7697 18.4695 19.7472 18.4778 19.7247 18.4841C19.2371 18.6256 18.7501 18.7672 18.2625 18.908C17.8682 19.0218 17.7449 19.3938 17.9921 19.7248C18.1678 19.96 18.3436 20.1959 18.5247 20.4381C18.5022 20.4589 18.4825 20.479 18.4607 20.4978C17.2927 21.5032 16.124 22.508 14.956 23.5128C14.6699 23.7584 14.3349 23.7591 14.0488 23.5135C12.8822 22.5101 11.7162 21.5067 10.5496 20.504C10.5278 20.4853 10.506 20.4659 10.4774 20.4402L10.478 20.4409Z" fill="#F6F8FC"/>
<path d="M16.6668 15.8625C16.773 16.5315 17.0264 17.1199 17.4636 17.6271C17.3124 17.7833 17.1653 17.9366 17.0168 18.0893C16.252 18.8769 15.4865 19.6644 14.721 20.4527C14.5596 20.6192 14.4445 20.6199 14.2838 20.4541C13.4202 19.5652 12.5566 18.6756 11.6937 17.786C11.6787 17.7708 11.6651 17.7548 11.6467 17.734C12.1139 17.2372 12.3966 16.6467 12.5232 15.9618C13.1846 16.2886 13.8745 16.4662 14.6052 16.4475C15.3367 16.4288 16.0177 16.2178 16.6668 15.8632V15.8625Z" fill="#F6F8FC"/>
<path d="M9.79565 7.74536H19.1847C19.1867 7.75022 19.1881 7.75508 19.1901 7.75993C19.1356 7.79532 19.0812 7.8321 19.026 7.8661C18.4471 8.22415 17.8151 8.43302 17.1531 8.55653C16.5933 8.66062 16.0273 8.70433 15.4586 8.70503C14.7163 8.70503 13.9746 8.71335 13.2329 8.69739C12.4 8.67935 11.5807 8.56278 10.7941 8.26579C10.4733 8.14505 10.1682 7.99308 9.88079 7.80434C9.85899 7.78977 9.83788 7.7745 9.79633 7.74605L9.79565 7.74536Z" fill="#F6F8FC"/>
<path d="M13.7982 3.6333H15.2005C15.2046 3.63816 15.2114 3.64232 15.2114 3.64648C15.2114 3.90739 15.2264 4.16969 15.2073 4.42851C15.1801 4.79767 14.8695 5.07384 14.5079 5.0787C14.1558 5.08286 13.8391 4.81987 13.8037 4.45488C13.7778 4.18634 13.7989 3.91364 13.7989 3.6333H13.7982Z" fill="#F6F8FC"/>
<path d="M19.0246 25.1546C19.5681 25.1546 20.1123 25.1546 20.6558 25.1546C20.9588 25.1546 21.157 25.3565 21.1577 25.6639C21.1577 26.1372 21.1577 26.6104 21.1577 27.0843C21.1577 28.0079 20.4487 28.7566 19.5395 28.7816C19.152 28.792 18.7624 28.7969 18.3763 28.7698C17.5563 28.7122 16.8854 27.967 16.8793 27.1288C16.8759 26.634 16.8779 26.1392 16.8793 25.6438C16.8793 25.3642 17.0863 25.1553 17.3622 25.1546C17.9166 25.1539 18.4709 25.1546 19.0253 25.1546H19.0246ZM17.8328 26.1281C17.8328 26.4737 17.8164 26.8109 17.8369 27.1454C17.8607 27.5333 18.1638 27.8088 18.5424 27.815C18.8591 27.8199 19.1765 27.8199 19.4932 27.815C19.9005 27.8088 20.2049 27.4896 20.2056 27.0746C20.2056 26.7978 20.2056 26.5202 20.2056 26.2433C20.2056 26.2066 20.2056 26.1698 20.2056 26.1281H17.8328Z" fill="#062B65"/>
<path d="M24.1318 28.7796C24.1318 29.3396 24.1325 29.8989 24.1318 30.4589C24.1318 30.7295 23.9561 30.9293 23.6987 30.9578C23.4494 30.9856 23.2124 30.7933 23.1838 30.5394C23.1804 30.5102 23.1797 30.4804 23.1797 30.4506C23.1797 29.3341 23.1797 28.2176 23.1797 27.1004C23.1797 26.7652 23.4548 26.5349 23.7647 26.6077C23.9847 26.6598 24.1318 26.8548 24.1318 27.1004C24.1325 27.6604 24.1318 28.2197 24.1318 28.7796Z" fill="#062B65"/>
<path d="M19.0164 24.6717C18.4647 24.6717 17.9131 24.6731 17.3607 24.6717C17.1639 24.6717 17.0141 24.5794 16.9276 24.399C16.8424 24.2214 16.8629 24.0479 16.98 23.8904C17.0699 23.7697 17.1939 23.7044 17.3417 23.7044C18.4586 23.7031 19.5748 23.7024 20.6918 23.7044C20.9526 23.7044 21.1562 23.9216 21.1569 24.186C21.1569 24.4545 20.954 24.6697 20.687 24.671C20.1299 24.6738 19.5728 24.6717 19.0157 24.6717H19.0164Z" fill="#062B65"/>
<path d="M23.7001 20.6477C23.6885 20.8149 23.6783 20.9613 23.6681 21.1078C23.6613 21.1987 23.6572 21.2903 23.6463 21.3812C23.6395 21.4353 23.6545 21.4617 23.7069 21.4825C23.9255 21.5699 24.1414 21.6622 24.375 21.7593C24.3417 21.7711 24.3233 21.7781 24.3049 21.7829C24.0944 21.8357 23.8847 21.8905 23.6742 21.9391C23.6197 21.9515 23.6027 21.9765 23.5993 22.0306C23.5857 22.2534 23.568 22.4761 23.5509 22.6989C23.5496 22.7134 23.5475 22.7287 23.5435 22.7648C23.5128 22.7148 23.4924 22.6822 23.4719 22.6489C23.3718 22.4845 23.2697 22.3214 23.173 22.1542C23.1396 22.0973 23.1096 22.0778 23.0422 22.0966C22.8209 22.1569 22.5968 22.209 22.3523 22.2694C22.3782 22.2347 22.3925 22.2152 22.4075 22.1972C22.5369 22.0411 22.6642 21.8828 22.7984 21.7309C22.8508 21.6712 22.859 21.6303 22.8127 21.5602C22.6887 21.3701 22.575 21.1737 22.4476 20.9634C22.4851 20.9759 22.5069 20.9815 22.5273 20.9898C22.7153 21.0675 22.9053 21.1431 23.0912 21.2264C23.1593 21.2569 23.1995 21.2528 23.2486 21.1896C23.3746 21.0273 23.5094 20.8725 23.6415 20.7143C23.6558 20.697 23.6722 20.6803 23.7015 20.6477H23.7001Z" fill="#062B65"/>
<path d="M20.2532 19.9565C20.4677 20.046 20.6829 20.1328 20.8954 20.2258C20.9506 20.25 20.9826 20.2431 21.0214 20.1945C21.1515 20.0315 21.2863 19.8732 21.4198 19.7137C21.4361 19.6942 21.4539 19.6755 21.4865 19.6394C21.4743 19.815 21.4641 19.9683 21.4525 20.1224C21.4464 20.2084 21.4436 20.2944 21.4321 20.3798C21.4246 20.4339 21.4457 20.4554 21.4913 20.4735C21.6854 20.5519 21.8775 20.6331 22.0702 20.7136C22.094 20.7233 22.1179 20.7344 22.1587 20.7524C22.1213 20.7649 22.0988 20.7732 22.0763 20.7795C21.8713 20.8308 21.667 20.8836 21.4607 20.9314C21.4075 20.9439 21.3885 20.9668 21.3857 21.0223C21.3749 21.2159 21.3592 21.4089 21.3449 21.6018C21.3415 21.6462 21.3374 21.6906 21.317 21.7385C21.2775 21.6732 21.2373 21.6073 21.1978 21.5421C21.1126 21.4026 21.0261 21.2645 20.9444 21.123C20.9199 21.0806 20.8954 21.0716 20.8491 21.0841C20.6448 21.1375 20.4391 21.1868 20.2341 21.2375C20.2116 21.243 20.1885 21.2465 20.1428 21.2562C20.1714 21.2187 20.1871 21.1965 20.2041 21.1764C20.3369 21.0161 20.469 20.8551 20.6046 20.6969C20.6407 20.6553 20.6441 20.6268 20.6141 20.5789C20.4874 20.3777 20.3655 20.173 20.2423 19.9697C20.2463 19.9655 20.2504 19.9614 20.2545 19.9565H20.2532Z" fill="#062B65"/>
<path d="M12.1241 26.4181C12.1241 26.6416 12.1241 26.8643 12.1241 27.0877C12.1241 28.021 11.3859 28.7795 10.4705 28.7829C10.096 28.7843 9.71934 28.7975 9.34681 28.7698C8.51183 28.7087 7.84712 27.9621 7.84576 27.1086C7.84508 26.6242 7.84576 26.1406 7.84576 25.6562C7.84576 25.3599 8.04872 25.1545 8.33953 25.1545C9.43534 25.1545 10.5305 25.1545 11.6263 25.1545C11.9239 25.1545 12.1241 25.3579 12.1241 25.6597C12.1241 25.9123 12.1241 26.1656 12.1241 26.4181ZM8.79788 26.1267C8.79788 26.4403 8.79788 26.7443 8.79788 27.0475C8.79788 27.502 9.10231 27.8143 9.5484 27.815C9.83853 27.815 10.1293 27.815 10.4195 27.815C10.8656 27.815 11.172 27.5034 11.1734 27.0503C11.1734 26.7706 11.1734 26.491 11.1734 26.2107C11.1734 26.1822 11.1707 26.1545 11.1693 26.126H8.79788V26.1267Z" fill="#062B65"/>
<path d="M5.82579 28.7796C5.82579 29.3396 5.82647 29.8988 5.82579 30.4588C5.82511 30.7301 5.65076 30.9286 5.39264 30.9577C5.14882 30.9848 4.91726 30.8037 4.88049 30.5553C4.87436 30.5157 4.873 30.4748 4.873 30.4345C4.873 29.3284 4.873 28.2231 4.87231 27.117C4.87231 26.9109 4.94859 26.7485 5.12975 26.6514C5.29525 26.5626 5.46279 26.5737 5.61807 26.6805C5.76586 26.7818 5.82783 26.9296 5.82715 27.1094C5.82647 27.6666 5.82715 28.2231 5.82715 28.7803L5.82579 28.7796Z" fill="#062B65"/>
<path d="M9.98622 24.6716C9.43456 24.6716 8.88291 24.673 8.33057 24.6716C8.00298 24.6702 7.77755 24.3732 7.86132 24.0575C7.91785 23.8444 8.10582 23.7036 8.33534 23.7029C9.12741 23.7029 9.91947 23.7029 10.7115 23.7029C11.018 23.7029 11.3238 23.7029 11.6303 23.7029C11.9109 23.7029 12.122 23.909 12.1234 24.181C12.1254 24.4599 11.917 24.6702 11.6337 24.6709C11.0848 24.6723 10.5351 24.6709 9.98622 24.6709V24.6716Z" fill="#062B65"/>
<path d="M5.27743 22.7399C5.26177 22.5241 5.24474 22.3076 5.22976 22.0918C5.22091 21.9579 5.22227 21.9586 5.09355 21.9267C4.90149 21.8788 4.70875 21.8309 4.51669 21.783C4.49967 21.7789 4.484 21.7719 4.44995 21.7608C4.65086 21.6769 4.83543 21.5999 5.01999 21.5228C5.12715 21.478 5.17664 21.3972 5.16846 21.2807C5.15416 21.0773 5.13986 20.874 5.1242 20.6499C5.15621 20.6846 5.17527 20.7047 5.19298 20.7262C5.32783 20.8879 5.46404 21.0496 5.59685 21.2133C5.62886 21.2529 5.65474 21.2612 5.70309 21.2404C5.89719 21.1558 6.09334 21.076 6.2888 20.9948C6.31195 20.9851 6.33647 20.9774 6.37938 20.9622C6.27177 21.1391 6.17506 21.298 6.07903 21.4576C6.04158 21.5194 5.97347 21.5853 5.97892 21.6436C5.98437 21.706 6.0586 21.7636 6.1056 21.8212C6.2241 21.9655 6.34396 22.1078 6.45566 22.2653C6.33715 22.2362 6.21865 22.2077 6.10015 22.1786C5.98709 22.1508 5.87404 22.1237 5.76234 22.0925C5.71603 22.0793 5.69151 22.0925 5.667 22.1335C5.54577 22.3382 5.42045 22.5408 5.29718 22.7434C5.29037 22.742 5.28424 22.7413 5.27743 22.7399Z" fill="#062B65"/>
<path d="M7.49084 21.733C7.47722 21.5484 7.46155 21.3645 7.44997 21.1792C7.43567 20.9516 7.43703 20.951 7.22318 20.8968C7.0427 20.851 6.86154 20.8066 6.65723 20.756C6.75121 20.7157 6.8234 20.6845 6.8956 20.6547C7.04202 20.5936 7.18777 20.5311 7.33556 20.4729C7.38323 20.4541 7.39685 20.4298 7.39277 20.3778C7.37233 20.1398 7.35735 19.9018 7.33964 19.6638C7.3485 19.6561 7.35735 19.6485 7.36621 19.6409C7.37642 19.6624 7.38255 19.6867 7.39685 19.704C7.53238 19.8692 7.67064 20.0315 7.80549 20.1974C7.8409 20.2411 7.8695 20.2536 7.92467 20.2293C8.11605 20.1446 8.31015 20.0669 8.50289 19.9871C8.52604 19.9774 8.55056 19.9698 8.59483 19.9531C8.44908 20.1939 8.31355 20.4167 8.17734 20.6415C8.34488 20.8427 8.5097 21.0412 8.67383 21.2396C8.67043 21.2452 8.66702 21.25 8.66361 21.2556C8.55941 21.2306 8.45521 21.2056 8.35101 21.1799C8.23319 21.1508 8.11468 21.1237 7.99822 21.0897C7.93829 21.0724 7.9056 21.0828 7.87223 21.1404C7.75577 21.3416 7.6325 21.538 7.51127 21.7364L7.4922 21.7344L7.49084 21.733Z" fill="#062B65"/>
<path d="M17.8329 26.1282H20.2056C20.2056 26.1698 20.2056 26.2066 20.2056 26.2434C20.2056 26.5202 20.2056 26.7978 20.2056 27.0747C20.205 27.4896 19.9012 27.8088 19.4933 27.815C19.1766 27.8199 18.8592 27.8199 18.5425 27.815C18.1638 27.8095 17.8608 27.534 17.8369 27.1454C17.8165 26.811 17.8329 26.4737 17.8329 26.1282Z" fill="#F6F8FC"/>
<path d="M8.79712 26.1274H11.1686C11.1699 26.1552 11.1726 26.1836 11.1726 26.2121C11.1726 26.4917 11.1733 26.7714 11.1726 27.0517C11.172 27.5055 10.8648 27.8164 10.4187 27.8164C10.1286 27.8164 9.83777 27.8164 9.54764 27.8164C9.10155 27.8157 8.79712 27.5041 8.79712 27.0489C8.79712 26.745 8.79712 26.4418 8.79712 26.1281V26.1274Z" fill="#F6F8FC"/>
</g>
<defs>
<clipPath id="clip0_208_3928">
<rect width="29" height="31" fill="white"/>
</clipPath>
</defs>
</svg>
