<svg width="43" height="43" viewBox="0 0 43 43" fill="none" xmlns="http://www.w3.org/2000/svg">
<circle cx="21.5" cy="21.5" r="21.5" fill="#062B65"/>
<path d="M21.5 21.5C23.3944 21.5 25.2112 20.7362 26.5508 19.3765C27.8903 18.0169 28.6429 16.1728 28.6429 14.25C28.6429 12.3272 27.8903 10.4831 26.5508 9.12348C25.2112 7.76384 23.3944 7 21.5 7C19.6056 7 17.7888 7.76384 16.4492 9.12348C15.1097 10.4831 14.3571 12.3272 14.3571 14.25C14.3571 16.1728 15.1097 18.0169 16.4492 19.3765C17.7888 20.7362 19.6056 21.5 21.5 21.5ZM18.9498 24.2188C13.4531 24.2188 9 28.7387 9 34.3178C9 35.2467 9.74219 36 10.6574 36H32.3426C33.2578 36 34 35.2467 34 34.3178C34 28.7387 29.5469 24.2188 24.0502 24.2188H18.9498Z" fill="white"/>
</svg>
