<svg width="44" height="44" viewBox="0 0 44 44" fill="none" xmlns="http://www.w3.org/2000/svg">
<circle cx="22" cy="22" r="22" fill="#062B65"/>
<g clip-path="url(#clip0_921_10595)">
<path d="M21.5159 36.9996C16.5095 36.8682 12.4169 34.9148 9.2301 31.0357C8.97716 30.7269 8.92931 30.4757 9.10819 30.1138C10.5746 27.1382 12.9137 25.4683 16.2224 25.4061C19.7305 25.3404 23.242 25.3484 26.7513 25.4026C30.0099 25.4522 32.349 27.0541 33.8439 29.964C34.0695 30.403 34.0717 30.7177 33.7242 31.1337C30.5158 34.9667 26.43 36.889 21.517 37.0008L21.5159 36.9996Z" fill="#FDFDFD"/>
<path d="M28.9536 15.5082C28.9775 19.6454 25.6631 23.0198 21.5522 23.0428C17.4391 23.0659 14.0837 19.7238 14.0723 15.5912C14.0598 11.379 17.3411 8.01271 21.4702 8.00004C25.6209 7.98736 28.9285 11.3064 28.9536 15.5082Z" fill="#FDFDFD"/>
</g>
<defs>
<clipPath id="clip0_921_10595">
<rect width="25" height="29" fill="white" transform="translate(9 8)"/>
</clipPath>
</defs>
</svg>
