<svg width="37" height="31" viewBox="0 0 37 31" fill="none" xmlns="http://www.w3.org/2000/svg">
<g clip-path="url(#clip0_208_4825)">
<path d="M17.747 -4.00161e-05H23.6225V4.21837C23.4477 4.23941 23.2597 4.28054 23.0707 4.28245C22.0954 4.29011 21.1211 4.28724 20.1458 4.28724C18.7014 4.28724 18.4953 4.53307 18.7888 6.00138C18.8306 6.20896 19.029 6.43566 19.2161 6.55618C21.0717 7.74422 22.9311 8.92653 24.8143 10.0696C25.1324 10.2628 25.5645 10.3394 25.9443 10.3413C29.2444 10.3614 32.5444 10.3518 35.8434 10.3537C36.0932 10.3537 36.3743 10.3049 36.5822 10.4025C36.7646 10.4886 36.9488 10.7411 36.9707 10.9382C36.9849 11.0644 36.7285 11.2682 36.5538 11.3552C36.4123 11.426 36.2109 11.3782 36.0362 11.3782C32.5615 11.3782 29.0867 11.3897 25.612 11.3638C25.215 11.361 24.7715 11.229 24.4316 11.0214C22.5522 9.87256 20.689 8.696 18.841 7.49552C18.4146 7.21908 18.1126 7.24395 17.6967 7.50987C15.7965 8.72087 13.8801 9.90604 11.9542 11.0759C11.6731 11.2471 11.3113 11.3667 10.9865 11.3686C7.61147 11.3897 4.23739 11.383 0.862355 11.3791C0.501491 11.3791 0.0266689 11.4719 0.00292783 10.919C-0.0227125 10.3279 0.462555 10.3556 0.863305 10.3556C4.0636 10.3518 7.26295 10.3671 10.4623 10.3384C10.8849 10.3346 11.354 10.1987 11.7187 9.98161C13.5268 8.90835 15.2969 7.77005 17.1032 6.69297C17.596 6.39931 17.7926 6.05686 17.7765 5.48293C17.7375 4.07393 17.7537 2.66301 17.7489 1.25305C17.747 0.854163 17.7489 0.45528 17.7489 -0.00195312L17.747 -4.00161e-05ZM18.8163 3.40625C20.0119 3.40625 21.1534 3.41486 22.2939 3.39286C22.4145 3.39095 22.6301 3.21398 22.6358 3.10972C22.6671 2.50996 22.6586 1.90733 22.6367 1.30757C22.6339 1.22244 22.4876 1.0713 22.4069 1.07034C21.2028 1.05504 19.9977 1.05982 18.8163 1.05982V3.40721V3.40625Z" fill="#062B65"/>
<path d="M18.5712 12.8379C24.3194 12.8379 30.0676 12.8331 35.8158 12.8465C36.2489 12.8475 36.9355 12.6389 36.9677 13.3219C37.0029 14.069 36.2888 13.8231 35.8738 13.8279C35.247 13.8337 35.2916 14.2259 35.2926 14.64C35.2964 17.8368 35.2983 21.0346 35.3002 24.2314C35.3002 25.2884 35.3325 26.3483 35.2726 27.4024C35.2555 27.7008 34.9934 28.2069 34.7997 28.2298C34.2907 28.2882 34.2926 27.8003 34.2917 27.4177C34.2888 23.9186 34.2898 20.4195 34.2888 16.9195C34.2888 16.0892 34.2774 15.258 34.2917 14.4277C34.2983 14.0135 34.1359 13.8155 33.7181 13.8404C33.569 13.849 33.418 13.8404 33.2679 13.8404C23.3707 13.8404 13.4736 13.8404 3.57638 13.8404C2.8787 13.8404 2.52955 14.201 2.52892 14.9222C2.52892 19.001 2.52987 23.0788 2.53082 27.1575C2.53082 27.2331 2.53937 27.3096 2.53082 27.3842C2.49283 27.7324 2.65617 28.247 2.09303 28.2241C1.94964 28.2183 1.71413 27.6903 1.71223 27.4005C1.68659 24.6064 1.70273 21.8123 1.70368 19.0172C1.70368 17.5575 1.66854 16.0959 1.70368 14.6372C1.71982 14.0001 1.49761 13.761 0.884137 13.8356C0.714151 13.8566 0.511877 13.8643 0.36943 13.7906C0.214638 13.7103 0.000968343 13.5161 0.0142634 13.3937C0.0332562 13.2167 0.201343 12.9747 0.362783 12.9125C0.607791 12.8188 0.901231 12.8417 1.17473 12.8408C6.97325 12.8379 12.7718 12.8389 18.5693 12.8379H18.5712Z" fill="#062B65"/>
<path d="M18.4164 30.9751C12.6701 30.9751 6.92381 30.9751 1.17846 30.9751C1.10344 30.9751 1.02842 30.9789 0.953399 30.9751C0.545053 30.9483 -0.0171357 31.0602 0.00945429 30.428C0.034145 29.8378 0.57829 29.9019 0.996133 29.8999C1.94578 29.8942 2.89447 29.9076 3.84411 29.9076C14.3871 29.9057 24.93 29.9019 35.4729 29.8999C35.7977 29.8999 36.1396 29.8569 36.4406 29.9459C36.6562 30.0099 36.8167 30.2615 37.0009 30.4299C36.8024 30.6116 36.6267 30.8393 36.3969 30.9598C36.2393 31.0421 36.0057 30.978 35.8053 30.978C30.0096 30.978 24.213 30.978 18.4173 30.978L18.4164 30.9751Z" fill="#062B65"/>
<path d="M12.4404 22.194C12.4404 23.9301 12.4433 25.6672 12.4385 27.4034C12.4376 27.7736 12.5041 28.2557 11.9628 28.2566C11.4148 28.2576 11.4091 27.7937 11.4091 27.3709C11.412 23.9234 11.4101 20.4751 11.411 17.0276C11.411 16.9023 11.3683 16.7416 11.4281 16.6575C11.581 16.4413 11.7814 16.2576 11.9628 16.0615C12.1214 16.2681 12.4129 16.4728 12.4167 16.6833C12.4528 18.5199 12.4376 20.3574 12.4376 22.194H12.4414H12.4404Z" fill="#062B65"/>
<path d="M17.822 22.1748C17.822 20.4167 17.8229 18.6585 17.821 16.9013C17.821 16.5072 17.8277 16.0701 18.3424 16.0749C18.8647 16.0797 18.8438 16.5331 18.8438 16.9166C18.8438 20.4071 18.8552 23.8985 18.822 27.389C18.8191 27.6846 18.5456 28.2078 18.3538 28.2288C17.7916 28.291 17.8229 27.7783 17.8229 27.3737C17.821 25.6404 17.8229 23.9081 17.8229 22.1748H17.822Z" fill="#062B65"/>
<path d="M21.2673 22.1719C21.2673 20.4147 21.2664 18.6566 21.2683 16.8994C21.2683 16.5196 21.2388 16.0624 21.7763 16.0729C22.3015 16.0835 22.2749 16.5359 22.2758 16.9176C22.2777 20.4071 22.2891 23.8975 22.2578 27.3871C22.255 27.6817 21.9853 28.202 21.7953 28.2231C21.2255 28.2872 21.2683 27.7716 21.2683 27.3689C21.2664 25.6366 21.2683 23.9042 21.2683 22.1719H21.2673Z" fill="#062B65"/>
<path d="M15.8704 22.1519C15.8704 23.9148 15.8704 25.6768 15.8704 27.4397C15.8704 27.829 15.878 28.2997 15.3547 28.2308C15.1676 28.2059 14.9055 27.7286 14.9027 27.456C14.8733 23.9311 14.8837 20.4052 14.8846 16.8803C14.8846 16.4939 14.8638 16.0558 15.4117 16.073C15.9179 16.0883 15.8675 16.514 15.8675 16.865C15.8694 18.628 15.8685 20.3899 15.8675 22.1529L15.8704 22.1519Z" fill="#062B65"/>
<path d="M24.6965 22.1461C24.6965 20.4109 24.6889 18.6767 24.7041 16.9415C24.707 16.5971 24.5769 16.071 25.1448 16.1083C25.3062 16.1188 25.5579 16.6277 25.5607 16.9099C25.5902 20.43 25.5911 23.9492 25.5607 27.4693C25.5588 27.7381 25.2673 28.004 25.1096 28.2719C24.9719 28.0145 24.7193 27.7601 24.7146 27.4999C24.6794 25.7159 24.6965 23.9301 24.6965 22.1451V22.1461Z" fill="#062B65"/>
<path d="M4.59253 24.5538h5.16704V26.6085H4.59253V24.5538Z" fill="#062B65"/>
<path d="M30.9565 24.5519H32.5557V26.6066H30.9565V24.5519Z" fill="#062B65"/>
<path d="M4.52515 16.2738h5.21836C6.21836 16.8257 6.24305 17.3451 6.20222 17.8588C6.19177 17.9937 5.99614 18.1927 5.8537 18.2261C4.76066 18.4844 4.52515 18.2807 4.52515 17.1328C4.52515 16.864 4.52515 16.5952 4.52515 16.2738Z" fill="#062B65"/>
<path d="M6.2249 22.5221H4.52789C4.52789 21.951 4.51839 21.4087 4.53643 20.8673C4.53928 20.7678 4.6276 20.6291 4.71497 20.5822C5.44809 20.1852 6.223 20.6616 6.2249 21.5005C6.2249 21.82 6.2249 22.1395 6.2249 22.5221Z" fill="#062B65"/>
<path d="M32.6781 16.2987C32.6012 16.9683 32.6439 17.6235 32.4027 18.1458C32.3191 18.3266 31.2071 18.3276 31.1254 18.1496C30.8852 17.6254 30.925 16.9712 30.8472 16.2987H32.6781Z" fill="#062B65"/>
<path d="M32.6847 22.5125H30.8899C30.9374 21.884 30.887 21.2202 31.096 20.6549C31.1558 20.4923 32.2982 20.4616 32.3742 20.63C32.6182 21.1733 32.5964 21.8391 32.6847 22.5125Z" fill="#062B65"/>
<path d="M9.5989 26.6256H8.14499C8.14499 26.0144 8.12315 25.4233 8.16399 24.8378C8.17253 24.7221 8.41374 24.5557 8.56569 24.5327C8.88097 24.4849 9.20765 24.5184 9.5989 24.5184V26.6256Z" fill="#062B65"/>
<path d="M27.5254 24.5481H28.9793V26.5999H27.5254V24.5481Z" fill="#062B65"/>
<path d="M9.61803 18.1669C8.01883 18.3945 7.827 18.1104 8.24579 16.27H9.61803V18.1669Z" fill="#062B65"/>
<path d="M8.13752 22.5201C8.13752 22.1997 8.13752 21.9529 8.13752 21.7061C8.13467 20.409 8.21824 20.3469 9.61991 20.6577V22.5201H8.13847H8.13752Z" fill="#062B65"/>
<path d="M28.9728 18.1535C27.4363 18.4367 27.2739 18.2262 27.5436 16.2969H28.9728V18.1535Z" fill="#062B65"/>
<path d="M29.0352 22.5172H27.4664C27.4664 22.0896 27.5025 21.6917 27.4579 21.3034C27.3867 20.6912 27.6516 20.5477 28.2176 20.5285C28.8738 20.5056 29.1321 20.7132 29.0428 21.3808C28.9973 21.7233 29.0352 22.0772 29.0352 22.5182V22.5172Z" fill="#062B65"/>
</g>
<defs>
<clipPath id="clip0_208_4825">
<rect width="37" height="31" fill="white"/>
</clipPath>
</defs>
</svg>
