<svg width="50" height="50" viewBox="0 0 50 50" fill="none" xmlns="http://www.w3.org/2000/svg">
<circle cx="25" cy="25" r="25" fill="#062B65"/>
<path d="M41.1011 30.1857C41.0937 31.2143 40.6039 31.8057 39.5871 32.1508C33.7556 34.1282 27.9212 36.1015 22.0882 38.0761C21.3468 38.3265 20.6069 38.5796 19.8625 38.8218C18.4586 39.2806 17.4597 38.8489 16.9505 37.5537C15.7044 34.3813 14.4643 31.2075 13.2227 28.0337C12.9994 27.4626 12.7716 26.8928 12.5512 26.3203C12.0436 25.0048 12.5066 24.1034 13.9641 23.6081C17.1336 22.5308 20.3047 21.4589 23.4772 20.3883C26.7882 19.2704 30.1007 18.1552 33.4132 17.0386C35.0166 16.4986 35.9828 16.8897 36.5515 18.3352C38.006 22.0354 39.4546 25.7384 40.8972 29.4427C41.0118 29.735 41.0639 30.0476 41.1011 30.1843V30.1857ZM30.4744 19.3232C32.2073 23.6473 33.9104 27.8998 35.6374 32.2144C36.9222 31.7759 38.1593 31.3943 39.3474 30.9125C39.5722 30.8218 39.7434 30.317 39.6943 30.0395C39.599 29.5171 39.325 29.0217 39.1256 28.5142C37.8408 25.2389 36.547 21.9664 35.2786 18.6857C35.0717 18.1525 34.7828 17.8547 34.1397 18.0699C32.9383 18.4732 31.7413 18.8887 30.4744 19.3232Z" fill="#FDFDFD"/>
<path d="M29.0514 17.1867C27.3691 17.7606 25.7657 18.3141 24.1593 18.8568C20.6191 20.0519 17.0713 21.2307 13.537 22.4447C12.9252 22.6545 12.3728 23.0037 11.7595 23.3041C11.752 23.2744 11.6984 23.1593 11.6969 23.0443C11.691 21.6692 11.6791 20.2941 11.6969 18.9204C11.7118 17.8702 12.5009 17.1163 13.6561 17.1123C18.7134 17.096 23.7708 17.1069 28.8281 17.1096C28.8683 17.1096 28.9085 17.1366 29.0499 17.1867H29.0514Z" fill="#FDFDFD"/>
<path d="M29.8896 15.7533C24.009 15.9631 18.1448 15.7641 12.2017 15.9753C12.751 14.6543 13.2885 13.2035 13.9658 11.8081C14.2904 11.1395 15.2804 10.8391 16.0203 11.0854C20.6489 12.6269 25.2685 14.1942 29.8896 15.7533Z" fill="#FDFDFD"/>
<path d="M11.854 28.2246C12.5269 29.9434 13.1998 31.6623 13.8727 33.3838C12.8499 33.645 11.7795 32.9778 11.7274 31.9966C11.6619 30.7447 11.711 29.4887 11.711 28.2341C11.7587 28.2314 11.8048 28.2273 11.8525 28.2246H11.854Z" fill="#FDFDFD"/>
<path d="M10.2496 21.3928V26.2191C9.31916 25.9159 8.81448 25.1892 9.0631 24.2472C9.32214 23.2646 9.75537 22.3213 10.1127 21.3604C10.1588 21.3712 10.2035 21.382 10.2496 21.3928Z" fill="#FDFDFD"/>
<path d="M30.4746 19.3235C31.7415 18.8891 32.9385 18.4736 34.1399 18.0702C34.7846 17.8537 35.0734 18.1515 35.2788 18.686C36.5472 21.9667 37.841 25.2393 39.1258 28.5145C39.3253 29.0221 39.5992 29.5174 39.6945 30.0398C39.7451 30.3173 39.5724 30.8221 39.3476 30.9128C38.1596 31.3933 36.9224 31.7763 35.6376 32.2148C33.9092 27.9001 32.206 23.649 30.4746 19.3235ZM34.3945 20.4793C34.4064 19.9542 34.0164 19.5617 33.4625 19.5441C32.9579 19.5279 32.4517 19.9583 32.4308 20.4211C32.4085 20.9178 32.8283 21.3157 33.3926 21.332C33.9672 21.3482 34.3826 20.9963 34.3945 20.4807V20.4793Z" fill="#062B65"/>
<path d="M34.3963 20.48C34.3844 20.9956 33.969 21.3475 33.3943 21.3313C32.8301 21.315 32.4088 20.9171 32.4326 20.4204C32.4534 19.9576 32.9596 19.5272 33.4643 19.5434C34.0196 19.561 34.4097 19.9535 34.3963 20.4786V20.48Z" fill="#FDFDFD"/>
</svg>
