<svg width="44" height="44" viewBox="0 0 44 44" fill="none" xmlns="http://www.w3.org/2000/svg">
<circle cx="22" cy="22" r="22" fill="#062B65"/>
<path d="M34.9999 24.5393C34.9939 25.3724 34.5972 25.8514 33.7736 26.131C29.0505 27.7325 24.325 29.3307 19.6006 30.93C19.0001 31.1328 18.4009 31.3378 17.798 31.534C16.6609 31.9056 15.8518 31.556 15.4394 30.5069C14.4302 27.9375 13.4257 25.3669 12.4201 22.7964C12.2392 22.3338 12.0547 21.8723 11.8763 21.4086C11.4651 20.3431 11.8401 19.6131 13.0206 19.2119C15.5877 18.3393 18.1561 17.4711 20.7256 16.604C23.4073 15.6986 26.0902 14.7953 28.7731 13.891C30.0718 13.4536 30.8544 13.7704 31.315 14.9411C32.493 17.9381 33.6663 20.9373 34.8347 23.9375C34.9275 24.1743 34.9698 24.4275 34.9999 24.5382V24.5393ZM26.3929 15.7414C27.7964 19.2437 29.1759 22.6879 30.5746 26.1825C31.6152 25.8273 32.6172 25.5182 33.5795 25.128C33.7615 25.0545 33.9002 24.6456 33.8604 24.4209C33.7832 23.9978 33.5614 23.5966 33.3998 23.1855C32.3592 20.5328 31.3114 17.8822 30.284 15.2251C30.1164 14.7932 29.8825 14.552 29.3616 14.7263C28.3885 15.053 27.419 15.3895 26.3929 15.7414Z" fill="#FDFDFD"/>
<path d="M25.2404 14.0107C23.8779 14.4755 22.5792 14.9239 21.2782 15.3634C18.4108 16.3314 15.5373 17.2861 12.6748 18.2694C12.1792 18.4393 11.7318 18.7221 11.235 18.9655C11.229 18.9414 11.1856 18.8482 11.1844 18.755C11.1796 17.6413 11.1699 16.5276 11.1844 15.4149C11.1965 14.5643 11.8355 13.9537 12.7712 13.9504C16.8673 13.9373 20.9634 13.9461 25.0595 13.9483C25.0921 13.9483 25.1247 13.9702 25.2392 14.0107H25.2404Z" fill="#FDFDFD"/>
<path d="M25.9194 12.8499C21.1565 13.0198 16.4068 12.8587 11.5933 13.0297C12.0382 11.9598 12.4735 10.7847 13.0221 9.65452C13.285 9.11301 14.0869 8.86965 14.6861 9.06916C18.435 10.3177 22.1766 11.5871 25.9194 12.8499Z" fill="#FDFDFD"/>
<path d="M11.3117 22.9512C11.8567 24.3433 12.4018 25.7355 12.9468 27.1298C12.1184 27.3414 11.2514 26.801 11.2092 26.0062C11.1562 24.9923 11.196 23.975 11.196 22.9588C11.2346 22.9567 11.2719 22.9534 11.3105 22.9512H11.3117Z" fill="#FDFDFD"/>
<path d="M10.0121 17.4174V21.3264C9.2585 21.0809 8.84974 20.4922 9.05111 19.7293C9.26092 18.9334 9.6118 18.1694 9.90119 17.3911C9.93857 17.3999 9.97475 17.4087 10.0121 17.4174Z" fill="#FDFDFD"/>
<path d="M26.3931 15.7417C27.4192 15.3898 28.3887 15.0533 29.3617 14.7266C29.8839 14.5512 30.1178 14.7924 30.2842 15.2254C31.3115 17.8825 32.3594 20.5331 33.4 23.1859C33.5615 23.5969 33.7834 23.9981 33.8606 24.4213C33.9016 24.646 33.7617 25.0549 33.5796 25.1283C32.6174 25.5174 31.6154 25.8277 30.5748 26.1828C29.1748 22.6882 27.7954 19.2451 26.3931 15.7417ZM29.5679 16.6778C29.5776 16.2525 29.2617 15.9346 28.8131 15.9204C28.4043 15.9072 27.9944 16.2558 27.9775 16.6307C27.9594 17.033 28.2994 17.3553 28.7564 17.3684C29.2219 17.3816 29.5583 17.0966 29.5679 16.6789V16.6778Z" fill="#062B65"/>
<path d="M29.5693 16.6779C29.5596 17.0955 29.2232 17.3805 28.7578 17.3674C28.3008 17.3542 27.9595 17.0319 27.9788 16.6296C27.9957 16.2547 28.4057 15.9062 28.8144 15.9193C29.2642 15.9336 29.5801 16.2514 29.5693 16.6768V16.6779Z" fill="#FDFDFD"/>
</svg>
