<svg width="50" height="50" viewBox="0 0 50 50" fill="none" xmlns="http://www.w3.org/2000/svg">
<circle cx="25" cy="25" r="25" fill="#062B65"/>
<path d="M37.9999 29.5393C37.9939 30.3724 37.5972 30.8514 36.7736 31.131C32.0505 32.7325 27.325 34.3307 22.6006 35.93C22.0001 36.1328 21.4009 36.3378 20.798 36.534C19.6609 36.9056 18.8518 36.556 18.4394 35.5069C17.4302 32.9375 16.4257 30.3669 15.4201 27.7964C15.2392 27.3338 15.0547 26.8723 14.8763 26.4086C14.4651 25.3431 14.8401 24.6131 16.0206 24.2119C18.5877 23.3393 21.1561 22.4711 23.7256 21.604C26.4073 20.6986 29.0902 19.7953 31.7731 18.891C33.0718 18.4536 33.8544 18.7704 34.315 19.9411C35.493 22.9381 36.6663 25.9373 37.8347 28.9375C37.9275 29.1743 37.9698 29.4275 37.9999 29.5382V29.5393ZM29.3929 20.7414C30.7965 24.2437 32.1759 27.6879 33.5746 31.1825C34.6152 30.8273 35.6172 30.5182 36.5795 30.128C36.7615 30.0545 36.9002 29.6456 36.8604 29.4209C36.7832 28.9978 36.5614 28.5966 36.3998 28.1855C35.3592 25.5328 34.3114 22.8822 33.284 20.2251C33.1164 19.7932 32.8825 19.552 32.3616 19.7263C31.3885 20.053 30.419 20.3895 29.3929 20.7414Z" fill="#FDFDFD"/>
<path d="M28.2404 19.0107C26.8779 19.4755 25.5792 19.9239 24.2782 20.3634C21.4108 21.3314 18.5373 22.2861 15.6748 23.2694C15.1792 23.4393 14.7318 23.7221 14.235 23.9655C14.229 23.9414 14.1856 23.8482 14.1844 23.755C14.1796 22.6413 14.1699 21.5276 14.1844 20.4149C14.1965 19.5643 14.8355 18.9537 15.7712 18.9504C19.8673 18.9373 23.9634 18.9461 28.0595 18.9483C28.0921 18.9483 28.1247 18.9702 28.2392 19.0107H28.2404Z" fill="#FDFDFD"/>
<path d="M28.9194 17.8499C24.1565 18.0198 19.4068 17.8587 14.5933 18.0297C15.0382 16.9598 15.4735 15.7847 16.0221 14.6545C16.285 14.113 17.0869 13.8697 17.6861 14.0692C21.435 15.3177 25.1766 16.5871 28.9194 17.8499Z" fill="#FDFDFD"/>
<path d="M14.3117 27.9512C14.8567 29.3433 15.4018 30.7355 15.9468 32.1298C15.1184 32.3414 14.2514 31.801 14.2092 31.0062C14.1562 29.9923 14.196 28.975 14.196 27.9588C14.2346 27.9567 14.2719 27.9534 14.3105 27.9512H14.3117Z" fill="#FDFDFD"/>
<path d="M13.0121 22.4179V26.3269C12.2585 26.0813 11.8497 25.4927 12.0511 24.7298C12.2609 23.9339 12.6118 23.1699 12.9012 22.3916C12.9386 22.4004 12.9747 22.4091 13.0121 22.4179Z" fill="#FDFDFD"/>
<path d="M29.3931 20.7417C30.4192 20.3898 31.3887 20.0533 32.3617 19.7266C32.8839 19.5512 33.1178 19.7924 33.2842 20.2254C34.3115 22.8825 35.3594 25.5331 36.4 28.1859C36.5615 28.5969 36.7834 28.9981 36.8606 29.4213C36.9016 29.646 36.7617 30.0549 36.5796 30.1283C35.6174 30.5174 34.6154 30.8277 33.5748 31.1828C32.1748 27.6882 30.7954 24.2451 29.3931 20.7417ZM32.5679 21.6778C32.5776 21.2525 32.2617 20.9346 31.8131 20.9204C31.4043 20.9072 30.9944 21.2558 30.9775 21.6307C30.9594 22.033 31.2994 22.3553 31.7564 22.3684C32.2219 22.3816 32.5583 22.0966 32.5679 21.6789V21.6778Z" fill="#062B65"/>
<path d="M32.5693 21.6779C32.5596 22.0955 32.2232 22.3805 31.7578 22.3674C31.3008 22.3542 30.9595 22.0319 30.9788 21.6296C30.9957 21.2547 31.4057 20.9062 31.8144 20.9193C32.2642 20.9336 32.5801 21.2514 32.5693 21.6768V21.6779Z" fill="#FDFDFD"/>
</svg>
