<svg width="50" height="50" viewBox="0 0 50 50" fill="none" xmlns="http://www.w3.org/2000/svg">
<circle cx="25" cy="25" r="25" fill="#062B65"/>
<path d="M26.925 27.3333C30.2625 27.3333 36.925 29.1067 36.925 32.6667V35.3333H16.925V32.6667C16.925 29.1067 23.5875 27.3333 26.925 27.3333ZM26.925 24.6667C25.5989 24.6667 24.3271 24.1048 23.3895 23.1046C22.4518 22.1044 21.925 20.7478 21.925 19.3333C21.925 17.9188 22.4518 16.5623 23.3895 15.5621C24.3271 14.5619 25.5989 14 26.925 14C28.2511 14 29.5229 14.5619 30.4605 15.5621C31.3982 16.5623 31.925 17.9188 31.925 19.3333C31.925 20.7478 31.3982 22.1044 30.4605 23.1046C29.5229 24.1048 28.2511 24.6667 26.925 24.6667ZM14.425 21.4533L17.075 18.6133L18.85 20.5067L16.1875 23.3333L18.85 26.16L17.075 28.0533L14.425 25.2133L11.775 28.0533L10 26.16L12.6625 23.3333L10 20.5067L11.775 18.6133L14.425 21.4533Z" fill="#FDFDFD"/>
</svg>
