<svg width="50" height="50" viewBox="0 0 50 50" fill="none" xmlns="http://www.w3.org/2000/svg">
<circle cx="25" cy="25" r="25" fill="#062B65"/>
<path d="M16.25 11.75C14.7237 11.75 13.5 12.9737 13.5 14.5V36.5C13.5 37.2293 13.7897 37.9288 14.3055 38.4445C14.8212 38.9603 15.5207 39.25 16.25 39.25H21.75V36.6238L24.6237 33.75H16.25V31H27.3737L30.1237 28.25H16.25V25.5H32.8737L35.5 22.8738V20L27.25 11.75H16.25ZM25.875 13.8125L33.4375 21.375H25.875V13.8125ZM35.7062 26.875C35.5 26.875 35.3075 26.9437 35.1562 27.095L33.7537 28.4975L36.6275 31.3575L38.03 29.9688C38.3187 29.6663 38.3187 29.1713 38.03 28.8825L36.2425 27.095C36.0912 26.9437 35.8987 26.875 35.7062 26.875ZM32.9425 29.3088L24.5 37.765V40.625H27.36L35.8162 32.1688L32.9425 29.3088Z" fill="#FDFDFD"/>
</svg>
