<svg width="44" height="44" viewBox="0 0 44 44" fill="none" xmlns="http://www.w3.org/2000/svg">
<ellipse cx="22" cy="21.5685" rx="22" ry="21.5685" fill="#062B65"/>
<g clip-path="url(#clip0_921_10589)">
<path d="M15.8115 10.0068C17.6826 10.0331 19.6273 10.788 21.2582 12.3163C21.5671 12.6052 21.8701 12.9009 22.1643 13.2044C22.3957 13.4428 22.6007 13.4389 22.8302 13.2025C23.1254 12.899 23.4294 12.6042 23.7363 12.3143C27.0833 9.15174 32.2976 9.24124 35.5769 12.5167C38.7651 15.7006 38.8298 20.9216 35.6309 24.1523C31.4513 28.3733 27.2069 32.532 22.9881 36.715C22.6007 37.0992 22.3918 37.0944 21.9966 36.7072C21.3337 36.0584 20.6698 35.4095 20.0215 34.7461C19.7832 34.5019 19.5645 34.463 19.239 34.5865C17.8415 35.1177 16.5902 34.5933 15.9792 33.2178C15.8105 32.8374 15.6458 32.8306 15.3153 33.0232C14.2925 33.6205 13.0931 33.4717 12.2948 32.6798C11.5015 31.8928 11.3563 30.7109 11.9624 29.6817C12.1615 29.3431 12.1242 29.1885 11.7506 29.0289C10.3864 28.4472 9.83236 27.1446 10.3874 25.7924C10.5473 25.4033 10.4061 25.1864 10.1472 24.951C8.91053 23.8283 7.92593 22.5413 7.40618 20.9323C5.66254 15.5323 9.7235 10.0059 15.8115 10.0068ZM37.0646 18.368C37.0803 13.6976 32.7526 10.1557 28.1376 11.0429C26.288 11.3989 24.8386 12.3853 23.5892 13.7278C23.1822 14.1655 23.1715 14.1986 23.6029 14.6276C24.6993 15.7181 25.7996 16.8047 26.8921 17.8991C27.2716 18.2795 27.2697 18.4585 26.898 18.8408C26.5234 19.226 26.1409 19.6025 25.7565 19.978C24.6268 21.0812 23.1989 21.0841 22.0613 19.98C21.419 19.3564 20.7904 18.7192 20.1539 18.0898C19.7048 17.6452 19.6469 17.6433 19.2105 18.0752C17.4983 19.7698 15.788 21.4664 14.0777 23.1629C13.2343 23.9996 12.3841 24.8303 11.5525 25.6786C11.1053 26.1339 10.969 26.6855 11.1945 27.2934C11.4132 27.882 11.8623 28.205 12.4812 28.276C13.0686 28.3431 13.5089 28.0542 13.9061 27.6573C15.5762 25.9899 17.2531 24.3293 18.9281 22.6668C19.0664 22.5297 19.1899 22.34 19.3586 22.2787C19.543 22.2116 19.844 22.1853 19.9588 22.2884C20.0647 22.3837 20.0392 22.6911 19.9803 22.876C19.9313 23.0287 19.7509 23.1425 19.6244 23.268C18.5035 24.3799 17.3816 25.4899 16.2607 26.6028C15.1633 27.6923 14.0532 28.7692 12.9764 29.8772C12.1311 30.7469 12.4674 32.0757 13.5923 32.4152C14.2679 32.6195 14.7995 32.3656 15.2702 31.8967C16.9079 30.2663 18.5505 28.6398 20.1912 27.0123C20.3412 26.8635 20.4932 26.7156 20.6443 26.5677C20.863 26.3518 21.1199 26.2263 21.3758 26.4637C21.6642 26.7302 21.5004 26.9909 21.2788 27.2205C21.1768 27.3256 21.0728 27.4287 20.9689 27.5318C19.7568 28.7361 18.5417 29.9375 17.3316 31.1448C16.5892 31.8851 16.5313 32.7742 17.1746 33.4269C17.8199 34.0826 18.7545 34.0301 19.5135 33.2869C20.1647 32.6487 20.7972 31.9921 21.4612 31.3675C21.7534 31.0922 21.7985 30.8519 21.6485 30.4716C21.1415 29.1826 21.6985 27.8693 22.9812 27.3382C23.4372 27.1495 23.4372 26.9685 23.2117 26.5843C22.6438 25.6163 22.8096 24.4315 23.5716 23.6688C24.3561 22.8838 25.5574 22.7057 26.5469 23.2826C26.9451 23.5151 27.1167 23.484 27.305 23.0482C28.015 21.4041 30.0214 21.0335 31.3159 22.2884C31.8533 22.8098 32.38 23.3429 32.9134 23.8673C33.9157 24.8527 33.6735 24.8138 34.6531 23.8721C36.2193 22.3662 37.0528 20.5452 37.0666 18.3709L37.0646 18.368ZM7.90828 18.2727C7.94261 18.7212 7.95143 19.0791 7.99948 19.4313C8.28094 21.5024 9.40773 23.09 10.9317 24.45C11.1788 24.6708 11.3632 24.5793 11.5603 24.3838C13.9267 22.0326 16.293 19.6803 18.6662 17.3369C18.9418 17.0645 18.9202 16.8505 18.6555 16.6014C18.4073 16.367 18.1396 16.1394 17.9513 15.8611C17.8611 15.7269 17.8572 15.3874 17.9513 15.3134C18.0867 15.2064 18.376 15.1899 18.5486 15.259C18.7457 15.3378 18.8908 15.5498 19.0526 15.7103C20.2902 16.9351 21.5171 18.1706 22.7664 19.3836C23.4872 20.084 24.3443 20.0626 25.073 19.37C25.2975 19.157 25.5074 18.9293 25.7339 18.7192C25.9899 18.4828 25.9938 18.2737 25.7379 18.0227C23.9727 16.2901 22.2869 14.47 20.4373 12.8318C18.0445 10.7121 15.2388 10.2909 12.3193 11.609C9.45186 12.9029 8.05832 15.258 7.90828 18.2717V18.2727ZM23.7628 25.5385C23.8638 25.736 23.9678 26.1368 24.2198 26.3994C25.3456 27.5707 26.5136 28.703 27.6678 29.849C27.9787 30.1574 28.3023 30.1554 28.6132 29.8548C29.08 29.4015 29.535 28.9375 29.9989 28.4812C30.1931 28.2896 30.2333 28.0989 30.0263 27.8937C28.7779 26.6592 27.5452 25.4091 26.2723 24.199C25.8242 23.7729 25.2407 23.734 24.6709 24.0015C24.1011 24.269 23.8295 24.7418 23.7638 25.5385H23.7628ZM24.1149 28.0328C23.3087 28.0775 22.8204 28.3343 22.5438 28.8927C22.2506 29.4871 22.3143 30.0795 22.7664 30.563C23.4421 31.2858 24.156 31.9726 24.8631 32.6652C25.174 32.9697 25.4947 32.9493 25.8036 32.639C26.239 32.2022 26.6754 31.7654 27.1216 31.3403C27.3864 31.0883 27.407 30.8733 27.1304 30.6068C26.4057 29.9093 25.7173 29.1729 24.972 28.4978C24.7003 28.2517 24.309 28.1339 24.1149 28.0328ZM29.791 22.447C28.9221 22.4723 28.4396 22.7592 28.169 23.341C27.8875 23.9461 27.9865 24.5258 28.4406 25.0035C29.1006 25.6971 29.7929 26.3596 30.4735 27.0327C30.7981 27.3538 31.1276 27.3567 31.4552 27.0347C31.8945 26.6018 32.326 26.1601 32.7732 25.737C33.0419 25.4831 33.0547 25.27 32.7801 25.0054C32.0671 24.3186 31.3905 23.5929 30.6559 22.9305C30.3725 22.6746 29.9714 22.5452 29.791 22.4479V22.447ZM22.5085 32.2567C21.9054 32.2674 21.4308 32.5203 21.1522 33.0553C20.8679 33.602 20.8884 34.1614 21.2699 34.6585C21.4965 34.9523 21.7769 35.2062 22.0447 35.4669C22.3408 35.7558 22.6537 35.75 22.9518 35.4669C23.2577 35.1751 23.5559 34.8754 23.856 34.5778C24.7847 33.6555 24.7258 33.8491 23.856 32.9551C23.4853 32.5738 23.0901 32.2421 22.5085 32.2586V32.2567Z" fill="#062B65"/>
<path d="M37.0646 18.3672C37.0508 20.5424 36.2173 22.3625 34.6511 23.8684C33.6724 24.8101 33.9146 24.849 32.9114 23.8635C32.3779 23.3382 31.8513 22.8061 31.3139 22.2847C30.0194 21.0298 28.013 21.3994 27.303 23.0444C27.1147 23.4803 26.9431 23.5114 26.5449 23.2789C25.5544 22.702 24.3531 22.88 23.5695 23.6651C22.8076 24.4278 22.6418 25.6126 23.2096 26.5806C23.4352 26.9648 23.4352 27.1448 22.9792 27.3345C21.6965 27.8666 21.1385 29.1789 21.6464 30.4679C21.7965 30.8482 21.7524 31.0885 21.4591 31.3638C20.7952 31.9883 20.1637 32.646 19.5115 33.2831C18.7525 34.0264 17.8179 34.0789 17.1726 33.4232C16.5303 32.7705 16.5872 31.8823 17.3295 31.141C18.5397 29.9338 19.7537 28.7324 20.9668 27.5281C21.0708 27.4249 21.1747 27.3218 21.2767 27.2168C21.4984 26.9882 21.6612 26.7275 21.3738 26.4599C21.1179 26.2226 20.8609 26.349 20.6422 26.564C20.4912 26.7129 20.3392 26.8598 20.1892 27.0086C18.5485 28.6361 16.9059 30.2626 15.2682 31.893C14.7974 32.3619 14.2659 32.6158 13.5902 32.4115C12.4664 32.072 12.129 30.7422 12.9744 29.8735C14.0521 28.7655 15.1622 27.6876 16.2586 26.599C17.3795 25.4871 18.5014 24.3762 19.6223 23.2643C19.7488 23.1378 19.9293 23.025 19.9783 22.8723C20.0372 22.6874 20.0627 22.38 19.9567 22.2847C19.842 22.1806 19.54 22.2078 19.3566 22.275C19.1879 22.3362 19.0653 22.5259 18.9261 22.6631C17.2511 24.3256 15.5741 25.9862 13.904 27.6536C13.5069 28.0505 13.0656 28.3394 12.4791 28.2723C11.8603 28.2022 11.4112 27.8792 11.1925 27.2897C10.9669 26.6817 11.1032 26.1302 11.5504 25.6749C12.382 24.8266 13.2323 23.9958 14.0757 23.1592C15.786 21.4627 17.4962 19.7661 19.2085 18.0715C19.6449 17.6396 19.7028 17.6425 20.1519 18.0861C20.7884 18.7155 21.417 19.3527 22.0593 19.9762C23.1969 21.0804 24.6247 21.0765 25.7545 19.9743C26.1389 19.5988 26.5214 19.2223 26.896 18.8371C27.2677 18.4548 27.2696 18.2758 26.8901 17.8954C25.7976 16.801 24.6973 15.7144 23.6009 14.6239C23.1694 14.1949 23.1802 14.1618 23.5872 13.7241C24.8366 12.3816 26.286 11.3942 28.1355 11.0391C32.7506 10.152 37.0783 13.6939 37.0626 18.3643L37.0646 18.3672Z" fill="white"/>
<path d="M7.9082 18.2715C8.05727 15.2568 9.45178 12.9027 12.3183 11.6079C15.2377 10.2897 18.0444 10.711 20.4373 12.8307C22.2868 14.4689 23.9726 16.289 25.7378 18.0215C25.9937 18.2725 25.9898 18.4817 25.7339 18.7181C25.5073 18.9282 25.2965 19.1558 25.0729 19.3689C24.3443 20.0615 23.4871 20.0819 22.7664 19.3825C21.517 18.1694 20.2902 16.9339 19.0526 15.7092C18.8907 15.5487 18.7456 15.3376 18.5485 15.2578C18.3759 15.1887 18.0866 15.2053 17.9513 15.3123C17.8571 15.3862 17.8601 15.7257 17.9513 15.86C18.1395 16.1382 18.4063 16.3658 18.6554 16.6003C18.9202 16.8493 18.9417 17.0633 18.6662 17.3357C16.292 19.6802 13.9266 22.0314 11.5602 24.3827C11.3631 24.5782 11.1787 24.6696 10.9316 24.4488C9.40863 23.0888 8.28086 21.5012 7.99941 19.4301C7.95135 19.078 7.94253 18.72 7.9082 18.2715Z" fill="white"/>
<path d="M23.7627 25.537C23.8294 24.7393 24.101 24.2666 24.6698 24C25.2406 23.7325 25.8241 23.7714 26.2713 24.1975C27.5432 25.4077 28.7769 26.6577 30.0253 27.8922C30.2322 28.0974 30.192 28.2891 29.9978 28.4798C29.5339 28.936 29.0789 29.4 28.6121 29.8533C28.3012 30.1549 27.9776 30.1569 27.6668 29.8475C26.5125 28.7025 25.3455 27.5702 24.2187 26.398C23.9667 26.1363 23.8627 25.7345 23.7617 25.537H23.7627Z" fill="white"/>
<path d="M24.1148 28.0322C24.309 28.1334 24.7003 28.2511 24.9719 28.4972C25.7172 29.1723 26.4056 29.9078 27.1304 30.6062C27.4069 30.8728 27.3863 31.0878 27.1215 31.3397C26.6753 31.7649 26.2389 32.2007 25.8035 32.6384C25.4946 32.9487 25.1739 32.9692 24.863 32.6647C24.156 31.9721 23.4411 31.2853 22.7664 30.5625C22.3143 30.079 22.2505 29.4875 22.5438 28.8922C22.8193 28.3338 23.3087 28.077 24.1148 28.0322Z" fill="white"/>
<path d="M29.7899 22.4463C29.9704 22.5436 30.3715 22.6729 30.6549 22.9288C31.3894 23.5922 32.0661 24.317 32.779 25.0038C33.0536 25.2684 33.0409 25.4814 32.7722 25.7353C32.324 26.1595 31.8935 26.6001 31.4541 27.033C31.1266 27.356 30.7971 27.3521 30.4725 27.0311C29.7919 26.3579 29.0995 25.6954 28.4396 25.0018C27.9845 24.5242 27.8855 23.9434 28.1679 23.3393C28.4386 22.7576 28.922 22.4706 29.7899 22.4453V22.4463Z" fill="white"/>
<path d="M22.5082 32.2559C23.0897 32.2383 23.4849 32.571 23.8556 32.9524C24.7264 33.8464 24.7853 33.6538 23.8556 34.575C23.5555 34.8727 23.2574 35.1723 22.9514 35.4641C22.6533 35.7482 22.3415 35.754 22.0443 35.4641C21.7766 35.2034 21.4951 34.9495 21.2696 34.6557C20.8871 34.1586 20.8675 33.5993 21.1519 33.0526C21.4304 32.5175 21.9041 32.2646 22.5082 32.2539V32.2559Z" fill="white"/>
</g>
<defs>
<clipPath id="clip0_921_10589">
<rect width="31" height="27" fill="white" transform="translate(7 10)"/>
</clipPath>
</defs>
</svg>
