<svg width="50" height="50" viewBox="0 0 50 50" fill="none" xmlns="http://www.w3.org/2000/svg">
<circle cx="25" cy="25" r="25" fill="#062B65"/>
<path d="M23.8 30.5714C25.285 30.5714 26.5 29.4143 26.5 28C26.5 26.5857 25.285 25.4286 23.8 25.4286C22.315 25.4286 21.1 26.5857 21.1 28C21.1 29.4143 22.315 30.5714 23.8 30.5714ZM31.9 19C33.385 19 34.6 20.1571 34.6 21.5714V34.4286C34.6 35.8429 33.385 37 31.9 37H15.7C14.215 37 13 35.8429 13 34.4286V21.5714C13 20.1571 14.215 19 15.7 19H17.05V16.4286C17.05 12.8286 20.02 10 23.8 10C27.58 10 30.55 12.8286 30.55 16.4286V19H31.9ZM23.8 12.5714C21.505 12.5714 19.75 14.2429 19.75 16.4286V19H27.85V16.4286C27.85 14.2429 26.095 12.5714 23.8 12.5714ZM40 25.4286H37.3V17.7143H40V25.4286ZM40 30.5714H37.3V28H40V30.5714Z" fill="#FDFDFD"/>
</svg>
