<svg width="34" height="31" viewBox="0 0 34 31" fill="none" xmlns="http://www.w3.org/2000/svg">
<g clip-path="url(#clip0_208_3993)">
<path d="M28.6436 16.1958V16.6635C28.6436 21.0629 28.6436 25.4622 28.643 29.8616C28.643 30.0198 28.643 30.1793 28.6224 30.3354C28.5752 30.685 28.3361 30.9287 27.9928 30.9796C27.8619 30.9986 27.7284 30.9993 27.5956 30.9993C20.5252 31 13.4541 31 6.38363 30.9993C6.26209 30.9993 6.13922 30.9986 6.01968 30.9824C5.67964 30.9355 5.42992 30.6945 5.37679 30.3497C5.35288 30.1942 5.35155 30.0347 5.35155 29.8766C5.35023 25.4772 5.35023 21.0778 5.35023 16.6784V16.1951C5.00487 16.4951 4.73191 16.7504 4.44102 16.9818C4.09899 17.254 3.68257 17.2188 3.42621 16.9201C3.16786 16.6187 3.18911 16.2005 3.48399 15.8788C3.55173 15.8048 3.6301 15.741 3.70581 15.6751C7.59967 12.2736 11.4942 8.87207 15.3887 5.47055C15.7168 5.18409 16.0442 4.89627 16.3743 4.61253C16.8558 4.19845 17.1507 4.19506 17.6308 4.61321C20.1473 6.80781 22.6617 9.00444 25.1768 11.2011C26.8929 12.6999 28.6084 14.1987 30.3232 15.6982C30.3989 15.7641 30.4766 15.8292 30.5431 15.9046C30.8253 16.2256 30.8286 16.6458 30.557 16.9459C30.3146 17.2133 29.9101 17.252 29.5933 17.007C29.2878 16.7707 29.0036 16.5053 28.6436 16.1965V16.1958ZM27.1692 29.4767C27.1752 29.3525 27.1845 29.2527 27.1845 29.153C27.1852 24.5031 27.1832 19.8532 27.1905 15.2034C27.1905 14.9732 27.1088 14.8327 26.9454 14.6902C24.2968 12.391 21.6529 10.0858 19.0076 7.78258C18.3441 7.20491 17.68 6.62792 17.0092 6.0455C16.9195 6.11881 16.8498 6.17176 16.7834 6.22946C13.5477 9.04585 10.3133 11.8636 7.07367 14.6746C6.88638 14.8368 6.81466 14.9997 6.81532 15.2495C6.82263 19.8654 6.82063 24.4814 6.82063 29.0973C6.82063 29.2181 6.82063 29.3389 6.82063 29.4734H12.6099C12.6099 29.3179 12.6099 29.1849 12.6099 29.0518C12.6099 26.325 12.6093 23.5989 12.6099 20.8721C12.6099 20.1675 12.8623 19.9136 13.553 19.913C15.833 19.913 18.1137 19.913 20.3937 19.913C21.17 19.913 21.3945 20.1444 21.3952 20.9488C21.3952 23.6525 21.3952 26.3569 21.3952 29.0606V29.4767H27.1699H27.1692ZM19.9062 29.4822V21.4301H14.0936V29.4822H19.9062Z" fill="#062B65"/>
<path d="M22.5031 4.53787C22.5031 3.60789 22.5031 2.75191 22.5031 1.89593C22.5031 1.03316 22.7389 0.795574 23.595 0.795574C24.558 0.795574 25.521 0.793538 26.484 0.795574C27.2019 0.797611 27.4908 1.09289 27.4908 1.82465C27.4915 4.0756 27.4948 6.32722 27.4855 8.57816C27.4848 8.80352 27.5493 8.94743 27.7166 9.0927C29.6739 10.7911 31.6264 12.4949 33.5744 14.2048C33.7205 14.3331 33.854 14.4981 33.9363 14.6739C34.0771 14.9746 33.9781 15.2522 33.743 15.4667C33.504 15.6846 33.2257 15.7132 32.9434 15.5631C32.8179 15.4959 32.7037 15.4009 32.5947 15.3065C27.4795 10.8563 22.3663 6.4046 17.2518 1.95295C17.1774 1.88778 17.0977 1.82873 16.9954 1.74659C16.4601 2.2109 15.9301 2.66978 15.4015 3.13001C10.7246 7.20085 6.04906 11.271 1.37285 15.3405C0.912597 15.741 0.437073 15.7498 0.153485 15.3636C-0.104201 15.0119 -0.0364591 14.606 0.353391 14.2612C0.921895 13.7575 1.49771 13.262 2.07019 12.763C6.81282 8.63382 11.5561 4.5046 16.2981 0.374711C16.8739 -0.126932 17.1316 -0.124895 17.7107 0.38082C19.2249 1.70315 20.7412 3.02412 22.2574 4.34441C22.3158 4.39532 22.3789 4.44012 22.5031 4.53787ZM26.0038 2.33784H23.9689C23.9689 3.47145 23.9642 4.5786 23.9762 5.68506C23.9775 5.78688 24.0612 5.91246 24.1429 5.98442C24.6948 6.47316 25.256 6.95104 25.8165 7.42961C25.8677 7.47373 25.9354 7.49817 26.0038 7.53618V2.33784Z" fill="#062B65"/>
<path d="M27.1693 29.4767H21.3946V29.0605C21.3946 26.3568 21.3946 23.6524 21.3946 20.9487C21.3946 20.1443 21.1701 19.9129 20.393 19.9129C18.1131 19.9129 15.8324 19.9129 13.5524 19.9129C12.8617 19.9129 12.61 20.1667 12.6093 20.872C12.608 23.5988 12.6093 26.3249 12.6093 29.0517C12.6093 29.1848 12.6093 29.3185 12.6093 29.4733h5.82001C6.82001 29.3389 6.82001 29.218 6.82001 29.0972C6.82001 24.4813 6.822 19.8653 6.8147 15.2494C6.8147 14.9996 6.88576 14.8367 7.07305 14.6745C10.3134 11.8635 13.5471 9.04576 16.7828 6.22937C16.8492 6.17167 16.9189 6.11804 17.0086 6.04541C17.6787 6.62783 18.3435 7.20482 19.007 7.78249C21.6523 10.0857 24.2962 12.3909 26.9448 14.6901C27.1082 14.832 27.1905 14.9725 27.1899 15.2033C27.1832 19.8531 27.1845 24.503 27.1839 29.1529C27.1839 29.2526 27.1746 29.3524 27.1686 29.4767H27.1693Z" fill="#F6F8FC"/>
<path d="M19.9063 29.4822H14.0938V21.4302H19.9063V29.4822Z" fill="#F6F8FC"/>
<path d="M26.0038 2.33789V7.53624C25.9354 7.49822 25.8683 7.47378 25.8165 7.42966C25.256 6.9511 24.6955 6.47322 24.1429 5.98447C24.0612 5.91252 23.9775 5.78694 23.9762 5.68511C23.9643 4.57865 23.9689 3.47151 23.9689 2.33789H26.0038Z" fill="#F6F8FC"/>
</g>
<defs>
<clipPath id="clip0_208_3993">
<rect width="34" height="31" fill="white"/>
</clipPath>
</defs>
</svg>
