<svg width="50" height="50" viewBox="0 0 50 50" fill="none" xmlns="http://www.w3.org/2000/svg">
<circle cx="25" cy="25" r="25" fill="#062B65"/>
<path d="M25.0142 10.0015C27.0147 10.0015 29.0187 9.99809 31.0193 10.0015C31.9972 10.0015 32.7487 10.6089 32.9512 11.5388C32.9889 11.7104 32.9923 11.8888 32.9923 12.0673C32.9923 13.6423 32.9923 15.2208 32.9923 16.7958C32.9923 17.966 32.1722 18.7792 31.0021 18.7826C29.6467 18.7826 28.2912 18.7861 26.9358 18.7826C26.7368 18.7826 26.5892 18.8307 26.4485 18.9817C26.1157 19.3351 25.7657 19.6748 25.4191 20.018C25.1274 20.3062 24.8632 20.3062 24.5681 20.018C24.2147 19.668 23.875 19.3077 23.5112 18.9714C23.4083 18.8753 23.2401 18.8032 23.1029 18.7998C21.7303 18.7861 20.3577 18.7929 18.9851 18.7895C17.8218 18.7895 17.0086 17.9831 17.0017 16.8233C16.9949 15.2036 16.9949 13.5805 17.0017 11.9609C17.0017 10.8319 17.8424 10.0118 19.0091 10.005C21.0097 9.99809 23.0137 10.005 25.0142 10.005V10.0015ZM25.0108 15.31C23.6039 15.31 22.197 15.31 20.7901 15.31C20.694 15.31 20.5945 15.3031 20.4984 15.3203C20.2582 15.358 20.1175 15.5022 20.1038 15.7492C20.0866 15.9929 20.2067 16.1576 20.4401 16.2262C20.5224 16.2502 20.6151 16.2537 20.7008 16.2537C23.5421 16.2537 26.3834 16.2537 29.2246 16.2537C29.3378 16.2537 29.4579 16.2537 29.5677 16.2228C29.8011 16.1541 29.9178 15.9791 29.9006 15.7424C29.8834 15.5022 29.7393 15.3546 29.4991 15.3169C29.4202 15.3066 29.3413 15.31 29.2589 15.31C27.8417 15.31 26.428 15.31 25.0108 15.31ZM25.0039 12.558C23.5764 12.558 22.1524 12.558 20.7249 12.558C20.6803 12.558 20.6356 12.558 20.591 12.558C20.2822 12.5717 20.0935 12.7536 20.0969 13.0349C20.0969 13.2992 20.2891 13.481 20.5807 13.4982C20.6597 13.5016 20.7386 13.4982 20.8209 13.4982C23.6279 13.4982 26.4383 13.4982 29.2452 13.4982C29.3344 13.4982 29.4236 13.5016 29.5094 13.4879C29.7428 13.4501 29.904 13.2511 29.8972 13.0212C29.8937 12.7879 29.729 12.5991 29.4957 12.5683C29.3893 12.5545 29.2829 12.558 29.1766 12.558C27.7868 12.558 26.3936 12.558 25.0039 12.558Z" fill="white"/>
<path d="M16.3532 38.7083C14.4659 38.7083 12.5786 38.7083 10.6913 38.7083C10.1765 38.7083 10.0015 38.5367 10.0015 38.0288C10.0015 36.7077 9.99809 35.39 10.0015 34.0689C10.005 32.6689 10.9726 31.7046 12.3761 31.6944C12.7844 31.6944 13.1928 31.7046 13.5977 31.6909C13.7933 31.6841 13.8997 31.7561 13.9889 31.9277C14.5997 33.0978 15.2208 34.2611 15.8384 35.4278C16.0684 35.8602 16.4733 35.8704 16.7444 35.4518C17.4787 34.3023 18.2199 33.1596 18.9474 32.0066C19.088 31.7801 19.2425 31.6703 19.5204 31.6909C19.9768 31.7252 20.4469 31.6875 20.8964 31.7527C21.8915 31.9002 22.7048 32.8061 22.7254 33.8116C22.7528 35.2631 22.7391 36.718 22.7323 38.1695C22.7323 38.5264 22.5092 38.7117 22.1215 38.7117C20.1998 38.7117 18.2748 38.7117 16.3532 38.7117V38.7083Z" fill="white"/>
<path d="M27.2652 35.9685C27.2652 35.3131 27.2617 34.6577 27.2652 34.0022C27.2755 32.712 28.202 31.7512 29.4922 31.6997C29.9005 31.6826 30.3089 31.7066 30.7138 31.6929C30.8888 31.686 30.9814 31.7512 31.0672 31.9022C31.7364 33.0792 32.4089 34.2527 33.0849 35.4297C33.332 35.8587 33.7232 35.869 33.9977 35.4572C34.7972 34.2665 35.5968 33.0758 36.4032 31.8919C36.4615 31.8095 36.5713 31.71 36.6605 31.71C37.1546 31.71 37.6591 31.6826 38.1429 31.7581C39.162 31.9125 39.9616 32.8081 39.9822 33.8375C40.0131 35.2822 39.9959 36.7268 39.9925 38.168C39.9925 38.5283 39.7694 38.7171 39.3851 38.7171C38.5444 38.7171 37.7002 38.7171 36.8595 38.7171C33.8913 38.7171 30.9231 38.7171 27.9549 38.7171C27.4161 38.7171 27.2583 38.5558 27.2583 38.0205C27.2583 37.3376 27.2583 36.6548 27.2583 35.9753L27.2652 35.9685Z" fill="white"/>
<path d="M15.1723 21.0127C16.2188 21.0127 17.262 21.0127 18.3086 21.0127C19.5268 21.0127 20.4739 21.9495 20.4704 23.1642C20.4704 24.3961 20.5082 25.6314 20.4155 26.8565C20.3092 28.284 19.6881 29.4884 18.4184 30.2468C16.538 31.3654 14.1909 30.6448 13.1854 28.682C12.8286 27.982 12.6467 27.2442 12.6124 26.4653C12.5987 26.2011 12.5815 25.9334 12.6055 25.6692C12.6364 25.3089 12.5609 25.0755 12.2075 24.8628C11.5726 24.4785 11.305 23.8402 11.2947 23.1025C11.2878 22.6152 11.2878 22.1279 11.2947 21.6407C11.2981 21.198 11.4869 21.0161 11.9364 21.0161C13.0173 21.0161 14.0982 21.0161 15.1791 21.0161L15.1723 21.0127ZM13.6384 25.278C13.6384 25.7515 13.6144 26.1942 13.6453 26.6334C13.6864 27.2408 13.8546 27.8104 14.1565 28.3457C15.0796 29.9928 17.286 30.2502 18.5488 28.8502C19.2145 28.1124 19.4238 27.2099 19.4582 26.2525C19.4684 25.93 19.4582 25.6074 19.4582 25.278H13.6384Z" fill="white"/>
<path d="M32.4429 21.0127C33.4621 21.0127 34.4812 21.0127 35.4969 21.0127C36.8077 21.0127 37.7205 21.9152 37.7239 23.2294C37.7239 24.3549 37.7548 25.4805 37.7033 26.6026C37.645 27.8756 37.2058 29.0183 36.2072 29.8624C34.3542 31.4306 31.6948 30.9193 30.5076 28.7953C30.0272 27.934 29.8659 27.004 29.8522 26.0364C29.8522 25.9746 29.8453 25.9128 29.8522 25.8511C29.9208 25.3809 29.8041 25.0515 29.3546 24.7702C28.8227 24.4373 28.5791 23.8608 28.5619 23.2226C28.5482 22.6838 28.5551 22.1416 28.5585 21.6029C28.5585 21.2117 28.7575 21.0161 29.1521 21.0161C30.2502 21.0127 31.3483 21.0161 32.4463 21.0161L32.4429 21.0127ZM30.8816 25.2746C30.8541 26.256 30.8438 27.2031 31.2831 28.0849C31.8047 29.1418 32.6385 29.7732 33.8429 29.7526C35.0199 29.732 35.8298 29.0972 36.3308 28.0541C36.619 27.4501 36.7151 26.805 36.7151 26.1427C36.7151 25.8545 36.7151 25.5662 36.7151 25.2746H30.885H30.8816Z" fill="white"/>
<path d="M32.0142 31.7061H35.3942C34.7765 32.6497 34.1863 33.5556 33.5583 34.5199C33.0367 33.5693 32.5426 32.6669 32.0176 31.7061H32.0142Z" fill="white"/>
<path d="M18.0343 31.7227C17.4475 32.6629 16.8882 33.5654 16.2945 34.5159C15.8176 33.5585 15.3715 32.6594 14.9048 31.7227H18.0308H18.0343Z" fill="white"/>
</svg>
