<svg width="44" height="44" viewBox="0 0 44 44" fill="none" xmlns="http://www.w3.org/2000/svg">
<g clip-path="url(#clip0_898_6159)">
<path d="M0 23.0766C0 22.3434 0 21.6102 0 20.877C0.0173879 20.7988 0.0376737 20.7176 0.0463677 20.6394C0.144899 19.8077 0.205756 18.9731 0.344859 18.15C0.730291 15.9012 1.47217 13.7712 2.53283 11.7513C3.74129 9.45031 5.31199 7.43042 7.23335 5.68873C8.96345 4.12092 10.8993 2.8603 13.0351 1.91267C15.1332 0.979517 17.3212 0.379635 19.6077 0.139103C20.0337 0.0927353 20.4539 0.0463677 20.877 0C21.5812 0 22.2826 0 22.9868 0C23.0389 0.00869393 23.0882 0.0231838 23.1404 0.0260818C23.8446 0.0985313 24.5546 0.139103 25.2559 0.24343C27.7018 0.611473 30.0202 1.36785 32.2139 2.51545C34.5178 3.71811 36.5406 5.28591 38.2852 7.20437C39.8269 8.8939 41.0701 10.7892 42.0178 12.8757C42.9364 14.8985 43.5421 17.0082 43.8174 19.2107C43.8928 19.8106 43.9391 20.4134 44 21.0132V22.9897C43.971 23.2939 43.9362 23.5982 43.9131 23.9025C43.8232 25.053 43.6349 26.189 43.3538 27.3047C42.693 29.9332 41.5976 32.3646 40.0443 34.5903C39.0995 35.9465 38.0186 37.1782 36.7985 38.2881C35.1988 39.74 33.4253 40.931 31.472 41.8584C29.342 42.8698 27.1106 43.5334 24.769 43.8203C24.1778 43.8928 23.5808 43.942 22.9897 44H21.1031C21.0596 43.9913 21.0161 43.9739 20.9727 43.9739C19.7381 43.9131 18.5181 43.7566 17.3096 43.4929C15.4752 43.0929 13.719 42.4699 12.044 41.6208C10.2096 40.6876 8.53165 39.5226 7.0247 38.1171C5.91188 37.0796 4.90917 35.9436 4.03109 34.7004C3.01969 33.2659 2.18797 31.73 1.54462 30.0955C0.81723 28.2495 0.339063 26.3426 0.133307 24.3662C0.0898373 23.9373 0.0434697 23.5084 0 23.0766ZM22.013 9.87341C20.3235 9.87341 18.6311 9.86762 16.9416 9.87341C15.9563 9.87631 15.2463 10.5718 15.2463 11.5253C15.2434 12.8931 15.2434 14.2638 15.2463 15.6317C15.2492 16.6112 15.936 17.2893 16.9213 17.2922C18.0805 17.2922 19.2397 17.2893 20.3989 17.3009C20.5148 17.3009 20.6568 17.3647 20.7437 17.4458C21.0509 17.7298 21.3378 18.037 21.6363 18.3297C21.8855 18.576 22.1087 18.576 22.355 18.3297C22.6477 18.0399 22.9433 17.7559 23.2244 17.4545C23.3432 17.327 23.4707 17.2864 23.6359 17.2864C24.7806 17.2922 25.9253 17.2864 27.07 17.2864C28.0582 17.2864 28.7479 16.5967 28.7508 15.6085C28.7508 14.2783 28.7508 12.9453 28.7508 11.6151C28.7508 11.4673 28.7479 11.3137 28.7161 11.1688C28.5422 10.3806 27.9075 9.87341 27.0845 9.87051C25.395 9.86472 23.7026 9.87051 22.013 9.87051V9.87341ZM14.6956 34.1179C16.3185 34.1179 17.9443 34.1179 19.5671 34.1179C19.8946 34.1179 20.083 33.9643 20.083 33.66C20.0888 32.4342 20.1004 31.2054 20.0772 29.9796C20.0598 29.1305 19.373 28.3654 18.5326 28.2408C18.15 28.1828 17.7559 28.2176 17.3705 28.1886C17.1386 28.1712 17.0082 28.264 16.8865 28.4552C16.2721 29.429 15.6462 30.3969 15.026 31.3648C14.8 31.7184 14.4551 31.7097 14.2609 31.3445C13.7393 30.3592 13.2148 29.3768 12.6989 28.3886C12.6236 28.2437 12.5338 28.1828 12.3686 28.1886C12.0237 28.2002 11.6789 28.1886 11.3369 28.1915C10.1487 28.2002 9.33439 29.0146 9.33149 30.1969C9.32859 31.3127 9.33149 32.4255 9.33149 33.5412C9.33149 33.9701 9.47929 34.115 9.91398 34.115C11.5079 34.115 13.1018 34.115 14.6956 34.115V34.1179ZM23.9112 31.8024C23.9112 32.3791 23.9112 32.9558 23.9112 33.5296C23.9112 33.9817 24.0474 34.1179 24.4995 34.1179C27.0063 34.1179 29.513 34.1179 32.0198 34.1179C32.7298 34.1179 33.4427 34.1179 34.1527 34.1179C34.4772 34.1179 34.6627 33.9556 34.6656 33.6542C34.6685 32.4342 34.683 31.2141 34.6569 29.997C34.6395 29.1305 33.9643 28.3712 33.1036 28.2408C32.6921 28.1799 32.269 28.2002 31.8517 28.2002C31.7792 28.2002 31.6836 28.2843 31.6343 28.3538C30.9533 29.3565 30.2781 30.3621 29.6028 31.3648C29.3681 31.7126 29.0406 31.7039 28.832 31.3416C28.2611 30.3505 27.6902 29.3594 27.128 28.3625C27.0555 28.235 26.9773 28.1799 26.8295 28.1857C26.4846 28.1973 26.1398 28.1799 25.7978 28.1915C24.7082 28.235 23.9257 29.0464 23.917 30.1361C23.9141 30.6896 23.917 31.2431 23.917 31.7966L23.9112 31.8024ZM13.7016 19.173C12.7888 19.173 11.8759 19.173 10.9631 19.173C10.5834 19.173 10.424 19.3266 10.4211 19.7005C10.4182 20.112 10.4153 20.5235 10.4211 20.935C10.4327 21.5581 10.6559 22.0971 11.192 22.4217C11.4905 22.6013 11.5571 22.7984 11.5282 23.1027C11.5079 23.3258 11.5224 23.5519 11.534 23.775C11.5658 24.4329 11.7194 25.0588 12.0179 25.6471C12.8641 27.3048 14.8492 27.9133 16.4373 26.9686C17.5096 26.331 18.0341 25.3138 18.124 24.1054C18.2022 23.0708 18.1674 22.0275 18.1703 20.9872C18.1703 19.9613 17.3734 19.173 16.3446 19.1701C15.4607 19.1701 14.5797 19.1701 13.6958 19.1701L13.7016 19.173ZM28.2843 19.173C27.3569 19.173 26.4296 19.173 25.5022 19.173C25.1689 19.173 25.0038 19.3382 25.0009 19.6686C24.998 20.1236 24.9922 20.5814 25.0038 21.0364C25.0182 21.5754 25.224 22.0623 25.6732 22.3434C26.0528 22.581 26.1514 22.8593 26.0934 23.2563C26.0847 23.3084 26.0934 23.3606 26.0934 23.4128C26.105 24.23 26.2412 25.0182 26.6469 25.7427C27.6525 27.5366 29.8984 27.9655 31.4605 26.644C32.3038 25.9311 32.6747 24.9661 32.724 23.8909C32.7674 22.9433 32.7443 21.9928 32.7414 21.0422C32.7385 19.9323 31.9676 19.173 30.8606 19.1701C29.9999 19.1701 29.1392 19.1701 28.2814 19.1701L28.2843 19.173ZM27.9249 28.2031C28.3683 29.0117 28.7885 29.7767 29.2261 30.5795C29.7593 29.7651 30.2578 29.0001 30.7765 28.2031H27.922H27.9249ZM16.1186 28.2205H13.4785C13.8726 29.0146 14.2494 29.7709 14.6522 30.5795C15.1535 29.7738 15.6259 29.0146 16.1215 28.2205H16.1186Z" fill="#062B65"/>
<path d="M22.0128 9.87629C23.7023 9.87629 25.3948 9.87339 27.0843 9.87629C27.9102 9.87629 28.5449 10.3892 28.7158 11.1746C28.7477 11.3195 28.7506 11.4702 28.7506 11.6209C28.7506 12.951 28.7506 14.2841 28.7506 15.6143C28.7506 16.6025 28.058 17.2893 27.0698 17.2922C25.9251 17.2922 24.7804 17.2951 23.6357 17.2922C23.4676 17.2922 23.343 17.3328 23.2242 17.4603C22.9431 17.7588 22.6475 18.0457 22.3548 18.3355C22.1085 18.5789 21.8853 18.5789 21.6361 18.3355C21.3376 18.0399 21.0507 17.7356 20.7435 17.4516C20.6566 17.3705 20.5146 17.3096 20.3987 17.3067C19.2395 17.2951 18.0803 17.3009 16.9211 17.298C15.9387 17.298 15.2518 16.617 15.246 15.6375C15.2403 14.2696 15.2403 12.8989 15.246 11.531C15.246 10.5776 15.9561 9.88498 16.9414 9.87919C18.6309 9.87339 20.3233 9.87919 22.0128 9.87919V9.87629ZM22.0099 14.3595C20.8218 14.3595 19.6336 14.3595 18.4454 14.3595C18.3643 14.3595 18.2802 14.3537 18.1991 14.3682C17.9962 14.4 17.8774 14.5217 17.8658 14.7304C17.8513 14.9362 17.9528 15.0753 18.1498 15.1332C18.2194 15.1535 18.2976 15.1564 18.3701 15.1564C20.7696 15.1564 23.1691 15.1564 25.5686 15.1564C25.6643 15.1564 25.7657 15.1564 25.8584 15.1303C26.0555 15.0724 26.154 14.9246 26.1395 14.7246C26.1251 14.5217 26.0033 14.3971 25.8005 14.3653C25.7338 14.3566 25.6672 14.3595 25.5976 14.3595C24.4008 14.3595 23.2068 14.3595 22.0099 14.3595ZM22.0041 12.0353C20.7986 12.0353 19.5959 12.0353 18.3904 12.0353C18.3527 12.0353 18.315 12.0353 18.2773 12.0353C18.0165 12.0469 17.8571 12.2005 17.86 12.4381C17.86 12.6612 18.0223 12.8148 18.2686 12.8293C18.3353 12.8322 18.4019 12.8293 18.4715 12.8293C20.842 12.8293 23.2155 12.8293 25.586 12.8293C25.6614 12.8293 25.7367 12.8322 25.8092 12.8206C26.0062 12.7888 26.1424 12.6207 26.1366 12.4265C26.1337 12.2294 25.9946 12.0701 25.7976 12.044C25.7077 12.0324 25.6179 12.0353 25.5281 12.0353C24.3544 12.0353 23.1778 12.0353 22.0041 12.0353Z" fill="#EBF8FF"/>
<path d="M14.6985 34.1208C13.1046 34.1208 11.5107 34.1208 9.91679 34.1208C9.48209 34.1208 9.3343 33.9759 9.3343 33.547C9.3343 32.4313 9.3314 31.3185 9.3343 30.2027C9.33719 29.0204 10.1544 28.206 11.3397 28.1973C11.6846 28.1973 12.0294 28.206 12.3714 28.1944C12.5366 28.1887 12.6264 28.2495 12.7017 28.3944C13.2176 29.3826 13.7421 30.365 14.2638 31.3503C14.4579 31.7155 14.7999 31.7242 15.0288 31.3706C15.649 30.3998 16.275 29.4348 16.8893 28.4611C17.0081 28.2698 17.1386 28.1771 17.3733 28.1944C17.7587 28.2234 18.1557 28.1915 18.5354 28.2466C19.3758 28.3712 20.0626 29.1363 20.08 29.9854C20.1032 31.2112 20.0916 32.44 20.0858 33.6658C20.0858 33.9672 19.8974 34.1237 19.57 34.1237C17.9471 34.1237 16.3213 34.1237 14.6985 34.1237V34.1208Z" fill="#EBF8FF"/>
<path d="M23.914 31.8051C23.914 31.2516 23.9111 30.6981 23.914 30.1446C23.9227 29.055 24.7051 28.2435 25.7948 28.2001C26.1396 28.1856 26.4845 28.2059 26.8265 28.1943C26.9743 28.1885 27.0525 28.2435 27.125 28.371C27.6901 29.365 28.2581 30.3562 28.829 31.3502C29.0376 31.7124 29.368 31.7211 29.5998 31.3733C30.2751 30.3677 30.9503 29.3621 31.6313 28.3623C31.6806 28.2928 31.7733 28.2087 31.8487 28.2087C32.266 28.2087 32.692 28.1856 33.1006 28.2493C33.9613 28.3797 34.6365 29.1361 34.6539 30.0055C34.68 31.2255 34.6655 32.4456 34.6626 33.6627C34.6626 33.967 34.4742 34.1264 34.1497 34.1264C33.4397 34.1264 32.7268 34.1264 32.0167 34.1264C29.51 34.1264 27.0032 34.1264 24.4965 34.1264C24.0415 34.1264 23.9082 33.9902 23.9082 33.5381C23.9082 32.9614 23.9082 32.3847 23.9082 31.8109L23.914 31.8051Z" fill="#EBF8FF"/>
<path d="M13.7014 19.1758C14.5853 19.1758 15.4663 19.1758 16.3502 19.1758C17.379 19.1758 18.1788 19.9669 18.1759 20.9928C18.1759 22.0332 18.2078 23.0765 18.1295 24.111C18.0397 25.3166 17.5152 26.3338 16.4429 26.9742C14.8548 27.919 12.8726 27.3104 12.0235 25.6528C11.7221 25.0616 11.5685 24.4385 11.5395 23.7807C11.5279 23.5575 11.5135 23.3315 11.5337 23.1083C11.5598 22.804 11.4961 22.607 11.1976 22.4273C10.6614 22.1027 10.4354 21.5637 10.4267 20.9407C10.4209 20.5291 10.4209 20.1176 10.4267 19.7061C10.4296 19.3323 10.589 19.1787 10.9686 19.1787C11.8815 19.1787 12.7944 19.1787 13.7072 19.1787L13.7014 19.1758ZM12.406 22.778C12.406 23.1779 12.3857 23.5517 12.4118 23.9227C12.4466 24.4356 12.5886 24.9167 12.8436 25.3688C13.6232 26.7598 15.4866 26.9771 16.553 25.7948C17.1152 25.1717 17.292 24.4095 17.321 23.601C17.3297 23.3286 17.321 23.0562 17.321 22.778H12.406Z" fill="#EBF8FF"/>
<path d="M28.287 19.1758C29.1477 19.1758 30.0084 19.1758 30.8662 19.1758C31.9732 19.1758 32.7441 19.9379 32.747 21.0479C32.747 21.9984 32.7731 22.9489 32.7296 23.8966C32.6803 24.9717 32.3094 25.9368 31.4661 26.6497C29.9012 27.974 27.6552 27.5422 26.6525 25.7484C26.2468 25.021 26.1106 24.2357 26.099 23.4184C26.099 23.3663 26.0932 23.3141 26.099 23.2619C26.157 22.8649 26.0584 22.5867 25.6788 22.3491C25.2296 22.068 25.0239 21.5811 25.0094 21.0421C24.9978 20.5871 25.0036 20.1292 25.0065 19.6742C25.0065 19.3439 25.1746 19.1787 25.5078 19.1787C26.4352 19.1758 27.3625 19.1787 28.2899 19.1787L28.287 19.1758ZM26.9684 22.7751C26.9452 23.6039 26.9365 24.4037 27.3075 25.1485C27.748 26.0411 28.4522 26.5743 29.4694 26.5569C30.4634 26.5395 31.1473 26.0034 31.5704 25.1224C31.8138 24.6124 31.895 24.0676 31.895 23.5083C31.895 23.2648 31.895 23.0214 31.895 22.7751H26.9713H26.9684Z" fill="#EBF8FF"/>
<path d="M27.9248 28.2061H30.7793C30.2577 29.003 29.7592 29.7681 29.2289 30.5824C28.7884 29.7797 28.3711 29.0175 27.9277 28.2061H27.9248Z" fill="#EBF8FF"/>
<path d="M16.1185 28.2207C15.623 29.0147 15.1506 29.7769 14.6493 30.5797C14.2464 29.7711 13.8697 29.0119 13.4756 28.2207H16.1156H16.1185Z" fill="#EBF8FF"/>
<path d="M22.0103 14.3594C23.2071 14.3594 24.4011 14.3594 25.598 14.3594C25.6646 14.3594 25.7342 14.3565 25.8008 14.3651C26.0037 14.397 26.1254 14.5216 26.1399 14.7245C26.1544 14.9245 26.0558 15.0723 25.8588 15.1302C25.766 15.1563 25.6675 15.1563 25.569 15.1563C23.1695 15.1563 20.7699 15.1563 18.3704 15.1563C18.2951 15.1563 18.2197 15.1563 18.1502 15.1331C17.9531 15.0752 17.8546 14.936 17.8662 14.7303C17.8806 14.5245 17.9966 14.4028 18.1994 14.368C18.2806 14.3565 18.3646 14.3594 18.4457 14.3594C19.6339 14.3594 20.8221 14.3594 22.0103 14.3594Z" fill="#062B65"/>
<path d="M22.0045 12.0355C23.1781 12.0355 24.3547 12.0355 25.5284 12.0355C25.6182 12.0355 25.7081 12.0326 25.7979 12.0442C25.995 12.0703 26.1341 12.2296 26.137 12.4267C26.1399 12.6209 26.0037 12.789 25.8095 12.8208C25.7371 12.8324 25.6617 12.8295 25.5864 12.8295C23.2158 12.8295 20.8424 12.8295 18.4718 12.8295C18.4052 12.8295 18.3356 12.8295 18.269 12.8295C18.0226 12.815 17.8632 12.6614 17.8604 12.4383C17.8604 12.2036 18.0168 12.0471 18.2777 12.0355C18.3153 12.0355 18.353 12.0355 18.3907 12.0355C19.5962 12.0355 20.7989 12.0355 22.0045 12.0355Z" fill="#062B65"/>
<path d="M12.4062 22.7783H17.3211C17.3211 23.0565 17.3298 23.3289 17.3211 23.6013C17.2922 24.4128 17.1154 25.1749 16.5532 25.7951C15.4867 26.9775 13.6233 26.7601 12.8438 25.3691C12.5887 24.917 12.4467 24.4331 12.412 23.923C12.3888 23.5521 12.4062 23.1782 12.4062 22.7783Z" fill="#062B65"/>
<path d="M26.9655 22.7754H31.8892C31.8892 23.0217 31.8892 23.2652 31.8892 23.5086C31.8892 24.0679 31.808 24.6127 31.5646 25.1228C31.1415 26.0037 30.4576 26.5399 29.4636 26.5573C28.4464 26.5746 27.7451 26.0414 27.3017 25.1488C26.9336 24.4041 26.9394 23.6042 26.9626 22.7754H26.9655Z" fill="#062B65"/>
</g>
<defs>
<clipPath id="clip0_898_6159">
<rect width="44" height="44" fill="white"/>
</clipPath>
</defs>
</svg>
