<svg width="307" height="54" viewBox="0 0 307 54" fill="none" xmlns="http://www.w3.org/2000/svg">
<path d="M103.756 13V5.272H109.012V6.292H105.064V8.632H108.568V9.64H105.064V13H103.756ZM112.449 13.12C111.457 13.12 110.689 12.876 110.145 12.388C109.601 11.9 109.329 11.152 109.329 10.144C109.329 9.232 109.561 8.512 110.025 7.984C110.489 7.456 111.193 7.192 112.137 7.192C113.001 7.192 113.649 7.42 114.081 7.876C114.521 8.324 114.741 8.904 114.741 9.616V10.672H110.576C110.641 11.224 110.841 11.604 111.177 11.812C111.513 12.02 112.025 12.124 112.713 12.124C113.001 12.124 113.297 12.096 113.601 12.04C113.905 11.984 114.169 11.912 114.393 11.824V12.784C114.137 12.896 113.841 12.98 113.505 13.036C113.177 13.092 112.825 13.12 112.449 13.12ZM110.576 9.82H113.589V9.424C113.589 9.032 113.481 8.728 113.265 8.512C113.049 8.288 112.685 8.176 112.173 8.176C111.565 8.176 111.145 8.308 110.913 8.572C110.689 8.836 110.576 9.252 110.576 9.82ZM118.366 13.12C117.854 13.12 117.402 13.032 117.01 12.856C116.618 12.68 116.314 12.388 116.098 11.98C115.882 11.572 115.774 11.024 115.774 10.336C115.774 9.656 115.89 9.084 116.122 8.62C116.354 8.148 116.674 7.792 117.082 7.552C117.498 7.312 117.966 7.192 118.486 7.192C118.83 7.192 119.134 7.232 119.398 7.312C119.67 7.392 119.93 7.516 120.178 7.684V4.912H121.486V13H120.37L120.286 12.436C120.03 12.668 119.75 12.84 119.446 12.952C119.142 13.064 118.782 13.12 118.366 13.12ZM118.714 12.136C119.298 12.136 119.786 11.936 120.178 11.536V8.692C119.802 8.356 119.33 8.188 118.762 8.188C118.21 8.188 117.794 8.372 117.514 8.74C117.234 9.108 117.094 9.644 117.094 10.348C117.094 11.028 117.222 11.496 117.478 11.752C117.742 12.008 118.154 12.136 118.714 12.136ZM125.761 13.12C124.769 13.12 124.001 12.876 123.457 12.388C122.913 11.9 122.641 11.152 122.641 10.144C122.641 9.232 122.873 8.512 123.337 7.984C123.801 7.456 124.505 7.192 125.449 7.192C126.313 7.192 126.961 7.42 127.393 7.876C127.833 8.324 128.053 8.904 128.053 9.616V10.672H123.889C123.953 11.224 124.153 11.604 124.489 11.812C124.825 12.02 125.337 12.124 126.025 12.124C126.313 12.124 126.609 12.096 126.913 12.04C127.217 11.984 127.481 11.912 127.705 11.824V12.784C127.449 12.896 127.153 12.98 126.817 13.036C126.489 13.092 126.137 13.12 125.761 13.12ZM123.889 9.82H126.901V9.424C126.901 9.032 126.793 8.728 126.577 8.512C126.361 8.288 125.997 8.176 125.485 8.176C124.877 8.176 124.457 8.308 124.225 8.572C124.001 8.836 123.889 9.252 123.889 9.82ZM129.326 13V7.312H130.526L130.598 7.972C130.87 7.796 131.194 7.636 131.57 7.492C131.946 7.348 132.318 7.248 132.686 7.192V8.188C132.462 8.228 132.218 8.288 131.954 8.368C131.698 8.44 131.454 8.524 131.222 8.62C130.99 8.708 130.794 8.8 130.634 8.896V13H129.326ZM135.052 13.12C134.692 13.12 134.356 13.056 134.044 12.928C133.74 12.8 133.496 12.608 133.312 12.352C133.128 12.088 133.036 11.764 133.036 11.38C133.036 10.836 133.22 10.4 133.588 10.072C133.964 9.736 134.54 9.568 135.316 9.568H137.14V9.316C137.14 9.044 137.096 8.828 137.008 8.668C136.928 8.508 136.776 8.392 136.552 8.32C136.336 8.248 136.016 8.212 135.592 8.212C134.92 8.212 134.292 8.312 133.708 8.512V7.54C133.964 7.436 134.276 7.352 134.644 7.288C135.012 7.224 135.408 7.192 135.832 7.192C136.664 7.192 137.296 7.36 137.728 7.696C138.168 8.032 138.388 8.58 138.388 9.34V13H137.272L137.188 12.424C136.956 12.648 136.668 12.82 136.324 12.94C135.988 13.06 135.564 13.12 135.052 13.12ZM135.4 12.184C135.792 12.184 136.132 12.12 136.42 11.992C136.716 11.856 136.956 11.676 137.14 11.452V10.456H135.34C134.956 10.456 134.676 10.532 134.5 10.684C134.332 10.828 134.248 11.052 134.248 11.356C134.248 11.652 134.348 11.864 134.548 11.992C134.748 12.12 135.032 12.184 135.4 12.184ZM141.614 13.12C141.254 13.12 140.918 13.056 140.606 12.928C140.302 12.8 140.058 12.608 139.874 12.352C139.69 12.088 139.598 11.764 139.598 11.38C139.598 10.836 139.782 10.4 140.15 10.072C140.526 9.736 141.102 9.568 141.878 9.568H143.702V9.316C143.702 9.044 143.658 8.828 143.57 8.668C143.49 8.508 143.338 8.392 143.114 8.32C142.898 8.248 142.578 8.212 142.154 8.212C141.482 8.212 140.854 8.312 140.27 8.512V7.54C140.526 7.436 140.838 7.352 141.206 7.288C141.574 7.224 141.97 7.192 142.394 7.192C143.226 7.192 143.858 7.36 144.29 7.696C144.73 8.032 144.95 8.58 144.95 9.34V13H143.834L143.75 12.424C143.518 12.648 143.23 12.82 142.886 12.94C142.55 13.06 142.126 13.12 141.614 13.12ZM141.962 12.184C142.354 12.184 142.694 12.12 142.982 11.992C143.278 11.856 143.518 11.676 143.702 11.452V10.456H141.902C141.518 10.456 141.238 10.532 141.062 10.684C140.894 10.828 140.81 11.052 140.81 11.356C140.81 11.652 140.91 11.864 141.11 11.992C141.31 12.12 141.594 12.184 141.962 12.184ZM147.817 13.12C147.353 13.12 147.001 13.008 146.761 12.784C146.521 12.552 146.401 12.172 146.401 11.644V4.912H147.709V11.524C147.709 11.748 147.749 11.9 147.829 11.98C147.909 12.06 148.029 12.1 148.189 12.1C148.381 12.1 148.565 12.076 148.741 12.028V12.976C148.589 13.032 148.441 13.068 148.297 13.084C148.161 13.108 148.001 13.12 147.817 13.12ZM152.529 13V5.272H153.837V13H152.529ZM155.354 13V7.312H156.554L156.614 7.912C156.87 7.712 157.174 7.544 157.526 7.408C157.886 7.264 158.282 7.192 158.714 7.192C159.45 7.192 159.986 7.364 160.322 7.708C160.658 8.052 160.826 8.588 160.826 9.316V13H159.53V9.376C159.53 8.936 159.438 8.628 159.254 8.452C159.078 8.276 158.742 8.188 158.246 8.188C157.95 8.188 157.658 8.248 157.37 8.368C157.09 8.488 156.854 8.644 156.662 8.836V13H155.354ZM164.187 13.12C163.795 13.12 163.419 13.092 163.059 13.036C162.707 12.98 162.415 12.912 162.183 12.832V11.728C162.455 11.832 162.755 11.912 163.083 11.968C163.411 12.024 163.723 12.052 164.019 12.052C164.467 12.052 164.787 12.012 164.979 11.932C165.171 11.852 165.267 11.696 165.267 11.464C165.267 11.296 165.207 11.164 165.087 11.068C164.975 10.972 164.803 10.884 164.571 10.804C164.347 10.724 164.059 10.628 163.707 10.516C163.371 10.404 163.079 10.284 162.831 10.156C162.583 10.02 162.391 9.848 162.255 9.64C162.119 9.432 162.051 9.16 162.051 8.824C162.051 8.304 162.239 7.904 162.615 7.624C162.991 7.336 163.595 7.192 164.427 7.192C164.755 7.192 165.067 7.216 165.363 7.264C165.659 7.312 165.911 7.372 166.119 7.444V8.536C165.895 8.448 165.647 8.38 165.375 8.332C165.111 8.284 164.863 8.26 164.631 8.26C164.215 8.26 163.899 8.296 163.683 8.368C163.475 8.44 163.371 8.584 163.371 8.8C163.371 9.024 163.479 9.184 163.695 9.28C163.919 9.368 164.275 9.492 164.763 9.652C165.211 9.788 165.567 9.932 165.831 10.084C166.095 10.236 166.283 10.42 166.395 10.636C166.515 10.844 166.575 11.116 166.575 11.452C166.575 12.012 166.371 12.432 165.963 12.712C165.555 12.984 164.963 13.12 164.187 13.12ZM169.854 13.12C169.246 13.12 168.79 12.96 168.486 12.64C168.19 12.312 168.042 11.868 168.042 11.308V8.332H167.202V7.312H168.042V6.004L169.338 5.608V7.312H170.85L170.766 8.332H169.338V11.236C169.338 11.564 169.414 11.796 169.566 11.932C169.718 12.06 169.966 12.124 170.31 12.124C170.526 12.124 170.754 12.084 170.994 12.004V12.928C170.682 13.056 170.302 13.12 169.854 13.12ZM172.474 6.124V5.044H173.902V6.124H172.474ZM172.582 13V8.308H171.718L171.838 7.312H173.89V13H172.582ZM177.588 13.12C176.98 13.12 176.524 12.96 176.22 12.64C175.924 12.312 175.776 11.868 175.776 11.308V8.332H174.936V7.312H175.776V6.004L177.072 5.608V7.312H178.584L178.5 8.332H177.072V11.236C177.072 11.564 177.148 11.796 177.3 11.932C177.452 12.06 177.7 12.124 178.044 12.124C178.26 12.124 178.488 12.084 178.728 12.004V12.928C178.416 13.056 178.036 13.12 177.588 13.12ZM181.781 13.12C181.101 13.12 180.577 12.932 180.209 12.556C179.849 12.18 179.669 11.628 179.669 10.9V7.312H180.977V10.9C180.977 11.324 181.081 11.636 181.289 11.836C181.497 12.036 181.817 12.136 182.249 12.136C182.569 12.136 182.865 12.076 183.137 11.956C183.409 11.836 183.645 11.676 183.845 11.476V7.312H185.141V13H183.953L183.893 12.412C183.637 12.612 183.333 12.78 182.981 12.916C182.629 13.052 182.229 13.12 181.781 13.12ZM188.718 13.12C188.038 13.12 187.514 12.932 187.146 12.556C186.786 12.18 186.606 11.628 186.606 10.9V7.312H187.914V10.9C187.914 11.324 188.018 11.636 188.226 11.836C188.434 12.036 188.754 12.136 189.186 12.136C189.506 12.136 189.802 12.076 190.074 11.956C190.346 11.836 190.582 11.676 190.782 11.476V7.312H192.078V13H190.89L190.83 12.412C190.574 12.612 190.27 12.78 189.918 12.916C189.566 13.052 189.166 13.12 188.718 13.12ZM195.776 13.12C195.168 13.12 194.712 12.96 194.408 12.64C194.112 12.312 193.964 11.868 193.964 11.308V8.332H193.124V7.312H193.964V6.004L195.26 5.608V7.312H196.772L196.688 8.332H195.26V11.236C195.26 11.564 195.336 11.796 195.488 11.932C195.64 12.06 195.888 12.124 196.232 12.124C196.448 12.124 196.676 12.084 196.916 12.004V12.928C196.604 13.056 196.224 13.12 195.776 13.12ZM202.686 13L200.442 7.312H201.798L203.394 11.728L204.99 7.312H206.334L204.102 13H202.686ZM209.687 13.12C208.663 13.12 207.911 12.864 207.431 12.352C206.959 11.84 206.723 11.108 206.723 10.156C206.723 9.204 206.963 8.472 207.443 7.96C207.923 7.448 208.671 7.192 209.687 7.192C210.711 7.192 211.463 7.448 211.943 7.96C212.423 8.472 212.663 9.204 212.663 10.156C212.663 11.108 212.423 11.84 211.943 12.352C211.471 12.864 210.719 13.12 209.687 13.12ZM209.687 12.016C210.287 12.016 210.711 11.872 210.959 11.584C211.215 11.288 211.343 10.812 211.343 10.156C211.343 9.5 211.215 9.028 210.959 8.74C210.711 8.452 210.287 8.308 209.687 8.308C209.095 8.308 208.671 8.452 208.415 8.74C208.167 9.028 208.043 9.5 208.043 10.156C208.043 10.812 208.167 11.288 208.415 11.584C208.671 11.872 209.095 12.016 209.687 12.016ZM216.66 13.12C215.636 13.12 214.884 12.864 214.404 12.352C213.932 11.84 213.696 11.108 213.696 10.156C213.696 9.204 213.936 8.472 214.416 7.96C214.896 7.448 215.644 7.192 216.66 7.192C217.684 7.192 218.436 7.448 218.916 7.96C219.396 8.472 219.636 9.204 219.636 10.156C219.636 11.108 219.396 11.84 218.916 12.352C218.444 12.864 217.692 13.12 216.66 13.12ZM216.66 12.016C217.26 12.016 217.684 11.872 217.932 11.584C218.188 11.288 218.316 10.812 218.316 10.156C218.316 9.5 218.188 9.028 217.932 8.74C217.684 8.452 217.26 8.308 216.66 8.308C216.068 8.308 215.644 8.452 215.388 8.74C215.14 9.028 215.016 9.5 215.016 10.156C215.016 10.812 215.14 11.288 215.388 11.584C215.644 11.872 216.068 12.016 216.66 12.016ZM220.908 13V7.312H222.108L222.18 7.972C222.452 7.796 222.776 7.636 223.152 7.492C223.528 7.348 223.9 7.248 224.268 7.192V8.188C224.044 8.228 223.8 8.288 223.536 8.368C223.28 8.44 223.036 8.524 222.804 8.62C222.572 8.708 222.376 8.8 222.216 8.896V13H220.908ZM230.338 13.12C229.826 13.12 229.374 13.032 228.982 12.856C228.59 12.68 228.286 12.388 228.07 11.98C227.854 11.572 227.746 11.024 227.746 10.336C227.746 9.656 227.862 9.084 228.094 8.62C228.326 8.148 228.646 7.792 229.054 7.552C229.47 7.312 229.938 7.192 230.458 7.192C230.802 7.192 231.106 7.232 231.37 7.312C231.642 7.392 231.902 7.516 232.15 7.684V4.912H233.458V13H232.342L232.258 12.436C232.002 12.668 231.722 12.84 231.418 12.952C231.114 13.064 230.754 13.12 230.338 13.12ZM230.686 12.136C231.27 12.136 231.758 11.936 232.15 11.536V8.692C231.774 8.356 231.302 8.188 230.734 8.188C230.182 8.188 229.766 8.372 229.486 8.74C229.206 9.108 229.066 9.644 229.066 10.348C229.066 11.028 229.194 11.496 229.45 11.752C229.714 12.008 230.126 12.136 230.686 12.136ZM237.734 13.12C236.742 13.12 235.974 12.876 235.43 12.388C234.886 11.9 234.614 11.152 234.614 10.144C234.614 9.232 234.846 8.512 235.31 7.984C235.774 7.456 236.478 7.192 237.422 7.192C238.286 7.192 238.934 7.42 239.366 7.876C239.806 8.324 240.026 8.904 240.026 9.616V10.672H235.862C235.926 11.224 236.126 11.604 236.462 11.812C236.798 12.02 237.31 12.124 237.998 12.124C238.286 12.124 238.582 12.096 238.886 12.04C239.19 11.984 239.454 11.912 239.678 11.824V12.784C239.422 12.896 239.126 12.98 238.79 13.036C238.462 13.092 238.11 13.12 237.734 13.12ZM235.862 9.82H238.874V9.424C238.874 9.032 238.766 8.728 238.55 8.512C238.334 8.288 237.97 8.176 237.458 8.176C236.85 8.176 236.43 8.308 236.198 8.572C235.974 8.836 235.862 9.252 235.862 9.82ZM106.876 31.12C106.46 31.12 106.1 31.064 105.796 30.952C105.492 30.84 105.212 30.668 104.956 30.436L104.884 31H103.756V22.912H105.064V25.684C105.56 25.356 106.156 25.192 106.852 25.192C107.66 25.192 108.296 25.424 108.76 25.888C109.232 26.344 109.468 27.084 109.468 28.108C109.468 29.14 109.236 29.9 108.772 30.388C108.308 30.876 107.676 31.12 106.876 31.12ZM106.528 30.136C107.12 30.136 107.536 29.968 107.776 29.632C108.024 29.296 108.148 28.788 108.148 28.108C108.148 27.404 108.016 26.908 107.752 26.62C107.488 26.332 107.072 26.188 106.504 26.188C105.912 26.188 105.432 26.352 105.064 26.68V29.536C105.44 29.936 105.928 30.136 106.528 30.136ZM113.62 31.12C112.628 31.12 111.86 30.876 111.316 30.388C110.772 29.9 110.5 29.152 110.5 28.144C110.5 27.232 110.732 26.512 111.196 25.984C111.66 25.456 112.364 25.192 113.308 25.192C114.172 25.192 114.82 25.42 115.252 25.876C115.692 26.324 115.912 26.904 115.912 27.616V28.672H111.748C111.812 29.224 112.012 29.604 112.348 29.812C112.684 30.02 113.196 30.124 113.884 30.124C114.172 30.124 114.468 30.096 114.772 30.04C115.076 29.984 115.34 29.912 115.564 29.824V30.784C115.308 30.896 115.012 30.98 114.676 31.036C114.348 31.092 113.996 31.12 113.62 31.12ZM111.748 27.82H114.76V27.424C114.76 27.032 114.652 26.728 114.436 26.512C114.22 26.288 113.856 26.176 113.344 26.176C112.736 26.176 112.316 26.308 112.084 26.572C111.86 26.836 111.748 27.252 111.748 27.82ZM119.023 31.12C118.631 31.12 118.255 31.092 117.895 31.036C117.543 30.98 117.251 30.912 117.019 30.832V29.728C117.291 29.832 117.591 29.912 117.919 29.968C118.247 30.024 118.559 30.052 118.855 30.052C119.303 30.052 119.623 30.012 119.815 29.932C120.007 29.852 120.103 29.696 120.103 29.464C120.103 29.296 120.043 29.164 119.923 29.068C119.811 28.972 119.639 28.884 119.407 28.804C119.183 28.724 118.895 28.628 118.543 28.516C118.207 28.404 117.915 28.284 117.667 28.156C117.419 28.02 117.227 27.848 117.091 27.64C116.955 27.432 116.887 27.16 116.887 26.824C116.887 26.304 117.075 25.904 117.451 25.624C117.827 25.336 118.431 25.192 119.263 25.192C119.591 25.192 119.903 25.216 120.199 25.264C120.495 25.312 120.747 25.372 120.955 25.444V26.536C120.731 26.448 120.483 26.38 120.211 26.332C119.947 26.284 119.699 26.26 119.467 26.26C119.051 26.26 118.735 26.296 118.519 26.368C118.311 26.44 118.207 26.584 118.207 26.8C118.207 27.024 118.315 27.184 118.531 27.28C118.755 27.368 119.111 27.492 119.599 27.652C120.047 27.788 120.403 27.932 120.667 28.084C120.931 28.236 121.119 28.42 121.231 28.636C121.351 28.844 121.411 29.116 121.411 29.452C121.411 30.012 121.207 30.432 120.799 30.712C120.391 30.984 119.799 31.12 119.023 31.12ZM125.314 31.12C124.314 31.12 123.558 30.868 123.046 30.364C122.534 29.852 122.278 29.116 122.278 28.156C122.278 27.156 122.558 26.412 123.118 25.924C123.686 25.436 124.442 25.192 125.386 25.192C125.778 25.192 126.106 25.22 126.37 25.276C126.642 25.332 126.902 25.42 127.15 25.54V26.512C126.734 26.304 126.23 26.2 125.638 26.2C124.982 26.2 124.478 26.348 124.126 26.644C123.774 26.932 123.598 27.436 123.598 28.156C123.598 28.836 123.754 29.336 124.066 29.656C124.378 29.968 124.894 30.124 125.614 30.124C126.182 30.124 126.698 30.016 127.162 29.8V30.796C126.898 30.9 126.614 30.98 126.31 31.036C126.014 31.092 125.682 31.12 125.314 31.12ZM128.201 31V22.912H129.509V25.864C129.757 25.664 130.053 25.504 130.397 25.384C130.741 25.256 131.129 25.192 131.561 25.192C132.281 25.192 132.813 25.364 133.157 25.708C133.501 26.052 133.673 26.588 133.673 27.316V31H132.377V27.376C132.377 26.936 132.281 26.628 132.089 26.452C131.905 26.276 131.581 26.188 131.117 26.188C130.829 26.188 130.537 26.252 130.241 26.38C129.945 26.5 129.701 26.66 129.509 26.86V31H128.201ZM137.902 31.12C136.91 31.12 136.142 30.876 135.598 30.388C135.054 29.9 134.782 29.152 134.782 28.144C134.782 27.232 135.014 26.512 135.478 25.984C135.942 25.456 136.646 25.192 137.59 25.192C138.454 25.192 139.102 25.42 139.534 25.876C139.974 26.324 140.194 26.904 140.194 27.616V28.672H136.03C136.094 29.224 136.294 29.604 136.63 29.812C136.966 30.02 137.478 30.124 138.166 30.124C138.454 30.124 138.75 30.096 139.054 30.04C139.358 29.984 139.622 29.912 139.846 29.824V30.784C139.59 30.896 139.294 30.98 138.958 31.036C138.63 31.092 138.278 31.12 137.902 31.12ZM136.03 27.82H139.042V27.424C139.042 27.032 138.934 26.728 138.718 26.512C138.502 26.288 138.138 26.176 137.626 26.176C137.018 26.176 136.598 26.308 136.366 26.572C136.142 26.836 136.03 27.252 136.03 27.82ZM141.467 31V25.312H142.667L142.739 25.972C143.011 25.796 143.335 25.636 143.711 25.492C144.087 25.348 144.459 25.248 144.827 25.192V26.188C144.603 26.228 144.359 26.288 144.095 26.368C143.839 26.44 143.595 26.524 143.363 26.62C143.131 26.708 142.935 26.8 142.775 26.896V31H141.467ZM145.779 31V25.312H146.979L147.039 25.912C147.319 25.688 147.627 25.512 147.963 25.384C148.299 25.256 148.659 25.192 149.043 25.192C149.451 25.192 149.767 25.26 149.991 25.396C150.223 25.524 150.399 25.704 150.519 25.936C150.783 25.72 151.087 25.544 151.431 25.408C151.775 25.264 152.187 25.192 152.667 25.192C153.323 25.192 153.807 25.36 154.119 25.696C154.431 26.032 154.587 26.548 154.587 27.244V31H153.303V27.376C153.303 26.936 153.211 26.628 153.027 26.452C152.843 26.276 152.543 26.188 152.127 26.188C151.855 26.188 151.595 26.236 151.347 26.332C151.107 26.428 150.899 26.572 150.723 26.764C150.747 26.852 150.763 26.944 150.771 27.04C150.779 27.136 150.783 27.24 150.783 27.352V31H149.571V27.388C149.571 26.972 149.499 26.668 149.355 26.476C149.211 26.284 148.939 26.188 148.539 26.188C148.259 26.188 147.991 26.256 147.735 26.392C147.487 26.52 147.263 26.676 147.063 26.86V31H145.779ZM156.537 24.124V23.044H157.965V24.124H156.537ZM156.645 31V26.308H155.781L155.901 25.312H157.953V31H156.645ZM159.479 31V25.312H160.679L160.739 25.912C160.995 25.712 161.299 25.544 161.651 25.408C162.011 25.264 162.407 25.192 162.839 25.192C163.575 25.192 164.111 25.364 164.447 25.708C164.783 26.052 164.951 26.588 164.951 27.316V31H163.655V27.376C163.655 26.936 163.563 26.628 163.379 26.452C163.203 26.276 162.867 26.188 162.371 26.188C162.075 26.188 161.783 26.248 161.495 26.368C161.215 26.488 160.979 26.644 160.787 26.836V31H159.479ZM168.72 33.112C168.296 33.112 167.872 33.084 167.448 33.028C167.024 32.98 166.664 32.904 166.368 32.8V31.792C166.688 31.896 167.056 31.976 167.472 32.032C167.888 32.088 168.284 32.116 168.66 32.116C169.236 32.116 169.656 32.084 169.92 32.02C170.184 31.956 170.316 31.812 170.316 31.588C170.316 31.42 170.252 31.3 170.124 31.228C169.996 31.164 169.752 31.132 169.392 31.132H167.856C166.824 31.132 166.308 30.768 166.308 30.04C166.308 29.808 166.376 29.592 166.512 29.392C166.648 29.192 166.864 29.04 167.16 28.936C166.832 28.776 166.588 28.556 166.428 28.276C166.276 27.996 166.2 27.66 166.2 27.268C166.2 26.54 166.416 26.012 166.848 25.684C167.288 25.356 167.944 25.192 168.816 25.192C169 25.192 169.192 25.208 169.392 25.24C169.592 25.264 169.748 25.288 169.86 25.312H171.948L171.912 26.164H170.952C171.104 26.292 171.216 26.452 171.288 26.644C171.36 26.836 171.396 27.044 171.396 27.268C171.396 27.876 171.212 28.356 170.844 28.708C170.476 29.052 169.92 29.224 169.176 29.224C169.048 29.224 168.928 29.22 168.816 29.212C168.712 29.196 168.596 29.18 168.468 29.164C168.228 29.188 168.012 29.252 167.82 29.356C167.628 29.46 167.532 29.6 167.532 29.776C167.532 29.896 167.58 29.984 167.676 30.04C167.772 30.088 167.932 30.112 168.156 30.112H169.752C170.32 30.112 170.756 30.236 171.06 30.484C171.372 30.724 171.528 31.076 171.528 31.54C171.528 32.1 171.284 32.5 170.796 32.74C170.316 32.988 169.624 33.112 168.72 33.112ZM168.816 28.396C169.336 28.396 169.696 28.308 169.896 28.132C170.104 27.956 170.208 27.656 170.208 27.232C170.208 26.808 170.104 26.5 169.896 26.308C169.696 26.116 169.336 26.02 168.816 26.02C168.328 26.02 167.972 26.112 167.748 26.296C167.524 26.48 167.412 26.792 167.412 27.232C167.412 27.64 167.516 27.936 167.724 28.12C167.94 28.304 168.304 28.396 168.816 28.396ZM178.706 31.12C177.714 31.12 176.946 30.876 176.402 30.388C175.858 29.9 175.586 29.152 175.586 28.144C175.586 27.232 175.818 26.512 176.282 25.984C176.746 25.456 177.45 25.192 178.394 25.192C179.258 25.192 179.906 25.42 180.338 25.876C180.778 26.324 180.998 26.904 180.998 27.616V28.672H176.834C176.898 29.224 177.098 29.604 177.434 29.812C177.77 30.02 178.282 30.124 178.97 30.124C179.258 30.124 179.554 30.096 179.858 30.04C180.162 29.984 180.426 29.912 180.65 29.824V30.784C180.394 30.896 180.098 30.98 179.762 31.036C179.434 31.092 179.082 31.12 178.706 31.12ZM176.834 27.82H179.846V27.424C179.846 27.032 179.738 26.728 179.522 26.512C179.306 26.288 178.942 26.176 178.43 26.176C177.822 26.176 177.402 26.308 177.17 26.572C176.946 26.836 176.834 27.252 176.834 27.82ZM182.272 31V25.312H183.472L183.532 25.912C183.788 25.712 184.092 25.544 184.444 25.408C184.804 25.264 185.2 25.192 185.632 25.192C186.368 25.192 186.904 25.364 187.24 25.708C187.576 26.052 187.744 26.588 187.744 27.316V31H186.448V27.376C186.448 26.936 186.356 26.628 186.172 26.452C185.996 26.276 185.66 26.188 185.164 26.188C184.868 26.188 184.576 26.248 184.288 26.368C184.008 26.488 183.772 26.644 183.58 26.836V31H182.272ZM194.327 31.12C193.815 31.12 193.363 31.032 192.971 30.856C192.579 30.68 192.275 30.388 192.059 29.98C191.843 29.572 191.735 29.024 191.735 28.336C191.735 27.656 191.851 27.084 192.083 26.62C192.315 26.148 192.635 25.792 193.043 25.552C193.459 25.312 193.927 25.192 194.447 25.192C194.791 25.192 195.095 25.232 195.359 25.312C195.631 25.392 195.891 25.516 196.139 25.684V22.912H197.447V31H196.331L196.247 30.436C195.991 30.668 195.711 30.84 195.407 30.952C195.103 31.064 194.743 31.12 194.327 31.12ZM194.675 30.136C195.259 30.136 195.747 29.936 196.139 29.536V26.692C195.763 26.356 195.291 26.188 194.723 26.188C194.171 26.188 193.755 26.372 193.475 26.74C193.195 27.108 193.055 27.644 193.055 28.348C193.055 29.028 193.183 29.496 193.439 29.752C193.703 30.008 194.115 30.136 194.675 30.136ZM201.722 31.12C200.73 31.12 199.962 30.876 199.418 30.388C198.874 29.9 198.602 29.152 198.602 28.144C198.602 27.232 198.834 26.512 199.298 25.984C199.762 25.456 200.466 25.192 201.41 25.192C202.274 25.192 202.922 25.42 203.354 25.876C203.794 26.324 204.014 26.904 204.014 27.616V28.672H199.85C199.914 29.224 200.114 29.604 200.45 29.812C200.786 30.02 201.298 30.124 201.986 30.124C202.274 30.124 202.57 30.096 202.874 30.04C203.178 29.984 203.442 29.912 203.666 29.824V30.784C203.41 30.896 203.114 30.98 202.778 31.036C202.45 31.092 202.098 31.12 201.722 31.12ZM199.85 27.82H202.862V27.424C202.862 27.032 202.754 26.728 202.538 26.512C202.322 26.288 201.958 26.176 201.446 26.176C200.838 26.176 200.418 26.308 200.186 26.572C199.962 26.836 199.85 27.252 199.85 27.82ZM211.173 31.12C210.757 31.12 210.397 31.064 210.093 30.952C209.789 30.84 209.509 30.668 209.253 30.436L209.181 31H208.053V22.912H209.361V25.684C209.857 25.356 210.453 25.192 211.149 25.192C211.957 25.192 212.593 25.424 213.057 25.888C213.529 26.344 213.765 27.084 213.765 28.108C213.765 29.14 213.533 29.9 213.069 30.388C212.605 30.876 211.973 31.12 211.173 31.12ZM210.825 30.136C211.417 30.136 211.833 29.968 212.073 29.632C212.321 29.296 212.445 28.788 212.445 28.108C212.445 27.404 212.313 26.908 212.049 26.62C211.785 26.332 211.369 26.188 210.801 26.188C210.209 26.188 209.729 26.352 209.361 26.68V29.536C209.737 29.936 210.225 30.136 210.825 30.136ZM217.917 31.12C216.925 31.12 216.157 30.876 215.613 30.388C215.069 29.9 214.797 29.152 214.797 28.144C214.797 27.232 215.029 26.512 215.493 25.984C215.957 25.456 216.661 25.192 217.605 25.192C218.469 25.192 219.117 25.42 219.549 25.876C219.989 26.324 220.209 26.904 220.209 27.616V28.672H216.045C216.109 29.224 216.309 29.604 216.645 29.812C216.981 30.02 217.493 30.124 218.181 30.124C218.469 30.124 218.765 30.096 219.069 30.04C219.373 29.984 219.637 29.912 219.861 29.824V30.784C219.605 30.896 219.309 30.98 218.973 31.036C218.645 31.092 218.293 31.12 217.917 31.12ZM216.045 27.82H219.057V27.424C219.057 27.032 218.949 26.728 218.733 26.512C218.517 26.288 218.153 26.176 217.641 26.176C217.033 26.176 216.613 26.308 216.381 26.572C216.157 26.836 216.045 27.252 216.045 27.82ZM222.83 31L220.586 25.312H221.942L223.538 29.728L225.134 25.312H226.478L224.246 31H222.83ZM229.832 31.12C228.808 31.12 228.056 30.864 227.576 30.352C227.104 29.84 226.868 29.108 226.868 28.156C226.868 27.204 227.108 26.472 227.588 25.96C228.068 25.448 228.816 25.192 229.832 25.192C230.856 25.192 231.608 25.448 232.088 25.96C232.568 26.472 232.808 27.204 232.808 28.156C232.808 29.108 232.568 29.84 232.088 30.352C231.616 30.864 230.864 31.12 229.832 31.12ZM229.832 30.016C230.432 30.016 230.856 29.872 231.104 29.584C231.36 29.288 231.488 28.812 231.488 28.156C231.488 27.5 231.36 27.028 231.104 26.74C230.856 26.452 230.432 26.308 229.832 26.308C229.24 26.308 228.816 26.452 228.56 26.74C228.312 27.028 228.188 27.5 228.188 28.156C228.188 28.812 228.312 29.288 228.56 29.584C228.816 29.872 229.24 30.016 229.832 30.016ZM234.08 31V25.312H235.28L235.352 25.972C235.624 25.796 235.948 25.636 236.324 25.492C236.7 25.348 237.072 25.248 237.44 25.192V26.188C237.216 26.228 236.972 26.288 236.708 26.368C236.452 26.44 236.208 26.524 235.976 26.62C235.744 26.708 235.548 26.8 235.388 26.896V31H234.08ZM240.51 31.12C239.998 31.12 239.546 31.032 239.154 30.856C238.762 30.68 238.458 30.388 238.242 29.98C238.026 29.572 237.918 29.024 237.918 28.336C237.918 27.656 238.034 27.084 238.266 26.62C238.498 26.148 238.818 25.792 239.226 25.552C239.642 25.312 240.11 25.192 240.63 25.192C240.974 25.192 241.278 25.232 241.542 25.312C241.814 25.392 242.074 25.516 242.322 25.684V22.912H243.63V31H242.514L242.43 30.436C242.174 30.668 241.894 30.84 241.59 30.952C241.286 31.064 240.926 31.12 240.51 31.12ZM240.858 30.136C241.442 30.136 241.93 29.936 242.322 29.536V26.692C241.946 26.356 241.474 26.188 240.906 26.188C240.354 26.188 239.938 26.372 239.658 26.74C239.378 27.108 239.238 27.644 239.238 28.348C239.238 29.028 239.366 29.496 239.622 29.752C239.886 30.008 240.298 30.136 240.858 30.136ZM247.906 31.12C246.914 31.12 246.146 30.876 245.602 30.388C245.058 29.9 244.786 29.152 244.786 28.144C244.786 27.232 245.018 26.512 245.482 25.984C245.946 25.456 246.65 25.192 247.594 25.192C248.458 25.192 249.106 25.42 249.538 25.876C249.978 26.324 250.198 26.904 250.198 27.616V28.672H246.034C246.098 29.224 246.298 29.604 246.634 29.812C246.97 30.02 247.482 30.124 248.17 30.124C248.458 30.124 248.754 30.096 249.058 30.04C249.362 29.984 249.626 29.912 249.85 29.824V30.784C249.594 30.896 249.298 30.98 248.962 31.036C248.634 31.092 248.282 31.12 247.906 31.12ZM246.034 27.82H249.046V27.424C249.046 27.032 248.938 26.728 248.722 26.512C248.506 26.288 248.142 26.176 247.63 26.176C247.022 26.176 246.602 26.308 246.37 26.572C246.146 26.836 246.034 27.252 246.034 27.82ZM251.471 31V25.312H252.671L252.743 25.972C253.015 25.796 253.339 25.636 253.715 25.492C254.091 25.348 254.463 25.248 254.831 25.192V26.188C254.607 26.228 254.363 26.288 254.099 26.368C253.843 26.44 253.599 26.524 253.367 26.62C253.135 26.708 252.939 26.8 252.779 26.896V31H251.471ZM256.263 24.124V23.044H257.691V24.124H256.263ZM256.371 31V26.308H255.507L255.627 25.312H257.679V31H256.371ZM259.205 31V25.312H260.405L260.465 25.912C260.721 25.712 261.025 25.544 261.377 25.408C261.737 25.264 262.133 25.192 262.565 25.192C263.301 25.192 263.837 25.364 264.173 25.708C264.509 26.052 264.677 26.588 264.677 27.316V31H263.381V27.376C263.381 26.936 263.289 26.628 263.105 26.452C262.929 26.276 262.593 26.188 262.097 26.188C261.801 26.188 261.509 26.248 261.221 26.368C260.941 26.488 260.705 26.644 260.513 26.836V31H259.205ZM268.447 33.112C268.023 33.112 267.599 33.084 267.175 33.028C266.751 32.98 266.391 32.904 266.095 32.8V31.792C266.415 31.896 266.783 31.976 267.199 32.032C267.615 32.088 268.011 32.116 268.387 32.116C268.963 32.116 269.383 32.084 269.647 32.02C269.911 31.956 270.043 31.812 270.043 31.588C270.043 31.42 269.979 31.3 269.851 31.228C269.723 31.164 269.479 31.132 269.119 31.132H267.583C266.551 31.132 266.035 30.768 266.035 30.04C266.035 29.808 266.103 29.592 266.239 29.392C266.375 29.192 266.591 29.04 266.887 28.936C266.559 28.776 266.315 28.556 266.155 28.276C266.003 27.996 265.927 27.66 265.927 27.268C265.927 26.54 266.143 26.012 266.575 25.684C267.015 25.356 267.671 25.192 268.543 25.192C268.727 25.192 268.919 25.208 269.119 25.24C269.319 25.264 269.475 25.288 269.587 25.312H271.675L271.639 26.164H270.679C270.831 26.292 270.943 26.452 271.015 26.644C271.087 26.836 271.123 27.044 271.123 27.268C271.123 27.876 270.939 28.356 270.571 28.708C270.203 29.052 269.647 29.224 268.903 29.224C268.775 29.224 268.655 29.22 268.543 29.212C268.439 29.196 268.323 29.18 268.195 29.164C267.955 29.188 267.739 29.252 267.547 29.356C267.355 29.46 267.259 29.6 267.259 29.776C267.259 29.896 267.307 29.984 267.403 30.04C267.499 30.088 267.659 30.112 267.883 30.112H269.479C270.047 30.112 270.483 30.236 270.787 30.484C271.099 30.724 271.255 31.076 271.255 31.54C271.255 32.1 271.011 32.5 270.523 32.74C270.043 32.988 269.351 33.112 268.447 33.112ZM268.543 28.396C269.063 28.396 269.423 28.308 269.623 28.132C269.831 27.956 269.935 27.656 269.935 27.232C269.935 26.808 269.831 26.5 269.623 26.308C269.423 26.116 269.063 26.02 268.543 26.02C268.055 26.02 267.699 26.112 267.475 26.296C267.251 26.48 267.139 26.792 267.139 27.232C267.139 27.64 267.243 27.936 267.451 28.12C267.667 28.304 268.031 28.396 268.543 28.396ZM277.557 31L275.313 25.312H276.669L278.265 29.728L279.861 25.312H281.205L278.973 31H277.557ZM283.727 31.12C283.367 31.12 283.031 31.056 282.719 30.928C282.415 30.8 282.171 30.608 281.987 30.352C281.803 30.088 281.711 29.764 281.711 29.38C281.711 28.836 281.895 28.4 282.263 28.072C282.639 27.736 283.215 27.568 283.991 27.568H285.815V27.316C285.815 27.044 285.771 26.828 285.683 26.668C285.603 26.508 285.451 26.392 285.227 26.32C285.011 26.248 284.691 26.212 284.267 26.212C283.595 26.212 282.967 26.312 282.383 26.512V25.54C282.639 25.436 282.951 25.352 283.319 25.288C283.687 25.224 284.083 25.192 284.507 25.192C285.339 25.192 285.971 25.36 286.403 25.696C286.843 26.032 287.063 26.58 287.063 27.34V31H285.947L285.863 30.424C285.631 30.648 285.343 30.82 284.999 30.94C284.663 31.06 284.239 31.12 283.727 31.12ZM284.075 30.184C284.467 30.184 284.807 30.12 285.095 29.992C285.391 29.856 285.631 29.676 285.815 29.452V28.456H284.015C283.631 28.456 283.351 28.532 283.175 28.684C283.007 28.828 282.923 29.052 282.923 29.356C282.923 29.652 283.023 29.864 283.223 29.992C283.423 30.12 283.707 30.184 284.075 30.184ZM288.514 31V25.312H289.714L289.774 25.912C290.03 25.712 290.334 25.544 290.686 25.408C291.046 25.264 291.442 25.192 291.874 25.192C292.61 25.192 293.146 25.364 293.482 25.708C293.818 26.052 293.986 26.588 293.986 27.316V31H292.69V27.376C292.69 26.936 292.598 26.628 292.414 26.452C292.238 26.276 291.902 26.188 291.406 26.188C291.11 26.188 290.818 26.248 290.53 26.368C290.25 26.488 290.014 26.644 289.822 26.836V31H288.514ZM106.108 49.12C105.596 49.12 105.144 49.032 104.752 48.856C104.36 48.68 104.056 48.388 103.84 47.98C103.624 47.572 103.516 47.024 103.516 46.336C103.516 45.656 103.632 45.084 103.864 44.62C104.096 44.148 104.416 43.792 104.824 43.552C105.24 43.312 105.708 43.192 106.228 43.192C106.572 43.192 106.876 43.232 107.14 43.312C107.412 43.392 107.672 43.516 107.92 43.684V40.912H109.228V49H108.112L108.028 48.436C107.772 48.668 107.492 48.84 107.188 48.952C106.884 49.064 106.524 49.12 106.108 49.12ZM106.456 48.136C107.04 48.136 107.528 47.936 107.92 47.536V44.692C107.544 44.356 107.072 44.188 106.504 44.188C105.952 44.188 105.536 44.372 105.256 44.74C104.976 45.108 104.836 45.644 104.836 46.348C104.836 47.028 104.964 47.496 105.22 47.752C105.484 48.008 105.896 48.136 106.456 48.136ZM113.503 49.12C112.511 49.12 111.743 48.876 111.199 48.388C110.655 47.9 110.383 47.152 110.383 46.144C110.383 45.232 110.615 44.512 111.079 43.984C111.543 43.456 112.247 43.192 113.191 43.192C114.055 43.192 114.703 43.42 115.135 43.876C115.575 44.324 115.795 44.904 115.795 45.616V46.672H111.631C111.695 47.224 111.895 47.604 112.231 47.812C112.567 48.02 113.079 48.124 113.767 48.124C114.055 48.124 114.351 48.096 114.655 48.04C114.959 47.984 115.223 47.912 115.447 47.824V48.784C115.191 48.896 114.895 48.98 114.559 49.036C114.231 49.092 113.879 49.12 113.503 49.12ZM111.631 45.82H114.643V45.424C114.643 45.032 114.535 44.728 114.319 44.512C114.103 44.288 113.739 44.176 113.227 44.176C112.619 44.176 112.199 44.308 111.967 44.572C111.743 44.836 111.631 45.252 111.631 45.82ZM119.834 49V41.272H123.386C124.25 41.272 124.878 41.496 125.27 41.944C125.67 42.384 125.87 42.984 125.87 43.744C125.87 44.288 125.734 44.752 125.462 45.136C125.19 45.52 124.798 45.788 124.286 45.94C124.43 46.044 124.542 46.156 124.622 46.276C124.702 46.396 124.782 46.556 124.862 46.756L125.834 49H124.49L123.542 46.84C123.454 46.632 123.346 46.484 123.218 46.396C123.098 46.308 122.89 46.264 122.594 46.264H121.142V49H119.834ZM121.142 45.208H123.038C123.51 45.208 123.882 45.092 124.154 44.86C124.426 44.628 124.562 44.256 124.562 43.744C124.562 42.776 124.094 42.292 123.158 42.292H121.142V45.208ZM129.863 49.12C128.871 49.12 128.103 48.876 127.559 48.388C127.015 47.9 126.743 47.152 126.743 46.144C126.743 45.232 126.975 44.512 127.439 43.984C127.903 43.456 128.607 43.192 129.551 43.192C130.415 43.192 131.063 43.42 131.495 43.876C131.935 44.324 132.155 44.904 132.155 45.616V46.672H127.991C128.055 47.224 128.255 47.604 128.591 47.812C128.927 48.02 129.439 48.124 130.127 48.124C130.415 48.124 130.711 48.096 131.015 48.04C131.319 47.984 131.583 47.912 131.807 47.824V48.784C131.551 48.896 131.255 48.98 130.919 49.036C130.591 49.092 130.239 49.12 129.863 49.12ZM127.991 45.82H131.003V45.424C131.003 45.032 130.895 44.728 130.679 44.512C130.463 44.288 130.099 44.176 129.587 44.176C128.979 44.176 128.559 44.308 128.327 44.572C128.103 44.836 127.991 45.252 127.991 45.82ZM136.224 49.12C135.224 49.12 134.468 48.868 133.956 48.364C133.444 47.852 133.188 47.116 133.188 46.156C133.188 45.156 133.468 44.412 134.028 43.924C134.596 43.436 135.352 43.192 136.296 43.192C136.688 43.192 137.016 43.22 137.28 43.276C137.552 43.332 137.812 43.42 138.06 43.54V44.512C137.644 44.304 137.14 44.2 136.548 44.2C135.892 44.2 135.388 44.348 135.036 44.644C134.684 44.932 134.508 45.436 134.508 46.156C134.508 46.836 134.664 47.336 134.976 47.656C135.288 47.968 135.804 48.124 136.524 48.124C137.092 48.124 137.608 48.016 138.072 47.8V48.796C137.808 48.9 137.524 48.98 137.22 49.036C136.924 49.092 136.592 49.12 136.224 49.12ZM139.111 49V40.912H140.419V43.864C140.667 43.664 140.963 43.504 141.307 43.384C141.651 43.256 142.039 43.192 142.471 43.192C143.191 43.192 143.723 43.364 144.067 43.708C144.411 44.052 144.583 44.588 144.583 45.316V49H143.287V45.376C143.287 44.936 143.191 44.628 142.999 44.452C142.815 44.276 142.491 44.188 142.027 44.188C141.739 44.188 141.447 44.252 141.151 44.38C140.855 44.5 140.611 44.66 140.419 44.86V49H139.111ZM148.221 49.12C147.613 49.12 147.157 48.96 146.853 48.64C146.557 48.312 146.409 47.868 146.409 47.308V44.332H145.569V43.312H146.409V42.004L147.705 41.608V43.312H149.217L149.133 44.332H147.705V47.236C147.705 47.564 147.781 47.796 147.933 47.932C148.085 48.06 148.333 48.124 148.677 48.124C148.893 48.124 149.121 48.084 149.361 48.004V48.928C149.049 49.056 148.669 49.12 148.221 49.12ZM153.241 49.12C152.249 49.12 151.481 48.876 150.937 48.388C150.393 47.9 150.121 47.152 150.121 46.144C150.121 45.232 150.353 44.512 150.817 43.984C151.281 43.456 151.985 43.192 152.929 43.192C153.793 43.192 154.441 43.42 154.873 43.876C155.313 44.324 155.533 44.904 155.533 45.616V46.672H151.369C151.433 47.224 151.633 47.604 151.969 47.812C152.305 48.02 152.817 48.124 153.505 48.124C153.793 48.124 154.089 48.096 154.393 48.04C154.697 47.984 154.961 47.912 155.185 47.824V48.784C154.929 48.896 154.633 48.98 154.297 49.036C153.969 49.092 153.617 49.12 153.241 49.12ZM151.369 45.82H154.381V45.424C154.381 45.032 154.273 44.728 154.057 44.512C153.841 44.288 153.477 44.176 152.965 44.176C152.357 44.176 151.937 44.308 151.705 44.572C151.481 44.836 151.369 45.252 151.369 45.82ZM156.807 49V43.312H158.007L158.067 43.912C158.323 43.712 158.627 43.544 158.979 43.408C159.339 43.264 159.735 43.192 160.167 43.192C160.903 43.192 161.439 43.364 161.775 43.708C162.111 44.052 162.279 44.588 162.279 45.316V49H160.983V45.376C160.983 44.936 160.891 44.628 160.707 44.452C160.531 44.276 160.195 44.188 159.699 44.188C159.403 44.188 159.111 44.248 158.823 44.368C158.543 44.488 158.307 44.644 158.115 44.836V49H156.807ZM168.514 49L166.27 43.312H167.626L169.222 47.728L170.818 43.312H172.162L169.93 49H168.514ZM174.684 49.12C174.324 49.12 173.988 49.056 173.676 48.928C173.372 48.8 173.128 48.608 172.944 48.352C172.76 48.088 172.668 47.764 172.668 47.38C172.668 46.836 172.852 46.4 173.22 46.072C173.596 45.736 174.172 45.568 174.948 45.568H176.772V45.316C176.772 45.044 176.728 44.828 176.64 44.668C176.56 44.508 176.408 44.392 176.184 44.32C175.968 44.248 175.648 44.212 175.224 44.212C174.552 44.212 173.924 44.312 173.34 44.512V43.54C173.596 43.436 173.908 43.352 174.276 43.288C174.644 43.224 175.04 43.192 175.464 43.192C176.296 43.192 176.928 43.36 177.36 43.696C177.8 44.032 178.02 44.58 178.02 45.34V49H176.904L176.82 48.424C176.588 48.648 176.3 48.82 175.956 48.94C175.62 49.06 175.196 49.12 174.684 49.12ZM175.032 48.184C175.424 48.184 175.764 48.12 176.052 47.992C176.348 47.856 176.588 47.676 176.772 47.452V46.456H174.972C174.588 46.456 174.308 46.532 174.132 46.684C173.964 46.828 173.88 47.052 173.88 47.356C173.88 47.652 173.98 47.864 174.18 47.992C174.38 48.12 174.664 48.184 175.032 48.184ZM179.471 49V43.312H180.671L180.731 43.912C180.987 43.712 181.291 43.544 181.643 43.408C182.003 43.264 182.399 43.192 182.831 43.192C183.567 43.192 184.103 43.364 184.439 43.708C184.775 44.052 184.943 44.588 184.943 45.316V49H183.647V45.376C183.647 44.936 183.555 44.628 183.371 44.452C183.195 44.276 182.859 44.188 182.363 44.188C182.067 44.188 181.775 44.248 181.487 44.368C181.207 44.488 180.971 44.644 180.779 44.836V49H179.471ZM191.526 49.12C191.014 49.12 190.562 49.032 190.17 48.856C189.778 48.68 189.474 48.388 189.258 47.98C189.042 47.572 188.934 47.024 188.934 46.336C188.934 45.656 189.05 45.084 189.282 44.62C189.514 44.148 189.834 43.792 190.242 43.552C190.658 43.312 191.126 43.192 191.646 43.192C191.99 43.192 192.294 43.232 192.558 43.312C192.83 43.392 193.09 43.516 193.338 43.684V40.912H194.646V49H193.53L193.446 48.436C193.19 48.668 192.91 48.84 192.606 48.952C192.302 49.064 191.942 49.12 191.526 49.12ZM191.874 48.136C192.458 48.136 192.946 47.936 193.338 47.536V44.692C192.962 44.356 192.49 44.188 191.922 44.188C191.37 44.188 190.954 44.372 190.674 44.74C190.394 45.108 190.254 45.644 190.254 46.348C190.254 47.028 190.382 47.496 190.638 47.752C190.902 48.008 191.314 48.136 191.874 48.136ZM198.921 49.12C197.929 49.12 197.161 48.876 196.617 48.388C196.073 47.9 195.801 47.152 195.801 46.144C195.801 45.232 196.033 44.512 196.497 43.984C196.961 43.456 197.665 43.192 198.609 43.192C199.473 43.192 200.121 43.42 200.553 43.876C200.993 44.324 201.213 44.904 201.213 45.616V46.672H197.049C197.113 47.224 197.313 47.604 197.649 47.812C197.985 48.02 198.497 48.124 199.185 48.124C199.473 48.124 199.769 48.096 200.073 48.04C200.377 47.984 200.641 47.912 200.865 47.824V48.784C200.609 48.896 200.313 48.98 199.977 49.036C199.649 49.092 199.297 49.12 198.921 49.12ZM197.049 45.82H200.061V45.424C200.061 45.032 199.953 44.728 199.737 44.512C199.521 44.288 199.157 44.176 198.645 44.176C198.037 44.176 197.617 44.308 197.385 44.572C197.161 44.836 197.049 45.252 197.049 45.82ZM205.252 49V41.272H206.596L209.044 46.276L211.48 41.272H212.824V49H211.528V43.396L209.44 47.668H208.648L206.548 43.396V49H205.252ZM217.214 49.12C216.222 49.12 215.454 48.876 214.91 48.388C214.366 47.9 214.094 47.152 214.094 46.144C214.094 45.232 214.326 44.512 214.79 43.984C215.254 43.456 215.958 43.192 216.902 43.192C217.766 43.192 218.414 43.42 218.846 43.876C219.286 44.324 219.506 44.904 219.506 45.616V46.672H215.342C215.406 47.224 215.606 47.604 215.942 47.812C216.278 48.02 216.79 48.124 217.478 48.124C217.766 48.124 218.062 48.096 218.366 48.04C218.67 47.984 218.934 47.912 219.158 47.824V48.784C218.902 48.896 218.606 48.98 218.27 49.036C217.942 49.092 217.59 49.12 217.214 49.12ZM215.342 45.82H218.354V45.424C218.354 45.032 218.246 44.728 218.03 44.512C217.814 44.288 217.45 44.176 216.938 44.176C216.33 44.176 215.91 44.308 215.678 44.572C215.454 44.836 215.342 45.252 215.342 45.82ZM220.779 49V43.312H221.979L222.039 43.912C222.295 43.712 222.599 43.544 222.951 43.408C223.311 43.264 223.707 43.192 224.139 43.192C224.875 43.192 225.411 43.364 225.747 43.708C226.083 44.052 226.251 44.588 226.251 45.316V49H224.955V45.376C224.955 44.936 224.863 44.628 224.679 44.452C224.503 44.276 224.167 44.188 223.671 44.188C223.375 44.188 223.083 44.248 222.795 44.368C222.515 44.488 222.279 44.644 222.087 44.836V49H220.779ZM229.613 49.12C229.221 49.12 228.845 49.092 228.485 49.036C228.133 48.98 227.841 48.912 227.609 48.832V47.728C227.881 47.832 228.181 47.912 228.509 47.968C228.837 48.024 229.149 48.052 229.445 48.052C229.893 48.052 230.213 48.012 230.405 47.932C230.597 47.852 230.693 47.696 230.693 47.464C230.693 47.296 230.633 47.164 230.513 47.068C230.401 46.972 230.229 46.884 229.997 46.804C229.773 46.724 229.485 46.628 229.133 46.516C228.797 46.404 228.505 46.284 228.257 46.156C228.009 46.02 227.817 45.848 227.681 45.64C227.545 45.432 227.477 45.16 227.477 44.824C227.477 44.304 227.665 43.904 228.041 43.624C228.417 43.336 229.021 43.192 229.853 43.192C230.181 43.192 230.493 43.216 230.789 43.264C231.085 43.312 231.337 43.372 231.545 43.444V44.536C231.321 44.448 231.073 44.38 230.801 44.332C230.537 44.284 230.289 44.26 230.057 44.26C229.641 44.26 229.325 44.296 229.109 44.368C228.901 44.44 228.797 44.584 228.797 44.8C228.797 45.024 228.905 45.184 229.121 45.28C229.345 45.368 229.701 45.492 230.189 45.652C230.637 45.788 230.993 45.932 231.257 46.084C231.521 46.236 231.709 46.42 231.821 46.636C231.941 46.844 232.001 47.116 232.001 47.452C232.001 48.012 231.797 48.432 231.389 48.712C230.981 48.984 230.389 49.12 229.613 49.12Z" fill="#141313"/>
<g clip-path="url(#clip0_102_511)">
<path d="M24.8454 2.03858C25.2831 3.13855 25.5333 4.47008 25.4291 6.34194C25.3665 9.15939 25.1164 11.1084 24.8454 12.9996C24.6578 15.4504 25.6583 17.3802 27.0548 19.1362C28.5556 20.7765 30.0355 22.4361 31.5571 24.0378C32.224 24.7325 32.9536 25.3886 33.3079 26.2956C33.6414 27.1447 33.558 28.1096 33.1203 28.9201C32.224 30.6569 30.3898 31.8919 28.4722 32.4709C28.2429 32.548 27.972 32.6252 27.8469 32.8182C27.5968 33.2042 27.9511 33.7831 28.2012 34.1111C28.9516 35.0567 30.0355 35.6742 29.9729 37.0058C29.9104 38.4724 28.5347 39.2636 27.2841 39.8618C27.972 40.4407 28.3471 41.3284 28.2638 42.1968C28.2012 42.7565 27.9511 43.3547 27.5343 43.7599C27.1382 44.1459 26.7005 44.5511 26.3879 45.0143C25.8459 45.7862 26.367 46.6546 26.5129 47.4651C26.8256 49.0668 26.5129 50.572 25.7417 52C24.1368 52 22.3025 52 20.7184 52C20.8226 51.9035 20.8852 51.7877 20.9268 51.6526C21.5938 50.0316 21.3229 48.4492 21.2812 46.7704C21.2812 46.4037 21.2812 46.037 21.3854 45.709C21.6564 44.8599 22.6985 44.609 23.0946 43.8178C23.4072 43.2003 23.3655 42.467 23.0946 41.8302C22.8445 41.2512 22.4276 40.7881 22.1149 40.2478C22.8445 40.2285 23.4698 40.2478 24.0951 39.7846C25.1581 38.9934 25.1164 37.7198 24.637 36.6391C24.241 35.7321 23.574 34.9602 23.3447 33.9568C22.9278 32.9726 23.4489 32.1621 24.7829 31.4867C26.5338 30.599 29.2643 29.2289 28.5556 26.9517C28.097 25.4851 26.6588 24.4624 25.6375 23.3624C24.8454 22.5133 24.1576 21.6063 23.3864 20.7379C22.4484 19.6959 21.4688 18.6924 20.7809 17.4766C19.6345 15.4118 19.447 13.0382 20.1348 10.819C20.9894 8.2524 20.5308 5.66653 20.1348 3.08065V2.01929H24.8037" fill="#677CBC"/>
<path d="M29.8271 2.00003C30.1814 3.35086 30.4732 4.43152 30.5566 4.97186C30.8692 6.86302 30.4315 9.12083 29.973 11.3979C29.5561 13.54 29.4936 15.4504 30.9109 17.2644C31.9948 18.6731 32.7868 19.9275 34.0583 21.1818C35.0171 22.1274 36.4345 23.2081 37.2682 24.2501C38.0186 25.1764 38.6856 26.4501 38.3729 27.6658C38.1645 28.4763 37.6434 29.0745 37.0598 29.6534C36.2469 30.4639 35.4548 31.1394 34.4543 31.7376C34.1834 31.9113 33.9124 32.0656 33.6831 32.2972C33.0578 32.934 33.3705 33.9761 33.7665 34.6708C34.4126 35.5971 35.3089 36.9865 34.7253 38.1251C34.4543 38.6461 33.8915 39.0128 33.3496 39.2636C32.9327 39.4566 31.5154 39.8233 31.7655 40.4215C31.9739 40.9425 32.5367 41.232 32.8077 41.7144C33.6206 43.1424 31.7238 43.7021 31.0777 44.6091C30.7233 45.0915 30.5149 45.6704 30.6191 46.2494C30.6816 46.6932 30.8692 47.137 31.0151 47.5616C31.4528 48.9896 31.3695 50.5527 30.7859 51.9421C31.2236 51.9421 33.4538 51.9421 33.704 51.9421C34.3501 51.9421 35.0171 51.9421 35.6632 51.9421C35.9759 51.9421 36.2052 50.8422 36.2469 50.6299C36.3302 50.0703 36.3094 49.5299 36.2469 48.951C36.101 47.9861 35.3923 45.9792 36.4345 45.2459C36.5804 45.1494 36.7471 45.0915 36.9139 45.0336C37.3933 44.8792 37.7893 44.8599 37.956 44.3582C38.1228 43.8758 38.2687 43.3933 38.2895 42.8916C38.3312 41.7144 37.5809 41.039 36.7263 40.3057C37.3516 40.4022 38.0394 40.1127 38.5397 39.7847C39.0607 39.4373 39.4776 38.8198 39.6861 38.2602C40.0404 37.2567 39.6444 36.3304 38.9148 35.5971C38.5188 35.1919 38.0811 34.8059 37.8518 34.3042C37.5183 33.6094 37.7684 32.9919 38.3104 32.4902L42.8126 29.557C43.3962 28.8044 43.7505 27.9553 43.5421 27.029C43.3754 26.3343 42.9793 25.6974 42.5416 25.1185C42.0205 24.4238 41.4994 23.6519 40.8324 23.073L36.4761 18.2679C35.6841 17.3995 35.6216 15.9908 35.6424 14.9101C35.6424 13.6944 35.6424 12.4979 35.6424 11.2822C35.6424 8.17525 35.6424 5.04905 35.6424 1.94214C35.0379 1.94214 32.3908 1.94214 32.1407 1.94214C31.6821 1.94214 32.4117 1.94214 31.7863 1.94214C31.7655 1.94214 29.8687 1.94214 29.8687 1.94214L29.8271 2.00003Z" fill="#D9DCED"/>
<path d="M24.8246 2H29.8271C29.9313 2 30.2856 3.83327 30.3273 4.00695C30.7025 5.45426 30.9943 6.99807 30.64 8.48398C30.5358 8.98572 30.2856 9.44886 30.2231 9.9506C29.9938 11.4944 29.9313 13.1154 30.0355 14.6592C30.1814 16.7626 31.6405 18.2486 32.8911 19.8695C33.3705 20.4871 34.0375 21.066 34.6211 21.6063C35.4757 22.4361 36.372 23.2852 37.1432 24.1729C37.8102 24.9255 38.4355 25.8325 38.5605 26.836C38.769 28.4956 37.0598 29.7499 35.9134 30.792L33.6831 32.2972C33.308 32.548 33.3496 33.3778 33.4122 33.7059C33.5581 34.4778 34.0792 35.1532 34.4335 35.8479C35.1213 37.1216 35.5799 38.318 33.433 39.2443C32.9745 39.4373 32.5159 39.6689 32.0573 39.9004C31.9531 39.9583 31.8489 40.0162 31.7864 40.0934C31.6822 40.2285 31.703 40.4215 31.7864 40.5758C32.0782 41.1355 32.8077 41.4056 32.9745 42.0618C33.1412 42.7179 32.6201 43.3354 32.1407 43.7213C31.3278 44.3582 30.4941 44.8792 30.5775 45.9985C30.6191 46.5581 30.8484 47.0791 30.9943 47.6194C31.4112 49.0475 31.3278 50.5913 30.7442 51.9614C28.9725 51.9807 27.0757 51.9614 25.3874 51.9614C25.6792 51.9614 26.1795 50.0895 26.242 49.858C26.4087 49.1247 26.4921 48.3528 26.3462 47.6194C26.1795 46.7318 25.6375 45.7283 26.1378 44.8599C26.3462 44.4739 26.7422 44.2231 27.0757 43.9336C27.701 43.4319 27.9929 42.7179 28.0345 41.946C28.0345 41.56 27.9929 41.1741 27.8469 40.7881C27.7219 40.4215 26.8256 39.9197 27.3884 39.7267C28.2221 39.4566 29.1184 38.8005 29.4727 38.0286C29.9313 36.9865 29.5561 35.6743 28.7432 34.8445C28.4306 34.5357 28.243 34.3041 27.9512 33.9568C27.6802 33.6094 27.4718 33.1463 27.7427 32.741C29.2435 32.1235 30.8067 31.4674 31.9531 30.3481C33.2663 29.0745 33.8499 27.164 32.766 25.6202L31.6405 24.2887L26.9298 19.1748C25.9085 18.0556 25.1581 16.4346 24.8663 14.9873C24.5328 13.3084 24.8663 11.5523 25.1373 9.89271C25.2623 9.19799 25.2207 8.44539 25.2415 7.75068C25.2832 6.7858 25.3874 5.80162 25.3249 4.83674C25.2623 3.87186 25.0331 2.92628 24.7621 2.0193L24.8246 2Z" fill="#B7C1E1"/>
<path d="M16.8624 2.0193H20.3433C20.781 4.23852 21.2396 6.55423 20.9061 8.79274C20.7393 9.83481 20.385 10.7418 20.1974 11.7839C19.718 14.5627 20.8019 17.3223 22.5319 19.5029C23.2614 20.4292 24.1577 21.2011 24.9914 22.0309C25.9711 23.0344 26.909 24.0764 27.8053 25.1571C28.6391 26.1606 29.2018 27.1833 28.7641 28.5342C28.5348 29.2482 27.6802 29.7885 27.1175 30.2516C26.2212 30.9657 25.2207 31.5832 24.1785 32.0656C24.0326 32.1235 23.9076 32.1814 23.8033 32.2972C23.4698 32.6831 23.6158 33.4936 23.72 33.9182C23.845 34.5357 24.0952 35.1146 24.3661 35.6743C24.7413 36.5041 25.3249 37.3724 25.3875 38.2794C25.4917 39.939 23.6574 40.1899 22.3026 40.2478C22.3026 40.2478 23.2406 41.4442 23.3031 41.5793C23.5532 42.0618 23.6158 42.66 23.4907 43.181C23.3448 43.7792 22.9904 44.3003 22.5527 44.7248C22.115 45.1494 21.448 45.4388 21.6148 46.1335C22.0525 48.0054 22.1775 50.3404 20.8436 51.9614H7.44116C7.17019 51.9614 7.33694 46.944 7.35778 46.3651C7.35778 45.5932 8.29574 45.1494 8.69177 44.5125C9.12948 43.7985 9.29623 42.9494 9.0878 42.1389C8.96274 41.6951 8.7543 41.2706 8.52502 40.8653C8.46249 40.7495 8.17068 40.4408 8.23321 40.325C8.2749 40.2285 8.71261 40.0934 8.81683 40.0355C9.54636 39.6496 10.255 39.1092 10.5677 38.3566C11.0054 37.3339 10.6094 35.9251 9.9007 35.0953C9.69226 34.8445 9.44214 34.6515 9.21286 34.4199C8.44165 33.6094 8.73346 32.6252 9.62973 32.027C10.7761 31.2551 12.0476 30.8499 13.0064 29.8078C13.9027 28.8429 14.257 27.6079 13.9027 26.3342C13.5483 25.0413 12.652 24.2694 11.7141 23.3624C11.193 22.8414 10.6928 22.3203 10.2133 21.7993C8.37912 19.7731 6.04464 17.303 5.6903 14.5434C5.31511 11.5137 5.87789 8.3489 6.21139 5.33848C6.33645 3.98765 6.5032 2.7719 5.60692 2H16.8624V2.0193Z" fill="#3F59A4"/>
<path d="M16.8624 2.0193H20.3433C20.781 4.23852 21.2396 6.55423 20.9061 8.79274C20.7393 9.83481 20.385 10.7418 20.1974 11.7839C19.718 14.5627 20.8019 17.3223 22.5319 19.5029C23.2614 20.4292 24.1577 21.2011 24.9914 22.0309C25.9711 23.0344 26.909 24.0764 27.8053 25.1571C28.6391 26.1606 29.2018 27.1833 28.7641 28.5342C28.5348 29.2482 27.6802 29.7885 27.1175 30.2516C26.2212 30.9657 25.2207 31.5832 24.1785 32.0656C24.0326 32.1235 23.9076 32.1814 23.8033 32.2972C23.4698 32.6831 23.6158 33.4936 23.72 33.9182C23.845 34.5357 24.0952 35.1146 24.3661 35.6743C24.7413 36.5041 25.3249 37.3724 25.3875 38.2794C25.4917 39.939 23.6574 40.1899 22.3026 40.2478C22.3026 40.2478 23.2406 41.4442 23.3031 41.5793C23.5532 42.0618 23.6158 42.66 23.4907 43.181C23.3448 43.7792 22.9904 44.3003 22.5527 44.7248C22.115 45.1494 21.448 45.4388 21.6148 46.1335C22.0525 48.0054 22.1775 50.3404 20.8436 51.9614H7.44116C7.17019 51.9614 7.33694 46.944 7.35778 46.3651C7.35778 45.5932 8.29574 45.1494 8.69177 44.5125C9.12948 43.7985 9.29623 42.9494 9.0878 42.1389C8.96274 41.6951 8.7543 41.2706 8.52502 40.8653C8.46249 40.7495 8.17068 40.4408 8.23321 40.325C8.2749 40.2285 8.71261 40.0934 8.81683 40.0355C9.54636 39.6496 10.255 39.1092 10.5677 38.3566C11.0054 37.3339 10.6094 35.9251 9.9007 35.0953C9.69226 34.8445 9.44214 34.6515 9.21286 34.4199C8.44165 33.6094 8.73346 32.6252 9.62973 32.027C10.7761 31.2551 12.0476 30.8499 13.0064 29.8078C13.9027 28.8429 14.257 27.6079 13.9027 26.3342C13.5483 25.0413 12.652 24.2694 11.7141 23.3624C11.193 22.8414 10.6928 22.3203 10.2133 21.7993C8.37912 19.7731 6.04464 17.303 5.6903 14.5434C5.31511 11.5137 5.87789 8.3489 6.21139 5.33848C6.33645 3.98765 6.5032 2.7719 5.60692 2H16.8624V2.0193Z" fill="#3F59A4"/>
<path d="M2.91812 2.03857H9.50468C9.90071 2.03857 10.1717 3.17713 10.1925 3.428C10.2551 4.08412 10.1508 4.79813 10.1091 5.45424C9.98409 7.76995 9.83818 10.0857 9.79649 12.4014C9.77565 13.5592 9.69228 14.775 10.0258 15.9328C10.401 17.2065 11.4014 18.2292 12.2352 19.2713C13.1315 20.3713 14.0694 21.4519 15.0074 22.5326C15.6535 23.2659 16.4247 23.9606 16.9875 24.7518C19.0302 27.685 18.1756 30.0779 14.0069 31.8726C13.3816 32.1428 12.7563 32.7796 12.798 33.4357C12.8605 34.2269 13.6109 34.9409 14.0486 35.5777C14.6322 36.4268 14.9657 37.5075 14.4654 38.4724C13.9652 39.4373 12.9856 39.9004 12.0476 40.4021C12.7354 40.9039 13.1731 41.6565 13.2565 42.467C13.4233 43.9336 12.3811 45.0336 11.3181 45.9405C11.2764 45.9598 11.2555 45.9984 11.2347 46.037C11.2347 46.0756 11.2347 46.1142 11.2347 46.1528C11.7558 47.9668 14.1945 50.186 13.8818 52.0386H4.56476C4.75235 52.0386 4.87742 46.4423 4.89826 45.8826C4.89826 45.5739 4.9191 45.2458 4.93995 44.9371C4.96079 44.7634 5.98212 44.4353 6.16972 44.3388C6.66996 44.0687 7.06599 43.6441 7.17021 43.1038C7.27442 42.5056 6.96177 41.9266 6.60743 41.4442C6.16972 40.846 5.79453 40.2478 5.41935 39.6109C5.48188 39.7267 6.48237 39.6495 6.64912 39.6302C7.00346 39.6109 7.3578 39.553 7.6913 39.4373C8.23323 39.2636 8.6501 38.9162 8.81685 38.3759C9.1295 37.4303 8.75432 36.4461 8.29576 35.597C7.9831 34.9988 7.56623 34.4585 7.19105 33.8796C7.12852 33.7831 7.04515 33.6673 7.08683 33.5515C7.10768 33.4743 7.19105 33.4164 7.27442 33.3585C8.6501 32.4322 9.96324 31.3902 10.8804 30.0393C11.7141 28.8236 12.4228 27.164 11.7141 25.7746C11.2555 24.8676 10.3801 24.0764 9.73396 23.2852C8.92106 22.3203 8.10817 21.3554 7.31611 20.3713C6.00297 18.7503 4.23127 16.8398 3.85608 14.7364C3.52258 12.8645 3.81439 10.7997 4.00199 8.92781C4.06452 8.23309 4.14789 7.55768 4.21042 6.86297C4.39801 5.12619 4.60645 3.17713 2.85559 2.05787L2.91812 2.03857Z" fill="#27345C"/>
<path d="M-3.04727e-05 2C-3.04727e-05 2 3.31409 2.0386 3.96024 2.0386C4.83567 2.0386 4.71061 4.25782 4.71061 4.74025C4.71061 6.94018 4.4188 9.10151 4.35627 11.3014C4.33543 12.1312 4.31458 12.9803 4.33543 13.8101C4.33543 14.2926 4.31458 14.8329 4.4188 15.296C4.52302 15.7399 4.81483 16.1837 5.04411 16.589C5.98207 18.21 7.3369 19.5608 8.50414 21.0081C9.54632 22.301 10.651 23.5554 11.5681 24.9255C12.6103 26.5079 12.7979 28.1482 11.6932 29.7306C11.0679 30.6376 10.2342 31.4095 9.35872 32.1042C8.81679 32.5288 8.27486 32.9533 7.64955 33.2621C7.54534 33.32 7.44112 33.4164 7.44112 33.5322C7.44112 33.5901 7.4828 33.648 7.50365 33.7059C8.2957 34.9988 9.35872 36.3497 9.23366 37.9321C9.19198 38.4917 8.92101 38.9741 8.39992 39.2636C7.64955 39.6882 6.81581 39.6303 5.98207 39.611C6.00291 39.611 6.54484 40.4408 6.60738 40.5179C7.21184 41.3091 8.02474 42.3898 7.56618 43.374C7.25353 44.0494 6.0446 44.7634 5.27339 44.8985C5.44014 45.1108 5.54435 45.3809 5.60688 45.6318C6.14882 47.7159 5.44014 50.0124 4.87736 52.0193L-0.020874 51.9807V2H-3.04727e-05Z" fill="#141313"/>
<path d="M42.896 3.50497H37.289V8.38725H42.4791V9.87316H37.289V16.1256H35.6007V1.99976H42.8751V3.50497H42.896Z" fill="#141313"/>
<path d="M58.3203 38.723H51.8171V43.8562H57.8409V45.4193H51.8171V51.9804H49.8578V37.1599H58.3203V38.723Z" fill="#141313"/>
<path d="M60.7589 51.9615V36.948H64.6775C67.1787 36.948 69.0546 37.5655 70.3053 38.7813C71.5559 39.997 72.1812 41.8303 72.1812 44.2811C72.1812 46.5968 71.4933 48.4686 70.0968 49.8581C68.7003 51.2668 66.8452 51.9615 64.5316 51.9615H60.7798H60.7589ZM62.4264 38.5304V50.3598H64.5316C66.3867 50.3598 67.8457 49.8388 68.8671 48.7774C69.9092 47.716 70.4095 46.2301 70.4095 44.3004C70.4095 42.3706 69.9301 40.9233 68.9713 39.9777C68.0125 39.0128 66.5534 38.5304 64.6358 38.5304H62.4264Z" fill="#141313"/>
<path d="M84.9999 51.9615H83.3741V45.1109H76.2248V51.9615H74.599V36.948H76.2248V43.5285H83.3741V36.948H84.9999V51.9615Z" fill="#141313"/>
<path d="M47.2107 51.9612H45.5223V1.99976H47.2107V51.9612Z" fill="#141313"/>
<path d="M58.3203 16.1256H56.6528L54.6101 12.1117C54.2349 11.3591 53.9014 10.8766 53.6305 10.6644C53.3595 10.4521 53.026 10.3363 52.63 10.3363H51.2543V16.1063H49.8578V1.99976H53.422C54.4642 1.99976 55.3188 2.32781 56.0066 2.98393C56.6945 3.64005 57.0488 4.58563 57.0488 5.85927C57.0488 6.86274 56.8195 7.69254 56.3818 8.36795C55.9441 9.04337 55.3396 9.52581 54.5684 9.83457V9.87316C54.8186 10.0468 55.0478 10.2398 55.2354 10.4521C55.423 10.6644 55.6315 10.9731 55.8399 11.3784L58.3203 16.1256ZM51.2543 3.50497V8.86969H53.1511C53.8389 8.86969 54.4225 8.59952 54.8811 8.07849C55.3396 7.53816 55.5689 6.86274 55.5689 6.01365C55.5689 5.26104 55.3605 4.66282 54.9436 4.19968C54.5267 3.75583 53.9223 3.52426 53.1511 3.52426H51.2335L51.2543 3.50497Z" fill="#141313"/>
<path d="M72.3688 16.1256H71.0556V6.65047C71.0556 6.28382 71.0556 5.85927 71.0765 5.39613C71.0765 4.93299 71.1182 4.43125 71.1598 3.89092H71.1182C71.0556 4.19968 70.9931 4.46984 70.9514 4.70142C70.8889 4.93299 70.8472 5.10666 70.7847 5.26104L66.9703 16.1063H66.3241L62.5098 5.33824C62.4681 5.18385 62.4056 4.97158 62.343 4.74001C62.2805 4.48914 62.2388 4.21898 62.1763 3.89092H62.1554C62.1554 4.18038 62.1971 4.54703 62.1971 5.01018C62.1971 5.47332 62.1971 6.01365 62.1971 6.66977V16.1256H60.9257V1.99976H62.6557L66.0949 11.8415C66.2199 12.2082 66.345 12.5362 66.4284 12.8257C66.5117 13.1152 66.5743 13.3467 66.6159 13.5397H66.6576C66.7619 13.1537 66.8661 12.8064 66.9703 12.5169C67.0537 12.2275 67.137 11.9959 67.1996 11.8029L70.743 1.99976H72.3896V16.1256H72.3688Z" fill="#141313"/>
</g>
<defs>
<clipPath id="clip0_102_511">
<rect width="85" height="50" fill="white" transform="translate(0 2)"/>
</clipPath>
</defs>
</svg>
