<svg width="490" height="72" viewBox="0 0 490 72" fill="none" xmlns="http://www.w3.org/2000/svg">
<path d="M67.2182 2.08942C63.559 -2.22689 60.2395 2.97682 60.3881 5.83069L67.2182 2.08942Z" fill="#27335B"/>
<path d="M67.2182 2.08801C66.5175 1.52007 65.7956 1.00183 64.9958 0.824354C62.3699 0.405501 60.7632 3.60724 60.3881 5.82928C60.2253 4.93478 60.381 3.98349 60.7208 3.12449C61.9594 -0.0701445 65.2293 -1.09243 67.2182 2.08801Z" fill="white"/>
<path d="M73.2702 10.0242L73.0084 9.98866C73.4047 8.59012 73.7869 7.18448 74.1762 5.78594C74.431 4.86305 74.6363 2.05177 71.0124 1.44124L70.9841 1.8104C70.7647 1.27796 70.3896 0.745517 69.8021 0.234375C69.8021 0.234375 61.9457 4.47969 60.4381 4.77786C58.9305 5.08312 55.2996 14.7806 55.604 16.8962C55.9083 19.0117 57.7202 25.0815 64.062 33.2598C70.4037 41.4452 63.4604 71.4393 63.4604 71.4393L88.5371 71.7445C88.5371 71.7445 81.8132 45.2645 85.5149 35.9859C89.1388 26.8918 92.437 12.516 83.1014 6.89342C82.1954 6.34678 81.1833 7.17028 80.2561 8.61852M70.7435 4.88434H70.6514C70.6868 4.82045 70.7222 4.76366 70.7576 4.69977L70.7435 4.88434Z" fill="#27335B"/>
<path d="M66.1844 8.58984C64.9741 12.3524 64.9741 14.7803 64.9741 14.7803C64.9741 14.7803 73.4321 16.5977 75.2441 23.8744" fill="#27335B"/>
<path d="M66.2129 8.59552C65.9581 10.1076 65.6467 11.7334 65.4202 13.2384C65.3352 13.7495 65.2291 14.2678 65.1795 14.7718L65.0167 14.5659C69.313 16.0355 73.5455 17.7606 75.0036 22.5099C75.0956 22.9359 75.2088 23.4257 75.2796 23.8588L75.2088 23.873C74.3099 21.6509 72.951 19.7625 71.1462 18.2078C69.3201 16.6957 67.1896 15.2262 64.769 14.9564C64.6204 12.7485 65.2078 10.5549 66.1421 8.57422L66.2129 8.59552Z" fill="white"/>
<path d="M71.0121 1.44336C74.6359 2.04679 74.4307 4.85807 74.1759 5.78806C73.3194 8.86911 72.4984 11.9644 71.465 15.0099C71.1678 15.8831 70.4034 16.6001 69.8018 16.6001" fill="#27335B"/>
<path d="M71.0191 1.40631C73.8715 1.39211 75.3932 3.90523 74.1334 6.45383C73.4256 8.62619 73.2204 10.9263 72.4843 13.0987C72.0808 14.1565 71.8472 15.4627 70.9201 16.2223C70.6086 16.4779 70.2052 16.6838 69.8018 16.6341V16.5631C70.1627 16.485 70.4317 16.2223 70.6582 15.9597C71.3376 15.0723 71.3801 13.9151 71.7623 12.8715C72.2224 11.4304 72.6824 9.98923 73.2345 8.56939C73.914 6.64551 74.7279 4.04721 72.9443 2.48539C72.4135 2.02394 71.7269 1.72577 71.0121 1.4773L71.0262 1.40631H71.0191Z" fill="white"/>
<path d="M73.1349 10.5203C73.595 9.1786 73.7011 2.60474 77.9337 3.81871C84.4948 5.69999 77.9903 10.1086 76.9923 17.1936C76.15 19.1743 72.8801 20.2675 72.144 18.1165C71.4079 15.9654 72.5474 12.2667 73.142 10.5203H73.1349Z" fill="#27335B"/>
<path d="M73.107 10.5064C73.7581 6.70837 74.1333 1.30588 79.4699 4.14556C82.4851 5.71448 80.0645 9.14339 79.1798 11.3299C78.3304 13.2609 77.5943 15.2345 77.3324 17.2862C76.5822 19.0468 74.1828 20.4382 72.4487 19.1887C70.5023 17.0874 72.4133 12.8634 73.1141 10.5064H73.107ZM73.1707 10.5277C72.5478 12.3309 70.743 19.5011 74.2607 18.8693C75.2374 18.777 76.4194 17.6695 76.6459 17.1442C76.9715 15.0002 77.8562 13.0195 78.8542 11.1738C79.562 9.78942 80.4467 8.43347 80.6803 6.87875C80.744 6.37471 80.659 5.86356 80.383 5.46601C79.8168 4.6709 78.7692 4.35144 77.8067 4.09587C76.8582 3.8332 75.8956 4.03197 75.2445 4.76319C73.8855 6.30371 73.6378 8.56836 73.1707 10.5277Z" fill="white"/>
<path d="M64.3941 8.68941C65.3142 9.16506 66.5316 8.35575 67.3526 7.9298C69.9856 6.43897 72.7672 2.86807 69.6812 0.369158L69.8865 0.390456C68.4001 1.19976 66.9138 1.99487 65.4062 2.77578C63.7996 3.57089 62.2212 4.47249 60.4659 5.04043C60.2465 5.13981 60.0625 5.35279 59.9067 5.56577C58.2788 7.98659 57.3233 10.8405 56.4669 13.6091C55.9785 15.1994 55.6388 16.8109 56.2404 18.4153C57.9037 24.116 61.294 29.0428 64.7551 33.7992C67.5508 39.1307 66.9704 45.5697 66.6519 51.391C66.1069 58.1495 64.9957 64.8511 63.5872 71.4818L63.4527 71.3114L88.5295 71.4889L88.2747 71.8154C85.9532 62.054 83.844 52.0584 84.0705 41.9491C84.1625 39.9258 84.4031 37.8742 85.1322 35.9148C86.6043 32.2019 87.7863 28.3613 88.4021 24.4212C88.9825 20.5309 89.0957 16.4133 87.6448 12.7076C86.9087 10.8902 85.755 9.23605 84.212 8.02209C83.5255 7.56064 82.754 6.60225 81.8764 7.18438C79.4274 8.8101 76.5255 17.2084 77.6721 19.97C80.2626 22.9375 83.2636 14.7521 84.1271 13.0199C84.3748 12.5798 84.4739 12.0118 84.8986 11.6995C84.4739 12.3739 83.9785 13.6588 83.6387 14.4469C82.7611 16.2713 80.7156 22.114 77.9977 20.7012C77.5093 20.4457 77.1767 19.9274 77.1059 19.3879C76.8157 15.8312 78.1039 12.3029 79.6468 9.14376C80.3192 8.03628 81.2889 6.19049 82.8956 6.50996C85.3233 7.73102 87.1706 9.96727 88.2181 12.4591C89.7752 16.2784 89.7115 20.5167 89.1099 24.5206C88.4871 28.5316 87.298 32.422 85.8187 36.1775C85.1392 37.9949 84.9057 39.9897 84.8066 41.9704C84.5305 51.9803 86.5902 61.9404 88.7702 71.6663L88.848 72H88.5154L63.4386 71.5669H63.2687C65.4062 61.6423 67.1261 51.4052 66.291 41.2392C65.9795 37.8742 65.0736 34.6086 62.7803 32.0599C59.567 27.6017 56.5377 22.7529 55.3557 17.3078C55.108 16.0158 55.5822 14.6669 55.9007 13.4388C56.9128 10.4642 57.8471 7.11339 59.9563 4.72806C63.2687 3.44311 66.5245 1.7322 69.7025 0.0638927L69.8157 0L69.9077 0.0851903C71.9249 1.7606 71.6489 4.23822 69.9643 6.01301C68.6762 7.39026 67.0129 8.57582 65.1302 8.90948C64.8612 8.93078 64.5569 8.93078 64.3304 8.73201L64.3799 8.68231L64.3941 8.68941Z" fill="white"/>
<path d="M64.7693 33.2346C56.6581 33.5825 48.1576 33.6677 40.0535 33.6606C31.7866 33.6748 23.5267 33.1636 15.2669 33.1068C11.0343 29.9122 4.90494 25.4752 0.52376 22.3586L0 21.9824L0.516682 21.5706C4.57228 18.2766 10.9706 13.293 15.1253 10.0344C22.0829 9.95636 29.6845 10.0202 36.6703 10.1338C40.2163 10.1835 43.7694 10.2403 47.3153 10.3397C50.8613 10.4249 54.4144 10.5385 57.9604 10.6876V10.8296C54.4144 10.9786 50.8613 11.0922 47.3153 11.1774C40.4498 11.3549 32.919 11.4614 26.0252 11.504C22.4792 11.5182 18.9261 11.5253 15.3801 11.4898L15.826 11.3407C11.6997 14.4927 5.25176 19.2989 1.1183 22.3586V21.5706C5.15267 24.7937 11.7351 29.8625 15.3448 32.6738C27.7027 32.5815 40.0606 32.1484 52.4185 32.6241L58.5974 32.8158C60.6571 32.9151 62.7167 32.979 64.7764 33.1068V33.2488L64.7693 33.2346Z" fill="#27335B"/>
<path d="M83.5542 55.4297C100.647 54.5848 117.754 54.6061 134.861 54.9753C138.931 51.8304 144.678 47.585 149.159 43.9929V44.6034C144.218 40.9828 139.292 37.3409 134.416 33.6351L134.826 33.7771C122.341 33.9333 109.848 33.8552 97.3631 33.557C81.1336 33.1666 80.7443 33.0388 97.3631 32.6412C109.926 32.3431 122.489 32.2721 135.06 32.4212C139.95 36.2334 144.799 40.1025 149.619 44L150.015 44.3194L149.612 44.6105C144.685 48.0891 139.689 51.9368 134.861 55.4793C122.036 55.8485 109.211 56.1893 96.3863 55.8982C92.1113 55.8414 87.8363 55.7491 83.5542 55.5787V55.4368V55.4297Z" fill="#27335B"/>
<path d="M97.76 46.024V49H95.708V40.516H99.032C100.04 40.516 100.808 40.768 101.336 41.272C101.864 41.768 102.128 42.44 102.128 43.288C102.128 43.816 102.008 44.288 101.768 44.704C101.536 45.112 101.188 45.436 100.724 45.676C100.26 45.908 99.696 46.024 99.032 46.024H97.76ZM98.804 44.38C99.628 44.38 100.04 44.016 100.04 43.288C100.04 42.544 99.628 42.172 98.804 42.172H97.76V44.38H98.804ZM109.234 46.612C109.234 47.06 109.118 47.472 108.886 47.848C108.662 48.224 108.326 48.524 107.878 48.748C107.438 48.972 106.902 49.084 106.27 49.084C105.318 49.084 104.534 48.852 103.918 48.388C103.302 47.924 102.966 47.276 102.91 46.444H105.094C105.126 46.764 105.238 47.016 105.43 47.2C105.63 47.384 105.882 47.476 106.186 47.476C106.45 47.476 106.658 47.404 106.81 47.26C106.962 47.116 107.038 46.924 107.038 46.684C107.038 46.468 106.966 46.288 106.822 46.144C106.686 46 106.514 45.884 106.306 45.796C106.098 45.7 105.81 45.588 105.442 45.46C104.906 45.276 104.466 45.1 104.122 44.932C103.786 44.756 103.494 44.5 103.246 44.164C103.006 43.82 102.886 43.376 102.886 42.832C102.886 42.328 103.014 41.892 103.27 41.524C103.526 41.156 103.878 40.876 104.326 40.684C104.782 40.484 105.302 40.384 105.886 40.384C106.83 40.384 107.578 40.608 108.13 41.056C108.69 41.504 109.006 42.12 109.078 42.904H106.858C106.818 42.624 106.714 42.404 106.546 42.244C106.386 42.076 106.166 41.992 105.886 41.992C105.646 41.992 105.45 42.056 105.298 42.184C105.154 42.312 105.082 42.5 105.082 42.748C105.082 42.948 105.146 43.12 105.274 43.264C105.41 43.4 105.578 43.512 105.778 43.6C105.978 43.688 106.266 43.8 106.642 43.936C107.186 44.12 107.63 44.304 107.974 44.488C108.318 44.664 108.614 44.924 108.862 45.268C109.11 45.612 109.234 46.06 109.234 46.612ZM118 44.74C118 45.572 117.82 46.312 117.46 46.96C117.108 47.6 116.596 48.1 115.924 48.46C115.26 48.82 114.476 49 113.572 49H110.368V40.516H113.572C114.484 40.516 115.272 40.692 115.936 41.044C116.6 41.396 117.108 41.892 117.46 42.532C117.82 43.172 118 43.908 118 44.74ZM113.392 47.164C114.192 47.164 114.812 46.952 115.252 46.528C115.7 46.104 115.924 45.508 115.924 44.74C115.924 43.972 115.7 43.376 115.252 42.952C114.812 42.528 114.192 42.316 113.392 42.316H112.42V47.164H113.392ZM126.501 40.516V49H124.437V45.46H121.221V49H119.169V40.516H121.221V43.804H124.437V40.516H126.501Z" fill="#27335B"/>
<path d="M20.76 19.648V21.424H23.628V22.972H20.76V24.856H23.988V26.5H18.708V18.016H23.988V19.648H20.76ZM32.4853 18.016V26.5H30.4213V22.96H27.2053V26.5H25.1533V18.016H27.2053V21.304H30.4213V18.016H32.4853ZM38.9835 22.132C39.4955 22.252 39.8995 22.5 40.1955 22.876C40.4995 23.252 40.6515 23.688 40.6515 24.184C40.6515 24.912 40.4075 25.48 39.9195 25.888C39.4395 26.296 38.7475 26.5 37.8435 26.5H33.8955V18.016H37.7475C38.6115 18.016 39.2795 18.204 39.7515 18.58C40.2235 18.956 40.4595 19.492 40.4595 20.188C40.4595 20.7 40.3235 21.128 40.0515 21.472C39.7795 21.808 39.4235 22.028 38.9835 22.132ZM35.9475 21.484H37.2915C38.0035 21.484 38.3595 21.18 38.3595 20.572C38.3595 19.964 37.9955 19.66 37.2675 19.66H35.9475V21.484ZM37.4115 24.832C38.1715 24.832 38.5515 24.52 38.5515 23.896C38.5515 23.592 38.4515 23.356 38.2515 23.188C38.0515 23.012 37.7675 22.924 37.3995 22.924H35.9475V24.832H37.4115ZM51.2753 18.076V26.5H49.2233V21.232L47.3993 26.5H45.6233L43.7873 21.22V26.5H41.7353V18.076H44.2433L46.5353 23.944L48.7793 18.076H51.2753Z" fill="#27335B"/>
<path d="M170.639 8.404V12.26H174.927V13.38H170.639V17.316H175.407V18.5H169.183V7.22H175.407V8.404H170.639ZM185.356 13.62C185.356 13.9293 185.335 14.196 185.292 14.42H178.268C178.3 15.4227 178.583 16.1747 179.116 16.676C179.66 17.1773 180.322 17.428 181.1 17.428C181.804 17.428 182.391 17.252 182.86 16.9C183.34 16.5373 183.634 16.0573 183.74 15.46H185.292C185.186 16.068 184.946 16.612 184.572 17.092C184.21 17.572 183.735 17.9453 183.148 18.212C182.562 18.4787 181.9 18.612 181.164 18.612C180.322 18.612 179.575 18.4307 178.924 18.068C178.274 17.7053 177.762 17.188 177.388 16.516C177.026 15.8333 176.844 15.0333 176.844 14.116C176.844 13.1987 177.026 12.3987 177.388 11.716C177.762 11.0333 178.274 10.5107 178.924 10.148C179.575 9.78533 180.322 9.604 181.164 9.604C182.018 9.604 182.759 9.78533 183.388 10.148C184.028 10.5107 184.514 10.996 184.844 11.604C185.186 12.212 185.356 12.884 185.356 13.62ZM183.884 13.716C183.916 13.0653 183.81 12.5213 183.564 12.084C183.319 11.6467 182.983 11.3213 182.556 11.108C182.13 10.8947 181.666 10.788 181.164 10.788C180.364 10.788 179.692 11.0387 179.148 11.54C178.604 12.0307 178.311 12.756 178.268 13.716H183.884ZM188.717 11.492C189.005 10.884 189.426 10.4147 189.981 10.084C190.535 9.74267 191.197 9.572 191.965 9.572V11.156H191.517C190.695 11.156 190.023 11.3693 189.501 11.796C188.978 12.212 188.717 12.9053 188.717 13.876V18.5H187.261V9.716H188.717V11.492ZM196.153 9.604C197.145 9.604 197.94 9.86533 198.537 10.388C199.145 10.9 199.513 11.5933 199.641 12.468H198.249C198.185 11.9453 197.967 11.5187 197.593 11.188C197.231 10.8467 196.74 10.676 196.121 10.676C195.599 10.676 195.188 10.804 194.889 11.06C194.601 11.3053 194.457 11.6413 194.457 12.068C194.457 12.388 194.553 12.6493 194.745 12.852C194.948 13.044 195.193 13.1933 195.481 13.3C195.78 13.396 196.185 13.5027 196.697 13.62C197.348 13.7693 197.871 13.924 198.265 14.084C198.671 14.2333 199.012 14.4787 199.289 14.82C199.577 15.1613 199.721 15.62 199.721 16.196C199.721 16.9107 199.449 17.492 198.905 17.94C198.372 18.388 197.657 18.612 196.761 18.612C195.716 18.612 194.863 18.3613 194.201 17.86C193.54 17.3587 193.151 16.66 193.033 15.764H194.441C194.495 16.2973 194.724 16.7293 195.129 17.06C195.545 17.3907 196.089 17.556 196.761 17.556C197.263 17.556 197.652 17.428 197.929 17.172C198.217 16.916 198.361 16.58 198.361 16.164C198.361 15.8227 198.26 15.5507 198.057 15.348C197.855 15.1453 197.604 14.9907 197.305 14.884C197.007 14.7773 196.596 14.6653 196.073 14.548C195.423 14.3987 194.9 14.2493 194.505 14.1C194.121 13.9507 193.791 13.716 193.513 13.396C193.247 13.0653 193.113 12.6227 193.113 12.068C193.113 11.332 193.385 10.74 193.929 10.292C194.473 9.83333 195.215 9.604 196.153 9.604ZM205.859 17.22V18.5H204.771C203.875 18.5 203.203 18.2867 202.755 17.86C202.318 17.4333 202.099 16.7187 202.099 15.716V10.98H200.787V9.716H202.099V7.524H203.571V9.716H205.843V10.98H203.571V15.748C203.571 16.3133 203.672 16.7027 203.875 16.916C204.088 17.1187 204.451 17.22 204.963 17.22H205.859ZM215.716 13.62C215.716 13.9293 215.694 14.196 215.652 14.42H208.628C208.66 15.4227 208.942 16.1747 209.476 16.676C210.02 17.1773 210.681 17.428 211.46 17.428C212.164 17.428 212.75 17.252 213.22 16.9C213.7 16.5373 213.993 16.0573 214.1 15.46H215.652C215.545 16.068 215.305 16.612 214.932 17.092C214.569 17.572 214.094 17.9453 213.508 18.212C212.921 18.4787 212.26 18.612 211.524 18.612C210.681 18.612 209.934 18.4307 209.284 18.068C208.633 17.7053 208.121 17.188 207.748 16.516C207.385 15.8333 207.204 15.0333 207.204 14.116C207.204 13.1987 207.385 12.3987 207.748 11.716C208.121 11.0333 208.633 10.5107 209.284 10.148C209.934 9.78533 210.681 9.604 211.524 9.604C212.377 9.604 213.118 9.78533 213.748 10.148C214.388 10.5107 214.873 10.996 215.204 11.604C215.545 12.212 215.716 12.884 215.716 13.62ZM214.244 13.716C214.276 13.0653 214.169 12.5213 213.924 12.084C213.678 11.6467 213.342 11.3213 212.916 11.108C212.489 10.8947 212.025 10.788 211.524 10.788C210.724 10.788 210.052 11.0387 209.508 11.54C208.964 12.0307 208.67 12.756 208.628 13.716H214.244ZM230.229 7.22V18.5H228.757V13.284H223.029V18.5H221.573V7.22H223.029V12.1H228.757V7.22H230.229ZM240.366 9.716V18.5H238.91V16.436C238.686 17.1507 238.286 17.7 237.71 18.084C237.144 18.4573 236.483 18.644 235.726 18.644C234.712 18.644 233.891 18.3187 233.262 17.668C232.632 17.0067 232.318 16.0627 232.318 14.836V9.716H233.774V14.692C233.774 15.5667 233.998 16.244 234.446 16.724C234.894 17.1933 235.502 17.428 236.27 17.428C237.07 17.428 237.71 17.172 238.19 16.66C238.67 16.1373 238.91 15.38 238.91 14.388V9.716H240.366ZM244.154 6.66V18.5H242.698V6.66H244.154ZM251.343 9.604C252.122 9.604 252.815 9.78533 253.423 10.148C254.031 10.5107 254.506 11.0333 254.847 11.716C255.199 12.3987 255.375 13.1987 255.375 14.116C255.375 15.0333 255.199 15.8333 254.847 16.516C254.506 17.188 254.031 17.7053 253.423 18.068C252.815 18.4307 252.122 18.612 251.343 18.612C250.49 18.612 249.764 18.3987 249.167 17.972C248.58 17.5347 248.175 16.964 247.951 16.26V22.66H246.495V9.716H247.951V11.956C248.175 11.252 248.58 10.6867 249.167 10.26C249.764 9.82267 250.49 9.604 251.343 9.604ZM250.927 10.9C250.362 10.9 249.85 11.0333 249.391 11.3C248.932 11.556 248.575 11.9293 248.319 12.42C248.063 12.9107 247.935 13.476 247.935 14.116C247.935 14.756 248.063 15.3213 248.319 15.812C248.575 16.292 248.932 16.6653 249.391 16.932C249.85 17.1987 250.362 17.332 250.927 17.332C251.834 17.332 252.554 17.0493 253.087 16.484C253.631 15.908 253.903 15.1187 253.903 14.116C253.903 13.1133 253.631 12.3293 253.087 11.764C252.554 11.188 251.834 10.9 250.927 10.9ZM266.734 12.66C267.427 12.8093 267.987 13.14 268.414 13.652C268.851 14.164 269.07 14.7667 269.07 15.46C269.07 16.3773 268.755 17.1133 268.126 17.668C267.507 18.2227 266.606 18.5 265.422 18.5H261.23V7.22H265.358C266.488 7.22 267.347 7.47067 267.934 7.972C268.52 8.47333 268.814 9.16133 268.814 10.036C268.814 10.7613 268.616 11.348 268.222 11.796C267.838 12.244 267.342 12.532 266.734 12.66ZM262.686 12.164H265.118C265.832 12.164 266.376 11.9987 266.75 11.668C267.134 11.3373 267.326 10.8733 267.326 10.276C267.326 9.7 267.139 9.24667 266.766 8.916C266.392 8.58533 265.822 8.42 265.054 8.42H262.686V12.164ZM265.15 17.284C265.918 17.284 266.51 17.108 266.926 16.756C267.352 16.404 267.566 15.908 267.566 15.268C267.566 14.6387 267.347 14.148 266.91 13.796C266.483 13.4333 265.886 13.252 265.118 13.252H262.686V17.284H265.15ZM270.63 7.14C270.63 6.87333 270.72 6.66 270.902 6.5C271.083 6.32933 271.323 6.244 271.622 6.244C271.92 6.244 272.16 6.32933 272.342 6.5C272.523 6.66 272.614 6.87333 272.614 7.14C272.614 7.40667 272.523 7.62533 272.342 7.796C272.16 7.956 271.92 8.036 271.622 8.036C271.323 8.036 271.083 7.956 270.902 7.796C270.72 7.62533 270.63 7.40667 270.63 7.14ZM272.342 9.716V18.5H270.886V9.716H272.342ZM275.515 8.036C275.216 8.036 274.971 7.956 274.779 7.796C274.597 7.62533 274.507 7.40667 274.507 7.14C274.507 6.87333 274.597 6.66 274.779 6.5C274.971 6.32933 275.216 6.244 275.515 6.244C275.803 6.244 276.037 6.32933 276.219 6.5C276.4 6.66 276.491 6.87333 276.491 7.14C276.491 7.40667 276.4 7.62533 276.219 7.796C276.037 7.956 275.803 8.036 275.515 8.036ZM273.067 21.38H273.675C274.059 21.38 274.336 21.2947 274.507 21.124C274.688 20.9533 274.779 20.66 274.779 20.244V9.716H276.251V20.292C276.251 21.8707 275.451 22.66 273.851 22.66H273.067V21.38ZM293.822 7.412V18.5H292.366V9.652L288.83 18.5H287.534L283.982 9.684V18.5H282.526V7.412H284.27L288.206 16.724L292.078 7.412H293.822ZM304.231 13.62C304.231 13.9293 304.21 14.196 304.167 14.42H297.143C297.175 15.4227 297.458 16.1747 297.991 16.676C298.535 17.1773 299.197 17.428 299.975 17.428C300.679 17.428 301.266 17.252 301.735 16.9C302.215 16.5373 302.509 16.0573 302.615 15.46H304.167C304.061 16.068 303.821 16.612 303.447 17.092C303.085 17.572 302.61 17.9453 302.023 18.212C301.437 18.4787 300.775 18.612 300.039 18.612C299.197 18.612 298.45 18.4307 297.799 18.068C297.149 17.7053 296.637 17.188 296.263 16.516C295.901 15.8333 295.719 15.0333 295.719 14.116C295.719 13.1987 295.901 12.3987 296.263 11.716C296.637 11.0333 297.149 10.5107 297.799 10.148C298.45 9.78533 299.197 9.604 300.039 9.604C300.893 9.604 301.634 9.78533 302.263 10.148C302.903 10.5107 303.389 10.996 303.719 11.604C304.061 12.212 304.231 12.884 304.231 13.62ZM302.759 13.716C302.791 13.0653 302.685 12.5213 302.439 12.084C302.194 11.6467 301.858 11.3213 301.431 11.108C301.005 10.8947 300.541 10.788 300.039 10.788C299.239 10.788 298.567 11.0387 298.023 11.54C297.479 12.0307 297.186 12.756 297.143 13.716H302.759ZM310.76 9.572C311.784 9.572 312.61 9.90267 313.24 10.564C313.869 11.2147 314.184 12.1587 314.184 13.396V18.5H312.728V13.524C312.728 12.6493 312.504 11.9773 312.056 11.508C311.608 11.0387 311 10.804 310.232 10.804C309.432 10.804 308.792 11.0653 308.312 11.588C307.832 12.1 307.592 12.852 307.592 13.844V18.5H306.136V9.716H307.592V11.796C307.816 11.0813 308.21 10.532 308.776 10.148C309.352 9.764 310.013 9.572 310.76 9.572ZM319.169 9.604C320.161 9.604 320.956 9.86533 321.553 10.388C322.161 10.9 322.529 11.5933 322.657 12.468H321.265C321.201 11.9453 320.982 11.5187 320.609 11.188C320.246 10.8467 319.756 10.676 319.137 10.676C318.614 10.676 318.204 10.804 317.905 11.06C317.617 11.3053 317.473 11.6413 317.473 12.068C317.473 12.388 317.569 12.6493 317.761 12.852C317.964 13.044 318.209 13.1933 318.497 13.3C318.796 13.396 319.201 13.5027 319.713 13.62C320.364 13.7693 320.886 13.924 321.281 14.084C321.686 14.2333 322.028 14.4787 322.305 14.82C322.593 15.1613 322.737 15.62 322.737 16.196C322.737 16.9107 322.465 17.492 321.921 17.94C321.388 18.388 320.673 18.612 319.777 18.612C318.732 18.612 317.878 18.3613 317.217 17.86C316.556 17.3587 316.166 16.66 316.049 15.764H317.457C317.51 16.2973 317.74 16.7293 318.145 17.06C318.561 17.3907 319.105 17.556 319.777 17.556C320.278 17.556 320.668 17.428 320.945 17.172C321.233 16.916 321.377 16.58 321.377 16.164C321.377 15.8227 321.276 15.5507 321.073 15.348C320.87 15.1453 320.62 14.9907 320.321 14.884C320.022 14.7773 319.612 14.6653 319.089 14.548C318.438 14.3987 317.916 14.2493 317.521 14.1C317.137 13.9507 316.806 13.716 316.529 13.396C316.262 13.0653 316.129 12.6227 316.129 12.068C316.129 11.332 316.401 10.74 316.945 10.292C317.489 9.83333 318.23 9.604 319.169 9.604ZM332.763 13.62C332.763 13.9293 332.741 14.196 332.699 14.42H325.675C325.707 15.4227 325.989 16.1747 326.523 16.676C327.067 17.1773 327.728 17.428 328.507 17.428C329.211 17.428 329.797 17.252 330.267 16.9C330.747 16.5373 331.04 16.0573 331.147 15.46H332.699C332.592 16.068 332.352 16.612 331.979 17.092C331.616 17.572 331.141 17.9453 330.555 18.212C329.968 18.4787 329.307 18.612 328.571 18.612C327.728 18.612 326.981 18.4307 326.331 18.068C325.68 17.7053 325.168 17.188 324.795 16.516C324.432 15.8333 324.251 15.0333 324.251 14.116C324.251 13.1987 324.432 12.3987 324.795 11.716C325.168 11.0333 325.68 10.5107 326.331 10.148C326.981 9.78533 327.728 9.604 328.571 9.604C329.424 9.604 330.165 9.78533 330.795 10.148C331.435 10.5107 331.92 10.996 332.251 11.604C332.592 12.212 332.763 12.884 332.763 13.62ZM331.291 13.716C331.323 13.0653 331.216 12.5213 330.971 12.084C330.725 11.6467 330.389 11.3213 329.963 11.108C329.536 10.8947 329.072 10.788 328.571 10.788C327.771 10.788 327.099 11.0387 326.555 11.54C326.011 12.0307 325.717 12.756 325.675 13.716H331.291ZM339.291 9.572C340.315 9.572 341.142 9.90267 341.771 10.564C342.4 11.2147 342.715 12.1587 342.715 13.396V18.5H341.259V13.524C341.259 12.6493 341.035 11.9773 340.587 11.508C340.139 11.0387 339.531 10.804 338.763 10.804C337.963 10.804 337.323 11.0653 336.843 11.588C336.363 12.1 336.123 12.852 336.123 13.844V18.5H334.667V9.716H336.123V11.796C336.347 11.0813 336.742 10.532 337.307 10.148C337.883 9.764 338.544 9.572 339.291 9.572ZM346.404 11.492C346.692 10.884 347.114 10.4147 347.668 10.084C348.223 9.74267 348.884 9.572 349.652 9.572V11.156H349.204C348.383 11.156 347.711 11.3693 347.188 11.796C346.666 12.212 346.404 12.9053 346.404 13.876V18.5H344.948V9.716H346.404V11.492ZM359.169 13.62C359.169 13.9293 359.148 14.196 359.105 14.42H352.081C352.113 15.4227 352.396 16.1747 352.929 16.676C353.473 17.1773 354.134 17.428 354.913 17.428C355.617 17.428 356.204 17.252 356.673 16.9C357.153 16.5373 357.446 16.0573 357.553 15.46H359.105C358.998 16.068 358.758 16.612 358.385 17.092C358.022 17.572 357.548 17.9453 356.961 18.212C356.374 18.4787 355.713 18.612 354.977 18.612C354.134 18.612 353.388 18.4307 352.737 18.068C352.086 17.7053 351.574 17.188 351.201 16.516C350.838 15.8333 350.657 15.0333 350.657 14.116C350.657 13.1987 350.838 12.3987 351.201 11.716C351.574 11.0333 352.086 10.5107 352.737 10.148C353.388 9.78533 354.134 9.604 354.977 9.604C355.83 9.604 356.572 9.78533 357.201 10.148C357.841 10.5107 358.326 10.996 358.657 11.604C358.998 12.212 359.169 12.884 359.169 13.62ZM357.697 13.716C357.729 13.0653 357.622 12.5213 357.377 12.084C357.132 11.6467 356.796 11.3213 356.369 11.108C355.942 10.8947 355.478 10.788 354.977 10.788C354.177 10.788 353.505 11.0387 352.961 11.54C352.417 12.0307 352.124 12.756 352.081 13.716H357.697ZM364.961 9.604C366.081 9.604 367.009 9.90267 367.745 10.5C368.481 11.0973 368.935 11.8973 369.105 12.9H367.569C367.463 12.2707 367.169 11.78 366.689 11.428C366.22 11.0653 365.633 10.884 364.929 10.884C364.417 10.884 363.948 11.0013 363.521 11.236C363.105 11.4707 362.769 11.8333 362.513 12.324C362.257 12.804 362.129 13.4013 362.129 14.116C362.129 14.8307 362.257 15.4333 362.513 15.924C362.769 16.404 363.105 16.7613 363.521 16.996C363.948 17.2307 364.417 17.348 364.929 17.348C365.633 17.348 366.22 17.1667 366.689 16.804C367.169 16.4413 367.463 15.9453 367.569 15.316H369.105C368.935 16.3293 368.481 17.1347 367.745 17.732C367.009 18.3187 366.081 18.612 364.961 18.612C364.119 18.612 363.372 18.4307 362.721 18.068C362.071 17.7053 361.559 17.188 361.185 16.516C360.823 15.8333 360.641 15.0333 360.641 14.116C360.641 13.1987 360.823 12.3987 361.185 11.716C361.559 11.0333 362.071 10.5107 362.721 10.148C363.372 9.78533 364.119 9.604 364.961 9.604ZM375.635 9.572C376.659 9.572 377.485 9.90267 378.115 10.564C378.744 11.2147 379.059 12.1587 379.059 13.396V18.5H377.603V13.524C377.603 12.6493 377.379 11.9773 376.931 11.508C376.483 11.0387 375.875 10.804 375.107 10.804C374.307 10.804 373.667 11.0653 373.187 11.588C372.707 12.1 372.467 12.852 372.467 13.844V18.5H371.011V6.66H372.467V11.796C372.691 11.0813 373.085 10.532 373.651 10.148C374.227 9.764 374.888 9.572 375.635 9.572ZM385.484 17.22V18.5H384.396C383.5 18.5 382.828 18.2867 382.38 17.86C381.943 17.4333 381.724 16.7187 381.724 15.716V10.98H380.412V9.716H381.724V7.524H383.196V9.716H385.468V10.98H383.196V15.748C383.196 16.3133 383.297 16.7027 383.5 16.916C383.713 17.1187 384.076 17.22 384.588 17.22H385.484ZM395.341 13.62C395.341 13.9293 395.319 14.196 395.277 14.42H388.253C388.285 15.4227 388.567 16.1747 389.101 16.676C389.645 17.1773 390.306 17.428 391.085 17.428C391.789 17.428 392.375 17.252 392.845 16.9C393.325 16.5373 393.618 16.0573 393.725 15.46H395.277C395.17 16.068 394.93 16.612 394.557 17.092C394.194 17.572 393.719 17.9453 393.133 18.212C392.546 18.4787 391.885 18.612 391.149 18.612C390.306 18.612 389.559 18.4307 388.909 18.068C388.258 17.7053 387.746 17.188 387.373 16.516C387.01 15.8333 386.829 15.0333 386.829 14.116C386.829 13.1987 387.01 12.3987 387.373 11.716C387.746 11.0333 388.258 10.5107 388.909 10.148C389.559 9.78533 390.306 9.604 391.149 9.604C392.002 9.604 392.743 9.78533 393.373 10.148C394.013 10.5107 394.498 10.996 394.829 11.604C395.17 12.212 395.341 12.884 395.341 13.62ZM393.869 13.716C393.901 13.0653 393.794 12.5213 393.549 12.084C393.303 11.6467 392.967 11.3213 392.541 11.108C392.114 10.8947 391.65 10.788 391.149 10.788C390.349 10.788 389.677 11.0387 389.133 11.54C388.589 12.0307 388.295 12.756 388.253 13.716H393.869ZM401.869 9.572C402.893 9.572 403.72 9.90267 404.349 10.564C404.978 11.2147 405.293 12.1587 405.293 13.396V18.5H403.837V13.524C403.837 12.6493 403.613 11.9773 403.165 11.508C402.717 11.0387 402.109 10.804 401.341 10.804C400.541 10.804 399.901 11.0653 399.421 11.588C398.941 12.1 398.701 12.852 398.701 13.844V18.5H397.245V9.716H398.701V11.796C398.925 11.0813 399.32 10.532 399.885 10.148C400.461 9.764 401.122 9.572 401.869 9.572ZM170.639 37.956V42.5H169.183V31.22H172.767C174.057 31.22 175.023 31.524 175.663 32.132C176.303 32.7293 176.623 33.5507 176.623 34.596C176.623 35.652 176.292 36.4787 175.631 37.076C174.969 37.6627 174.015 37.956 172.767 37.956H170.639ZM172.639 36.74C173.524 36.74 174.159 36.5533 174.543 36.18C174.937 35.8067 175.135 35.2787 175.135 34.596C175.135 33.892 174.937 33.3587 174.543 32.996C174.159 32.6227 173.524 32.436 172.639 32.436H170.639V36.74H172.639ZM179.779 35.492C180.067 34.884 180.489 34.4147 181.043 34.084C181.598 33.7427 182.259 33.572 183.027 33.572V35.156H182.579C181.758 35.156 181.086 35.3693 180.563 35.796C180.041 36.212 179.779 36.9053 179.779 37.876V42.5H178.323V33.716H179.779V35.492ZM192.544 37.62C192.544 37.9293 192.523 38.196 192.48 38.42H185.456C185.488 39.4227 185.771 40.1747 186.304 40.676C186.848 41.1773 187.509 41.428 188.288 41.428C188.992 41.428 189.579 41.252 190.048 40.9C190.528 40.5373 190.821 40.0573 190.928 39.46H192.48C192.373 40.068 192.133 40.612 191.76 41.092C191.397 41.572 190.923 41.9453 190.336 42.212C189.749 42.4787 189.088 42.612 188.352 42.612C187.509 42.612 186.763 42.4307 186.112 42.068C185.461 41.7053 184.949 41.188 184.576 40.516C184.213 39.8333 184.032 39.0333 184.032 38.116C184.032 37.1987 184.213 36.3987 184.576 35.716C184.949 35.0333 185.461 34.5107 186.112 34.148C186.763 33.7853 187.509 33.604 188.352 33.604C189.205 33.604 189.947 33.7853 190.576 34.148C191.216 34.5107 191.701 34.996 192.032 35.604C192.373 36.212 192.544 36.884 192.544 37.62ZM191.072 37.716C191.104 37.0653 190.997 36.5213 190.752 36.084C190.507 35.6467 190.171 35.3213 189.744 35.108C189.317 34.8947 188.853 34.788 188.352 34.788C187.552 34.788 186.88 35.0387 186.336 35.54C185.792 36.0307 185.499 36.756 185.456 37.716H191.072ZM205.248 33.572C206.272 33.572 207.094 33.9027 207.712 34.564C208.342 35.2147 208.656 36.1587 208.656 37.396V42.5H207.2V37.524C207.2 36.66 206.987 35.9987 206.56 35.54C206.144 35.0813 205.568 34.852 204.832 34.852C204.064 34.852 203.446 35.108 202.976 35.62C202.518 36.1213 202.288 36.8627 202.288 37.844V42.5H200.832V37.524C200.832 36.66 200.619 35.9987 200.192 35.54C199.766 35.0813 199.19 34.852 198.464 34.852C197.686 34.852 197.062 35.108 196.592 35.62C196.134 36.1213 195.904 36.8627 195.904 37.844V42.5H194.448V33.716H195.904V35.716C196.118 35.0227 196.496 34.4947 197.04 34.132C197.595 33.7587 198.23 33.572 198.944 33.572C199.691 33.572 200.336 33.764 200.88 34.148C201.435 34.5213 201.83 35.076 202.064 35.812C202.31 35.0973 202.72 34.548 203.296 34.164C203.872 33.7693 204.523 33.572 205.248 33.572ZM210.661 31.14C210.661 30.8733 210.752 30.66 210.933 30.5C211.114 30.3293 211.354 30.244 211.653 30.244C211.952 30.244 212.192 30.3293 212.373 30.5C212.554 30.66 212.645 30.8733 212.645 31.14C212.645 31.4067 212.554 31.6253 212.373 31.796C212.192 31.956 211.952 32.036 211.653 32.036C211.354 32.036 211.114 31.956 210.933 31.796C210.752 31.6253 210.661 31.4067 210.661 31.14ZM212.373 33.716V42.5H210.917V33.716H212.373ZM222.794 37.62C222.794 37.9293 222.773 38.196 222.73 38.42H215.706C215.738 39.4227 216.021 40.1747 216.554 40.676C217.098 41.1773 217.759 41.428 218.538 41.428C219.242 41.428 219.829 41.252 220.298 40.9C220.778 40.5373 221.071 40.0573 221.178 39.46H222.73C222.623 40.068 222.383 40.612 222.01 41.092C221.647 41.572 221.173 41.9453 220.586 42.212C219.999 42.4787 219.338 42.612 218.602 42.612C217.759 42.612 217.013 42.4307 216.362 42.068C215.711 41.7053 215.199 41.188 214.826 40.516C214.463 39.8333 214.282 39.0333 214.282 38.116C214.282 37.1987 214.463 36.3987 214.826 35.716C215.199 35.0333 215.711 34.5107 216.362 34.148C217.013 33.7853 217.759 33.604 218.602 33.604C219.455 33.604 220.197 33.7853 220.826 34.148C221.466 34.5107 221.951 34.996 222.282 35.604C222.623 36.212 222.794 36.884 222.794 37.62ZM221.322 37.716C221.354 37.0653 221.247 36.5213 221.002 36.084C220.757 35.6467 220.421 35.3213 219.994 35.108C219.567 34.8947 219.103 34.788 218.602 34.788C217.802 34.788 217.13 35.0387 216.586 35.54C216.042 36.0307 215.749 36.756 215.706 37.716H221.322ZM226.154 35.492C226.442 34.884 226.864 34.4147 227.418 34.084C227.973 33.7427 228.634 33.572 229.402 33.572V35.156H228.954C228.133 35.156 227.461 35.3693 226.938 35.796C226.416 36.212 226.154 36.9053 226.154 37.876V42.5H224.698V33.716H226.154V35.492ZM241.928 39.572C241.928 40.1053 241.8 40.6013 241.544 41.06C241.288 41.5187 240.899 41.892 240.376 42.18C239.853 42.468 239.208 42.612 238.44 42.612C237.693 42.612 237.027 42.4787 236.44 42.212C235.864 41.9347 235.4 41.5613 235.048 41.092C234.707 40.612 234.509 40.068 234.456 39.46H236.008C236.04 39.78 236.147 40.0947 236.328 40.404C236.52 40.7027 236.787 40.9533 237.128 41.156C237.48 41.348 237.901 41.444 238.392 41.444C239.032 41.444 239.523 41.2733 239.864 40.932C240.205 40.5907 240.376 40.1533 240.376 39.62C240.376 39.1613 240.253 38.788 240.008 38.5C239.773 38.212 239.48 37.988 239.128 37.828C238.776 37.6573 238.296 37.476 237.688 37.284C236.973 37.0493 236.397 36.8307 235.96 36.628C235.533 36.4147 235.165 36.1 234.856 35.684C234.557 35.268 234.408 34.7187 234.408 34.036C234.408 33.4493 234.547 32.932 234.824 32.484C235.112 32.036 235.517 31.6893 236.04 31.444C236.573 31.1987 237.197 31.076 237.912 31.076C239.021 31.076 239.901 31.348 240.552 31.892C241.203 32.4253 241.581 33.108 241.688 33.94H240.12C240.035 33.492 239.805 33.0973 239.432 32.756C239.059 32.4147 238.552 32.244 237.912 32.244C237.325 32.244 236.856 32.3987 236.504 32.708C236.152 33.0067 235.976 33.4333 235.976 33.988C235.976 34.4253 236.088 34.7827 236.312 35.06C236.547 35.3267 236.835 35.54 237.176 35.7C237.517 35.8493 237.987 36.02 238.584 36.212C239.309 36.4467 239.891 36.6707 240.328 36.884C240.776 37.0973 241.155 37.4227 241.464 37.86C241.773 38.2867 241.928 38.8573 241.928 39.572ZM251.966 37.62C251.966 37.9293 251.944 38.196 251.902 38.42H244.878C244.91 39.4227 245.192 40.1747 245.726 40.676C246.27 41.1773 246.931 41.428 247.71 41.428C248.414 41.428 249 41.252 249.47 40.9C249.95 40.5373 250.243 40.0573 250.35 39.46H251.902C251.795 40.068 251.555 40.612 251.182 41.092C250.819 41.572 250.344 41.9453 249.758 42.212C249.171 42.4787 248.51 42.612 247.774 42.612C246.931 42.612 246.184 42.4307 245.534 42.068C244.883 41.7053 244.371 41.188 243.998 40.516C243.635 39.8333 243.454 39.0333 243.454 38.116C243.454 37.1987 243.635 36.3987 243.998 35.716C244.371 35.0333 244.883 34.5107 245.534 34.148C246.184 33.7853 246.931 33.604 247.774 33.604C248.627 33.604 249.368 33.7853 249.998 34.148C250.638 34.5107 251.123 34.996 251.454 35.604C251.795 36.212 251.966 36.884 251.966 37.62ZM250.494 37.716C250.526 37.0653 250.419 36.5213 250.174 36.084C249.928 35.6467 249.592 35.3213 249.166 35.108C248.739 34.8947 248.275 34.788 247.774 34.788C246.974 34.788 246.302 35.0387 245.758 35.54C245.214 36.0307 244.92 36.756 244.878 37.716H250.494ZM257.758 33.604C258.878 33.604 259.806 33.9027 260.542 34.5C261.278 35.0973 261.731 35.8973 261.902 36.9H260.366C260.259 36.2707 259.966 35.78 259.486 35.428C259.017 35.0653 258.43 34.884 257.726 34.884C257.214 34.884 256.745 35.0013 256.318 35.236C255.902 35.4707 255.566 35.8333 255.31 36.324C255.054 36.804 254.926 37.4013 254.926 38.116C254.926 38.8307 255.054 39.4333 255.31 39.924C255.566 40.404 255.902 40.7613 256.318 40.996C256.745 41.2307 257.214 41.348 257.726 41.348C258.43 41.348 259.017 41.1667 259.486 40.804C259.966 40.4413 260.259 39.9453 260.366 39.316H261.902C261.731 40.3293 261.278 41.1347 260.542 41.732C259.806 42.3187 258.878 42.612 257.758 42.612C256.915 42.612 256.169 42.4307 255.518 42.068C254.867 41.7053 254.355 41.188 253.982 40.516C253.619 39.8333 253.438 39.0333 253.438 38.116C253.438 37.1987 253.619 36.3987 253.982 35.716C254.355 35.0333 254.867 34.5107 255.518 34.148C256.169 33.7853 256.915 33.604 257.758 33.604ZM267.792 33.604C268.634 33.604 269.386 33.7853 270.048 34.148C270.72 34.5107 271.242 35.0333 271.616 35.716C272 36.3987 272.192 37.1987 272.192 38.116C272.192 39.0333 272 39.8333 271.616 40.516C271.242 41.188 270.72 41.7053 270.048 42.068C269.386 42.4307 268.634 42.612 267.792 42.612C266.949 42.612 266.192 42.4307 265.52 42.068C264.858 41.7053 264.336 41.188 263.952 40.516C263.568 39.8333 263.376 39.0333 263.376 38.116C263.376 37.1987 263.568 36.3987 263.952 35.716C264.336 35.0333 264.858 34.5107 265.52 34.148C266.192 33.7853 266.949 33.604 267.792 33.604ZM267.792 34.884C267.269 34.884 266.784 35.0013 266.336 35.236C265.898 35.4707 265.541 35.8333 265.264 36.324C264.997 36.804 264.864 37.4013 264.864 38.116C264.864 38.82 264.997 39.4173 265.264 39.908C265.541 40.388 265.898 40.7453 266.336 40.98C266.784 41.2147 267.269 41.332 267.792 41.332C268.314 41.332 268.794 41.2147 269.232 40.98C269.68 40.7453 270.037 40.388 270.304 39.908C270.581 39.4173 270.72 38.82 270.72 38.116C270.72 37.4013 270.581 36.804 270.304 36.324C270.037 35.8333 269.68 35.4707 269.232 35.236C268.794 35.0013 268.314 34.884 267.792 34.884ZM281.897 33.716V42.5H280.441V40.436C280.217 41.1507 279.817 41.7 279.241 42.084C278.676 42.4573 278.014 42.644 277.257 42.644C276.244 42.644 275.422 42.3187 274.793 41.668C274.164 41.0067 273.849 40.0627 273.849 38.836V33.716H275.305V38.692C275.305 39.5667 275.529 40.244 275.977 40.724C276.425 41.1933 277.033 41.428 277.801 41.428C278.601 41.428 279.241 41.172 279.721 40.66C280.201 40.1373 280.441 39.38 280.441 38.388V33.716H281.897ZM285.686 35.492C285.974 34.884 286.395 34.4147 286.95 34.084C287.504 33.7427 288.166 33.572 288.934 33.572V35.156H288.486C287.664 35.156 286.992 35.3693 286.47 35.796C285.947 36.212 285.686 36.9053 285.686 37.876V42.5H284.23V33.716H285.686V35.492ZM293.122 33.604C294.114 33.604 294.909 33.8653 295.506 34.388C296.114 34.9 296.482 35.5933 296.61 36.468H295.218C295.154 35.9453 294.935 35.5187 294.562 35.188C294.199 34.8467 293.709 34.676 293.09 34.676C292.567 34.676 292.157 34.804 291.858 35.06C291.57 35.3053 291.426 35.6413 291.426 36.068C291.426 36.388 291.522 36.6493 291.714 36.852C291.917 37.044 292.162 37.1933 292.45 37.3C292.749 37.396 293.154 37.5027 293.666 37.62C294.317 37.7693 294.839 37.924 295.234 38.084C295.639 38.2333 295.981 38.4787 296.258 38.82C296.546 39.1613 296.69 39.62 296.69 40.196C296.69 40.9107 296.418 41.492 295.874 41.94C295.341 42.388 294.626 42.612 293.73 42.612C292.685 42.612 291.831 42.3613 291.17 41.86C290.509 41.3587 290.119 40.66 290.002 39.764H291.41C291.463 40.2973 291.693 40.7293 292.098 41.06C292.514 41.3907 293.058 41.556 293.73 41.556C294.231 41.556 294.621 41.428 294.898 41.172C295.186 40.916 295.33 40.58 295.33 40.164C295.33 39.8227 295.229 39.5507 295.026 39.348C294.823 39.1453 294.573 38.9907 294.274 38.884C293.975 38.7773 293.565 38.6653 293.042 38.548C292.391 38.3987 291.869 38.2493 291.474 38.1C291.09 37.9507 290.759 37.716 290.482 37.396C290.215 37.0653 290.082 36.6227 290.082 36.068C290.082 35.332 290.354 34.74 290.898 34.292C291.442 33.8333 292.183 33.604 293.122 33.604ZM306.189 33.604C307.042 33.604 307.762 33.8173 308.349 34.244C308.946 34.6707 309.362 35.2413 309.597 35.956V33.716H311.053V42.5H309.597V40.26C309.362 40.9747 308.946 41.5453 308.349 41.972C307.762 42.3987 307.042 42.612 306.189 42.612C305.41 42.612 304.717 42.4307 304.109 42.068C303.501 41.7053 303.021 41.188 302.669 40.516C302.328 39.8333 302.157 39.0333 302.157 38.116C302.157 37.1987 302.328 36.3987 302.669 35.716C303.021 35.0333 303.501 34.5107 304.109 34.148C304.717 33.7853 305.41 33.604 306.189 33.604ZM306.605 34.9C305.709 34.9 304.989 35.188 304.445 35.764C303.912 36.3293 303.645 37.1133 303.645 38.116C303.645 39.1187 303.912 39.908 304.445 40.484C304.989 41.0493 305.709 41.332 306.605 41.332C307.181 41.332 307.693 41.1987 308.141 40.932C308.6 40.6653 308.957 40.292 309.213 39.812C309.469 39.3213 309.597 38.756 309.597 38.116C309.597 37.476 309.469 36.9107 309.213 36.42C308.957 35.9293 308.6 35.556 308.141 35.3C307.693 35.0333 307.181 34.9 306.605 34.9ZM321.178 33.716V42.5H319.722V40.436C319.498 41.1507 319.098 41.7 318.522 42.084C317.957 42.4573 317.295 42.644 316.538 42.644C315.525 42.644 314.703 42.3187 314.074 41.668C313.445 41.0067 313.13 40.0627 313.13 38.836V33.716H314.586V38.692C314.586 39.5667 314.81 40.244 315.258 40.724C315.706 41.1933 316.314 41.428 317.082 41.428C317.882 41.428 318.522 41.172 319.002 40.66C319.482 40.1373 319.722 39.38 319.722 38.388V33.716H321.178ZM328.567 42.5L326.279 39.14L324.215 42.5H322.599L325.479 37.972L322.583 33.716H324.247L326.471 36.98L328.503 33.716H330.119L327.255 38.132L330.231 42.5H328.567ZM345.046 36.852C345.046 37.9933 344.817 38.9907 344.358 39.844C343.899 40.6867 343.222 41.3427 342.326 41.812C341.441 42.2707 340.374 42.5 339.126 42.5H335.542V31.22H339.126C340.374 31.22 341.441 31.4493 342.326 31.908C343.222 32.356 343.899 33.0067 344.358 33.86C344.817 34.7027 345.046 35.7 345.046 36.852ZM339.014 41.188C340.486 41.188 341.611 40.8093 342.39 40.052C343.169 39.2947 343.558 38.228 343.558 36.852C343.558 35.476 343.169 34.4093 342.39 33.652C341.622 32.884 340.497 32.5 339.014 32.5H336.998V41.188H339.014ZM348.467 35.492C348.755 34.884 349.176 34.4147 349.731 34.084C350.285 33.7427 350.947 33.572 351.715 33.572V35.156H351.267C350.445 35.156 349.773 35.3693 349.251 35.796C348.728 36.212 348.467 36.9053 348.467 37.876V42.5H347.011V33.716H348.467V35.492ZM357.135 33.604C357.978 33.604 358.73 33.7853 359.391 34.148C360.063 34.5107 360.586 35.0333 360.959 35.716C361.343 36.3987 361.535 37.1987 361.535 38.116C361.535 39.0333 361.343 39.8333 360.959 40.516C360.586 41.188 360.063 41.7053 359.391 42.068C358.73 42.4307 357.978 42.612 357.135 42.612C356.293 42.612 355.535 42.4307 354.863 42.068C354.202 41.7053 353.679 41.188 353.295 40.516C352.911 39.8333 352.719 39.0333 352.719 38.116C352.719 37.1987 352.911 36.3987 353.295 35.716C353.679 35.0333 354.202 34.5107 354.863 34.148C355.535 33.7853 356.293 33.604 357.135 33.604ZM357.135 34.884C356.613 34.884 356.127 35.0013 355.679 35.236C355.242 35.4707 354.885 35.8333 354.607 36.324C354.341 36.804 354.207 37.4013 354.207 38.116C354.207 38.82 354.341 39.4173 354.607 39.908C354.885 40.388 355.242 40.7453 355.679 40.98C356.127 41.2147 356.613 41.332 357.135 41.332C357.658 41.332 358.138 41.2147 358.575 40.98C359.023 40.7453 359.381 40.388 359.647 39.908C359.925 39.4173 360.063 38.82 360.063 38.116C360.063 37.4013 359.925 36.804 359.647 36.324C359.381 35.8333 359.023 35.4707 358.575 35.236C358.138 35.0013 357.658 34.884 357.135 34.884ZM363.177 31.14C363.177 30.8733 363.267 30.66 363.449 30.5C363.63 30.3293 363.87 30.244 364.169 30.244C364.467 30.244 364.707 30.3293 364.889 30.5C365.07 30.66 365.161 30.8733 365.161 31.14C365.161 31.4067 365.07 31.6253 364.889 31.796C364.707 31.956 364.467 32.036 364.169 32.036C363.87 32.036 363.63 31.956 363.449 31.796C363.267 31.6253 363.177 31.4067 363.177 31.14ZM364.889 33.716V42.5H363.433V33.716H364.889ZM371.422 41.22V42.5H370.334C369.438 42.5 368.766 42.2867 368.318 41.86C367.88 41.4333 367.662 40.7187 367.662 39.716V34.98H366.35V33.716H367.662V31.524H369.134V33.716H371.406V34.98H369.134V39.748C369.134 40.3133 369.235 40.7027 369.438 40.916C369.651 41.1187 370.014 41.22 370.526 41.22H371.422ZM375.95 33.604C376.942 33.604 377.737 33.8653 378.334 34.388C378.942 34.9 379.31 35.5933 379.438 36.468H378.046C377.982 35.9453 377.764 35.5187 377.39 35.188C377.028 34.8467 376.537 34.676 375.918 34.676C375.396 34.676 374.985 34.804 374.686 35.06C374.398 35.3053 374.254 35.6413 374.254 36.068C374.254 36.388 374.35 36.6493 374.542 36.852C374.745 37.044 374.99 37.1933 375.278 37.3C375.577 37.396 375.982 37.5027 376.494 37.62C377.145 37.7693 377.668 37.924 378.062 38.084C378.468 38.2333 378.809 38.4787 379.086 38.82C379.374 39.1613 379.518 39.62 379.518 40.196C379.518 40.9107 379.246 41.492 378.702 41.94C378.169 42.388 377.454 42.612 376.558 42.612C375.513 42.612 374.66 42.3613 373.998 41.86C373.337 41.3587 372.948 40.66 372.83 39.764H374.238C374.292 40.2973 374.521 40.7293 374.926 41.06C375.342 41.3907 375.886 41.556 376.558 41.556C377.06 41.556 377.449 41.428 377.726 41.172C378.014 40.916 378.158 40.58 378.158 40.164C378.158 39.8227 378.057 39.5507 377.854 39.348C377.652 39.1453 377.401 38.9907 377.102 38.884C376.804 38.7773 376.393 38.6653 375.87 38.548C375.22 38.3987 374.697 38.2493 374.302 38.1C373.918 37.9507 373.588 37.716 373.31 37.396C373.044 37.0653 372.91 36.6227 372.91 36.068C372.91 35.332 373.182 34.74 373.726 34.292C374.27 33.8333 375.012 33.604 375.95 33.604ZM394.073 31.22V42.5H392.601V37.284H386.873V42.5H385.417V31.22H386.873V36.1H392.601V31.22H394.073ZM404.209 33.716V42.5H402.753V40.436C402.529 41.1507 402.129 41.7 401.553 42.084C400.988 42.4573 400.327 42.644 399.569 42.644C398.556 42.644 397.735 42.3187 397.105 41.668C396.476 41.0067 396.161 40.0627 396.161 38.836V33.716H397.617V38.692C397.617 39.5667 397.841 40.244 398.289 40.724C398.737 41.1933 399.345 41.428 400.113 41.428C400.913 41.428 401.553 41.172 402.033 40.66C402.513 40.1373 402.753 39.38 402.753 38.388V33.716H404.209ZM417.342 33.572C418.366 33.572 419.187 33.9027 419.806 34.564C420.435 35.2147 420.75 36.1587 420.75 37.396V42.5H419.294V37.524C419.294 36.66 419.081 35.9987 418.654 35.54C418.238 35.0813 417.662 34.852 416.926 34.852C416.158 34.852 415.539 35.108 415.07 35.62C414.611 36.1213 414.382 36.8627 414.382 37.844V42.5H412.926V37.524C412.926 36.66 412.713 35.9987 412.286 35.54C411.859 35.0813 411.283 34.852 410.558 34.852C409.779 34.852 409.155 35.108 408.686 35.62C408.227 36.1213 407.998 36.8627 407.998 37.844V42.5H406.542V33.716H407.998V35.716C408.211 35.0227 408.59 34.4947 409.134 34.132C409.689 33.7587 410.323 33.572 411.038 33.572C411.785 33.572 412.43 33.764 412.974 34.148C413.529 34.5213 413.923 35.076 414.158 35.812C414.403 35.0973 414.814 34.548 415.39 34.164C415.966 33.7693 416.617 33.572 417.342 33.572ZM426.611 33.604C427.464 33.604 428.184 33.8173 428.771 34.244C429.368 34.6707 429.784 35.2413 430.019 35.956V33.716H431.475V42.5H430.019V40.26C429.784 40.9747 429.368 41.5453 428.771 41.972C428.184 42.3987 427.464 42.612 426.611 42.612C425.832 42.612 425.139 42.4307 424.531 42.068C423.923 41.7053 423.443 41.188 423.091 40.516C422.749 39.8333 422.579 39.0333 422.579 38.116C422.579 37.1987 422.749 36.3987 423.091 35.716C423.443 35.0333 423.923 34.5107 424.531 34.148C425.139 33.7853 425.832 33.604 426.611 33.604ZM427.027 34.9C426.131 34.9 425.411 35.188 424.867 35.764C424.333 36.3293 424.067 37.1133 424.067 38.116C424.067 39.1187 424.333 39.908 424.867 40.484C425.411 41.0493 426.131 41.332 427.027 41.332C427.603 41.332 428.115 41.1987 428.563 40.932C429.021 40.6653 429.379 40.292 429.635 39.812C429.891 39.3213 430.019 38.756 430.019 38.116C430.019 37.476 429.891 36.9107 429.635 36.42C429.379 35.9293 429.021 35.556 428.563 35.3C428.115 35.0333 427.603 34.9 427.027 34.9ZM433.536 31.14C433.536 30.8733 433.627 30.66 433.808 30.5C433.989 30.3293 434.229 30.244 434.528 30.244C434.827 30.244 435.067 30.3293 435.248 30.5C435.429 30.66 435.52 30.8733 435.52 31.14C435.52 31.4067 435.429 31.6253 435.248 31.796C435.067 31.956 434.827 32.036 434.528 32.036C434.229 32.036 433.989 31.956 433.808 31.796C433.627 31.6253 433.536 31.4067 433.536 31.14ZM435.248 33.716V42.5H433.792V33.716H435.248ZM442.213 33.572C443.237 33.572 444.064 33.9027 444.693 34.564C445.322 35.2147 445.637 36.1587 445.637 37.396V42.5H444.181V37.524C444.181 36.6493 443.957 35.9773 443.509 35.508C443.061 35.0387 442.453 34.804 441.685 34.804C440.885 34.804 440.245 35.0653 439.765 35.588C439.285 36.1 439.045 36.852 439.045 37.844V42.5H437.589V33.716H439.045V35.796C439.269 35.0813 439.664 34.532 440.229 34.148C440.805 33.764 441.466 33.572 442.213 33.572ZM450.622 33.604C451.614 33.604 452.409 33.8653 453.006 34.388C453.614 34.9 453.982 35.5933 454.11 36.468H452.718C452.654 35.9453 452.435 35.5187 452.062 35.188C451.699 34.8467 451.209 34.676 450.59 34.676C450.067 34.676 449.657 34.804 449.358 35.06C449.07 35.3053 448.926 35.6413 448.926 36.068C448.926 36.388 449.022 36.6493 449.214 36.852C449.417 37.044 449.662 37.1933 449.95 37.3C450.249 37.396 450.654 37.5027 451.166 37.62C451.817 37.7693 452.339 37.924 452.734 38.084C453.139 38.2333 453.481 38.4787 453.758 38.82C454.046 39.1613 454.19 39.62 454.19 40.196C454.19 40.9107 453.918 41.492 453.374 41.94C452.841 42.388 452.126 42.612 451.23 42.612C450.185 42.612 449.331 42.3613 448.67 41.86C448.009 41.3587 447.619 40.66 447.502 39.764H448.91C448.963 40.2973 449.193 40.7293 449.598 41.06C450.014 41.3907 450.558 41.556 451.23 41.556C451.731 41.556 452.121 41.428 452.398 41.172C452.686 40.916 452.83 40.58 452.83 40.164C452.83 39.8227 452.729 39.5507 452.526 39.348C452.323 39.1453 452.073 38.9907 451.774 38.884C451.475 38.7773 451.065 38.6653 450.542 38.548C449.891 38.3987 449.369 38.2493 448.974 38.1C448.59 37.9507 448.259 37.716 447.982 37.396C447.715 37.0653 447.582 36.6227 447.582 36.068C447.582 35.332 447.854 34.74 448.398 34.292C448.942 33.8333 449.683 33.604 450.622 33.604ZM177.839 55.22V66.5H176.367V61.284H170.639V66.5H169.183V55.22H170.639V60.1H176.367V55.22H177.839ZM187.975 57.716V66.5H186.519V64.436C186.295 65.1507 185.895 65.7 185.319 66.084C184.754 66.4573 184.092 66.644 183.335 66.644C182.322 66.644 181.5 66.3187 180.871 65.668C180.242 65.0067 179.927 64.0627 179.927 62.836V57.716H181.383V62.692C181.383 63.5667 181.607 64.244 182.055 64.724C182.503 65.1933 183.111 65.428 183.879 65.428C184.679 65.428 185.319 65.172 185.799 64.66C186.279 64.1373 186.519 63.38 186.519 62.388V57.716H187.975ZM201.108 57.572C202.132 57.572 202.953 57.9027 203.572 58.564C204.201 59.2147 204.516 60.1587 204.516 61.396V66.5H203.06V61.524C203.06 60.66 202.846 59.9987 202.42 59.54C202.004 59.0813 201.428 58.852 200.692 58.852C199.924 58.852 199.305 59.108 198.836 59.62C198.377 60.1213 198.148 60.8627 198.148 61.844V66.5H196.692V61.524C196.692 60.66 196.478 59.9987 196.052 59.54C195.625 59.0813 195.049 58.852 194.324 58.852C193.545 58.852 192.921 59.108 192.452 59.62C191.993 60.1213 191.764 60.8627 191.764 61.844V66.5H190.308V57.716H191.764V59.716C191.977 59.0227 192.356 58.4947 192.9 58.132C193.454 57.7587 194.089 57.572 194.804 57.572C195.55 57.572 196.196 57.764 196.74 58.148C197.294 58.5213 197.689 59.076 197.924 59.812C198.169 59.0973 198.58 58.548 199.156 58.164C199.732 57.7693 200.382 57.572 201.108 57.572ZM210.376 57.604C211.23 57.604 211.95 57.8173 212.536 58.244C213.134 58.6707 213.55 59.2413 213.784 59.956V57.716H215.24V66.5H213.784V64.26C213.55 64.9747 213.134 65.5453 212.536 65.972C211.95 66.3987 211.23 66.612 210.376 66.612C209.598 66.612 208.904 66.4307 208.296 66.068C207.688 65.7053 207.208 65.188 206.856 64.516C206.515 63.8333 206.344 63.0333 206.344 62.116C206.344 61.1987 206.515 60.3987 206.856 59.716C207.208 59.0333 207.688 58.5107 208.296 58.148C208.904 57.7853 209.598 57.604 210.376 57.604ZM210.792 58.9C209.896 58.9 209.176 59.188 208.632 59.764C208.099 60.3293 207.832 61.1133 207.832 62.116C207.832 63.1187 208.099 63.908 208.632 64.484C209.176 65.0493 209.896 65.332 210.792 65.332C211.368 65.332 211.88 65.1987 212.328 64.932C212.787 64.6653 213.144 64.292 213.4 63.812C213.656 63.3213 213.784 62.756 213.784 62.116C213.784 61.476 213.656 60.9107 213.4 60.42C213.144 59.9293 212.787 59.556 212.328 59.3C211.88 59.0333 211.368 58.9 210.792 58.9ZM222.182 57.572C223.206 57.572 224.032 57.9027 224.662 58.564C225.291 59.2147 225.606 60.1587 225.606 61.396V66.5H224.15V61.524C224.15 60.6493 223.926 59.9773 223.478 59.508C223.03 59.0387 222.422 58.804 221.654 58.804C220.854 58.804 220.214 59.0653 219.734 59.588C219.254 60.1 219.014 60.852 219.014 61.844V66.5H217.558V57.716H219.014V59.796C219.238 59.0813 219.632 58.532 220.198 58.148C220.774 57.764 221.435 57.572 222.182 57.572ZM237.776 66.5L234.832 61.892H233.248V66.5H231.792V55.22H235.504C236.784 55.22 237.744 55.5293 238.384 56.148C239.024 56.756 239.344 57.5667 239.344 58.58C239.344 59.4973 239.088 60.2387 238.576 60.804C238.064 61.3587 237.323 61.7053 236.352 61.844L239.424 66.5H237.776ZM233.248 60.836H235.376C237.029 60.836 237.856 60.1107 237.856 58.66C237.856 57.2093 237.029 56.484 235.376 56.484H233.248V60.836ZM240.864 55.14C240.864 54.8733 240.955 54.66 241.136 54.5C241.317 54.3293 241.557 54.244 241.856 54.244C242.155 54.244 242.395 54.3293 242.576 54.5C242.757 54.66 242.848 54.8733 242.848 55.14C242.848 55.4067 242.757 55.6253 242.576 55.796C242.395 55.956 242.155 56.036 241.856 56.036C241.557 56.036 241.317 55.956 241.136 55.796C240.955 55.6253 240.864 55.4067 240.864 55.14ZM242.576 57.716V66.5H241.12V57.716H242.576ZM248.517 57.604C249.37 57.604 250.09 57.8173 250.677 58.244C251.274 58.6707 251.69 59.2413 251.925 59.956V57.716H253.381V66.644C253.381 67.4547 253.21 68.1747 252.869 68.804C252.528 69.4333 252.048 69.924 251.429 70.276C250.81 70.628 250.09 70.804 249.269 70.804C248.085 70.804 247.12 70.516 246.373 69.94C245.626 69.3747 245.152 68.6067 244.949 67.636H246.389C246.56 68.2227 246.88 68.6813 247.349 69.012C247.829 69.3533 248.442 69.524 249.189 69.524C249.978 69.524 250.629 69.268 251.141 68.756C251.664 68.2547 251.925 67.5507 251.925 66.644V64.26C251.69 64.9747 251.274 65.5453 250.677 65.972C250.09 66.3987 249.37 66.612 248.517 66.612C247.738 66.612 247.045 66.4307 246.437 66.068C245.829 65.7053 245.349 65.188 244.997 64.516C244.656 63.8333 244.485 63.0333 244.485 62.116C244.485 61.1987 244.656 60.3987 244.997 59.716C245.349 59.0333 245.829 58.5107 246.437 58.148C247.045 57.7853 247.738 57.604 248.517 57.604ZM248.933 58.9C248.037 58.9 247.317 59.188 246.773 59.764C246.24 60.3293 245.973 61.1133 245.973 62.116C245.973 63.1187 246.24 63.908 246.773 64.484C247.317 65.0493 248.037 65.332 248.933 65.332C249.509 65.332 250.021 65.1987 250.469 64.932C250.928 64.6653 251.285 64.292 251.541 63.812C251.797 63.3213 251.925 62.756 251.925 62.116C251.925 61.476 251.797 60.9107 251.541 60.42C251.285 59.9293 250.928 59.556 250.469 59.3C250.021 59.0333 249.509 58.9 248.933 58.9ZM260.322 57.572C261.346 57.572 262.173 57.9027 262.802 58.564C263.432 59.2147 263.746 60.1587 263.746 61.396V66.5H262.29V61.524C262.29 60.6493 262.066 59.9773 261.618 59.508C261.17 59.0387 260.562 58.804 259.794 58.804C258.994 58.804 258.354 59.0653 257.874 59.588C257.394 60.1 257.154 60.852 257.154 61.844V66.5H255.698V54.66H257.154V59.796C257.378 59.0813 257.773 58.532 258.338 58.148C258.914 57.764 259.576 57.572 260.322 57.572ZM270.172 65.22V66.5H269.084C268.188 66.5 267.516 66.2867 267.068 65.86C266.63 65.4333 266.412 64.7187 266.412 63.716V58.98H265.1V57.716H266.412V55.524H267.884V57.716H270.156V58.98H267.884V63.748C267.884 64.3133 267.985 64.7027 268.188 64.916C268.401 65.1187 268.764 65.22 269.276 65.22H270.172ZM274.7 57.604C275.692 57.604 276.487 57.8653 277.084 58.388C277.692 58.9 278.06 59.5933 278.188 60.468H276.796C276.732 59.9453 276.514 59.5187 276.14 59.188C275.778 58.8467 275.287 58.676 274.668 58.676C274.146 58.676 273.735 58.804 273.436 59.06C273.148 59.3053 273.004 59.6413 273.004 60.068C273.004 60.388 273.1 60.6493 273.292 60.852C273.495 61.044 273.74 61.1933 274.028 61.3C274.327 61.396 274.732 61.5027 275.244 61.62C275.895 61.7693 276.418 61.924 276.812 62.084C277.218 62.2333 277.559 62.4787 277.836 62.82C278.124 63.1613 278.268 63.62 278.268 64.196C278.268 64.9107 277.996 65.492 277.452 65.94C276.919 66.388 276.204 66.612 275.308 66.612C274.263 66.612 273.41 66.3613 272.748 65.86C272.087 65.3587 271.698 64.66 271.58 63.764H272.988C273.042 64.2973 273.271 64.7293 273.676 65.06C274.092 65.3907 274.636 65.556 275.308 65.556C275.81 65.556 276.199 65.428 276.476 65.172C276.764 64.916 276.908 64.58 276.908 64.164C276.908 63.8227 276.807 63.5507 276.604 63.348C276.402 63.1453 276.151 62.9907 275.852 62.884C275.554 62.7773 275.143 62.6653 274.62 62.548C273.97 62.3987 273.447 62.2493 273.052 62.1C272.668 61.9507 272.338 61.716 272.06 61.396C271.794 61.0653 271.66 60.6227 271.66 60.068C271.66 59.332 271.932 58.74 272.476 58.292C273.02 57.8333 273.762 57.604 274.7 57.604ZM290.551 55.22V56.404H285.623V60.308H289.799V61.444H285.623V66.5H284.167V55.22H290.551ZM292.02 55.14C292.02 54.8733 292.111 54.66 292.292 54.5C292.474 54.3293 292.714 54.244 293.012 54.244C293.311 54.244 293.551 54.3293 293.732 54.5C293.914 54.66 294.004 54.8733 294.004 55.14C294.004 55.4067 293.914 55.6253 293.732 55.796C293.551 55.956 293.311 56.036 293.012 56.036C292.714 56.036 292.474 55.956 292.292 55.796C292.111 55.6253 292.02 55.4067 292.02 55.14ZM293.732 57.716V66.5H292.276V57.716H293.732ZM297.529 59.492C297.817 58.884 298.239 58.4147 298.793 58.084C299.348 57.7427 300.009 57.572 300.777 57.572V59.156H300.329C299.508 59.156 298.836 59.3693 298.313 59.796C297.791 60.212 297.529 60.9053 297.529 61.876V66.5H296.073V57.716H297.529V59.492ZM304.966 57.604C305.958 57.604 306.753 57.8653 307.35 58.388C307.958 58.9 308.326 59.5933 308.454 60.468H307.062C306.998 59.9453 306.779 59.5187 306.406 59.188C306.043 58.8467 305.553 58.676 304.934 58.676C304.411 58.676 304.001 58.804 303.702 59.06C303.414 59.3053 303.27 59.6413 303.27 60.068C303.27 60.388 303.366 60.6493 303.558 60.852C303.761 61.044 304.006 61.1933 304.294 61.3C304.593 61.396 304.998 61.5027 305.51 61.62C306.161 61.7693 306.683 61.924 307.078 62.084C307.483 62.2333 307.825 62.4787 308.102 62.82C308.39 63.1613 308.534 63.62 308.534 64.196C308.534 64.9107 308.262 65.492 307.718 65.94C307.185 66.388 306.47 66.612 305.574 66.612C304.529 66.612 303.675 66.3613 303.014 65.86C302.353 65.3587 301.963 64.66 301.846 63.764H303.254C303.307 64.2973 303.537 64.7293 303.942 65.06C304.358 65.3907 304.902 65.556 305.574 65.556C306.075 65.556 306.465 65.428 306.742 65.172C307.03 64.916 307.174 64.58 307.174 64.164C307.174 63.8227 307.073 63.5507 306.87 63.348C306.667 63.1453 306.417 62.9907 306.118 62.884C305.819 62.7773 305.409 62.6653 304.886 62.548C304.235 62.3987 303.713 62.2493 303.318 62.1C302.934 61.9507 302.603 61.716 302.326 61.396C302.059 61.0653 301.926 60.6227 301.926 60.068C301.926 59.332 302.198 58.74 302.742 58.292C303.286 57.8333 304.027 57.604 304.966 57.604ZM314.672 65.22V66.5H313.584C312.688 66.5 312.016 66.2867 311.568 65.86C311.13 65.4333 310.912 64.7187 310.912 63.716V58.98H309.6V57.716H310.912V55.524H312.384V57.716H314.656V58.98H312.384V63.748C312.384 64.3133 312.485 64.7027 312.688 64.916C312.901 65.1187 313.264 65.22 313.776 65.22H314.672ZM327.009 63.892H322.049L321.105 66.5H319.537L323.713 55.428H325.361L329.521 66.5H327.953L327.009 63.892ZM326.593 62.756L324.529 57.06L322.465 62.756H326.593ZM330.739 55.14C330.739 54.8733 330.83 54.66 331.011 54.5C331.192 54.3293 331.432 54.244 331.731 54.244C332.03 54.244 332.27 54.3293 332.451 54.5C332.632 54.66 332.723 54.8733 332.723 55.14C332.723 55.4067 332.632 55.6253 332.451 55.796C332.27 55.956 332.03 56.036 331.731 56.036C331.432 56.036 331.192 55.956 331.011 55.796C330.83 55.6253 330.739 55.4067 330.739 55.14ZM332.451 57.716V66.5H330.995V57.716H332.451ZM338.392 57.604C339.245 57.604 339.965 57.8173 340.552 58.244C341.149 58.6707 341.565 59.2413 341.8 59.956V54.66H343.256V66.5H341.8V64.26C341.565 64.9747 341.149 65.5453 340.552 65.972C339.965 66.3987 339.245 66.612 338.392 66.612C337.613 66.612 336.92 66.4307 336.312 66.068C335.704 65.7053 335.224 65.188 334.872 64.516C334.531 63.8333 334.36 63.0333 334.36 62.116C334.36 61.1987 334.531 60.3987 334.872 59.716C335.224 59.0333 335.704 58.5107 336.312 58.148C336.92 57.7853 337.613 57.604 338.392 57.604ZM338.808 58.9C337.912 58.9 337.192 59.188 336.648 59.764C336.115 60.3293 335.848 61.1133 335.848 62.116C335.848 63.1187 336.115 63.908 336.648 64.484C337.192 65.0493 337.912 65.332 338.808 65.332C339.384 65.332 339.896 65.1987 340.344 64.932C340.803 64.6653 341.16 64.292 341.416 63.812C341.672 63.3213 341.8 62.756 341.8 62.116C341.8 61.476 341.672 60.9107 341.416 60.42C341.16 59.9293 340.803 59.556 340.344 59.3C339.896 59.0333 339.384 58.9 338.808 58.9Z" fill="#062B65"/>
</svg>
