<svg width="119" height="57" viewBox="0 0 119 57" fill="none" xmlns="http://www.w3.org/2000/svg">
<path d="M53.2147 1.65233C50.3178 -1.76474 47.6898 2.35486 47.8075 4.61418Z" fill="#27335B"/>
<path d="M53.2144 1.65244C52.6596 1.20282 52.0881 0.792548 51.4549 0.652044C49.3761 0.320452 48.1042 2.85516 47.8072 4.61428C47.6783 3.90613 47.8016 3.15303 48.0706 2.47299C49.0511 -0.0561007 51.6399 -0.865408 53.2144 1.65244Z" fill="white"/>
<path d="M58.005 7.93579L57.7976 7.90769C58.1114 6.80051 58.414 5.68772 58.7222 4.58054C58.9239 3.84991 59.0864 1.62432 56.2175 1.14098L56.1951 1.43323C56.0214 1.01172 55.7244 0.590201 55.2593 0.185547C55.2593 0.185547 49.0397 3.54642 47.8462 3.78247C46.6527 4.02414 43.7782 11.7013 44.0191 13.3761C44.2601 15.051 45.6945 19.8562 50.7151 26.3307C55.7356 32.8108 50.2388 56.5561 50.2388 56.5561L70.0913 56.7977C70.0913 56.7977 64.7681 35.8344 67.6986 28.4888C70.5675 21.2894 73.1787 9.90848 65.7879 5.45729C65.0707 5.02453 64.2694 5.67647 63.5354 6.82299M56.0046 3.86677H55.9317C55.9598 3.81619 55.9878 3.77123 56.0158 3.72065L56.0046 3.86677Z" fill="#27335B"/>
<path d="M52.3966 6.80029C51.4385 9.779 51.4385 11.7011 51.4385 11.7011C51.4385 11.7011 58.1344 13.1399 59.5688 18.9006" fill="#27335B"/>
<path d="M52.419 6.80592C52.2173 8.00302 51.9708 9.29005 51.7915 10.4815C51.7242 10.8862 51.6402 11.2965 51.601 11.6955L51.4721 11.5325C54.8733 12.6959 58.224 14.0616 59.3783 17.8215C59.4512 18.1587 59.5408 18.5465 59.5968 18.8893L59.5408 18.9006C58.8292 17.1415 57.7534 15.6465 56.3245 14.4157C54.8789 13.2186 53.1923 12.0552 51.276 11.8416C51.1583 10.0937 51.6234 8.3571 52.363 6.78906L52.419 6.80592Z" fill="white"/>
<path d="M56.2179 1.14111C59.0868 1.61883 58.9243 3.84443 58.7226 4.58067C58.0446 7.01984 57.3946 9.47024 56.5765 11.8813C56.3412 12.5726 55.736 13.1402 55.2598 13.1402" fill="#27335B"/>
<path d="M56.2235 1.11284C58.4817 1.1016 59.6864 3.09115 58.689 5.1088C58.1286 6.82858 57.9662 8.64952 57.3834 10.3693C57.064 11.2067 56.8791 12.2408 56.1451 12.8422C55.8985 13.0445 55.5792 13.2075 55.2598 13.1682V13.112C55.5455 13.0501 55.7585 12.8422 55.9378 12.6342C56.4757 11.9317 56.5093 11.0156 56.8119 10.1895C57.1761 9.04855 57.5403 7.90765 57.9774 6.78362C58.5153 5.26054 59.1597 3.20355 57.7476 1.96711C57.3274 1.6018 56.7839 1.36575 56.2179 1.16904L56.2291 1.11284H56.2235Z" fill="white"/>
<path d="M57.899 8.3295C58.2632 7.26728 58.3473 2.06298 61.6981 3.02404C66.8923 4.51339 61.7429 8.00353 60.9528 13.6125C60.286 15.1805 57.6973 16.046 57.1146 14.3431C56.5318 12.6402 57.4339 9.71207 57.9046 8.3295H57.899Z" fill="#27335B"/>
<path d="M57.8763 8.31808C58.3918 5.31128 58.6888 1.03431 62.9137 3.28239C65.3007 4.52445 63.3844 7.23901 62.684 8.97002C62.0116 10.4987 61.4288 12.0611 61.2215 13.6854C60.6275 15.0792 58.728 16.1807 57.3552 15.1916C55.8143 13.528 57.3272 10.184 57.8819 8.31808H57.8763ZM57.9268 8.33494C57.4337 9.76247 56.0048 15.4389 58.7897 14.9387C59.5629 14.8656 60.4987 13.9889 60.678 13.573C60.9357 11.8757 61.6361 10.3076 62.4262 8.84638C62.9865 7.75044 63.6869 6.67699 63.8718 5.44616C63.9223 5.04713 63.855 4.64248 63.6365 4.32775C63.1882 3.69828 62.359 3.44538 61.5969 3.24305C60.8461 3.0351 60.084 3.19247 59.5685 3.77135C58.4927 4.99093 58.2966 6.78377 57.9268 8.33494Z" fill="white"/>
<path d="M50.9786 6.87912C51.7071 7.25567 52.6708 6.61497 53.3208 6.27776C55.4052 5.09752 57.6073 2.27056 55.1643 0.29225L55.3268 0.309111C54.1501 0.949813 52.9734 1.57927 51.7799 2.1975C50.508 2.82696 49.2584 3.54072 47.8688 3.99034C47.6951 4.06902 47.5494 4.23763 47.4262 4.40623C46.1374 6.32272 45.381 8.58203 44.703 10.7739C44.3163 12.0328 44.0474 13.3086 44.5236 14.5788C45.8404 19.0918 48.5244 22.9922 51.2644 26.7577C53.4777 30.9785 53.0182 36.076 52.7661 40.6846C52.3346 46.035 51.4549 51.3405 50.3399 56.5897L50.2334 56.4548L70.0859 56.5953L69.8841 56.8539C68.0463 49.1261 66.3765 41.2129 66.5558 33.2097C66.6286 31.608 66.8191 29.9837 67.3963 28.4326C68.5618 25.4932 69.4975 22.4527 69.985 19.3335C70.4445 16.2536 70.5341 12.9939 69.3854 10.0601C68.8027 8.62138 67.8894 7.31187 66.6678 6.35082C66.1243 5.98551 65.5136 5.22678 64.8188 5.68764C62.88 6.97466 60.5827 13.6233 61.4904 15.8096C63.5412 18.1588 65.917 11.6788 66.6006 10.3074C66.7967 9.95898 66.8752 9.50937 67.2114 9.26208C66.8752 9.796 66.4829 10.8133 66.214 11.4371C65.5192 12.8815 63.8998 17.5069 61.7482 16.3885C61.3615 16.1862 61.0982 15.7759 61.0421 15.3487C60.8124 12.533 61.8322 9.73979 63.0537 7.23881C63.586 6.36206 64.3537 4.90081 65.6256 5.15372C67.5476 6.12039 69.01 7.89075 69.8393 9.86344C71.072 12.8871 71.0216 16.2424 70.5453 19.4121C70.0522 22.5876 69.1109 25.6674 67.9398 28.6405C67.4019 30.0793 67.217 31.6585 67.1385 33.2266C66.92 41.1511 68.5505 49.0362 70.2764 56.7358L70.338 57H70.0746L50.2222 56.6572H50.0877C51.7799 48.8001 53.1415 40.6958 52.4803 32.6477C52.2338 29.9837 51.5165 27.3984 49.7011 25.3808C47.1572 21.8513 44.759 18.0127 43.8232 13.702C43.6271 12.6792 44.0025 11.6113 44.2547 10.639C45.056 8.28416 45.7956 5.63143 47.4654 3.74305C50.0877 2.72579 52.6652 1.37133 55.1811 0.0505817L55.2708 0L55.3436 0.0674423C56.9405 1.39381 56.722 3.35526 55.3884 4.7603C54.3686 5.85062 53.0519 6.78919 51.5614 7.05334C51.3485 7.0702 51.1075 7.0702 50.9282 6.91284L50.9674 6.8735L50.9786 6.87912Z" fill="white"/>
<path d="M51.2757 26.2573C44.8543 26.5327 38.1248 26.6002 31.709 26.5946C25.1644 26.6058 18.6253 26.2011 12.0863 26.1562C8.73553 23.6271 3.88308 20.1145 0.414643 17.6472L0 17.3493L0.40904 17.0234C3.61972 14.4156 8.6851 10.4702 11.9742 7.89055C17.4823 7.82873 23.5002 7.87931 29.0306 7.96924C31.8379 8.00858 34.6507 8.05354 37.458 8.13222C40.2652 8.19966 43.0781 8.28959 45.8853 8.40761V8.52001C43.0781 8.63804 40.2652 8.72796 37.458 8.7954C32.0228 8.93591 26.0609 9.02021 20.6033 9.05393C17.796 9.06517 14.9832 9.07079 12.1759 9.04269L12.529 8.92467C9.26224 11.42 4.15764 15.2249 0.88532 17.6472V17.0234C4.07919 19.5749 9.29025 23.5878 12.1479 25.8133C21.9313 25.7403 31.7146 25.3975 41.498 25.774L46.3896 25.9258C48.0202 26.0044 49.6507 26.055 51.2813 26.1562V26.2686L51.2757 26.2573Z" fill="#27335B"/>
<path d="M66.1465 43.8827C79.6784 43.2139 93.2216 43.2308 106.765 43.523C109.987 41.0333 114.536 37.6724 118.083 34.8286V35.3119C114.172 32.4456 110.272 29.5625 106.412 26.6287L106.737 26.7411C96.8525 26.8648 86.9627 26.8029 77.0785 26.5669C64.2302 26.2578 63.922 26.1566 77.0785 25.8419C87.0243 25.6058 96.9702 25.5496 106.922 25.6677C110.793 28.6857 114.632 31.7487 118.448 34.8342L118.761 35.0871L118.442 35.3175C114.542 38.0714 110.586 41.1176 106.765 43.922C96.6116 44.2143 86.4584 44.4841 76.3052 44.2536C72.9209 44.2087 69.5365 44.1356 66.1465 44.0007V43.8883V43.8827Z" fill="#27335B"/>
<path d="M77.3 36.52V39H75.59V31.93H78.36C79.2 31.93 79.84 32.14 80.28 32.56C80.72 32.9733 80.94 33.5333 80.94 34.24C80.94 34.68 80.84 35.0733 80.64 35.42C80.4467 35.76 80.1567 36.03 79.77 36.23C79.3833 36.4233 78.9133 36.52 78.36 36.52H77.3ZM78.17 35.15C78.8567 35.15 79.2 34.8467 79.2 34.24C79.2 33.62 78.8567 33.31 78.17 33.31H77.3V35.15H78.17ZM86.8614 37.01C86.8614 37.3833 86.7647 37.7267 86.5714 38.04C86.3847 38.3533 86.1047 38.6033 85.7314 38.79C85.3647 38.9767 84.9181 39.07 84.3914 39.07C83.5981 39.07 82.9447 38.8767 82.4314 38.49C81.9181 38.1033 81.6381 37.5633 81.5914 36.87H83.4114C83.4381 37.1367 83.5314 37.3467 83.6914 37.5C83.8581 37.6533 84.0681 37.73 84.3214 37.73C84.5414 37.73 84.7147 37.67 84.8414 37.55C84.9681 37.43 85.0314 37.27 85.0314 37.07C85.0314 36.89 84.9714 36.74 84.8514 36.62C84.7381 36.5 84.5947 36.4033 84.4214 36.33C84.2481 36.25 84.0081 36.1567 83.7014 36.05C83.2547 35.8967 82.8881 35.75 82.6014 35.61C82.3214 35.4633 82.0781 35.25 81.8714 34.97C81.6714 34.6833 81.5714 34.3133 81.5714 33.86C81.5714 33.44 81.6781 33.0767 81.8914 32.77C82.1047 32.4633 82.3981 32.23 82.7714 32.07C83.1514 31.9033 83.5847 31.82 84.0714 31.82C84.8581 31.82 85.4814 32.0067 85.9414 32.38C86.4081 32.7533 86.6714 33.2667 86.7314 33.92H84.8814C84.8481 33.6867 84.7614 33.5033 84.6214 33.37C84.4881 33.23 84.3047 33.16 84.0714 33.16C83.8714 33.16 83.7081 33.2133 83.5814 33.32C83.4614 33.4267 83.4014 33.5833 83.4014 33.79C83.4014 33.9567 83.4547 34.1 83.5614 34.22C83.6747 34.3333 83.8147 34.4267 83.9814 34.5C84.1481 34.5733 84.3881 34.6667 84.7014 34.78C85.1547 34.9333 85.5247 35.0867 85.8114 35.24C86.0981 35.3867 86.3447 35.6033 86.5514 35.89C86.7581 36.1767 86.8614 36.55 86.8614 37.01ZM94.1668 35.45C94.1668 36.1433 94.0168 36.76 93.7168 37.3C93.4235 37.8333 92.9968 38.25 92.4368 38.55C91.8835 38.85 91.2301 39 90.4768 39H87.8068V31.93H90.4768C91.2368 31.93 91.8935 32.0767 92.4468 32.37C93.0001 32.6633 93.4235 33.0767 93.7168 33.61C94.0168 34.1433 94.1668 34.7567 94.1668 35.45ZM90.3268 37.47C90.9935 37.47 91.5101 37.2933 91.8768 36.94C92.2501 36.5867 92.4368 36.09 92.4368 35.45C92.4368 34.81 92.2501 34.3133 91.8768 33.96C91.5101 33.6067 90.9935 33.43 90.3268 33.43H89.5168V37.47H90.3268ZM101.251 31.93V39H99.5308V36.05H96.8508V39H95.1408V31.93H96.8508V34.67H99.5308V31.93H101.251Z" fill="#27335B"/>
<path d="M15.3 15.29V16.77H17.69V18.06H15.3V19.63H17.99V21H13.59V13.93H17.99V15.29H15.3ZM25.0711 13.93V21H23.3511V18.05H20.6711V21H18.9611V13.93H20.6711V16.67H23.3511V13.93H25.0711ZM30.4863 17.36C30.9129 17.46 31.2496 17.6667 31.4963 17.98C31.7496 18.2933 31.8763 18.6567 31.8763 19.07C31.8763 19.6767 31.6729 20.15 31.2663 20.49C30.8663 20.83 30.2896 21 29.5363 21H26.2463V13.93H29.4563C30.1763 13.93 30.7329 14.0867 31.1263 14.4C31.5196 14.7133 31.7163 15.16 31.7163 15.74C31.7163 16.1667 31.6029 16.5233 31.3763 16.81C31.1496 17.09 30.8529 17.2733 30.4863 17.36ZM27.9563 16.82H29.0763C29.6696 16.82 29.9663 16.5667 29.9663 16.06C29.9663 15.5533 29.6629 15.3 29.0563 15.3H27.9563V16.82ZM29.1763 19.61C29.8096 19.61 30.1263 19.35 30.1263 18.83C30.1263 18.5767 30.0429 18.38 29.8763 18.24C29.7096 18.0933 29.4729 18.02 29.1663 18.02H27.9563V19.61H29.1763ZM40.7295 13.98V21H39.0195V16.61L37.4995 21H36.0195L34.4895 16.6V21H32.7795V13.98H34.8695L36.7795 18.87L38.6495 13.98H40.7295Z" fill="#27335B"/>
</svg>
